<?xml version="1.0" encoding="UTF-8" standalone="no" ?>
<!DOCTYPE svg PUBLIC "-//W3C//DTD SVG 1.1//EN" "http://www.w3.org/Graphics/SVG/1.1/DTD/svg11.dtd">
<svg xmlns="http://www.w3.org/2000/svg" xmlns:xlink="http://www.w3.org/1999/xlink" version="1.1" width="1201" height="901" viewBox="0 0 696.58 522.58" xml:space="preserve">
<desc>Created with Fabric.js 2.3.3</desc>
<defs>
</defs>
<rect x="-201.135" y="-89.395" rx="0" ry="0" width="402.27" height="178.79" style="stroke: none; stroke-width: 1; stroke-dasharray: none; stroke-linecap: butt; stroke-linejoin: miter; stroke-miterlimit: 4; fill: rgb(23,28,48); fill-rule: nonzero; opacity: 1;" transform="translate(351.75 254.41) scale(1.74 1.74)"/>
<g transform="translate(349.2 254.98) scale(1.71 1.84)" style="">
	<path d="M 73.038 26.204 H 69.32 c -1.563 0 -2.83 -1.267 -2.83 -2.83 v -3.718 c 0 -0.325 -0.264 -0.589 -0.589 -0.589 c -0.325 0 -0.589 0.264 -0.589 0.589 v 3.718 c 0 1.563 -1.267 2.83 -2.83 2.83 h -3.718 c -0.325 0 -0.589 0.264 -0.589 0.589 c 0 0.325 0.264 0.589 0.589 0.589 h 3.718 c 1.563 0 2.83 1.267 2.83 2.83 v 3.718 c 0 0.325 0.264 0.589 0.589 0.589 c 0.325 0 0.589 -0.264 0.589 -0.589 v -3.718 c 0 -1.563 1.267 -2.83 2.83 -2.83 h 3.718 c 0.325 0 0.589 -0.264 0.589 -0.589 C 73.627 26.467 73.363 26.204 73.038 26.204 z" style="stroke: none; stroke-width: 1; stroke-dasharray: none; stroke-linecap: butt; stroke-linejoin: miter; stroke-miterlimit: 4; fill: rgb(66,75,106); fill-rule: nonzero; opacity: 1;" transform="translate(-137.76 -62.6) translate(-65.901, -26.793) " stroke-linecap="round" />
	<path d="M 83.112 36.4 h -3.718 c -1.563 0 -2.83 -1.267 -2.83 -2.83 v -3.718 c 0 -0.325 -0.264 -0.589 -0.589 -0.589 c -0.325 0 -0.589 0.264 -0.589 0.589 v 3.718 c 0 1.563 -1.267 2.83 -2.83 2.83 h -3.718 c -0.325 0 -0.589 0.264 -0.589 0.589 c 0 0.325 0.264 0.589 0.589 0.589 h 3.718 c 1.563 0 2.83 1.267 2.83 2.83 v 3.718 c 0 0.325 0.264 0.589 0.589 0.589 c 0.325 0 0.589 -0.264 0.589 -0.589 v -3.718 c 0 -1.563 1.267 -2.83 2.83 -2.83 h 3.718 c 0.325 0 0.589 -0.264 0.589 -0.589 C 83.701 36.663 83.438 36.4 83.112 36.4 z" style="stroke: none; stroke-width: 1; stroke-dasharray: none; stroke-linecap: butt; stroke-linejoin: miter; stroke-miterlimit: 4; fill: rgb(66,75,106); fill-rule: nonzero; opacity: 1;" transform="translate(-127.69 -52.4) translate(-75.975, -36.989) " stroke-linecap="round" />
	<path d="M 117.232 16.256 c -1.162 -0.537 -2.355 -0.908 -3.557 -1.153 l 12.734 13.247 C 125.576 23.227 122.297 18.597 117.232 16.256 z" style="stroke: none; stroke-width: 1; stroke-dasharray: none; stroke-linecap: butt; stroke-linejoin: miter; stroke-miterlimit: 4; fill: rgb(0,171,235); fill-rule: nonzero; opacity: 1;" transform="translate(-83.62 -67.67) translate(-120.042, -21.7265) " stroke-linecap="round" />
	<path d="M 103.668 45.602 c 1.159 0.535 2.349 0.906 3.547 1.152 L 94.493 33.519 C 95.328 38.636 98.606 43.262 103.668 45.602 z" style="stroke: none; stroke-width: 1; stroke-dasharray: none; stroke-linecap: butt; stroke-linejoin: miter; stroke-miterlimit: 4; fill: rgb(0,171,235); fill-rule: nonzero; opacity: 1;" transform="translate(-102.81 -49.26) translate(-100.854, -40.1365) " stroke-linecap="round" />
	<path d="M 98.164 20.443 l 22.279 23.177 c 0.829 -0.651 1.596 -1.388 2.293 -2.205 l -22.279 -23.177 C 99.628 18.889 98.86 19.626 98.164 20.443 z" style="stroke: none; stroke-width: 1; stroke-dasharray: none; stroke-linecap: butt; stroke-linejoin: miter; stroke-miterlimit: 4; fill: rgb(0,171,235); fill-rule: nonzero; opacity: 1;" transform="translate(-93.21 -58.46) translate(-110.45, -30.929000000000006) " stroke-linecap="round" />
	<path d="M 95.777 24.146 c -0.111 0.24 -0.195 0.485 -0.293 0.728 l 20.437 21.26 c 1.02 -0.367 2.004 -0.833 2.934 -1.398 L 96.997 21.999 C 96.548 22.678 96.129 23.385 95.777 24.146 z" style="stroke: none; stroke-width: 1; stroke-dasharray: none; stroke-linecap: butt; stroke-linejoin: miter; stroke-miterlimit: 4; fill: rgb(0,171,235); fill-rule: nonzero; opacity: 1;" transform="translate(-96.49 -55.33) translate(-107.1695, -34.0665) " stroke-linecap="round" />
	<path d="M 94.292 30.54 l 15.903 16.544 c 1.227 0.019 2.44 -0.11 3.626 -0.364 L 94.798 26.93 C 94.491 28.128 94.321 29.337 94.292 30.54 z" style="stroke: none; stroke-width: 1; stroke-dasharray: none; stroke-linecap: butt; stroke-linejoin: miter; stroke-miterlimit: 4; fill: rgb(0,171,235); fill-rule: nonzero; opacity: 1;" transform="translate(-99.6 -52.39) translate(-104.0565, -37.00791776040021) " stroke-linecap="round" />
	<path d="M 104.973 15.725 c -1.018 0.367 -2 0.832 -2.928 1.396 l 21.857 22.737 c 0.45 -0.679 0.868 -1.386 1.221 -2.147 c 0.11 -0.238 0.193 -0.481 0.29 -0.722 L 104.973 15.725 z" style="stroke: none; stroke-width: 1; stroke-dasharray: none; stroke-linecap: butt; stroke-linejoin: miter; stroke-miterlimit: 4; fill: rgb(0,171,235); fill-rule: nonzero; opacity: 1;" transform="translate(-89.93 -61.6) translate(-113.72900000000001, -27.7915) " stroke-linecap="round" />
	<path d="M 126.607 31.325 l -15.911 -16.552 c -1.226 -0.018 -2.44 0.111 -3.625 0.366 L 126.1 34.933 C 126.407 33.736 126.578 32.528 126.607 31.325 z" style="stroke: none; stroke-width: 1; stroke-dasharray: none; stroke-linecap: butt; stroke-linejoin: miter; stroke-miterlimit: 4; fill: rgb(0,171,235); fill-rule: nonzero; opacity: 1;" transform="translate(-86.82 -64.54) translate(-116.839, -24.8521710437307) " stroke-linecap="round" />
	<path d="M 126.1 34.933 l -19.028 -19.794 c -0.712 0.153 -1.415 0.34 -2.099 0.586 l 20.44 21.264 C 125.688 36.31 125.922 35.625 126.1 34.933 z" style="stroke: none; stroke-width: 1; stroke-dasharray: none; stroke-linecap: butt; stroke-linejoin: miter; stroke-miterlimit: 4; fill: rgb(23,28,48); fill-rule: nonzero; opacity: 1;" transform="translate(-88.12 -63.33) translate(-115.53649999999999, -26.064) " stroke-linecap="round" />
	<path d="M 100.456 18.238 l 22.279 23.177 c 0.418 -0.49 0.805 -1.01 1.166 -1.556 l -21.857 -22.737 C 101.493 17.456 100.967 17.836 100.456 18.238 z" style="stroke: none; stroke-width: 1; stroke-dasharray: none; stroke-linecap: butt; stroke-linejoin: miter; stroke-miterlimit: 4; fill: rgb(23,28,48); fill-rule: nonzero; opacity: 1;" transform="translate(-91.48 -60.12) translate(-112.1785, -29.268500000000003) " stroke-linecap="round" />
	<path d="M 126.409 28.349 l -12.734 -13.247 c -0.991 -0.203 -1.987 -0.314 -2.979 -0.329 l 15.911 16.552 C 126.631 30.324 126.568 29.327 126.409 28.349 z" style="stroke: none; stroke-width: 1; stroke-dasharray: none; stroke-linecap: butt; stroke-linejoin: miter; stroke-miterlimit: 4; fill: rgb(23,28,48); fill-rule: nonzero; opacity: 1;" transform="translate(-85.01 -66.34) translate(-118.6539710746151, -23.049) " stroke-linecap="round" />
	<path d="M 96.997 21.999 l 21.857 22.737 c 0.552 -0.335 1.078 -0.715 1.589 -1.117 L 98.164 20.443 C 97.746 20.932 97.359 21.453 96.997 21.999 z" style="stroke: none; stroke-width: 1; stroke-dasharray: none; stroke-linecap: butt; stroke-linejoin: miter; stroke-miterlimit: 4; fill: rgb(23,28,48); fill-rule: nonzero; opacity: 1;" transform="translate(-94.94 -56.8) translate(-108.72, -32.5895) " stroke-linecap="round" />
	<path d="M 94.493 33.519 l 12.722 13.235 c 0.992 0.203 1.988 0.316 2.98 0.331 L 94.292 30.54 C 94.269 31.543 94.333 32.54 94.493 33.519 z" style="stroke: none; stroke-width: 1; stroke-dasharray: none; stroke-linecap: butt; stroke-linejoin: miter; stroke-miterlimit: 4; fill: rgb(23,28,48); fill-rule: nonzero; opacity: 1;" transform="translate(-101.42 -50.58) translate(-102.241230115608, -38.8125) " stroke-linecap="round" />
	<path d="M 94.798 26.93 l 19.023 19.789 c 0.712 -0.153 1.415 -0.34 2.099 -0.586 l -20.437 -21.26 C 95.209 25.553 94.976 26.238 94.798 26.93 z" style="stroke: none; stroke-width: 1; stroke-dasharray: none; stroke-linecap: butt; stroke-linejoin: miter; stroke-miterlimit: 4; fill: rgb(23,28,48); fill-rule: nonzero; opacity: 1;" transform="translate(-98.3 -53.6) translate(-105.35900000000001, -35.796) " stroke-linecap="round" />
	<polygon points="-34.24,-36.48 34.24,36.48 34.24,-16.3 -3.51,-16.3 -23.69,-36.48 " style="stroke: none; stroke-width: 1; stroke-dasharray: none; stroke-linecap: butt; stroke-linejoin: miter; stroke-miterlimit: 4; fill: rgb(66,75,106); fill-rule: nonzero; opacity: 1;" transform="translate(126.36 -47.65) "/>
	<polygon points="-69.37,-89.39 98.46,89.39 69.37,89.39 -98.46,-89.39 " style="stroke: none; stroke-width: 1; stroke-dasharray: none; stroke-linecap: butt; stroke-linejoin: miter; stroke-miterlimit: 4; fill: rgb(203,34,124); fill-rule: nonzero; opacity: 1;" transform="translate(149.4 0) "/>
	<polygon points="-33.46,-39.72 41.12,39.72 33.46,39.72 -41.12,-39.72 " style="stroke: none; stroke-width: 1; stroke-dasharray: none; stroke-linecap: butt; stroke-linejoin: miter; stroke-miterlimit: 4; fill: rgb(203,34,124); fill-rule: nonzero; opacity: 1;" transform="translate(-159.98 -49.67) "/>
	<polygon points="-35.86,-42.26 43.49,42.26 35.86,42.26 -43.49,-42.26 " style="stroke: none; stroke-width: 1; stroke-dasharray: none; stroke-linecap: butt; stroke-linejoin: miter; stroke-miterlimit: 4; fill: rgb(121,44,139); fill-rule: nonzero; opacity: 1;" transform="translate(167.8 47.12) "/>
	<polygon points="-28.34,-28.43 -25.04,-28.43 28.34,28.43 25.04,28.43 " style="stroke: none; stroke-width: 1; stroke-dasharray: none; stroke-linecap: butt; stroke-linejoin: miter; stroke-miterlimit: 4; fill: rgb(255,255,255); fill-rule: nonzero; opacity: 1;" transform="translate(-218.39 -60.96) "/>
	<polygon points="-28.34,-28.43 -25.04,-28.43 28.34,28.43 25.04,28.43 " style="stroke: none; stroke-width: 1; stroke-dasharray: none; stroke-linecap: butt; stroke-linejoin: miter; stroke-miterlimit: 4; fill: rgb(255,255,255); fill-rule: nonzero; opacity: 1;" transform="translate(-201.58 -60.96) "/>
	<polygon points="-28.34,-28.43 -25.04,-28.43 28.34,28.43 25.04,28.43 " style="stroke: none; stroke-width: 1; stroke-dasharray: none; stroke-linecap: butt; stroke-linejoin: miter; stroke-miterlimit: 4; fill: rgb(255,255,255); fill-rule: nonzero; opacity: 1;" transform="translate(-192.99 -60.96) "/>
	<polygon points="-28.34,-28.43 -25.04,-28.43 28.34,28.43 25.04,28.43 " style="stroke: none; stroke-width: 1; stroke-dasharray: none; stroke-linecap: butt; stroke-linejoin: miter; stroke-miterlimit: 4; fill: rgb(255,255,255); fill-rule: nonzero; opacity: 1;" transform="translate(-209.8 -60.96) "/>
	<polygon points="20.47,20.66 -19.27,-20.66 -20.47,20.66 " style="stroke: none; stroke-width: 1; stroke-dasharray: none; stroke-linecap: butt; stroke-linejoin: miter; stroke-miterlimit: 4; fill: rgb(238,193,62); fill-rule: nonzero; opacity: 1;" transform="translate(-79.95 68.73) "/>
	<polygon points="83.91,89.39 -41.42,89.39 -83.91,-89.39 " style="stroke: none; stroke-width: 1; stroke-dasharray: none; stroke-linecap: butt; stroke-linejoin: miter; stroke-miterlimit: 4; fill: rgb(0,171,235); fill-rule: nonzero; opacity: 1;" transform="translate(-168.06 0) "/>
	<polygon points="-22.51,-28.07 30.18,28.07 22.51,28.07 -30.18,-28.07 " style="stroke: none; stroke-width: 1; stroke-dasharray: none; stroke-linecap: butt; stroke-linejoin: miter; stroke-miterlimit: 4; fill: rgb(121,44,139); fill-rule: nonzero; opacity: 1;" transform="translate(-178.41 -61.32) "/>
	<rect x="-0.475" y="-87.35" rx="0" ry="0" width="0.95" height="174.7" style="stroke: none; stroke-width: 1; stroke-dasharray: none; stroke-linecap: butt; stroke-linejoin: miter; stroke-miterlimit: 4; fill: rgb(23,28,48); fill-rule: nonzero; opacity: 1;" transform="translate(-147.93 33.34) rotate(-43.2)"/>
	<rect x="-0.475" y="-87.35" rx="0" ry="0" width="0.95" height="174.7" style="stroke: none; stroke-width: 1; stroke-dasharray: none; stroke-linecap: butt; stroke-linejoin: miter; stroke-miterlimit: 4; fill: rgb(23,28,48); fill-rule: nonzero; opacity: 1;" transform="translate(-123.9 65.33) rotate(-43.2)"/>
	<rect x="-0.475" y="-87.35" rx="0" ry="0" width="0.95" height="174.7" style="stroke: none; stroke-width: 1; stroke-dasharray: none; stroke-linecap: butt; stroke-linejoin: miter; stroke-miterlimit: 4; fill: rgb(23,28,48); fill-rule: nonzero; opacity: 1;" transform="translate(-176.83 15.7) rotate(-43.2)"/>
	<rect x="-0.475" y="-1.19" rx="0" ry="0" width="0.95" height="2.38" style="stroke: none; stroke-width: 1; stroke-dasharray: none; stroke-linecap: butt; stroke-linejoin: miter; stroke-miterlimit: 4; fill: rgb(255,255,255); fill-rule: nonzero; opacity: 1;" transform="translate(204.76 -30.96) rotate(-43.19)"/>
	<path d="M 404.061 54.488 l -3.205 -3.414 l 0.695 -0.653 l 3.205 3.414 L 404.061 54.488 z M 397.651 47.66 l -3.205 -3.415 l 0.695 -0.653 l 3.205 3.415 L 397.651 47.66 z M 391.241 40.831 l -3.205 -3.414 l 0.695 -0.653 l 3.205 3.414 L 391.241 40.831 z M 384.831 34.002 l -3.205 -3.414 l 0.695 -0.653 l 3.205 3.414 L 384.831 34.002 z M 378.421 27.174 l -3.205 -3.415 l 0.695 -0.653 l 3.205 3.415 L 378.421 27.174 z M 372.011 20.345 l -3.205 -3.414 l 0.695 -0.653 l 3.205 3.414 L 372.011 20.345 z M 365.6 13.516 l -3.205 -3.414 l 0.695 -0.653 l 3.205 3.414 L 365.6 13.516 z M 359.19 6.687 l -3.204 -3.414 l 0.695 -0.653 l 3.204 3.414 L 359.19 6.687 z M 352.781 -0.141 l -3.205 -3.414 l 0.695 -0.653 l 3.205 3.414 L 352.781 -0.141 z M 346.37 -6.97 l -3.205 -3.414 l 0.695 -0.653 l 3.205 3.414 L 346.37 -6.97 z" style="stroke: none; stroke-width: 1; stroke-dasharray: none; stroke-linecap: butt; stroke-linejoin: miter; stroke-miterlimit: 4; fill: rgb(255,255,255); fill-rule: nonzero; opacity: 1;" transform="translate(170.3 -67.67) translate(-373.9605, -21.725500000000004) " stroke-linecap="round" />
	<rect x="-0.475" y="-1.19" rx="0" ry="0" width="0.95" height="2.38" style="stroke: none; stroke-width: 1; stroke-dasharray: none; stroke-linecap: butt; stroke-linejoin: miter; stroke-miterlimit: 4; fill: rgb(255,255,255); fill-rule: nonzero; opacity: 1;" transform="translate(-87.64 8.03) rotate(-43.19)"/>
	<path d="M 111.588 93.403 l -3.272 -3.485 l 0.696 -0.653 l 3.272 3.485 L 111.588 93.403 z M 105.045 86.433 l -3.271 -3.486 l 0.696 -0.653 l 3.271 3.486 L 105.045 86.433 z M 98.502 79.462 l -3.272 -3.485 l 0.696 -0.653 l 3.272 3.485 L 98.502 79.462 z M 91.958 72.492 l -3.272 -3.486 l 0.696 -0.653 l 3.272 3.486 L 91.958 72.492 z M 85.415 65.521 l -3.272 -3.485 l 0.696 -0.653 l 3.272 3.486 L 85.415 65.521 z M 78.871 58.55 L 75.6 55.065 l 0.696 -0.653 l 3.272 3.486 L 78.871 58.55 z M 72.328 51.58 l -3.272 -3.486 l 0.696 -0.653 l 3.272 3.486 L 72.328 51.58 z M 65.785 44.609 l -3.272 -3.485 l 0.696 -0.653 l 3.272 3.485 L 65.785 44.609 z M 59.242 37.638 l -3.271 -3.485 l 0.696 -0.653 l 3.271 3.485 L 59.242 37.638 z M 52.698 30.668 l -3.272 -3.485 l 0.696 -0.653 l 3.272 3.485 L 52.698 30.668 z M 46.155 23.697 l -3.272 -3.485 l 0.696 -0.653 l 3.272 3.485 L 46.155 23.697 z M 39.612 16.727 l -3.272 -3.485 l 0.696 -0.653 l 3.272 3.485 L 39.612 16.727 z M 33.068 9.756 l -3.272 -3.485 l 0.696 -0.653 l 3.272 3.485 L 33.068 9.756 z M 26.525 2.785 L 23.254 -0.7 l 0.696 -0.653 l 3.271 3.485 L 26.525 2.785 z M 19.982 -4.185 L 16.71 -7.671 l 0.696 -0.653 l 3.272 3.485 L 19.982 -4.185 z" style="stroke: none; stroke-width: 1; stroke-dasharray: none; stroke-linecap: butt; stroke-linejoin: miter; stroke-miterlimit: 4; fill: rgb(255,255,255); fill-rule: nonzero; opacity: 1;" transform="translate(-139.16 -46.85) translate(-64.49699999999999, -42.539500000000004) " stroke-linecap="round" />
	<path d="M 397.018 183.242 l -3.271 -3.486 l 0.695 -0.653 l 3.271 3.486 L 397.018 183.242 z M 390.474 176.271 l -3.271 -3.486 l 0.695 -0.653 l 3.271 3.486 L 390.474 176.271 z M 383.931 169.3 l -3.271 -3.486 l 0.695 -0.653 l 3.271 3.485 L 383.931 169.3 z M 377.388 162.33 l -3.272 -3.486 l 0.695 -0.653 l 3.272 3.486 L 377.388 162.33 z M 370.844 155.359 l -3.271 -3.486 l 0.695 -0.653 l 3.271 3.485 L 370.844 155.359 z M 364.301 148.388 l -3.271 -3.485 l 0.695 -0.653 l 3.271 3.485 L 364.301 148.388 z M 357.757 141.418 l -3.271 -3.485 l 0.695 -0.653 l 3.271 3.485 L 357.757 141.418 z M 351.215 134.447 l -3.272 -3.485 l 0.695 -0.653 l 3.272 3.485 L 351.215 134.447 z M 344.671 127.477 l -3.272 -3.485 l 0.695 -0.653 l 3.272 3.485 L 344.671 127.477 z M 338.128 120.506 l -3.271 -3.485 l 0.695 -0.653 l 3.271 3.485 L 338.128 120.506 z M 331.585 113.535 l -3.271 -3.486 l 0.695 -0.653 l 3.271 3.486 L 331.585 113.535 z M 325.041 106.565 l -3.271 -3.485 l 0.695 -0.653 l 3.271 3.485 L 325.041 106.565 z M 318.498 99.594 l -3.272 -3.486 l 0.695 -0.653 l 3.272 3.486 L 318.498 99.594 z M 311.955 92.623 l -3.271 -3.485 l 0.695 -0.653 l 3.271 3.485 L 311.955 92.623 z M 305.411 85.653 l -3.271 -3.485 l 0.695 -0.653 L 306.106 85 L 305.411 85.653 z" style="stroke: none; stroke-width: 1; stroke-dasharray: none; stroke-linecap: butt; stroke-linejoin: miter; stroke-miterlimit: 4; fill: rgb(255,255,255); fill-rule: nonzero; opacity: 1;" transform="translate(146.27 42.99) translate(-349.9265, -132.3785) " stroke-linecap="round" />
	<rect x="-0.475" y="-1.19" rx="0" ry="0" width="0.95" height="2.38" style="stroke: none; stroke-width: 1; stroke-dasharray: none; stroke-linecap: butt; stroke-linejoin: miter; stroke-miterlimit: 4; fill: rgb(255,255,255); fill-rule: nonzero; opacity: 1;" transform="translate(94.74 -11.9) rotate(-43.19)"/>
</g>
	<g transform="translate(348.05 181.1) scale(1.67 1.67)">
		<text xml:space="preserve" font-family="Roboto" font-size="16" font-style="normal" font-weight="bold" style="stroke: none; stroke-width: 1; stroke-dasharray: none; stroke-linecap: butt; stroke-linejoin: miter; stroke-miterlimit: 4; fill: rgb(255,255,255); fill-rule: nonzero; opacity: 1; white-space: pre;" ><tspan x="-65.78" y="5.03" >NEW YEAR PARTY</tspan></text>
	</g>
<path d="M 108.999 154.999 L 109.001 155.001" style="stroke: rgb(79,84,103); stroke-width: 1; stroke-dasharray: none; stroke-linecap: round; stroke-linejoin: round; stroke-miterlimit: 10; fill: none; fill-rule: nonzero; opacity: 1;" transform="translate(377.96 442) scale(3.45 3.45) translate(-109, -155) " stroke-linecap="round" />
<path d="M 99.999 107.66566666666665 L 100.001 107.66766666666666" style="stroke: rgb(79,84,103); stroke-width: 1; stroke-dasharray: none; stroke-linecap: round; stroke-linejoin: round; stroke-miterlimit: 10; fill: none; fill-rule: nonzero; opacity: 1;" transform="translate(346.91 278.7) scale(3.45 3.45) translate(-100, -107.66666666666666) " stroke-linecap="round" />
	<g transform="translate(359.25 320.25) scale(0.87 0.87)">
		<text xml:space="preserve" font-family="Oswald" font-size="16" font-style="normal" font-weight="bold" style="stroke: none; stroke-width: 1; stroke-dasharray: none; stroke-linecap: butt; stroke-linejoin: miter; stroke-miterlimit: 4; fill: rgb(79,84,103); fill-rule: nonzero; opacity: 1; white-space: pre;" ><tspan x="-151.23" y="5.03" >DJ PERFOMANCE - BANDS PERFEMANCE - BEER</tspan></text>
	</g>
	<g transform="translate(61.23 361.26) scale(1.5 1.5)">
		<text xml:space="preserve" font-family="ABeeZee" font-size="16" font-style="italic" font-weight="normal" style="stroke: none; stroke-width: 1; stroke-dasharray: none; stroke-linecap: butt; stroke-linejoin: miter; stroke-miterlimit: 4; fill: rgb(255,255,255); fill-rule: nonzero; opacity: 1; white-space: pre;" ><tspan x="-23.77" y="-5.46" >FREE</tspan><tspan x="-23.77" y="15.51" >ENTRY</tspan></text>
	</g>
	<g transform="translate(589.6 361.26) scale(1.5 1.5)">
		<text xml:space="preserve" font-family="ABeeZee" font-size="16" font-style="italic" font-weight="normal" style="stroke: none; stroke-width: 1; stroke-dasharray: none; stroke-linecap: butt; stroke-linejoin: miter; stroke-miterlimit: 4; fill: rgb(255,255,255); fill-rule: nonzero; opacity: 1; white-space: pre;" ><tspan x="-14.12" y="-5.46" >31</tspan><tspan x="-14.12" y="15.51" >DEC</tspan></text>
	</g>
	<g transform="translate(321.66 253.53) scale(8.21 8.21)">
		<text xml:space="preserve" font-family="Amaranth" font-size="16" font-style="normal" font-weight="bold" style="stroke: none; stroke-width: 1; stroke-dasharray: none; stroke-linecap: butt; stroke-linejoin: miter; stroke-miterlimit: 4; fill: rgb(0,171,235); fill-rule: nonzero; opacity: 1; white-space: pre;" ><tspan x="-4" y="5.03" >0</tspan></text>
	</g>
	<g transform="translate(251.64 252.35) scale(8.21 8.21)">
		<text xml:space="preserve" font-family="Amaranth" font-size="16" font-style="normal" font-weight="bold" style="stroke: none; stroke-width: 1; stroke-dasharray: none; stroke-linecap: butt; stroke-linejoin: miter; stroke-miterlimit: 4; fill: rgb(238,193,62); fill-rule: nonzero; opacity: 1; white-space: pre;" ><tspan x="-4" y="5.03" >2</tspan></text>
	</g>
	<g transform="translate(395.22 252.35) scale(8.21 8.21)">
		<text xml:space="preserve" font-family="Amaranth" font-size="16" font-style="normal" font-weight="bold" style="stroke: none; stroke-width: 1; stroke-dasharray: none; stroke-linecap: butt; stroke-linejoin: miter; stroke-miterlimit: 4; fill: rgb(203,34,124); fill-rule: nonzero; opacity: 1; white-space: pre;" ><tspan x="-4" y="5.03" >1</tspan></text>
	</g>
	<g transform="translate(449.51 252.35) scale(8.21 8.21)">
		<text xml:space="preserve" font-family="Amaranth" font-size="16" font-style="normal" font-weight="bold" style="stroke: none; stroke-width: 1; stroke-dasharray: none; stroke-linecap: butt; stroke-linejoin: miter; stroke-miterlimit: 4; fill: rgb(238,193,62); fill-rule: nonzero; opacity: 1; white-space: pre;" ><tspan x="-4" y="5.03" >8</tspan></text>
	</g>
</svg>