<?xml version="1.0" encoding="UTF-8" standalone="no" ?>
<!DOCTYPE svg PUBLIC "-//W3C//DTD SVG 1.1//EN" "http://www.w3.org/Graphics/SVG/1.1/DTD/svg11.dtd">
<svg xmlns="http://www.w3.org/2000/svg" xmlns:xlink="http://www.w3.org/1999/xlink" version="1.1" width="284" height="213" viewBox="0 0 284 213" xml:space="preserve">
<desc>Created with Fabric.js 2.3.3</desc>
<defs>
</defs>
<rect x="0" y="0" width="100%" height="100%" fill="#ffffff"></rect>
<g transform="translate(146.06 80.16) scale(1.3 1.31)" style="">
	<path d="m 100 122.9 c -5.6 0 -11 -0.6 -15 -1.8 l -68.9 -19.4 c -9 -2.5 -16.1 -10.8 -16.1 -18.9 v -30.5 c 0 -8.1 7.1 -16.4 16.1 -19 l 68.9 -19.4 c 3.9 -1.1 9.4 -1.8 15 -1.8 s 11 0.6 15 1.8 l 68.9 19.4 c 9 2.6 16.1 10.9 16.1 19 v 30.5 c 0 8.1 -7.1 16.4 -16.1 19 l -68.9 19.4 c -4 1.1 -9.5 1.7 -15 1.7 z" style="stroke: none; stroke-width: 1; stroke-dasharray: none; stroke-linecap: butt; stroke-linejoin: miter; stroke-miterlimit: 4; fill: rgb(255,255,255); fill-rule: nonzero; opacity: 1;" transform="translate(0 6.05) translate(-100, -67.50000000000001) " stroke-linecap="round" />
	<path d="m 100 117.6 c -5.1 0 -10 -0.6 -13.5 -1.5 l -68.9 -19.5 c -6.6 -1.9 -12.3 -8.2 -12.3 -13.9 v -30.4 c 0 -5.6 5.6 -12 12.2 -13.8 l 69 -19.5 c 3.5 -1 8.4 -1.5 13.5 -1.5 s 10 0.6 13.5 1.5 l 68.9 19.4 c 6.6 1.9 12.2 8.2 12.2 13.8 v 30.5 c 0 5.6 -5.6 12 -12.2 13.8 l -68.9 19.5 c -3.5 1 -8.4 1.6 -13.5 1.6 z" style="stroke: none; stroke-width: 1; stroke-dasharray: none; stroke-linecap: butt; stroke-linejoin: miter; stroke-miterlimit: 4; fill: rgb(39,44,51); fill-rule: nonzero; opacity: 1;" transform="translate(-0.05 6.1) translate(-99.95, -67.54999999999998) " stroke-linecap="round" />
	<circle cx="0" cy="0" r="20" style="stroke: none; stroke-width: 1; stroke-dasharray: none; stroke-linecap: butt; stroke-linejoin: miter; stroke-miterlimit: 4; fill: rgb(255,255,255); fill-rule: nonzero; opacity: 1;" transform="translate(0 -41.45) "/>
	<circle cx="0" cy="0" r="17.7" style="stroke: none; stroke-width: 1; stroke-dasharray: none; stroke-linecap: butt; stroke-linejoin: miter; stroke-miterlimit: 4; fill: rgb(39,44,51); fill-rule: nonzero; opacity: 1;" transform="translate(0 -41.45) "/>
	<circle cx="0" cy="0" r="15.3" style="stroke: none; stroke-width: 1; stroke-dasharray: none; stroke-linecap: butt; stroke-linejoin: miter; stroke-miterlimit: 4; fill: rgb(255,255,255); fill-rule: nonzero; opacity: 1;" transform="translate(0 -41.45) "/>
</g>
	<g transform="translate(146.07 62.23) scale(1.17 1.17)">
		<text xml:space="preserve" font-family="Yellowtail" font-size="20" font-style="normal" font-weight="normal" style="stroke: none; stroke-width: 1; stroke-dasharray: none; stroke-linecap: butt; stroke-linejoin: miter; stroke-miterlimit: 4; fill: rgb(255,255,255); fill-rule: nonzero; opacity: 1; white-space: pre;" ><tspan x="-40.28" y="6.28" >Springsteen</tspan></text>
	</g>
	<g transform="translate(145.9 29.98) scale(1.73 1.73)">
		<text xml:space="preserve" font-family="Anton" font-size="20" font-style="normal" font-weight="normal" style="stroke: none; stroke-width: 1; stroke-dasharray: none; stroke-linecap: butt; stroke-linejoin: miter; stroke-miterlimit: 4; fill: rgb(39,44,51); fill-rule: nonzero; opacity: 1; white-space: pre;" ><tspan x="-4.61" y="6.28" >S</tspan></text>
	</g>
	<g transform="translate(146.24 125.68) scale(0.51 0.51)">
		<text xml:space="preserve" font-family="Tauri" font-size="20" font-style="normal" font-weight="normal" style="stroke: none; stroke-width: 1; stroke-dasharray: none; stroke-linecap: butt; stroke-linejoin: miter; stroke-miterlimit: 4; fill: rgb(255,255,255); fill-rule: nonzero; opacity: 1; white-space: pre;" ><tspan x="-51.88" y="6.28" >SINCE 1932</tspan></text>
	</g>
	<g transform="translate(145.98 99.89) scale(1.95 1.95)">
		<text xml:space="preserve" font-family="Anton" font-size="20" font-style="normal" font-weight="normal" style="stroke: none; stroke-width: 1; stroke-dasharray: none; stroke-linecap: butt; stroke-linejoin: miter; stroke-miterlimit: 4; fill: rgb(255,255,255); fill-rule: nonzero; opacity: 1; white-space: pre;" ><tspan x="-54.93" y="6.28" >MACHINE SHOP</tspan></text>
	</g>
</svg>