<?xml version="1.0" encoding="UTF-8" standalone="no" ?>
<!DOCTYPE svg PUBLIC "-//W3C//DTD SVG 1.1//EN" "http://www.w3.org/Graphics/SVG/1.1/DTD/svg11.dtd">
<svg xmlns="http://www.w3.org/2000/svg" xmlns:xlink="http://www.w3.org/1999/xlink" version="1.1" width="355" height="355" viewBox="0 0 355 355" xml:space="preserve">
<desc>Created with Fabric.js 2.3.3</desc>
<defs>
</defs>
<g transform="translate(176.79 176.88) scale(1.5 1.5)" style="">
	<rect x="-120.5" y="-71.15" rx="0" ry="0" width="241" height="142.3" style="stroke: none; stroke-width: 1; stroke-dasharray: none; stroke-linecap: butt; stroke-linejoin: miter; stroke-miterlimit: 4; fill: rgb(255,255,255); fill-rule: nonzero; opacity: 1;" transform="translate(0.05 0.2)"/>
	<path d="M 241 -0.1 v 91.9 C 225.6 3.4 117 -0.1 117 -0.1 H 241 z" style="stroke: none; stroke-width: 1; stroke-dasharray: none; stroke-linecap: butt; stroke-linejoin: miter; stroke-miterlimit: 4; fill: rgb(145,188,77); fill-rule: nonzero; opacity: 1;" transform="translate(58.55 -25) translate(-179, -45.85) " stroke-linecap="round" />
	<path d="M 241 62.5 v 12.5 C 222.6 19.5 163.5 4.1 135.6 -0.1 h 15.9 c 17.9 2.8 41 9.8 61.7 26.2 C 228.5 38.4 236.7 51.3 241 62.5 z" style="stroke: none; stroke-width: 1; stroke-dasharray: none; stroke-linecap: butt; stroke-linejoin: miter; stroke-miterlimit: 4; fill: rgb(214,236,156); fill-rule: nonzero; opacity: 1;" transform="translate(67.85 -33.4) translate(-188.3, -37.449999999999996) " stroke-linecap="round" />
	<path d="M 241 78.7 v 13.2 C 225.6 3.4 117 -0.1 117 -0.1 s 6.5 -0.7 16.7 0 c 18.4 1.2 49 6.6 75.7 27.8 C 231.9 45.7 239 65.2 241 78.7 z" style="stroke: none; stroke-width: 1; stroke-dasharray: none; stroke-linecap: butt; stroke-linejoin: miter; stroke-miterlimit: 4; fill: rgb(56,60,68); fill-rule: nonzero; opacity: 1;" transform="translate(58.55 -25.11) translate(-179, -45.74444444444445) " stroke-linecap="round" />
	<path d="M 0 142.3 V 50.4 c 15.4 88.4 124 91.9 124 91.9 H 0 z" style="stroke: none; stroke-width: 1; stroke-dasharray: none; stroke-linecap: butt; stroke-linejoin: miter; stroke-miterlimit: 4; fill: rgb(145,188,77); fill-rule: nonzero; opacity: 1;" transform="translate(-58.45 25.5) translate(-62, -96.35) " stroke-linecap="round" />
	<path d="M 0 79.7 V 67.2 c 18.4 55.5 77.5 70.9 105.4 75.1 H 89.5 c -17.9 -2.8 -41 -9.8 -61.7 -26.2 C 12.5 103.9 4.3 90.9 0 79.7 z" style="stroke: none; stroke-width: 1; stroke-dasharray: none; stroke-linecap: butt; stroke-linejoin: miter; stroke-miterlimit: 4; fill: rgb(214,236,156); fill-rule: nonzero; opacity: 1;" transform="translate(-67.75 33.9) translate(-52.7, -104.75) " stroke-linecap="round" />
	<path d="M 0 63.6 V 50.4 c 15.4 88.4 124 91.9 124 91.9 s -6.5 0.7 -16.7 0 c -18.4 -1.2 -49 -6.6 -75.7 -27.8 C 9.1 96.6 2 77.1 0 63.6 z" style="stroke: none; stroke-width: 1; stroke-dasharray: none; stroke-linecap: butt; stroke-linejoin: miter; stroke-miterlimit: 4; fill: rgb(56,60,68); fill-rule: nonzero; opacity: 1;" transform="translate(-58.45 25.66) translate(-62, -96.50555555555556) " stroke-linecap="round" />
</g>
<g transform="translate(177.02 131.29) scale(1.82 1.82)" style="">
	<polygon points="0.05,11.2 -12.15,0 0.05,-11.2 12.15,0 " style="stroke: none; stroke-width: 1; stroke-dasharray: none; stroke-linecap: butt; stroke-linejoin: miter; stroke-miterlimit: 4; fill: rgb(145,188,77); fill-rule: nonzero; opacity: 1;" transform="translate(0.05 0.4) "/>
	<path d="M 14.1 25.5 L 0.4 12.9 L 14.1 0.3 l 13.7 12.6 L 14.1 25.5 z M 3.5 12.9 l 10.6 9.8 l 10.6 -9.8 L 14.1 3.1 L 3.5 12.9 z" style="stroke: none; stroke-width: 1; stroke-dasharray: none; stroke-linecap: butt; stroke-linejoin: miter; stroke-miterlimit: 4; fill: rgb(58,60,68); fill-rule: nonzero; opacity: 1;" transform="translate(0.1 0.4) translate(-14.1, -12.9) " stroke-linecap="round" />
	<rect x="-3.55" y="-3.25" rx="0" ry="0" width="7.1" height="6.5" style="stroke: none; stroke-width: 1; stroke-dasharray: none; stroke-linecap: butt; stroke-linejoin: miter; stroke-miterlimit: 4; fill: rgb(214,236,156); fill-rule: nonzero; opacity: 1;" transform="translate(0.05 0.45)"/>
</g>
<g transform="translate(182.4 188.57) scale(0.46 0.27)" style="">
	<rect x="-254.5" y="-1.25" rx="0" ry="0" width="509" height="2.5" style="stroke: none; stroke-width: 1; stroke-dasharray: none; stroke-linecap: butt; stroke-linejoin: miter; stroke-miterlimit: 10; fill: rgb(64,71,98); fill-rule: nonzero; opacity: 1;" transform="translate(-1.4 17.6)"/>
</g>
	<g transform="translate(181.04 177.01) scale(1.82 1.82)">
		<text xml:space="preserve" font-family="Raleway" font-size="16" font-style="normal" font-weight="bold" style="stroke: none; stroke-width: 1; stroke-dasharray: none; stroke-linecap: butt; stroke-linejoin: miter; stroke-miterlimit: 4; fill: rgb(64,71,98); fill-rule: nonzero; opacity: 1; white-space: pre;" ><tspan x="-64.91" y="5.03" >COMPANY NAME</tspan></text>
	</g>
	<g transform="translate(176.81 213.06) scale(1.33 1.33)">
		<text xml:space="preserve" font-family="Raleway" font-size="16" font-style="normal" font-weight="normal" style="stroke: none; stroke-width: 1; stroke-dasharray: none; stroke-linecap: butt; stroke-linejoin: miter; stroke-miterlimit: 4; fill: rgb(64,71,98); fill-rule: nonzero; opacity: 1; white-space: pre;" ><tspan x="-45.64" y="5.03" >Slogan Here</tspan></text>
	</g>
</svg>