<?xml version="1.0" encoding="UTF-8" standalone="no" ?>
<!DOCTYPE svg PUBLIC "-//W3C//DTD SVG 1.1//EN" "http://www.w3.org/Graphics/SVG/1.1/DTD/svg11.dtd">
<svg xmlns="http://www.w3.org/2000/svg" xmlns:xlink="http://www.w3.org/1999/xlink" version="1.1" width="1201" height="901" viewBox="0 0 685.57 514.32" xml:space="preserve">
<desc>Created with Fabric.js 2.3.3</desc>
<defs>
</defs>
<rect x="-208.575" y="-78.215" rx="0" ry="0" width="417.15" height="156.43" style="stroke: none; stroke-width: 1; stroke-dasharray: none; stroke-linecap: butt; stroke-linejoin: miter; stroke-miterlimit: 4; fill: rgb(214,50,79); fill-rule: nonzero; opacity: 1;" transform="translate(343.71 257.11) rotate(-180) scale(1.64 1.78)"/>
<g transform="translate(359.79 246.96) scale(1.64 1.85)" style="">
	<path d="M 417.152 70.813 c 0 0 -175.48 94.515 -305.48 49.848 C 111.672 120.66 6.828 78.216 0 0 v 156.432 h 417.152 V 70.813 z" style="stroke: none; stroke-width: 1; stroke-dasharray: none; stroke-linecap: butt; stroke-linejoin: miter; stroke-miterlimit: 4; fill: rgb(158,22,46); fill-rule: nonzero; opacity: 1;" transform="translate(0 0) translate(-208.576, -78.216) " stroke-linecap="round" />
	<path d="M 95.751 127.908 c 117.487 -64.096 42.013 -136.793 0 -97.944 C 53.738 -8.885 -21.736 63.813 95.751 127.908 z" style="stroke: none; stroke-width: 1; stroke-dasharray: none; stroke-linecap: butt; stroke-linejoin: miter; stroke-miterlimit: 4; fill: rgb(235,228,228); fill-rule: nonzero; opacity: 1;" transform="translate(-112.83 -4.73) translate(-95.75099999999998, -73.48950398718173) " stroke-linecap="round" />
	<path d="M 93.99 124.813 c 106.832 -55.858 38.202 -119.212 0 -85.356 C 55.788 5.601 -12.842 68.955 93.99 124.813 z" style="stroke: none; stroke-width: 1; stroke-dasharray: none; stroke-linecap: butt; stroke-linejoin: miter; stroke-miterlimit: 4; fill: rgb(254,246,246); fill-rule: nonzero; opacity: 1;" transform="translate(-114.59 -0.83) translate(-93.99, -77.38851735975487) " stroke-linecap="round" />
	<path d="M 60.716 41.235 c 0 0 -19.728 15.364 0.893 40.198 l 2.621 -2.635 l 4.043 0.553 c 0 0 -5.766 -2.918 -6.136 -14.899 L 60.716 41.235 z" style="stroke: none; stroke-width: 1; stroke-dasharray: none; stroke-linecap: butt; stroke-linejoin: miter; stroke-miterlimit: 4; fill: rgb(158,22,65); fill-rule: nonzero; opacity: 1;" transform="translate(-148.34 -16.88) translate(-60.23986118214626, -61.333999999999996) " stroke-linecap="round" />
	<path d="M 79.813 51.237 c 0 0 10.836 -3.149 13.222 7.089 c 2.116 9.079 -3.669 16.209 -3.669 16.209 L 79.813 51.237 z" style="stroke: none; stroke-width: 1; stroke-dasharray: none; stroke-linecap: butt; stroke-linejoin: miter; stroke-miterlimit: 4; fill: rgb(158,22,65); fill-rule: nonzero; opacity: 1;" transform="translate(-121.92 -15.56) translate(-86.65672150484227, -62.65760475903946) " stroke-linecap="round" />
	<path d="M 84.841 75.3 c 0 0 12.53 5.974 20.673 16.636 l -3.537 5.491 c 0 0 -10.774 -4.237 -16.415 -10.039 L 84.841 75.3 z" style="stroke: none; stroke-width: 1; stroke-dasharray: none; stroke-linecap: butt; stroke-linejoin: miter; stroke-miterlimit: 4; fill: rgb(245,108,127); fill-rule: nonzero; opacity: 1;" transform="translate(-113.4 8.15) translate(-95.1775, -86.36349999999999) " stroke-linecap="round" />
	<path d="M 77.115 76.888 c 0 0 -12.165 -1.593 -15.505 4.546 c -3.34 6.138 -2.226 49.184 -2.226 49.184 s 21.123 9.767 36.711 -0.704 c 0 0 -6.509 -45.749 -10.39 -50.973 L 77.115 76.888 z" style="stroke: none; stroke-width: 1; stroke-dasharray: none; stroke-linecap: butt; stroke-linejoin: miter; stroke-miterlimit: 4; fill: rgb(255,126,146); fill-rule: nonzero; opacity: 1;" transform="translate(-130.93 27.51) translate(-77.6503159655131, -105.72981217785875) " stroke-linecap="round" />
	<path d="M 76.844 82.261 c -5.442 -0.515 -11.88 -2.917 -14.092 -11.244 c 0 0 -6.516 0.405 -5.849 -5.597 c 0.667 -6.002 5.235 -0.968 5.235 -0.968 S 62.178 49.565 76.84 47.92 c 14.662 -1.645 17.027 18.939 12.526 26.616 C 84.538 82.77 76.844 82.261 76.844 82.261 z" style="stroke: none; stroke-width: 1; stroke-dasharray: none; stroke-linecap: butt; stroke-linejoin: miter; stroke-miterlimit: 4; fill: rgb(249,208,188); fill-rule: nonzero; opacity: 1;" transform="translate(-134.44 -13.17) translate(-74.13626955764451, -65.04699944764839) " stroke-linecap="round" />
	<path d="M 62.137 64.452 c 13.81 -2.476 17.676 -13.215 17.676 -13.215 s 5.87 8.008 12.361 7.332 c 6.491 -0.676 1.233 -22.578 -13.45 -19.702 c 0 0 -9.326 -5.545 -18.008 2.368 C 50.304 50.725 62.137 64.452 62.137 64.452 z" style="stroke: none; stroke-width: 1; stroke-dasharray: none; stroke-linecap: butt; stroke-linejoin: miter; stroke-miterlimit: 4; fill: rgb(158,22,65); fill-rule: nonzero; opacity: 1;" transform="translate(-132.9 -27.5) translate(-75.67241841822002, -50.71524278828379) " stroke-linecap="round" />
	<path d="M 65.372 95.374 c 0 0 1.859 4.755 16.744 12.465 l 0.457 4.89 c 0 0 -5.876 0.582 -12.281 -0.819 c -6.87 -1.502 -11.705 -7.564 -11.52 -14.595 c 0.12 -4.577 0.788 -10.3 2.837 -15.882 L 65.372 95.374 z" style="stroke: none; stroke-width: 1; stroke-dasharray: none; stroke-linecap: butt; stroke-linejoin: miter; stroke-miterlimit: 4; fill: rgb(255,145,163); fill-rule: nonzero; opacity: 1;" transform="translate(-137.91 18.92) translate(-70.66993393655937, -97.14092723094284) " stroke-linecap="round" />
	<path d="M 82.14 108.1 c 0 0 5.268 -2.976 5.928 -2.56 c 0.66 0.416 -0.92 1.9 -0.92 1.9 s 4.665 -0.15 4.873 0.547 c 0.209 0.697 -3.802 1.46 -3.802 1.46 s 3.809 1.165 3.621 1.708 c -0.188 0.543 -3.724 0.45 -3.724 0.45 s 2.533 1.618 2.465 2.173 c -0.067 0.555 -3.41 -0.402 -3.41 -0.402 s 0.915 1.09 0.535 1.34 c -0.38 0.25 -5.177 -2.452 -5.177 -2.452 L 82.14 108.1 z" style="stroke: none; stroke-width: 1; stroke-dasharray: none; stroke-linecap: butt; stroke-linejoin: miter; stroke-miterlimit: 4; fill: rgb(249,208,188); fill-rule: nonzero; opacity: 1;" transform="translate(-121.49 31.9) translate(-87.0844464785653, -110.11623031477001) " stroke-linecap="round" />
	<path d="M 115.552 97 c 0 0 -10.388 -2.482 -15.874 -7.112 l -2.913 4.87 c 0 0 9.052 9.186 17.21 9.301 C 113.976 104.059 117.955 102.186 115.552 97 z" style="stroke: none; stroke-width: 1; stroke-dasharray: none; stroke-linecap: butt; stroke-linejoin: miter; stroke-miterlimit: 4; fill: rgb(255,112,132); fill-rule: nonzero; opacity: 1;" transform="translate(-102.03 18.76) translate(-106.54417041580976, -96.9735) " stroke-linecap="round" />
	<path d="M 115.126 90.079 c 0 0 8.804 2.639 11.077 15.261 c 2.273 12.623 -0.484 22.075 -0.484 22.075 s -15.347 2.346 -25.481 -3.806 C 100.239 123.609 102.42 98.274 115.126 90.079 z" style="stroke: none; stroke-width: 1; stroke-dasharray: none; stroke-linecap: butt; stroke-linejoin: miter; stroke-miterlimit: 4; fill: rgb(255,127,144); fill-rule: nonzero; opacity: 1;" transform="translate(-94.91 30.75) translate(-113.6696939762096, -108.9666013477613) " stroke-linecap="round" />
	<path d="M 120.373 107.479 c 0 0 -8.541 3.549 -18.848 -1.923 l 1.898 -5.571 c 0 0 7.472 0.325 12.464 -1.781 C 115.886 98.203 122.496 98.063 120.373 107.479 z" style="stroke: none; stroke-width: 1; stroke-dasharray: none; stroke-linecap: butt; stroke-linejoin: miter; stroke-miterlimit: 4; fill: rgb(255,145,163); fill-rule: nonzero; opacity: 1;" transform="translate(-97.42 25.19) translate(-111.1591580535198, -103.40721622139645) " stroke-linecap="round" />
	<path d="M 103.422 99.984 c 0 0 -1.368 -2.808 -2.215 -2.76 c -0.848 0.048 -0.363 1.518 -0.363 1.518 s -3.937 -0.579 -4.412 0.412 c -0.476 0.992 0.638 1.424 0.638 1.424 s -0.841 0.457 -0.863 0.901 c -0.022 0.444 0.743 1.193 0.743 1.193 s -0.641 0.91 -0.698 1.311 c -0.057 0.401 1.238 0.753 1.238 0.753 s -0.662 0.346 -0.45 0.926 c 0.212 0.58 4.691 -0.47 4.691 -0.47 L 103.422 99.984 z" style="stroke: none; stroke-width: 1; stroke-dasharray: none; stroke-linecap: butt; stroke-linejoin: miter; stroke-miterlimit: 4; fill: rgb(249,208,188); fill-rule: nonzero; opacity: 1;" transform="translate(-108.76 23.31) translate(-99.81426721340605, -101.53004624488577) " stroke-linecap="round" />
	<path d="M 99.631 89.984 c 0 0 -0.69 -3.046 -1.526 -3.194 c -0.836 -0.147 -0.7 1.395 -0.7 1.395 s -3.7 -1.464 -4.39 -0.607 c -0.689 0.857 0.296 1.532 0.296 1.532 s -0.923 0.253 -1.046 0.68 c -0.123 0.427 0.451 1.331 0.451 1.331 s -0.832 0.74 -0.979 1.117 c -0.147 0.377 1.034 1.016 1.034 1.016 s -0.724 0.186 -0.65 0.799 c 0.074 0.613 4.674 0.614 4.674 0.614 L 99.631 89.984 z" style="stroke: none; stroke-width: 1; stroke-dasharray: none; stroke-linecap: butt; stroke-linejoin: miter; stroke-miterlimit: 4; fill: rgb(249,208,188); fill-rule: nonzero; opacity: 1;" transform="translate(-112.9 12.51) translate(-95.67766670500347, -90.72356005410677) " stroke-linecap="round" />
	<path d="M 102.829 73.807 c 0 0 1.214 -7.643 10.353 -9.321 c 9.138 -1.677 15.838 3.703 17.573 9.053 l 3.198 0.77 l -3.252 1.291 l 2.55 1.759 l -1.416 0.685 c 0 0 -0.745 9.033 -5.412 13.665 s -10.203 5.245 -10.203 5.245 L 102.829 73.807 z" style="stroke: none; stroke-width: 1; stroke-dasharray: none; stroke-linecap: butt; stroke-linejoin: miter; stroke-miterlimit: 4; fill: rgb(158,22,65); fill-rule: nonzero; opacity: 1;" transform="translate(-90.19 2.35) translate(-118.39099999999999, -80.56400650071383) " stroke-linecap="round" />
	<path d="M 109.748 67.056 c 0 0 -9.559 6.269 -10.213 15.104 c -0.654 8.836 6.921 15.366 14.78 14.959 c 7.859 -0.406 10.709 -6.87 10.709 -6.87 s 4.69 -0.274 3.908 -4.533 c -0.782 -4.259 -4.237 -1.907 -4.237 -1.907 S 132.868 65.057 109.748 67.056 z" style="stroke: none; stroke-width: 1; stroke-dasharray: none; stroke-linecap: butt; stroke-linejoin: miter; stroke-miterlimit: 4; fill: rgb(249,208,188); fill-rule: nonzero; opacity: 1;" transform="translate(-94.32 3.81) translate(-114.25772744862792, -82.02192603138539) " stroke-linecap="round" />
	<path d="M 109.748 67.056 c 0 0 3.321 10.877 11.799 14.745 l 1.045 -1.14 l -0.653 9.439 c 0 0 2.597 -6.231 4.506 -6.926 c 0 0 3.573 -11.05 -2.829 -15.003 C 117.215 64.219 109.748 67.056 109.748 67.056 z" style="stroke: none; stroke-width: 1; stroke-dasharray: none; stroke-linecap: butt; stroke-linejoin: miter; stroke-miterlimit: 4; fill: rgb(158,22,65); fill-rule: nonzero; opacity: 1;" transform="translate(-89.98 -0.13) translate(-118.59352549708115, -78.08514826657009) " stroke-linecap="round" />
	<path d="M 111.118 70.433 c -0.679 -0.097 -8.288 3.374 -8.288 3.374 s 2.291 -5.221 6.919 -6.751 l 2.925 1.152 L 111.118 70.433 z" style="stroke: none; stroke-width: 1; stroke-dasharray: none; stroke-linecap: butt; stroke-linejoin: miter; stroke-miterlimit: 4; fill: rgb(158,22,65); fill-rule: nonzero; opacity: 1;" transform="translate(-100.82 -7.78) translate(-107.752, -70.4315) " stroke-linecap="round" />
	<path d="M 77.482 64.294 c 0.405 0.854 0.793 1.662 1.259 2.275 c 0.115 0.152 0.246 0.281 0.369 0.396 c 0.063 0.054 0.121 0.118 0.19 0.155 l 0.253 0.169 c 0.44 0.288 0.909 0.7 1.112 1.425 c 0.093 0.363 0.029 0.794 -0.149 1.098 c -0.171 0.311 -0.402 0.536 -0.633 0.698 c -0.466 0.341 -0.944 0.485 -1.438 0.609 c -0.247 0.063 -0.52 0.081 -0.799 0.071 c -0.28 -0.02 -0.617 -0.102 -0.852 -0.365 c -0.243 -0.26 -0.258 -0.612 -0.191 -0.864 c 0.062 -0.264 0.224 -0.479 0.417 -0.623 l 0.057 0.049 c -0.272 0.322 -0.381 0.882 -0.051 1.177 c 0.344 0.274 0.848 0.17 1.258 0.039 c 0.423 -0.141 0.841 -0.331 1.187 -0.607 c 0.347 -0.263 0.604 -0.688 0.49 -1.111 c -0.231 -0.875 -1.371 -1.094 -1.783 -1.97 c -0.47 -0.799 -0.68 -1.71 -0.769 -2.616 L 77.482 64.294 z" style="stroke: none; stroke-width: 1; stroke-dasharray: none; stroke-linecap: butt; stroke-linejoin: miter; stroke-miterlimit: 4; fill: rgb(171,126,103); fill-rule: nonzero; opacity: 1;" transform="translate(-129.94 -10.47) translate(-78.63808079307836, -67.74329444105018) " stroke-linecap="round" />
	<path d="M 82.195 66.111 c 0.232 -0.841 0.925 -1.575 1.797 -1.885 c 0.453 -0.169 1.024 -0.121 1.434 0.157 c 0.412 0.276 0.679 0.663 0.848 1.096 l -0.239 -0.055 c 0.359 -0.265 0.738 -0.507 1.124 -0.739 c -0.297 0.339 -0.602 0.668 -0.926 0.975 l -0.127 0.12 l -0.113 -0.175 c -0.212 -0.328 -0.502 -0.634 -0.817 -0.814 c -0.317 -0.187 -0.676 -0.211 -1.034 -0.107 C 83.387 64.912 82.71 65.414 82.195 66.111 z" style="stroke: none; stroke-width: 1; stroke-dasharray: none; stroke-linecap: butt; stroke-linejoin: miter; stroke-miterlimit: 4; fill: rgb(171,126,103); fill-rule: nonzero; opacity: 1;" transform="translate(-123.9 -13.1) translate(-84.67699999999999, -65.11952067007863) " stroke-linecap="round" />
	<path d="M 73.179 67.005 c -0.691 -0.523 -1.482 -0.813 -2.272 -0.817 c -0.373 0.002 -0.71 0.126 -0.962 0.395 c -0.252 0.261 -0.442 0.637 -0.553 1.012 l -0.043 0.147 l -0.118 -0.014 c -0.435 -0.053 -0.868 -0.135 -1.3 -0.23 c 0.44 -0.044 0.88 -0.076 1.318 -0.078 l -0.162 0.133 c 0.04 -0.464 0.187 -0.91 0.504 -1.291 c 0.315 -0.382 0.849 -0.59 1.331 -0.556 C 71.846 65.756 72.719 66.264 73.179 67.005 z" style="stroke: none; stroke-width: 1; stroke-dasharray: none; stroke-linecap: butt; stroke-linejoin: miter; stroke-miterlimit: 4; fill: rgb(171,126,103); fill-rule: nonzero; opacity: 1;" transform="translate(-138.02 -11.49) translate(-70.555, -66.72219671331459) " stroke-linecap="round" />
	<path d="M 71.785 74.637 l 9.429 -1.147 c 0 0 0.278 5.318 -4.371 5.775 C 72.193 79.722 71.785 74.637 71.785 74.637 z" style="stroke: none; stroke-width: 1; stroke-dasharray: none; stroke-linecap: butt; stroke-linejoin: miter; stroke-miterlimit: 4; fill: rgb(253,129,143); fill-rule: nonzero; opacity: 1;" transform="translate(-132.07 -1.82) translate(-76.50108607206366, -76.39202822354723) " stroke-linecap="round" />
	<path d="M 111.464 79.75 c -0.087 0.922 -0.437 1.819 -1.16 2.534 c -0.187 0.171 -0.386 0.347 -0.631 0.473 c -0.124 0.061 -0.244 0.128 -0.383 0.168 l -0.344 0.11 c -0.335 0.097 -0.625 0.243 -0.705 0.369 c -0.059 0.083 -0.106 0.239 0.056 0.545 c 0.15 0.272 0.405 0.596 0.683 0.851 c 0.267 0.27 0.576 0.465 0.786 0.465 c 0.24 0.02 0.466 -0.417 0.417 -0.835 l 0.07 -0.028 c 0.157 0.397 0.099 0.977 -0.353 1.185 c -0.461 0.163 -0.898 -0.109 -1.24 -0.352 c -0.35 -0.262 -0.676 -0.561 -0.919 -0.934 c -0.246 -0.354 -0.377 -0.881 -0.109 -1.288 c 0.264 -0.389 0.7 -0.585 1.121 -0.694 c 0.421 -0.094 0.799 -0.273 1.131 -0.547 c 0.659 -0.541 1.143 -1.283 1.512 -2.052 L 111.464 79.75 z" style="stroke: none; stroke-width: 1; stroke-dasharray: none; stroke-linecap: butt; stroke-linejoin: miter; stroke-miterlimit: 4; fill: rgb(171,126,103); fill-rule: nonzero; opacity: 1;" transform="translate(-99.1 4.46) translate(-109.47382855127543, -82.67821894805722) " stroke-linecap="round" />
	<path d="M 106.592 79.897 c -0.255 -0.786 -0.71 -1.442 -1.318 -1.878 c -0.288 -0.202 -0.614 -0.291 -0.954 -0.222 c -0.336 0.063 -0.691 0.246 -0.984 0.474 l -0.165 0.128 l -0.08 -0.154 c -0.195 -0.377 -0.366 -0.77 -0.525 -1.169 c 0.279 0.327 0.546 0.66 0.789 1.009 l -0.244 -0.026 c 0.287 -0.34 0.647 -0.608 1.106 -0.73 c 0.458 -0.124 0.992 0.01 1.349 0.305 C 106.257 78.186 106.652 79.067 106.592 79.897 z" style="stroke: none; stroke-width: 1; stroke-dasharray: none; stroke-linecap: butt; stroke-linejoin: miter; stroke-miterlimit: 4; fill: rgb(171,126,103); fill-rule: nonzero; opacity: 1;" transform="translate(-103.99 0.27) translate(-104.58199022357236, -78.4865) " stroke-linecap="round" />
	<path d="M 114.43 83.494 c 0.64 -0.531 1.586 -0.723 2.438 -0.482 c 0.447 0.118 0.867 0.475 1.033 0.919 c 0.168 0.444 0.16 0.893 0.05 1.324 l -0.109 -0.178 c 0.393 0.139 0.778 0.306 1.16 0.486 c -0.419 -0.046 -0.835 -0.103 -1.243 -0.189 l -0.116 -0.024 l 0.006 -0.154 c 0.014 -0.37 -0.043 -0.766 -0.188 -1.076 c -0.142 -0.317 -0.404 -0.53 -0.736 -0.647 C 116.016 83.233 115.217 83.244 114.43 83.494 z" style="stroke: none; stroke-width: 1; stroke-dasharray: none; stroke-linecap: butt; stroke-linejoin: miter; stroke-miterlimit: 4; fill: rgb(171,126,103); fill-rule: nonzero; opacity: 1;" transform="translate(-91.86 6.02) translate(-116.71600000000001, -84.23613705286061) " stroke-linecap="round" />
	<path d="M 113.319 90.795 l -8.13 -3.953 c 0 0 -1.898 4.7 2.145 6.552 C 111.377 95.245 113.319 90.795 113.319 90.795 z" style="stroke: none; stroke-width: 1; stroke-dasharray: none; stroke-linecap: butt; stroke-linejoin: miter; stroke-miterlimit: 4; fill: rgb(253,129,143); fill-rule: nonzero; opacity: 1;" transform="translate(-99.54 12.13) translate(-109.03146553028117, -90.34329796922759) " stroke-linecap="round" />
	<path d="M 417.152 70.813 c 0 0 -203.914 121.191 -321.401 57.096 C 95.751 127.908 6.903 87.354 0 0 v 156.432 h 417.152 V 70.813 z" style="stroke: none; stroke-width: 1; stroke-dasharray: none; stroke-linecap: butt; stroke-linejoin: miter; stroke-miterlimit: 4; fill: rgb(255,122,145); fill-rule: nonzero; opacity: 1;" transform="translate(0 0) translate(-208.576, -78.216) " stroke-linecap="round" />
	<path d="M 0 0 c 1.415 13.847 4.988 27.412 10.534 40.079 c 5.544 12.674 13.012 24.427 21.763 35.07 c 8.77 10.644 18.864 20.14 29.714 28.61 c 5.434 4.227 11.075 8.188 16.897 11.849 c 2.909 1.834 5.864 3.59 8.86 5.262 c 2.98 1.659 6.071 3.286 9.068 4.661 l -2.337 0.083 c 6.712 -3.785 13.274 -7.816 19.561 -12.206 c 6.274 -4.403 12.264 -9.181 17.782 -14.404 c 5.489 -5.239 10.504 -10.954 14.538 -17.227 c 4.015 -6.261 7.037 -13.118 8.232 -20.218 c 1.223 -7.072 0.402 -14.393 -2.696 -20.678 c -1.507 -3.158 -3.606 -6.009 -6.059 -8.5 c -2.497 -2.447 -5.357 -4.548 -8.509 -6.087 c -3.128 -1.588 -6.527 -2.602 -9.982 -3.142 c -3.464 -0.463 -7.002 -0.481 -10.442 0.155 c -6.912 1.165 -13.319 4.653 -18.562 9.481 l -2.59 2.386 l -2.631 -2.386 c -3.715 -3.369 -7.947 -6.126 -12.587 -7.778 c -4.616 -1.686 -9.575 -2.354 -14.45 -1.9 c -4.871 0.461 -9.637 2.022 -13.826 4.536 c -4.192 2.507 -7.796 5.965 -10.415 10.048 c -2.622 4.081 -4.27 8.767 -4.775 13.629 c -0.502 4.864 0.029 9.869 1.425 14.703 c 1.37 4.846 3.586 9.511 6.303 13.911 c 2.708 4.411 5.946 8.552 9.509 12.433 c 7.116 7.789 15.497 14.52 24.317 20.6 c 4.424 3.033 9.009 5.853 13.649 8.585 c 2.347 1.298 4.7 2.701 7.043 3.914 c 2.347 1.245 4.738 2.411 7.157 3.519 c 19.394 8.868 40.833 13.009 62.332 13.976 c 21.547 0.928 43.261 -0.995 64.643 -4.77 c 21.39 -3.805 42.521 -9.274 63.291 -15.908 c 20.757 -6.682 41.219 -14.379 61.292 -23.018 c 10.044 -4.303 20.01 -8.802 29.865 -13.544 c 9.851 -4.746 19.658 -9.611 29.238 -14.908 c -18.714 11.38 -38.191 21.503 -58.028 30.851 c -19.878 9.262 -40.168 17.717 -60.944 24.892 c -20.762 7.192 -41.973 13.267 -63.639 17.448 c -10.826 2.105 -21.761 3.743 -32.776 4.795 c -5.508 0.517 -11.034 0.904 -16.575 1.095 c -5.541 0.174 -11.093 0.188 -16.646 -0.006 c -11.104 -0.395 -22.22 -1.58 -33.172 -3.83 c -10.946 -2.242 -21.731 -5.552 -32.011 -10.126 c -5.166 -2.234 -10.111 -4.998 -14.92 -7.709 c -4.8 -2.804 -9.553 -5.705 -14.169 -8.847 c -9.205 -6.302 -18.044 -13.326 -25.742 -21.687 c -3.85 -4.168 -7.408 -8.67 -10.448 -13.579 c -3.045 -4.895 -5.604 -10.193 -7.237 -15.884 c -1.671 -5.664 -2.33 -11.746 -1.677 -17.772 c 0.645 -6.025 2.732 -11.941 6.047 -17.052 c 3.309 -5.12 7.83 -9.415 13.04 -12.506 c 5.208 -3.099 11.105 -5.007 17.136 -5.556 c 6.032 -0.545 12.177 0.307 17.83 2.396 c 5.683 2.053 10.78 5.411 15.142 9.404 H 93.14 c 6.173 -5.697 14.033 -9.924 22.536 -11.255 c 4.228 -0.73 8.571 -0.678 12.803 -0.057 c 4.223 0.697 8.355 1.988 12.154 3.959 c 3.823 1.922 7.295 4.514 10.316 7.546 c 2.978 3.075 5.511 6.607 7.323 10.495 c 3.728 7.75 4.571 16.673 3.056 24.887 c -1.46 8.276 -5.07 15.859 -9.536 22.603 c -4.507 6.753 -9.947 12.72 -15.797 18.122 c -11.778 10.757 -25.123 19.396 -38.992 26.762 l -1.2 0.637 l -1.137 -0.554 c -3.29 -1.603 -6.318 -3.298 -9.376 -5.091 c -3.038 -1.79 -6.022 -3.659 -8.954 -5.604 c -5.868 -3.883 -11.532 -8.061 -16.978 -12.504 c -10.902 -8.87 -20.848 -18.926 -29.474 -30.009 C 21.266 65.995 14.087 53.77 8.954 40.735 C 3.755 27.725 0.83 13.883 0 0 z" style="stroke: none; stroke-width: 1; stroke-dasharray: none; stroke-linecap: butt; stroke-linejoin: miter; stroke-miterlimit: 4; fill: rgb(255,196,205); fill-rule: nonzero; opacity: 1;" transform="translate(0 -3.2) translate(-208.576, -75.01600814832535) " stroke-linecap="round" />
</g>
	<g transform="translate(347.61 193.14)">
		<text xml:space="preserve" font-family="Amita" font-size="44.388" font-style="normal" font-weight="normal" style="stroke: none; stroke-width: 1; stroke-dasharray: none; stroke-linecap: butt; stroke-linejoin: miter; stroke-miterlimit: 4; fill: rgb(254,246,246); fill-rule: nonzero; opacity: 1; white-space: pre;" ><tspan x="-71.13" y="13.94" >HAPPY</tspan></text>
	</g>
	<g transform="translate(427.31 246.59)">
		<text xml:space="preserve" font-family="Amita" font-size="44.388" font-style="normal" font-weight="normal" style="stroke: none; stroke-width: 1; stroke-dasharray: none; stroke-linecap: butt; stroke-linejoin: miter; stroke-miterlimit: 4; fill: rgb(254,246,246); fill-rule: nonzero; opacity: 1; white-space: pre;" ><tspan x="-136.38" y="13.94" >MOTHER DAY</tspan></text>
	</g>
	<g transform="translate(578.04 359.25) scale(1.64 1.64)">
		<text xml:space="preserve" font-family="Amaranth" font-size="16" font-style="italic" font-weight="normal" style="stroke: none; stroke-width: 1; stroke-dasharray: none; stroke-linecap: butt; stroke-linejoin: miter; stroke-miterlimit: 4; fill: rgb(254,246,246); fill-rule: nonzero; opacity: 1; white-space: pre;" ><tspan x="-57.23" y="5.03" >&quot;i love you mom&quot;</tspan></text>
	</g>
	<g transform="translate(401.58 335.93)">
		<text xml:space="preserve" font-family="Amaranth" font-size="36.168" font-style="italic" font-weight="normal" style="stroke: none; stroke-width: 1; stroke-dasharray: none; stroke-linecap: butt; stroke-linejoin: miter; stroke-miterlimit: 4; fill: rgb(254,246,246); fill-rule: nonzero; opacity: 1; white-space: pre;" ><tspan x="-34.38" y="-5.39" >50%</tspan><tspan x="-34.38" y="28.12" >OFF</tspan></text>
	</g>
	<g transform="translate(301.52 285.29)">
		<text xml:space="preserve" font-family="Amaranth" font-size="26.304" font-style="italic" font-weight="normal" style="stroke: none; stroke-width: 1; stroke-dasharray: none; stroke-linecap: butt; stroke-linejoin: miter; stroke-miterlimit: 4; fill: rgb(254,246,246); fill-rule: nonzero; opacity: 1; white-space: pre;" ><tspan x="-56.75" y="8.26" >DISCOUNT</tspan></text>
	</g>
</svg>