<?xml version="1.0" encoding="UTF-8" standalone="no" ?>
<!DOCTYPE svg PUBLIC "-//W3C//DTD SVG 1.1//EN" "http://www.w3.org/Graphics/SVG/1.1/DTD/svg11.dtd">
<svg xmlns="http://www.w3.org/2000/svg" xmlns:xlink="http://www.w3.org/1999/xlink" version="1.1" width="1201" height="901" viewBox="0 0 777.65 583.4" xml:space="preserve">
<desc>Created with Fabric.js 2.3.3</desc>
<defs>
</defs>
<rect x="0" y="0" width="100%" height="100%" fill="#ffffff"></rect>
<g transform="translate(389 291.5)" style="">
	<path id="node1" d="M 1400 2462 c -15 -3 -55 -51 -48 -56 c 1 -2 22 -6 45 -9 c 42 -5 43 -5 37 21 c -9 39 -17 48 -34 44 z" style="stroke: none; stroke-width: 1; stroke-dasharray: none; stroke-linecap: butt; stroke-linejoin: miter; stroke-miterlimit: 4; fill: rgb(23,23,23); fill-rule: nonzero; opacity: 1;" transform="translate(-14.14 -123.82) scale(0.13 0.13) matrix(1 0 0 -1 0 0) translate(-1393.924233853954, -2428.6425931606386) " stroke-linecap="round" />
	<path id="node2" d="M 1480 2444 c 0 -36 17 -64 41 -64 c 16 0 18 3 9 19 c -5 11 -10 31 -10 45 c 0 19 -5 26 -20 26 c -15 0 -20 -7 -20 -26 z" style="stroke: none; stroke-width: 1; stroke-dasharray: none; stroke-linecap: butt; stroke-linejoin: miter; stroke-miterlimit: 4; fill: rgb(23,23,23); fill-rule: nonzero; opacity: 1;" transform="translate(1.02 -123.33) scale(0.13 0.13) matrix(1 0 0 -1 0 0) translate(-1507.666412107586, -2425) " stroke-linecap="round" />
	<path id="node3" d="M 1570 2454 c 1 -33 25 -54 62 -54 c 37 0 96 36 81 51 c -4 4 -38 11 -75 15 c -63 6 -68 5 -68 -12 z" style="stroke: none; stroke-width: 1; stroke-dasharray: none; stroke-linecap: butt; stroke-linejoin: miter; stroke-miterlimit: 4; fill: rgb(23,23,23); fill-rule: nonzero; opacity: 1;" transform="translate(19.03 -124.62) scale(0.13 0.13) matrix(1 0 0 -1 0 0) translate(-1642.6958708261059, -2434.67081273092) " stroke-linecap="round" />
	<path id="node4" d="M 2140 2448 c 0 -31 -36 -88 -55 -88 c -8 0 -15 -9 -15 -19 c 0 -11 -11 -28 -25 -39 l -25 -20 l 29 -12 c 29 -12 98 -76 90 -84 c -2 -2 -23 9 -46 24 c -46 32 -113 50 -113 31 c 0 -13 16 -21 53 -25 c 15 -1 36 -11 47 -21 c 20 -18 27 -59 11 -69 c -5 -3 8 -38 29 -78 c 21 -40 45 -94 55 -120 c 15 -40 22 -48 42 -48 c 23 0 25 3 19 33 c -7 39 -25 221 -26 259 c 0 22 -6 29 -27 34 c -71 17 -81 89 -15 109 c 35 10 38 21 26 109 c -6 40 -10 46 -30 46 c -18 0 -24 -6 -24 -22 z" style="stroke: none; stroke-width: 1; stroke-dasharray: none; stroke-linecap: butt; stroke-linejoin: miter; stroke-miterlimit: 4; fill: rgb(23,23,23); fill-rule: nonzero; opacity: 1;" transform="translate(81.26 -90) scale(0.13 0.13) matrix(1 0 0 -1 0 0) translate(-2109.44452834834, -2175) " stroke-linecap="round" />
	<path id="node5" d="M 1285 2443 c -73 -16 -234 -81 -235 -95 c -1 -19 60 -11 105 14 c 28 14 68 30 90 34 c 39 6 75 28 75 46 c 0 8 -2 9 -35 1 z" style="stroke: none; stroke-width: 1; stroke-dasharray: none; stroke-linecap: butt; stroke-linejoin: miter; stroke-miterlimit: 4; fill: rgb(23,23,23); fill-rule: nonzero; opacity: 1;" transform="translate(-42 -119.07) scale(0.13 0.13) matrix(1 0 0 -1 0 0) translate(-1184.9939310006546, -2393.0054350697424) " stroke-linecap="round" />
	<path id="node6" d="M 1742 2400 l -33 -40 l 28 0 c 20 0 34 9 51 33 c 27 40 27 47 5 47 c -10 0 -33 -18 -51 -40 z" style="stroke: none; stroke-width: 1; stroke-dasharray: none; stroke-linecap: butt; stroke-linejoin: miter; stroke-miterlimit: 4; fill: rgb(23,23,23); fill-rule: nonzero; opacity: 1;" transform="translate(34.53 -120) scale(0.13 0.13) matrix(1 0 0 -1 0 0) translate(-1758.9614574824514, -2400) " stroke-linecap="round" />
	<path id="node7" d="M 1837 2377 l -27 -35 l 66 -37 c 51 -27 73 -35 95 -30 c 31 7 40 25 13 25 c -13 0 -16 7 -12 38 c 5 34 3 39 -21 50 c -14 6 -40 14 -57 18 c -26 5 -34 1 -57 -29 z" style="stroke: none; stroke-width: 1; stroke-dasharray: none; stroke-linecap: butt; stroke-linejoin: miter; stroke-miterlimit: 4; fill: rgb(23,23,23); fill-rule: nonzero; opacity: 1;" transform="translate(54 -112.09) scale(0.13 0.13) matrix(1 0 0 -1 0 0) translate(-1905.0103908175977, -2340.706351505608) " stroke-linecap="round" />
	<path id="node8" d="M 1232 2323 c -22 -3 -47 -18 -73 -44 c -33 -33 -39 -46 -39 -80 c 0 -63 56 -98 111 -69 c 25 14 24 32 -4 58 c -28 27 -36 27 -53 5 c -12 -17 -13 -16 -13 7 c 1 44 14 61 74 96 c 33 18 53 33 45 32 c -8 -1 -30 -3 -48 -5 z" style="stroke: none; stroke-width: 1; stroke-dasharray: none; stroke-linecap: butt; stroke-linejoin: miter; stroke-miterlimit: 4; fill: rgb(23,23,23); fill-rule: nonzero; opacity: 1;" transform="translate(-39.88 -96.52) scale(0.13 0.13) matrix(1 0 0 -1 0 0) translate(-1200.8803693737377, -2223.863560199564) " stroke-linecap="round" />
	<path id="node9" d="M 932 2265 c -64 -48 -75 -71 -46 -99 c 19 -19 74 -21 96 -3 c 44 34 22 93 -30 80 c -24 -6 -26 -5 -13 10 c 7 10 23 17 36 17 c 23 0 55 -28 55 -48 c 0 -7 5 -12 10 -12 c 6 0 10 8 10 18 c 0 9 3 27 6 38 c 4 15 0 23 -13 26 c -10 3 -25 9 -34 12 c -10 5 -37 -9 -77 -39 z" style="stroke: none; stroke-width: 1; stroke-dasharray: none; stroke-linecap: butt; stroke-linejoin: miter; stroke-miterlimit: 4; fill: rgb(23,23,23); fill-rule: nonzero; opacity: 1;" transform="translate(-71.45 -97.04) scale(0.13 0.13) matrix(1 0 0 -1 0 0) translate(-964.143095650903, -2227.777777777778) " stroke-linecap="round" />
	<path id="node10" d="M 1033 2159 c 6 -43 42 -89 69 -89 c 7 0 5 6 -4 13 c -25 20 -48 60 -48 84 c 0 12 -5 25 -12 29 c -8 5 -9 -5 -5 -37 z" style="stroke: none; stroke-width: 1; stroke-dasharray: none; stroke-linecap: butt; stroke-linejoin: miter; stroke-miterlimit: 4; fill: rgb(23,23,23); fill-rule: nonzero; opacity: 1;" transform="translate(-57.54 -84.48) scale(0.13 0.13) matrix(1 0 0 -1 0 0) translate(-1068.462017094925, -2133.6096740635767) " stroke-linecap="round" />
	<path id="node11" d="M 811 2149 c -11 -12 -32 -39 -46 -59 l -25 -36 l 40 -43 c 47 -49 55 -91 25 -134 c -13 -18 -14 -18 -34 2 l -22 22 l 7 -26 c 3 -14 2 -25 -2 -25 c -14 0 -63 35 -78 55 c -13 18 -14 18 -25 -3 c -10 -18 -9 -22 4 -22 c 25 0 65 -46 65 -75 c 0 -27 -18 -32 -52 -14 c -11 6 -22 9 -24 6 c -3 -2 10 -11 27 -20 l 32 -15 l -33 -17 c -18 -9 -42 -14 -55 -11 c -19 5 -25 0 -34 -26 c -14 -40 -7 -47 22 -20 c 52 49 148 23 102 -28 c -10 -11 -13 -20 -7 -20 c 6 0 14 5 17 10 c 14 23 23 8 13 -22 c -19 -57 -34 -67 -107 -70 l -66 -3 l -3 -90 c -2 -78 0 -87 10 -66 c 7 14 28 34 46 44 c 32 19 36 19 67 4 c 39 -19 60 -53 70 -117 c 4 -28 18 -57 34 -75 c 15 -16 38 -45 50 -62 c 20 -30 27 -33 71 -33 c 42 0 52 4 74 31 c 33 39 33 73 0 104 c -46 42 -94 28 -94 -27 c 0 -23 4 -28 26 -28 c 31 0 28 -23 -3 -28 c -28 -4 -66 44 -57 72 c 12 38 38 66 67 73 c 27 5 28 8 21 49 c -8 53 12 62 22 9 c 9 -47 79 -105 127 -105 c 38 0 77 36 77 70 c 0 32 -40 71 -69 68 c -32 -4 -41 -41 -15 -69 c 16 -18 16 -19 -3 -19 c -23 0 -53 29 -53 52 c 0 8 9 27 21 42 c 17 22 28 26 67 26 c 55 -1 76 -14 96 -60 c 12 -29 12 -39 -1 -77 c -17 -49 -71 -93 -114 -93 c -27 0 -46 -24 -28 -36 c 5 -3 52 -8 103 -11 c 89 -6 94 -5 109 18 c 10 13 17 42 17 65 c 0 28 6 46 20 59 c 11 10 20 28 20 39 c 0 12 9 27 20 34 c 11 7 20 23 20 37 c 0 18 11 32 40 51 c 22 15 40 31 40 37 c 0 6 -29 38 -64 71 c -50 47 -66 70 -71 99 c -9 45 4 63 48 73 c 48 10 50 13 17 41 c -17 14 -29 27 -28 29 c 2 2 24 -4 48 -12 c 49 -17 87 -13 150 15 l 41 18 l -56 7 c -55 6 -127 35 -140 56 c -9 14 10 12 53 -6 c 20 -8 80 -18 132 -21 l 95 -5 l -110 56 c -136 70 -170 90 -217 127 c -42 33 -51 35 -67 15 c -7 -8 -47 -29 -88 -46 c -69 -29 -80 -31 -114 -21 c -34 10 -72 44 -81 73 c -3 9 -13 8 -36 -1 c -39 -16 -82 -2 -112 36 l -18 24 l -21 -22 z m 180 -229 c -6 -20 -20 -46 -31 -58 c -21 -22 -14 -32 7 -11 c 9 9 29 3 78 -20 c 37 -17 75 -31 84 -31 c 38 -1 -106 -100 -145 -100 c -15 0 -15 -3 4 -20 c 12 -11 28 -33 37 -49 c 8 -16 27 -38 42 -49 l 28 -21 l -28 -10 c -46 -18 -128 -13 -164 9 c -63 38 -70 96 -11 86 c 30 -5 31 -5 11 6 c -13 6 -23 15 -23 19 c 0 10 49 24 68 21 c 6 -2 12 2 12 8 c 0 5 -6 10 -13 10 c -8 0 -22 9 -33 21 c -18 20 -18 22 -1 34 c 21 15 22 25 0 25 c -15 0 -15 1 0 18 c 24 26 21 32 -13 32 c -35 0 -40 21 -14 58 c 8 12 11 22 6 22 c -5 0 -14 -11 -20 -25 c -18 -38 -32 -30 -32 19 c 0 52 15 71 68 86 c 20 5 48 19 62 30 l 25 19 l 3 -47 c 2 -26 -1 -63 -7 -82 z m -154 -85 c 44 -31 51 -126 12 -161 c -25 -23 -42 -13 -68 38 l -21 43 l 0 -32 c 0 -17 5 -35 10 -38 c 6 -3 10 -11 10 -17 c 0 -20 -29 13 -40 46 c -9 27 -7 41 9 78 c 25 59 49 70 88 43 z m -35 -262 l 1 -48 l 4 43 c 4 45 17 53 40 25 c 26 -34 34 -63 22 -86 c -7 -12 -15 -24 -19 -27 c -14 -10 -40 -69 -40 -91 c 0 -21 -1 -21 -19 -5 c -32 29 -74 134 -67 169 c 8 38 33 67 58 67 c 15 0 18 -9 20 -47 z" style="stroke: none; stroke-width: 1; stroke-dasharray: none; stroke-linecap: butt; stroke-linejoin: miter; stroke-miterlimit: 4; fill: rgb(23,23,23); fill-rule: nonzero; opacity: 1;" transform="translate(-51.58 -22.07) scale(0.13 0.13) matrix(1 0 0 -1 0 0) translate(-1113.1515307716504, -1665.5) " stroke-linecap="round" />
	<path id="node12" d="M 1730 1546 c 0 -23 4 -24 73 -27 c 60 -4 78 -9 109 -32 c 21 -16 40 -38 43 -48 c 5 -14 12 -18 26 -14 c 13 5 28 -3 49 -24 c 30 -29 40 -61 19 -61 c -5 0 -7 -5 -4 -11 c 4 -6 13 -8 21 -5 c 12 5 12 2 0 -22 c -73 -143 -86 -191 -85 -317 l 0 -90 l 22 27 c 12 14 40 34 62 43 c 51 21 103 6 146 -42 l 29 -34 l 0 141 l 0 140 l -31 0 c -65 0 -136 54 -127 97 c 2 10 11 17 21 17 c 9 -1 17 4 17 12 c 0 19 54 18 74 -1 c 9 -9 20 -34 26 -56 c 6 -23 13 -39 14 -38 c 2 2 6 37 9 77 l 6 72 l -22 -15 c -26 -18 -73 -20 -84 -2 c -17 28 -13 56 12 76 c 22 17 25 23 15 41 c -6 11 -8 29 -5 40 c 6 19 15 23 73 35 l 33 7 l -16 -39 c -9 -21 -26 -46 -38 -55 c -21 -16 -21 -17 -2 -24 c 11 -4 23 -9 27 -11 c 4 -2 14 12 23 31 c 28 59 58 79 125 84 c 55 4 60 6 60 28 l 0 24 l -360 0 l -360 0 l 0 -24 z m 410 -97 c 0 -41 -57 -71 -84 -44 c -20 21 -20 65 -1 112 l 15 36 l 35 -44 c 19 -24 35 -51 35 -60 z m -64 -271 c -11 33 17 28 48 -8 c 22 -26 24 -34 14 -60 c -5 -17 -8 -44 -6 -60 c 3 -19 0 -30 -7 -30 c -20 0 -92 68 -105 100 c -11 26 -10 34 5 57 l 18 27 l 20 -25 c 19 -23 20 -24 13 -1 z" style="stroke: none; stroke-width: 1; stroke-dasharray: none; stroke-linecap: butt; stroke-linejoin: miter; stroke-miterlimit: 4; fill: rgb(23,23,23); fill-rule: nonzero; opacity: 1;" transform="translate(78.67 36.07) scale(0.13 0.13) matrix(1 0 0 -1 0 0) translate(-2090, -1229.5) " stroke-linecap="round" />
	<path id="node13" d="M 602 1408 c -27 -27 -8 -88 28 -88 c 27 0 42 21 27 38 c -10 12 -9 14 3 10 c 22 -7 25 -40 4 -55 c -16 -12 -15 -13 14 -13 c 30 0 32 2 32 38 c 0 52 -23 82 -64 82 c -17 0 -37 -5 -44 -12 z" style="stroke: none; stroke-width: 1; stroke-dasharray: none; stroke-linecap: butt; stroke-linejoin: miter; stroke-miterlimit: 4; fill: rgb(23,23,23); fill-rule: nonzero; opacity: 1;" transform="translate(-113.38 18.67) scale(0.13 0.13) matrix(1 0 0 -1 0 0) translate(-649.6275941990874, -1360) " stroke-linecap="round" />
	<path id="node14" d="M 560 1310 c 0 -19 3 -21 12 -12 c 9 9 9 15 0 24 c -9 9 -12 7 -12 -12 z" style="stroke: none; stroke-width: 1; stroke-dasharray: none; stroke-linecap: butt; stroke-linejoin: miter; stroke-miterlimit: 4; fill: rgb(23,23,23); fill-rule: nonzero; opacity: 1;" transform="translate(-124.08 25.33) scale(0.13 0.13) matrix(1 0 0 -1 0 0) translate(-569.375, -1310) " stroke-linecap="round" />
	<path id="node15" d="M 2013 1296 c -32 -10 -33 -12 -33 -65 c 0 -30 2 -52 4 -50 c 8 7 67 122 64 123 c -2 1 -18 -3 -35 -8 z" style="stroke: none; stroke-width: 1; stroke-dasharray: none; stroke-linecap: butt; stroke-linejoin: miter; stroke-miterlimit: 4; fill: rgb(23,23,23); fill-rule: nonzero; opacity: 1;" transform="translate(68.54 34.33) scale(0.13 0.13) matrix(1 0 0 -1 0 0) translate(-2014.0552632798913, -1242.5140394934447) " stroke-linecap="round" />
	<path id="node16" d="M 590 1269 c -7 -11 -9 -23 -6 -26 c 3 -3 9 2 12 11 c 4 10 16 22 28 26 c 21 9 21 9 -1 9 c -13 1 -27 -8 -33 -20 z" style="stroke: none; stroke-width: 1; stroke-dasharray: none; stroke-linecap: butt; stroke-linejoin: miter; stroke-miterlimit: 4; fill: rgb(23,23,23); fill-rule: nonzero; opacity: 1;" transform="translate(-118.51 31.25) scale(0.13 0.13) matrix(1 0 0 -1 0 0) translate(-611.1385902145607, -1265.6018661130013) " stroke-linecap="round" />
	<path id="node17" d="M 660 1240 c -48 -11 -35 -105 14 -98 c 26 4 35 45 12 54 c -22 8 -20 24 2 24 c 20 0 62 -39 62 -57 c 0 -6 -9 -22 -21 -37 c -23 -29 -62 -34 -93 -11 c -30 23 -39 18 -22 -12 c 8 -16 26 -52 41 -82 c 48 -96 123 -192 218 -279 c 23 -22 28 -23 62 -11 c 28 11 40 11 55 1 c 27 -16 40 -15 56 6 c 18 24 17 32 -5 32 c -35 0 -151 48 -190 79 c -52 41 -68 87 -51 147 c 15 53 8 120 -19 172 c -32 62 -69 85 -121 72 z" style="stroke: none; stroke-width: 1; stroke-dasharray: none; stroke-linecap: butt; stroke-linejoin: miter; stroke-miterlimit: 4; fill: rgb(23,23,23); fill-rule: nonzero; opacity: 1;" transform="translate(-89.06 69.03) scale(0.13 0.13) matrix(1 0 0 -1 0 0) translate(-832.0322198507979, -982.2519482474803) " stroke-linecap="round" />
	<path id="node18" d="M 855 1109 c 10 -33 11 -33 45 -19 c 33 14 40 30 13 30 c -10 0 -29 3 -42 7 c -21 5 -23 3 -16 -18 z" style="stroke: none; stroke-width: 1; stroke-dasharray: none; stroke-linecap: butt; stroke-linejoin: miter; stroke-miterlimit: 4; fill: rgb(23,23,23); fill-rule: nonzero; opacity: 1;" transform="translate(-81.27 52.64) scale(0.13 0.13) matrix(1 0 0 -1 0 0) translate(-890.4950322812631, -1105.212785930829) " stroke-linecap="round" />
	<path id="node19" d="M 902 1049 c -40 -15 -61 -50 -62 -98 c 0 -68 39 -99 174 -135 c 58 -16 108 -27 110 -25 c 2 2 -11 21 -29 42 c -29 33 -36 37 -54 28 c -52 -28 -132 1 -162 60 c -18 36 -18 42 -5 68 c 16 31 34 41 72 41 c 17 0 22 4 18 15 c -7 17 -28 18 -62 4 z" style="stroke: none; stroke-width: 1; stroke-dasharray: none; stroke-linecap: butt; stroke-linejoin: miter; stroke-miterlimit: 4; fill: rgb(23,23,23); fill-rule: nonzero; opacity: 1;" transform="translate(-69.05 76.7) scale(0.13 0.13) matrix(1 0 0 -1 0 0) translate(-982.1015331797164, -924.7330621052066) " stroke-linecap="round" />
	<path id="node20" d="M 917 993 c -15 -14 -6 -63 15 -83 c 23 -21 63 -26 87 -11 c 15 10 3 40 -32 79 c -20 21 -56 29 -70 15 z" style="stroke: none; stroke-width: 1; stroke-dasharray: none; stroke-linecap: butt; stroke-linejoin: miter; stroke-miterlimit: 4; fill: rgb(23,23,23); fill-rule: nonzero; opacity: 1;" transform="translate(-71.01 73.98) scale(0.13 0.13) matrix(1 0 0 -1 0 0) translate(-967.4449381612096, -945.1715565943853) " stroke-linecap="round" />
	<path id="node21" d="M 2032 877 c -27 -29 -28 -49 -2 -72 c 14 -13 28 -16 55 -11 c 34 7 36 6 26 -12 c -20 -37 -65 -42 -105 -11 l -26 20 l 0 -37 c 0 -21 -7 -45 -15 -55 c -15 -15 -13 -17 28 -23 c 67 -10 121 2 156 36 c 74 72 37 188 -59 188 c -25 0 -43 -7 -58 -23 z" style="stroke: none; stroke-width: 1; stroke-dasharray: none; stroke-linecap: butt; stroke-linejoin: miter; stroke-miterlimit: 4; fill: rgb(23,23,23); fill-rule: nonzero; opacity: 1;" transform="translate(76.31 95.16) scale(0.13 0.13) matrix(1 0 0 -1 0 0) translate(-2072.315276164098, -786.2954545454545) " stroke-linecap="round" />
	<path id="node22" d="M 1066 714 c -35 -34 -7 -94 29 -64 c 8 7 15 8 15 2 c 0 -15 -26 -33 -35 -24 c -4 4 -6 0 -3 -8 c 14 -43 88 0 88 51 c 0 48 -61 76 -94 43 z" style="stroke: none; stroke-width: 1; stroke-dasharray: none; stroke-linecap: butt; stroke-linejoin: miter; stroke-miterlimit: 4; fill: rgb(23,23,23); fill-rule: nonzero; opacity: 1;" transform="translate(-52.67 111.29) scale(0.13 0.13) matrix(1 0 0 -1 0 0) translate(-1104.9748748279608, -665.3606853880633) " stroke-linecap="round" />
	<path id="node23" d="M 1242 663 c 18 -36 28 -68 25 -86 c -3 -23 1 -28 22 -33 c 14 -3 38 -10 54 -14 c 22 -7 27 -6 27 8 c 1 9 7 34 14 55 c 13 34 12 39 -2 44 c -35 11 -108 47 -134 65 c -14 10 -28 18 -30 18 c -3 0 8 -26 24 -57 z" style="stroke: none; stroke-width: 1; stroke-dasharray: none; stroke-linecap: butt; stroke-linejoin: miter; stroke-miterlimit: 4; fill: rgb(23,23,23); fill-rule: nonzero; opacity: 1;" transform="translate(-25.96 116.95) scale(0.13 0.13) matrix(1 0 0 -1 0 0) translate(-1305.331200719522, -622.8784974905777) " stroke-linecap="round" />
	<path id="node24" d="M 2210 693 c -52 -53 -153 -69 -244 -38 c -43 15 -47 14 -147 -18 l -102 -33 l 47 -39 l 47 -38 l 67 13 c 85 16 208 58 295 100 c 54 27 67 38 67 57 c 0 27 2 27 -30 -4 z" style="stroke: none; stroke-width: 1; stroke-dasharray: none; stroke-linecap: butt; stroke-linejoin: miter; stroke-miterlimit: 4; fill: rgb(23,23,23); fill-rule: nonzero; opacity: 1;" transform="translate(63.8 117.08) scale(0.13 0.13) matrix(1 0 0 -1 0 0) translate(-1978.5123456790122, -621.8879413033319) " stroke-linecap="round" />
	<path id="node25" d="M 935 700 c -5 -7 103 -75 110 -68 c 3 2 -8 18 -23 35 c -25 29 -77 49 -87 33 z" style="stroke: none; stroke-width: 1; stroke-dasharray: none; stroke-linecap: butt; stroke-linejoin: miter; stroke-miterlimit: 4; fill: rgb(23,23,23); fill-rule: nonzero; opacity: 1;" transform="translate(-67.98 110.86) scale(0.13 0.13) matrix(1 0 0 -1 0 0) translate(-990.1634425764807, -668.5847968000162) " stroke-linecap="round" />
	<path id="node26" d="M 1190 669 c 0 -15 -10 -38 -21 -53 c -12 -15 -20 -28 -18 -30 c 14 -12 51 -26 68 -26 c 29 0 28 44 -4 95 c -23 38 -24 38 -25 14 z" style="stroke: none; stroke-width: 1; stroke-dasharray: none; stroke-linecap: butt; stroke-linejoin: miter; stroke-miterlimit: 4; fill: rgb(23,23,23); fill-rule: nonzero; opacity: 1;" transform="translate(-40.63 116.96) scale(0.13 0.13) matrix(1 0 0 -1 0 0) translate(-1195.3035716554482, -622.774469489121) " stroke-linecap="round" />
	<path id="node27" d="M 1437 595 c -4 -9 -7 -29 -7 -45 c 0 -23 5 -29 31 -34 c 59 -12 139 -7 139 8 c 0 18 -20 33 -50 38 c -24 3 -24 4 -4 15 c 27 15 64 -3 82 -40 c 11 -22 20 -27 48 -27 c 18 0 34 2 34 5 c 0 3 -11 23 -25 45 c -25 39 -27 40 -83 40 c -31 0 -80 3 -108 6 c -42 5 -52 4 -57 -11 z" style="stroke: none; stroke-width: 1; stroke-dasharray: none; stroke-linecap: butt; stroke-linejoin: miter; stroke-miterlimit: 4; fill: rgb(23,23,23); fill-rule: nonzero; opacity: 1;" transform="translate(9.33 125.47) scale(0.13 0.13) matrix(1 0 0 -1 0 0) translate(-1570, -559.0023172772019) " stroke-linecap="round" />
	<path id="node29" d="M 970 2030 c -14 -11 -42 -25 -62 -30 c -53 -15 -68 -34 -68 -86 c 0 -49 14 -57 32 -19 c 6 14 15 25 20 25 c 5 0 2 -10 -6 -22 c -26 -37 -21 -58 14 -58 c 34 0 37 -6 13 -32 c -15 -17 -15 -18 0 -18 c 22 0 21 -10 0 -25 c -17 -12 -17 -14 1 -34 c 11 -12 25 -21 33 -21 c 7 0 13 -5 13 -10 c 0 -6 -6 -10 -12 -8 c -19 3 -68 -11 -68 -21 c 0 -4 10 -13 23 -19 c 20 -11 19 -11 -11 -6 c -59 10 -52 -48 11 -86 c 36 -22 118 -27 164 -9 l 28 10 l -28 21 c -15 11 -34 33 -42 49 c -9 16 -25 38 -37 49 c -19 17 -19 20 -4 20 c 39 0 183 99 145 100 c -9 0 -47 14 -84 31 c -49 23 -69 29 -78 20 c -21 -21 -28 -11 -7 11 c 28 30 42 83 38 140 l -3 47 l -25 -19 z" style="stroke: none; stroke-width: 1; stroke-dasharray: none; stroke-linecap: butt; stroke-linejoin: miter; stroke-miterlimit: 4; fill: rgb(160,160,160); fill-rule: nonzero; opacity: 1;" transform="translate(-68.31 -39.27) scale(0.13 0.13) matrix(1 0 0 -1 0 0) translate(-987.6628310074931, -1794.5222837062327) " stroke-linecap="round" />
	<path id="node30" d="M 782 1843 c -8 -3 -22 -26 -33 -51 c -16 -37 -18 -51 -9 -78 c 11 -33 40 -66 40 -46 c 0 6 -4 14 -10 17 c -5 3 -10 21 -10 38 l 0 32 l 21 -43 c 26 -51 43 -61 68 -38 c 63 57 6 199 -67 169 z" style="stroke: none; stroke-width: 1; stroke-dasharray: none; stroke-linecap: butt; stroke-linejoin: miter; stroke-miterlimit: 4; fill: rgb(160,160,160); fill-rule: nonzero; opacity: 1;" transform="translate(-92.61 -33.94) scale(0.13 0.13) matrix(1 0 0 -1 0 0) translate(-805.3881356235781, -1754.5175327708487) " stroke-linecap="round" />
	<path id="node31" d="M 747 1602 c -31 -34 -31 -75 -2 -140 c 15 -34 36 -69 46 -78 c 18 -16 19 -16 19 5 c 0 22 26 81 40 91 c 4 3 12 15 19 27 c 12 23 4 52 -22 86 c -23 28 -36 20 -40 -25 l -4 -43 l -1 48 c -2 38 -5 47 -20 47 c -11 0 -26 -8 -35 -18 z" style="stroke: none; stroke-width: 1; stroke-dasharray: none; stroke-linecap: butt; stroke-linejoin: miter; stroke-miterlimit: 4; fill: rgb(160,160,160); fill-rule: nonzero; opacity: 1;" transform="translate(-93.47 0.5) scale(0.13 0.13) matrix(1 0 0 -1 0 0) translate(-798.9745008095947, -1496.2807306391742) " stroke-linecap="round" />
</g>
</svg>