<?xml version="1.0" encoding="UTF-8" standalone="no" ?>
<!DOCTYPE svg PUBLIC "-//W3C//DTD SVG 1.1//EN" "http://www.w3.org/Graphics/SVG/1.1/DTD/svg11.dtd">
<svg xmlns="http://www.w3.org/2000/svg" xmlns:xlink="http://www.w3.org/1999/xlink" version="1.1" width="1201" height="901" viewBox="0 0 746.62 560.12" xml:space="preserve">
<desc>Created with Fabric.js 2.3.3</desc>
<defs>
</defs>
<rect x="-208.575" y="-78.215" rx="0" ry="0" width="417.15" height="156.43" style="stroke: none; stroke-width: 1; stroke-dasharray: none; stroke-linecap: butt; stroke-linejoin: miter; stroke-miterlimit: 4; fill: rgb(53,183,41); fill-rule: nonzero; opacity: 1;" transform="translate(355.1 189.22) rotate(-180) scale(1.79 1.79)"/>
<g transform="translate(365.61 206.65) scale(1.79 1.79)" style="">
	<path d="M 261.057 107.019 C 113.076 165.105 0 65.646 0 65.646 v 90.786 h 417.152 V 91.605 C 417.152 91.605 352.826 155.355 261.057 107.019 z" style="stroke: none; stroke-width: 1; stroke-dasharray: none; stroke-linecap: butt; stroke-linejoin: miter; stroke-miterlimit: 4; fill: rgb(158,22,46); fill-rule: nonzero; opacity: 1;" transform="translate(0 32.82) translate(-208.576, -111.03900000000002) " stroke-linecap="round" />
	<path d="M 261.057 129.064 c 124.234 -69.396 44.425 -148.105 0 -106.044 C 216.632 -19.04 136.823 59.668 261.057 129.064 z" style="stroke: none; stroke-width: 1; stroke-dasharray: none; stroke-linecap: butt; stroke-linejoin: miter; stroke-miterlimit: 4; fill: rgb(158,22,46); fill-rule: nonzero; opacity: 1;" transform="translate(52.48 -8.07) translate(-261.057, -70.1452678714145) " stroke-linecap="round" />
	<path d="M 261.057 120.064 c 117.487 -64.096 42.013 -136.793 0 -97.944 C 219.045 -16.729 143.57 55.969 261.057 120.064 z" style="stroke: none; stroke-width: 1; stroke-dasharray: none; stroke-linecap: butt; stroke-linejoin: miter; stroke-miterlimit: 4; fill: rgb(235,228,228); fill-rule: nonzero; opacity: 1;" transform="translate(52.48 -12.57) translate(-261.05714246842615, -65.64550398718174) " stroke-linecap="round" />
	<path d="M 259.297 116.969 c 106.832 -55.858 38.202 -119.212 0 -85.356 C 221.094 -2.243 152.465 61.111 259.297 116.969 z" style="stroke: none; stroke-width: 1; stroke-dasharray: none; stroke-linecap: butt; stroke-linejoin: miter; stroke-miterlimit: 4; fill: rgb(254,246,246); fill-rule: nonzero; opacity: 1;" transform="translate(50.72 -8.67) translate(-259.2968575314494, -69.54451735975485) " stroke-linecap="round" />
	<path d="M 280.594 80.895 c 0 0 12.081 1.238 11.026 18.883 c 0 0 -10.009 13.426 -30.04 17.826 c 0 0 -24.226 -3.707 -32.321 -21.881 c 0 0 -0.439 -21.579 12.026 -29.756 l 14.325 5.44 c 0.689 7.092 3.471 12.176 8.039 15.544 l 3.061 -11.329 L 280.594 80.895 z" style="stroke: none; stroke-width: 1; stroke-dasharray: none; stroke-linecap: butt; stroke-linejoin: miter; stroke-miterlimit: 4; fill: rgb(255,127,144); fill-rule: nonzero; opacity: 1;" transform="translate(51.9 13.57) translate(-260.47119134258696, -91.78549999999998) " stroke-linecap="round" />
	<path d="M 259.833 75.997 c 0 0 -3.327 -6.809 3.053 -13.295 c 6.38 -6.486 14.777 -5.944 19.177 -2.633 l 2.996 -1.182 l -1.879 2.865 l 3.033 -0.025 l -0.75 1.346 c 0 0 4.485 7.659 3.351 13.997 c -1.134 6.338 -5.226 9.944 -5.226 9.944 L 259.833 75.997 z" style="stroke: none; stroke-width: 1; stroke-dasharray: none; stroke-linecap: butt; stroke-linejoin: miter; stroke-miterlimit: 4; fill: rgb(183,96,230); fill-rule: nonzero; opacity: 1;" transform="translate(65.41 -5.87) translate(-273.9818391717482, -72.34155744920608) " stroke-linecap="round" />
	<path d="M 261.579 66.694 c 0 0 -4.134 10.402 0.314 17.851 c 4.447 7.449 14.193 8.42 20.263 3.672 c 6.07 -4.747 4.717 -11.531 4.717 -11.531 s 3.605 -2.859 0.581 -5.832 c -3.023 -2.973 -4.468 0.856 -4.468 0.856 S 278.984 52.083 261.579 66.694 z" style="stroke: none; stroke-width: 1; stroke-dasharray: none; stroke-linecap: butt; stroke-linejoin: miter; stroke-miterlimit: 4; fill: rgb(249,208,188); fill-rule: nonzero; opacity: 1;" transform="translate(65.67 -2.01) translate(-274.2467967220902, -76.20392790396231) " stroke-linecap="round" />
	<path d="M 261.579 66.694 c 0 0 8.781 6.848 17.753 5.178 l 0.196 -1.501 l 4.788 7.932 c 0 0 -1.425 -6.455 -0.285 -8.086 c 0 0 -3.354 -10.866 -10.709 -10.432 C 265.967 60.219 261.579 66.694 261.579 66.694 z" style="stroke: none; stroke-width: 1; stroke-dasharray: none; stroke-linecap: butt; stroke-linejoin: miter; stroke-miterlimit: 4; fill: rgb(183,96,230); fill-rule: nonzero; opacity: 1;" transform="translate(64.37 -9.18) translate(-272.9475, -69.03766845532714) " stroke-linecap="round" />
	<path d="M 278.951 91.892 l -15.815 2.465 l 0.664 6.498 l 17.211 0.831 c 0 0 6.83 -2.381 4.252 -8.497 C 284.098 90.425 278.951 91.892 278.951 91.892 z" style="stroke: none; stroke-width: 1; stroke-dasharray: none; stroke-linecap: butt; stroke-linejoin: miter; stroke-miterlimit: 4; fill: rgb(255,145,163); fill-rule: nonzero; opacity: 1;" transform="translate(65.91 18.38) translate(-274.49022387523075, -96.59451977540168) " stroke-linecap="round" />
	<path d="M 249.73 76.045 c 0 0 8.104 13.65 23.84 11.571 l 0.553 5.417 c 0 0 -19.419 4.632 -28.919 -8.286 c 0 0 -2.073 -3.395 -2.017 -5.915 C 243.284 74.584 249.73 76.045 249.73 76.045 z" style="stroke: none; stroke-width: 1; stroke-dasharray: none; stroke-linecap: butt; stroke-linejoin: miter; stroke-miterlimit: 4; fill: rgb(255,145,163); fill-rule: nonzero; opacity: 1;" transform="translate(50.08 6.61) translate(-258.6544427530599, -84.82163339589391) " stroke-linecap="round" />
	<path d="M 243.889 35.488 c 0 0 -21.983 7.982 -10.796 36.024 l 3.092 -1.589 l 3.438 1.658 c 0 0 -4.29 -4.259 -1.164 -15.026 L 243.889 35.488 z" style="stroke: none; stroke-width: 1; stroke-dasharray: none; stroke-linecap: butt; stroke-linejoin: miter; stroke-miterlimit: 4; fill: rgb(183,96,230); fill-rule: nonzero; opacity: 1;" transform="translate(28.33 -24.68) translate(-236.90422220784507, -53.5345) " stroke-linecap="round" />
	<path d="M 257.997 49.894 c 0 0 10.549 0.322 9.72 10.12 c -0.735 8.689 -7.938 13.364 -7.938 13.364 L 257.997 49.894 z" style="stroke: none; stroke-width: 1; stroke-dasharray: none; stroke-linecap: butt; stroke-linejoin: miter; stroke-miterlimit: 4; fill: rgb(183,96,230); fill-rule: nonzero; opacity: 1;" transform="translate(54.3 -16.58) translate(-262.8802104288577, -61.635999999999996) " stroke-linecap="round" />
	<path d="M 246.409 76.641 c -4.693 -2.027 -9.729 -6.021 -9.296 -14.068 c 0 0 -5.915 -1.519 -3.59 -6.667 c 2.325 -5.148 4.937 0.649 4.937 0.649 s 4.329 -13.235 17.849 -10.47 c 13.52 2.764 9.689 21.761 3.471 27.293 C 253.108 79.313 246.409 76.641 246.409 76.641 z" style="stroke: none; stroke-width: 1; stroke-dasharray: none; stroke-linecap: butt; stroke-linejoin: miter; stroke-miterlimit: 4; fill: rgb(249,208,188); fill-rule: nonzero; opacity: 1;" transform="translate(40.64 -16.74) translate(-249.21419761247768, -61.47296627741834) " stroke-linecap="round" />
	<path d="M 238.459 56.555 c 13.001 1.78 19.538 -6.661 19.538 -6.661 s 2.914 8.818 8.884 10.088 c 5.97 1.271 7.608 -19.733 -6.286 -21.408 c 0 0 -6.699 -7.623 -16.705 -3.086 C 231.889 40.929 238.459 56.555 238.459 56.555 z" style="stroke: none; stroke-width: 1; stroke-dasharray: none; stroke-linecap: butt; stroke-linejoin: miter; stroke-miterlimit: 4; fill: rgb(183,96,230); fill-rule: nonzero; opacity: 1;" transform="translate(45.4 -31.17) translate(-253.97781302346047, -47.041975552436234) " stroke-linecap="round" />
	<path d="M 273.627 88.169 c 0 0 5.67 -3.267 6.388 -2.823 c 0.717 0.444 -0.978 2.064 -0.978 2.064 s 5.044 -0.205 5.276 0.546 c 0.232 0.752 -4.099 1.614 -4.099 1.614 s 4.131 1.225 3.932 1.814 c -0.198 0.589 -4.023 0.521 -4.023 0.521 s 2.754 1.726 2.686 2.327 c -0.068 0.601 -3.691 -0.403 -3.691 -0.403 s 1 1.171 0.591 1.445 c -0.409 0.274 -5.622 -2.604 -5.622 -2.604 L 273.627 88.169 z" style="stroke: none; stroke-width: 1; stroke-dasharray: none; stroke-linecap: butt; stroke-linejoin: miter; stroke-miterlimit: 4; fill: rgb(255,217,199); fill-rule: nonzero; opacity: 1;" transform="translate(70.4 12.08) translate(-278.9744993254132, -90.2984574634917) " stroke-linecap="round" />
	<path d="M 263.162 94.609 c 0 0 -2.627 -2.221 -3.46 -1.796 c -0.833 0.425 0.309 1.691 0.309 1.691 s -4.226 1.168 -4.263 2.379 c -0.038 1.211 1.277 1.151 1.277 1.151 s -0.644 0.835 -0.468 1.292 c 0.176 0.457 1.28 0.872 1.28 0.872 s -0.241 1.202 -0.12 1.632 c 0.121 0.43 1.583 0.208 1.583 0.208 s -0.513 0.643 -0.042 1.133 c 0.472 0.49 4.518 -2.561 4.518 -2.561 L 263.162 94.609 z" style="stroke: none; stroke-width: 1; stroke-dasharray: none; stroke-linecap: butt; stroke-linejoin: miter; stroke-miterlimit: 4; fill: rgb(249,208,188); fill-rule: nonzero; opacity: 1;" transform="translate(51.19 19.78) translate(-259.76159600512716, -97.99161639721548) " stroke-linecap="round" />
	<path d="M 248.176 61.99 c -0.273 0.358 -0.658 0.634 -1.094 0.799 c -0.433 0.177 -0.93 0.228 -1.405 0.121 c -0.502 -0.096 -0.937 -0.466 -1.154 -0.895 c -0.226 -0.431 -0.304 -0.896 -0.291 -1.357 l 0.124 0.094 c -0.2 0.013 -0.399 0.033 -0.602 0.033 c 0.183 -0.088 0.371 -0.155 0.557 -0.23 l 0.094 -0.038 l 0.029 0.132 c 0.091 0.41 0.251 0.812 0.471 1.138 c 0.223 0.329 0.519 0.558 0.883 0.647 C 246.555 62.622 247.404 62.427 248.176 61.99 z" style="stroke: none; stroke-width: 1; stroke-dasharray: none; stroke-linecap: butt; stroke-linejoin: miter; stroke-miterlimit: 4; fill: rgb(171,126,103); fill-rule: nonzero; opacity: 1;" transform="translate(37.39 -16.47) translate(-245.96499999999997, -61.74132876160111) " stroke-linecap="round" />
	<path d="M 256.755 62.401 c 0.376 0.803 0.954 1.455 1.689 1.745 c 0.348 0.139 0.722 0.123 1.094 -0.015 c 0.368 -0.139 0.732 -0.374 1.044 -0.655 l 0.1 -0.09 l 0.055 0.086 c 0.108 0.169 0.222 0.333 0.32 0.511 c -0.166 -0.117 -0.316 -0.249 -0.471 -0.376 l 0.155 -0.004 c -0.257 0.383 -0.59 0.717 -1.024 0.937 c -0.426 0.224 -0.994 0.273 -1.46 0.06 c -0.449 -0.189 -0.825 -0.519 -1.075 -0.914 C 256.923 63.298 256.77 62.85 256.755 62.401 z" style="stroke: none; stroke-width: 1; stroke-dasharray: none; stroke-linecap: butt; stroke-linejoin: miter; stroke-miterlimit: 4; fill: rgb(171,126,103); fill-rule: nonzero; opacity: 1;" transform="translate(50.33 -14.65) translate(-258.906, -63.56870156505779) " stroke-linecap="round" />
	<path d="M 245.918 69.231 c 0.48 0.7 0.989 1.369 1.559 1.969 c 0.57 0.594 1.211 1.126 1.938 1.415 c 0.715 0.27 1.564 0.211 2.348 0.042 c 0.786 -0.196 1.54 -0.581 2.177 -1.139 c -0.488 0.704 -1.24 1.218 -2.068 1.508 c -0.83 0.272 -1.75 0.369 -2.635 0.056 c -0.843 -0.349 -1.523 -0.95 -2.049 -1.63 C 246.656 70.773 246.218 70.03 245.918 69.231 z" style="stroke: none; stroke-width: 1; stroke-dasharray: none; stroke-linecap: butt; stroke-linejoin: miter; stroke-miterlimit: 4; fill: rgb(255,127,144); fill-rule: nonzero; opacity: 1;" transform="translate(41.35 -6.96) translate(-249.929, -71.2540316064617) " stroke-linecap="round" />
	<path d="M 252.897 61.705 c 0.044 0.944 0.09 1.839 0.282 2.585 c 0.048 0.184 0.118 0.354 0.187 0.508 c 0.038 0.074 0.066 0.156 0.116 0.217 l 0.168 0.254 c 0.294 0.435 0.568 0.997 0.475 1.743 c -0.054 0.371 -0.28 0.744 -0.561 0.955 c -0.278 0.22 -0.578 0.339 -0.853 0.399 c -0.562 0.135 -1.058 0.083 -1.561 0.007 c -0.252 -0.038 -0.511 -0.126 -0.765 -0.243 c -0.25 -0.126 -0.529 -0.332 -0.645 -0.665 c -0.124 -0.334 -0.001 -0.664 0.157 -0.871 c 0.159 -0.219 0.392 -0.355 0.626 -0.414 l 0.033 0.067 c -0.375 0.192 -0.692 0.667 -0.502 1.066 c 0.212 0.385 0.716 0.484 1.145 0.522 c 0.445 0.033 0.904 0.02 1.329 -0.102 c 0.422 -0.109 0.823 -0.402 0.881 -0.835 c 0.125 -0.896 -0.842 -1.539 -0.884 -2.506 c -0.125 -0.918 0.033 -1.84 0.301 -2.71 L 252.897 61.705 z" style="stroke: none; stroke-width: 1; stroke-dasharray: none; stroke-linecap: butt; stroke-linejoin: miter; stroke-miterlimit: 4; fill: rgb(171,126,103); fill-rule: nonzero; opacity: 1;" transform="translate(43.34 -13.15) translate(-251.91635626073113, -65.06575071962831) " stroke-linecap="round" />
	<path d="M 274.927 76.297 c 0.772 0.437 1.621 0.631 2.388 0.442 c 0.364 -0.089 0.66 -0.318 0.883 -0.647 c 0.219 -0.326 0.379 -0.729 0.47 -1.139 l 0.029 -0.132 l 0.094 0.038 c 0.186 0.075 0.374 0.142 0.557 0.23 c -0.203 0.001 -0.402 -0.02 -0.602 -0.033 l 0.124 -0.094 c 0.013 0.461 -0.065 0.926 -0.29 1.357 c -0.217 0.429 -0.651 0.799 -1.154 0.896 c -0.475 0.107 -0.973 0.056 -1.406 -0.121 C 275.585 76.93 275.2 76.655 274.927 76.297 z" style="stroke: none; stroke-width: 1; stroke-dasharray: none; stroke-linecap: butt; stroke-linejoin: miter; stroke-miterlimit: 4; fill: rgb(171,126,103); fill-rule: nonzero; opacity: 1;" transform="translate(68.56 -2.17) translate(-277.13750000000005, -76.04582876160109) " stroke-linecap="round" />
	<path d="M 266.349 76.711 c -0.015 0.449 -0.168 0.897 -0.427 1.285 c -0.25 0.395 -0.626 0.725 -1.075 0.914 c -0.465 0.213 -1.033 0.164 -1.459 -0.06 c -0.434 -0.22 -0.767 -0.554 -1.024 -0.937 l 0.155 0.005 c -0.156 0.126 -0.306 0.258 -0.471 0.376 c 0.098 -0.178 0.212 -0.342 0.32 -0.511 l 0.055 -0.086 l 0.1 0.09 c 0.312 0.281 0.676 0.516 1.044 0.654 c 0.372 0.138 0.746 0.154 1.094 0.015 C 265.395 78.166 265.973 77.514 266.349 76.711 z" style="stroke: none; stroke-width: 1; stroke-dasharray: none; stroke-linecap: butt; stroke-linejoin: miter; stroke-miterlimit: 4; fill: rgb(171,126,103); fill-rule: nonzero; opacity: 1;" transform="translate(55.62 -0.34) translate(-264.19849999999997, -77.87870156505778) " stroke-linecap="round" />
	<path d="M 277.188 83.537 c -0.299 0.798 -0.737 1.542 -1.27 2.221 c -0.526 0.681 -1.206 1.282 -2.049 1.631 c -0.885 0.314 -1.805 0.216 -2.635 -0.055 c -0.828 -0.29 -1.581 -0.803 -2.069 -1.507 c 0.638 0.558 1.392 0.943 2.178 1.138 c 0.785 0.169 1.634 0.227 2.348 -0.043 c 0.727 -0.289 1.369 -0.821 1.938 -1.416 C 276.199 84.907 276.708 84.237 277.188 83.537 z" style="stroke: none; stroke-width: 1; stroke-dasharray: none; stroke-linecap: butt; stroke-linejoin: miter; stroke-miterlimit: 4; fill: rgb(171,126,103); fill-rule: nonzero; opacity: 1;" transform="translate(64.6 7.34) translate(-273.17650000000003, -85.5607810885684) " stroke-linecap="round" />
	<path d="M 270.277 75.99 c 0.561 0.788 0.905 1.735 0.835 2.793 c -0.027 0.263 -0.061 0.538 -0.164 0.805 c -0.055 0.133 -0.101 0.268 -0.181 0.395 l -0.192 0.325 c -0.197 0.314 -0.326 0.637 -0.299 0.807 c 0.014 0.124 0.104 0.286 0.449 0.412 c 0.315 0.109 0.742 0.181 1.141 0.185 c 0.4 0.022 0.785 -0.043 0.953 -0.203 c 0.202 -0.166 0.063 -0.666 -0.27 -0.954 l 0.033 -0.067 c 0.4 0.202 0.759 0.696 0.551 1.173 c -0.247 0.448 -0.779 0.541 -1.217 0.59 c -0.457 0.039 -0.922 0.032 -1.373 -0.09 c -0.44 -0.105 -0.91 -0.426 -0.983 -0.931 c -0.065 -0.488 0.139 -0.946 0.393 -1.326 c 0.264 -0.369 0.436 -0.775 0.504 -1.221 c 0.137 -0.886 -0.002 -1.806 -0.252 -2.667 L 270.277 75.99 z" style="stroke: none; stroke-width: 1; stroke-dasharray: none; stroke-linecap: butt; stroke-linejoin: miter; stroke-miterlimit: 4; fill: rgb(171,126,103); fill-rule: nonzero; opacity: 1;" transform="translate(62.79 0.92) translate(-271.370889265663, -79.1310579671389) " stroke-linecap="round" />
	<path d="M 261.057 120.064 C 109.076 169.605 0 65.646 0 65.646 v 90.786 h 417.152 V 91.605 C 417.152 91.605 360.576 158.605 261.057 120.064 z" style="stroke: none; stroke-width: 1; stroke-dasharray: none; stroke-linecap: butt; stroke-linejoin: miter; stroke-miterlimit: 4; fill: rgb(255,122,145); fill-rule: nonzero; opacity: 1;" transform="translate(0 32.82) translate(-208.576, -111.03900000000002) " stroke-linecap="round" />
	<path d="M 417.152 91.605 c -4.376 5.497 -9.576 10.32 -15.079 14.724 c -5.542 4.369 -11.486 8.243 -17.714 11.616 c -12.483 6.701 -26.133 11.304 -40.177 13.675 c -14.054 2.361 -28.45 2.545 -42.614 0.985 c -14.164 -1.636 -28.102 -4.921 -41.593 -9.425 l -0.229 -0.077 l -0.269 -0.144 c -13.878 -7.432 -27.241 -16.13 -39.035 -26.967 c -5.859 -5.442 -11.308 -11.453 -15.823 -18.259 c -4.479 -6.797 -8.077 -14.445 -9.556 -22.791 c -1.504 -8.291 -0.626 -17.3 3.16 -25.108 c 1.841 -3.918 4.406 -7.472 7.416 -10.562 c 3.054 -3.046 6.559 -5.646 10.413 -7.57 c 3.831 -1.972 7.992 -3.259 12.241 -3.947 c 4.258 -0.612 8.624 -0.65 12.87 0.095 c 8.538 1.368 16.409 5.629 22.607 11.334 h -5.428 c 6.192 -5.712 14.069 -9.969 22.606 -11.338 c 4.246 -0.746 8.613 -0.707 12.871 -0.095 c 4.25 0.688 8.411 1.975 12.242 3.947 c 3.854 1.924 7.36 4.524 10.414 7.571 c 3.011 3.091 5.576 6.645 7.417 10.563 c 3.786 7.81 4.664 16.819 3.16 25.111 c -1.465 8.35 -5.075 15.998 -9.551 22.796 c -4.516 6.807 -9.965 12.818 -15.825 18.26 c -11.794 10.84 -25.162 19.531 -39.035 26.972 l -0.285 0.153 l -0.257 0.083 c -11.196 3.609 -22.613 6.532 -34.171 8.715 c -11.563 2.152 -23.269 3.529 -35.009 4.107 c -23.49 1.14 -47.082 -1.167 -69.911 -6.434 c -11.417 -2.643 -22.64 -6.063 -33.592 -10.165 c -10.955 -4.094 -21.657 -8.835 -32.015 -14.221 C 47.048 99.821 37.024 93.82 27.384 87.274 c -4.813 -3.285 -9.516 -6.725 -14.102 -10.312 C 8.708 73.363 4.218 69.65 0 65.646 c 8.782 7.624 18.328 14.298 28.108 20.526 c 9.798 6.21 19.945 11.854 30.382 16.871 c 20.843 10.09 42.849 17.712 65.429 22.443 c 22.575 4.743 45.746 6.45 68.694 4.959 c 11.473 -0.735 22.891 -2.25 34.154 -4.519 c 11.258 -2.3 22.364 -5.318 33.246 -9.004 l -0.541 0.235 c 6.702 -3.761 13.27 -7.738 19.544 -12.105 c 6.267 -4.37 12.247 -9.113 17.756 -14.295 c 5.48 -5.199 10.485 -10.87 14.51 -17.088 c 4.006 -6.207 7.028 -13 8.217 -20.025 c 1.235 -6.995 0.448 -14.229 -2.592 -20.455 c -1.478 -3.128 -3.545 -5.956 -5.965 -8.432 c -2.464 -2.432 -5.29 -4.525 -8.411 -6.063 c -3.096 -1.586 -6.466 -2.604 -9.894 -3.153 c -3.438 -0.472 -6.953 -0.503 -10.375 0.117 c -6.878 1.126 -13.268 4.585 -18.491 9.398 l -2.718 2.504 l -2.711 -2.504 c -5.218 -4.82 -11.613 -8.274 -18.49 -9.402 c -3.422 -0.621 -6.938 -0.589 -10.376 -0.117 c -3.428 0.549 -6.798 1.568 -9.895 3.154 c -3.121 1.538 -5.947 3.631 -8.412 6.063 c -2.42 2.476 -4.487 5.304 -5.965 8.433 c -3.04 6.227 -3.827 13.461 -2.592 20.457 c 1.175 7.03 4.209 13.823 8.212 20.031 c 4.026 6.219 9.032 11.891 14.512 17.09 c 5.51 5.183 11.49 9.926 17.758 14.296 c 6.276 4.362 12.839 8.35 19.542 12.109 l -0.498 -0.22 c 13.009 4.698 26.448 8.21 40.124 10.128 c 13.665 1.894 27.589 2.247 41.296 0.401 c 13.696 -1.804 27.175 -5.654 39.71 -11.678 c 6.274 -2.987 12.323 -6.491 18.02 -10.52 C 406.98 101.254 412.447 96.816 417.152 91.605 z" style="stroke: none; stroke-width: 1; stroke-dasharray: none; stroke-linecap: butt; stroke-linejoin: miter; stroke-miterlimit: 4; fill: rgb(255,196,205); fill-rule: nonzero; opacity: 1;" transform="translate(0 -6.41) translate(-208.576, -71.80152123510976) " stroke-linecap="round" />
</g>
	<g transform="translate(197.76 209.99)">
		<text xml:space="preserve" font-family="Amarante" font-size="51.9216" font-style="normal" font-weight="normal" style="stroke: none; stroke-width: 1; stroke-dasharray: none; stroke-linecap: butt; stroke-linejoin: miter; stroke-miterlimit: 4; fill: rgb(254,246,246); fill-rule: nonzero; opacity: 1; white-space: pre;" ><tspan x="-81.18" y="16.31" >HELLOS</tspan></text>
	</g>
	<g transform="translate(186.85 261.35) scale(2.95 2.95)">
		<text xml:space="preserve" font-family="Amarante" font-size="16" font-style="normal" font-weight="normal" style="stroke: none; stroke-width: 1; stroke-dasharray: none; stroke-linecap: butt; stroke-linejoin: miter; stroke-miterlimit: 4; fill: rgb(254,246,246); fill-rule: nonzero; opacity: 1; white-space: pre;" ><tspan x="-43.7" y="5.03" >MOTHER DAY</tspan></text>
	</g>
	<g transform="translate(323.18 330.32)">
		<text xml:space="preserve" font-family="Allan" font-size="37.5984" font-style="normal" font-weight="normal" style="stroke: none; stroke-width: 1; stroke-dasharray: none; stroke-linecap: butt; stroke-linejoin: miter; stroke-miterlimit: 4; fill: rgb(254,246,246); fill-rule: nonzero; opacity: 1; white-space: pre;" ><tspan x="-161.1" y="11.81" >&quot;i love yDASDSADou mom&quot;</tspan></text>
	</g>
	<g transform="translate(660.88 220.01) scale(2.5 2.5)">
		<text xml:space="preserve" font-family="Alegreya Sans SC" font-size="16" font-style="italic" font-weight="normal" style="stroke: none; stroke-width: 1; stroke-dasharray: none; stroke-linecap: butt; stroke-linejoin: miter; stroke-miterlimit: 4; fill: rgb(254,246,246); fill-rule: nonzero; opacity: 1; white-space: pre;" ><tspan x="-14.22" y="-1.48" >50%</tspan><tspan x="-14.22" y="11.54" >OFF</tspan></text>
	</g>
	<g transform="translate(626.42 274.89)">
		<text xml:space="preserve" font-family="Alegreya Sans SC" font-size="39.985600000000005" font-style="italic" font-weight="normal" style="stroke: none; stroke-width: 1; stroke-dasharray: none; stroke-linecap: butt; stroke-linejoin: miter; stroke-miterlimit: 4; fill: rgb(254,246,246); fill-rule: nonzero; opacity: 1; white-space: pre;" ><tspan x="-44.76" y="12.56" >DSAD</tspan></text>
	</g>
</svg>