<?xml version="1.0" encoding="UTF-8" standalone="no" ?>
<!DOCTYPE svg PUBLIC "-//W3C//DTD SVG 1.1//EN" "http://www.w3.org/Graphics/SVG/1.1/DTD/svg11.dtd">
<svg xmlns="http://www.w3.org/2000/svg" xmlns:xlink="http://www.w3.org/1999/xlink" version="1.1" width="1201" height="901" viewBox="0 0 608.51 456.51" xml:space="preserve">
<desc>Created with Fabric.js 2.3.3</desc>
<defs>
</defs>
<g transform="translate(306.46 229.89) scale(0.52 0.52)" style="">
	<path d="M 0.1 117.8 l 250.1 -70.6 c 53.5 -15.1 118.9 -9.6 161.5 13.5 l 40.4 21.9 L 792 0 H 0.1 V 117.8 z" style="stroke: none; stroke-width: 1; stroke-dasharray: none; stroke-linecap: butt; stroke-linejoin: miter; stroke-miterlimit: 4; fill: rgb(29,113,184); fill-rule: nonzero; opacity: 1;" transform="translate(0.05 -247.1) translate(-396.05, -58.9) " stroke-linecap="round" />
	<path d="M 0.1 117.8 v 56.2 L 408.3 58.9 l 0 0 C 367.7 36.8 305.4 31.6 254.4 46 L 0.1 117.8 z" style="stroke: none; stroke-width: 1; stroke-dasharray: none; stroke-linecap: butt; stroke-linejoin: miter; stroke-miterlimit: 4; fill: rgb(45,46,131); fill-rule: nonzero; opacity: 1;" transform="translate(-191.8 -200.04) translate(-204.2, -105.96305546819059) " stroke-linecap="round" />
	<path d="M 742.1 0 l 1.5 1.2 l 0.1 0.1 L 742.1 0 L 451.2 82.1 l 0 0 c 37.3 22.6 98 28.6 147.5 14.6 L 792 42.3 v -1.6 v -0.3 V 0 H 742.1 z" style="stroke: none; stroke-width: 1; stroke-dasharray: none; stroke-linecap: butt; stroke-linejoin: miter; stroke-miterlimit: 4; fill: rgb(45,46,131); fill-rule: nonzero; opacity: 1;" transform="translate(225.6 -253.9) translate(-621.6, -52.10134818860592) " stroke-linecap="round" />
	<polygon points="96.8,-25.6 -96.8,25.6 -96.8,-25.6 " style="stroke: none; stroke-width: 1; stroke-dasharray: none; stroke-linecap: butt; stroke-linejoin: miter; stroke-miterlimit: 4; fill: rgb(45,46,131); fill-rule: nonzero; opacity: 1;" transform="translate(-299.1 -280.4) "/>
	<path d="M 792 496.5 l -250.1 70.4 c -53.5 15.1 -118.9 9.6 -161.5 -13.5 l -40.4 -21.9 L 0.1 613.9 H 792 V 496.5 z" style="stroke: none; stroke-width: 1; stroke-dasharray: none; stroke-linecap: butt; stroke-linejoin: miter; stroke-miterlimit: 4; fill: rgb(29,113,184); fill-rule: nonzero; opacity: 1;" transform="translate(0.05 249.2) translate(-396.05, -555.2) " stroke-linecap="round" />
	<path d="M 792 496.5 v -56 L 383.8 555.2 h 0 c 40.6 22 102.9 27.2 153.9 12.9 L 792 496.5 z" style="stroke: none; stroke-width: 1; stroke-dasharray: none; stroke-linecap: butt; stroke-linejoin: miter; stroke-miterlimit: 4; fill: rgb(45,46,131); fill-rule: nonzero; opacity: 1;" transform="translate(191.9 202.3) translate(-587.9, -508.3017208243642) " stroke-linecap="round" />
	<path d="M 50 613.9 l -1.5 -1.2 l -0.1 -0.1 L 50 613.9 L 340.9 532 v 0 c -37.3 -22.5 -98 -28.5 -147.5 -14.6 L 0.1 571.7 v 1.6 v 0.3 v 40.2 H 50 z" style="stroke: none; stroke-width: 1; stroke-dasharray: none; stroke-linecap: butt; stroke-linejoin: miter; stroke-miterlimit: 4; fill: rgb(45,46,131); fill-rule: nonzero; opacity: 1;" transform="translate(-225.5 255.93) translate(-170.49999999999997, -561.9332415918809) " stroke-linecap="round" />
	<polygon points="-96.75,25.5 96.75,-25.5 96.75,25.5 " style="stroke: none; stroke-width: 1; stroke-dasharray: none; stroke-linecap: butt; stroke-linejoin: miter; stroke-miterlimit: 4; fill: rgb(45,46,131); fill-rule: nonzero; opacity: 1;" transform="translate(299.25 282.4) "/>
</g>
<path d="M 215.1 94.6 H 0 V -0.1 h 215.1 V 94.6 z M 3 91.7 h 209.2 V 2.9 H 3 V 91.7 z" style="stroke: none; stroke-width: 1; stroke-dasharray: none; stroke-linecap: butt; stroke-linejoin: miter; stroke-miterlimit: 4; fill: rgb(29,113,184); fill-rule: nonzero; opacity: 1;" transform="translate(303.66 199.92) scale(0.98 0.98) translate(-107.55, -47.24999999999999) " stroke-linecap="round" />
	<g transform="translate(230.58 228) scale(2.28 2.28)">
		<text xml:space="preserve" font-family="Roboto" font-size="16" font-style="normal" font-weight="normal" style="stroke: none; stroke-width: 1; stroke-dasharray: none; stroke-linecap: butt; stroke-linejoin: miter; stroke-miterlimit: 4; fill: rgb(79,84,103); fill-rule: nonzero; opacity: 1; white-space: pre;" ></text>
	</g>
<path d="M 3.3 9.7 h -2 V 3.3 h 2 V 9.7 z M 2.3 2.5 C 1.7 2.5 1.2 2 1.2 1.3 c 0 -0.7 0.5 -1.2 1.2 -1.2 c 0.6 0 1.2 0.5 1.2 1.2 C 3.5 2 3 2.5 2.3 2.5 z M 10.7 9.7 h -2 c 0 0 0 -2.4 0 -3.4 c 0 -0.9 -0.3 -1.4 -1.1 -1.4 c -0.8 0 -1.2 0.5 -1.2 1.4 c 0 1 0 3.4 0 3.4 H 4.6 V 3.3 h 1.9 v 0.9 c 0 0 0.6 -1.1 1.9 -1.1 c 1.4 0 2.3 0.8 2.3 2.5 S 10.7 9.7 10.7 9.7 z" style="stroke: none; stroke-width: 1; stroke-dasharray: none; stroke-linecap: butt; stroke-linejoin: miter; stroke-miterlimit: 4; fill: rgb(255,255,255); fill-rule: nonzero; opacity: 1;" transform="translate(436.27 352.12) scale(0.84 0.84) translate(-5.95, -4.9) " stroke-linecap="round" />
<path d="M 9.8 1.4 C 9.4 1.6 8.9 1.8 8.5 1.9 C 8.1 1.5 7.5 1.2 7 1.2 c -1.3 0 -2.3 1.2 -2 2.5 C 3.3 3.7 1.7 2.8 0.7 1.6 C 0.2 2.5 0.4 3.7 1.4 4.3 C 1 4.3 0.7 4.2 0.4 4.1 c 0 1 0.7 1.8 1.6 2 c -0.3 0.1 -0.6 0.1 -0.9 0 c 0.3 0.8 1 1.4 1.9 1.4 c -0.9 0.7 -1.9 1 -3 0.8 C 0.9 9 2 9.4 3.2 9.4 c 3.8 0 6 -3.2 5.8 -6.1 C 9.4 3 9.8 2.6 10 2.2 C 9.7 2.3 9.3 2.5 8.9 2.5 C 9.3 2.3 9.6 1.9 9.8 1.4 z" style="stroke: none; stroke-width: 1; stroke-dasharray: none; stroke-linecap: butt; stroke-linejoin: miter; stroke-miterlimit: 4; fill: rgb(255,255,255); fill-rule: nonzero; opacity: 1;" transform="translate(435.99 333.6) scale(1.12 1.12) translate(-5, -5.300000000000001) " stroke-linecap="round" />
<path d="M 10.8 2.5 c -0.1 -0.3 -0.3 -0.6 -0.6 -0.9 C 9.9 1.3 9.6 1.1 9.3 1 C 9 0.9 8.6 0.8 8.1 0.7 c -0.5 0 -0.7 0 -2.1 0 c -1.4 0 -1.6 0 -2.1 0 C 3.3 0.8 2.9 0.9 2.6 1 C 2.2 1.1 1.9 1.3 1.6 1.6 C 1.4 1.9 1.2 2.2 1.1 2.5 C 0.9 2.8 0.8 3.2 0.8 3.7 c 0 0.5 0 0.7 0 2.1 c 0 1.4 0 1.6 0 2.1 c 0 0.5 0.1 0.9 0.2 1.2 c 0.1 0.3 0.3 0.6 0.6 0.9 c 0.3 0.3 0.6 0.5 0.9 0.6 C 2.9 10.9 3.3 11 3.8 11 c 0.5 0 0.7 0 2.1 0 c 1.4 0 1.6 0 2.1 0 c 0.5 0 0.9 -0.1 1.2 -0.2 c 0.3 -0.1 0.6 -0.3 0.9 -0.6 c 0.3 -0.3 0.5 -0.6 0.6 -0.9 C 10.9 8.9 11 8.5 11 8 c 0 -0.5 0 -0.7 0 -2.1 c 0 -1.4 0 -1.6 0 -2.1 C 11 3.2 10.9 2.8 10.8 2.5 z M 10.1 7.9 c 0 0.5 -0.1 0.8 -0.2 1 C 9.8 9.1 9.7 9.3 9.6 9.5 C 9.4 9.7 9.2 9.8 9 9.9 C 8.8 9.9 8.5 10 8 10.1 c -0.5 0 -0.7 0 -2.1 0 c -1.4 0 -1.5 0 -2.1 0 c -0.5 0 -0.8 -0.1 -1 -0.2 C 2.7 9.8 2.5 9.7 2.3 9.5 C 2.1 9.3 2 9.1 1.9 8.9 c -0.1 -0.2 -0.2 -0.5 -0.2 -1 c 0 -0.5 0 -0.7 0 -2.1 c 0 -1.4 0 -1.5 0 -2.1 c 0 -0.5 0.1 -0.8 0.2 -1 C 2 2.6 2.1 2.4 2.3 2.2 c 0.2 -0.2 0.4 -0.3 0.6 -0.4 c 0.2 -0.1 0.5 -0.2 1 -0.2 c 0.5 0 0.7 0 2.1 0 s 1.5 0 2.1 0 c 0.5 0 0.8 0.1 1 0.2 c 0.2 0.1 0.4 0.2 0.6 0.4 c 0.2 0.2 0.3 0.4 0.4 0.6 c 0.1 0.2 0.2 0.5 0.2 1 c 0 0.5 0 0.7 0 2.1 C 10.1 7.2 10.1 7.4 10.1 7.9 z M 10.8 2.5 c -0.1 -0.3 -0.3 -0.6 -0.6 -0.9 C 9.9 1.3 9.6 1.1 9.3 1 C 9 0.9 8.6 0.8 8.1 0.7 c -0.5 0 -0.7 0 -2.1 0 c -1.4 0 -1.6 0 -2.1 0 C 3.3 0.8 2.9 0.9 2.6 1 C 2.2 1.1 1.9 1.3 1.6 1.6 C 1.4 1.9 1.2 2.2 1.1 2.5 C 0.9 2.8 0.8 3.2 0.8 3.7 c 0 0.5 0 0.7 0 2.1 c 0 1.4 0 1.6 0 2.1 c 0 0.5 0.1 0.9 0.2 1.2 c 0.1 0.3 0.3 0.6 0.6 0.9 c 0.3 0.3 0.6 0.5 0.9 0.6 C 2.9 10.9 3.3 11 3.8 11 c 0.5 0 0.7 0 2.1 0 c 1.4 0 1.6 0 2.1 0 c 0.5 0 0.9 -0.1 1.2 -0.2 c 0.3 -0.1 0.6 -0.3 0.9 -0.6 c 0.3 -0.3 0.5 -0.6 0.6 -0.9 C 10.9 8.9 11 8.5 11 8 c 0 -0.5 0 -0.7 0 -2.1 c 0 -1.4 0 -1.6 0 -2.1 C 11 3.2 10.9 2.8 10.8 2.5 z M 10.1 7.9 c 0 0.5 -0.1 0.8 -0.2 1 C 9.8 9.1 9.7 9.3 9.6 9.5 C 9.4 9.7 9.2 9.8 9 9.9 C 8.8 9.9 8.5 10 8 10.1 c -0.5 0 -0.7 0 -2.1 0 c -1.4 0 -1.5 0 -2.1 0 c -0.5 0 -0.8 -0.1 -1 -0.2 C 2.7 9.8 2.5 9.7 2.3 9.5 C 2.1 9.3 2 9.1 1.9 8.9 c -0.1 -0.2 -0.2 -0.5 -0.2 -1 c 0 -0.5 0 -0.7 0 -2.1 c 0 -1.4 0 -1.5 0 -2.1 c 0 -0.5 0.1 -0.8 0.2 -1 C 2 2.6 2.1 2.4 2.3 2.2 c 0.2 -0.2 0.4 -0.3 0.6 -0.4 c 0.2 -0.1 0.5 -0.2 1 -0.2 c 0.5 0 0.7 0 2.1 0 s 1.5 0 2.1 0 c 0.5 0 0.8 0.1 1 0.2 c 0.2 0.1 0.4 0.2 0.6 0.4 c 0.2 0.2 0.3 0.4 0.4 0.6 c 0.1 0.2 0.2 0.5 0.2 1 c 0 0.5 0 0.7 0 2.1 C 10.1 7.2 10.1 7.4 10.1 7.9 z M 10.8 2.5 c -0.1 -0.3 -0.3 -0.6 -0.6 -0.9 C 9.9 1.3 9.6 1.1 9.3 1 C 9 0.9 8.6 0.8 8.1 0.7 c -0.5 0 -0.7 0 -2.1 0 c -1.4 0 -1.6 0 -2.1 0 C 3.3 0.8 2.9 0.9 2.6 1 C 2.2 1.1 1.9 1.3 1.6 1.6 C 1.4 1.9 1.2 2.2 1.1 2.5 C 0.9 2.8 0.8 3.2 0.8 3.7 c 0 0.5 0 0.7 0 2.1 c 0 1.4 0 1.6 0 2.1 c 0 0.5 0.1 0.9 0.2 1.2 c 0.1 0.3 0.3 0.6 0.6 0.9 c 0.3 0.3 0.6 0.5 0.9 0.6 C 2.9 10.9 3.3 11 3.8 11 c 0.5 0 0.7 0 2.1 0 c 1.4 0 1.6 0 2.1 0 c 0.5 0 0.9 -0.1 1.2 -0.2 c 0.3 -0.1 0.6 -0.3 0.9 -0.6 c 0.3 -0.3 0.5 -0.6 0.6 -0.9 C 10.9 8.9 11 8.5 11 8 c 0 -0.5 0 -0.7 0 -2.1 c 0 -1.4 0 -1.6 0 -2.1 C 11 3.2 10.9 2.8 10.8 2.5 z M 10.1 7.9 c 0 0.5 -0.1 0.8 -0.2 1 C 9.8 9.1 9.7 9.3 9.6 9.5 C 9.4 9.7 9.2 9.8 9 9.9 C 8.8 9.9 8.5 10 8 10.1 c -0.5 0 -0.7 0 -2.1 0 c -1.4 0 -1.5 0 -2.1 0 c -0.5 0 -0.8 -0.1 -1 -0.2 C 2.7 9.8 2.5 9.7 2.3 9.5 C 2.1 9.3 2 9.1 1.9 8.9 c -0.1 -0.2 -0.2 -0.5 -0.2 -1 c 0 -0.5 0 -0.7 0 -2.1 c 0 -1.4 0 -1.5 0 -2.1 c 0 -0.5 0.1 -0.8 0.2 -1 C 2 2.6 2.1 2.4 2.3 2.2 c 0.2 -0.2 0.4 -0.3 0.6 -0.4 c 0.2 -0.1 0.5 -0.2 1 -0.2 c 0.5 0 0.7 0 2.1 0 s 1.5 0 2.1 0 c 0.5 0 0.8 0.1 1 0.2 c 0.2 0.1 0.4 0.2 0.6 0.4 c 0.2 0.2 0.3 0.4 0.4 0.6 c 0.1 0.2 0.2 0.5 0.2 1 c 0 0.5 0 0.7 0 2.1 C 10.1 7.2 10.1 7.4 10.1 7.9 z M 10.8 2.5 c -0.1 -0.3 -0.3 -0.6 -0.6 -0.9 C 9.9 1.3 9.6 1.1 9.3 1 C 9 0.9 8.6 0.8 8.1 0.7 c -0.5 0 -0.7 0 -2.1 0 c -1.4 0 -1.6 0 -2.1 0 C 3.3 0.8 2.9 0.9 2.6 1 C 2.2 1.1 1.9 1.3 1.6 1.6 C 1.4 1.9 1.2 2.2 1.1 2.5 C 0.9 2.8 0.8 3.2 0.8 3.7 c 0 0.5 0 0.7 0 2.1 c 0 1.4 0 1.6 0 2.1 c 0 0.5 0.1 0.9 0.2 1.2 c 0.1 0.3 0.3 0.6 0.6 0.9 c 0.3 0.3 0.6 0.5 0.9 0.6 C 2.9 10.9 3.3 11 3.8 11 c 0.5 0 0.7 0 2.1 0 c 1.4 0 1.6 0 2.1 0 c 0.5 0 0.9 -0.1 1.2 -0.2 c 0.3 -0.1 0.6 -0.3 0.9 -0.6 c 0.3 -0.3 0.5 -0.6 0.6 -0.9 C 10.9 8.9 11 8.5 11 8 c 0 -0.5 0 -0.7 0 -2.1 c 0 -1.4 0 -1.6 0 -2.1 C 11 3.2 10.9 2.8 10.8 2.5 z M 10.1 7.9 c 0 0.5 -0.1 0.8 -0.2 1 C 9.8 9.1 9.7 9.3 9.6 9.5 C 9.4 9.7 9.2 9.8 9 9.9 C 8.8 9.9 8.5 10 8 10.1 c -0.5 0 -0.7 0 -2.1 0 c -1.4 0 -1.5 0 -2.1 0 c -0.5 0 -0.8 -0.1 -1 -0.2 C 2.7 9.8 2.5 9.7 2.3 9.5 C 2.1 9.3 2 9.1 1.9 8.9 c -0.1 -0.2 -0.2 -0.5 -0.2 -1 c 0 -0.5 0 -0.7 0 -2.1 c 0 -1.4 0 -1.5 0 -2.1 c 0 -0.5 0.1 -0.8 0.2 -1 C 2 2.6 2.1 2.4 2.3 2.2 c 0.2 -0.2 0.4 -0.3 0.6 -0.4 c 0.2 -0.1 0.5 -0.2 1 -0.2 c 0.5 0 0.7 0 2.1 0 s 1.5 0 2.1 0 c 0.5 0 0.8 0.1 1 0.2 c 0.2 0.1 0.4 0.2 0.6 0.4 c 0.2 0.2 0.3 0.4 0.4 0.6 c 0.1 0.2 0.2 0.5 0.2 1 c 0 0.5 0 0.7 0 2.1 C 10.1 7.2 10.1 7.4 10.1 7.9 z M 5.9 3.2 c -1.5 0 -2.6 1.2 -2.6 2.6 c 0 1.5 1.2 2.6 2.6 2.6 c 1.5 0 2.6 -1.2 2.6 -2.6 C 8.6 4.4 7.4 3.2 5.9 3.2 z M 5.9 7.6 C 5 7.6 4.2 6.8 4.2 5.9 c 0 -0.9 0.8 -1.7 1.7 -1.7 c 0.9 0 1.7 0.8 1.7 1.7 C 7.6 6.8 6.9 7.6 5.9 7.6 z M 5.9 3.2 c -1.5 0 -2.6 1.2 -2.6 2.6 c 0 1.5 1.2 2.6 2.6 2.6 c 1.5 0 2.6 -1.2 2.6 -2.6 C 8.6 4.4 7.4 3.2 5.9 3.2 z M 5.9 7.6 C 5 7.6 4.2 6.8 4.2 5.9 c 0 -0.9 0.8 -1.7 1.7 -1.7 c 0.9 0 1.7 0.8 1.7 1.7 C 7.6 6.8 6.9 7.6 5.9 7.6 z M 5.9 3.2 c -1.5 0 -2.6 1.2 -2.6 2.6 c 0 1.5 1.2 2.6 2.6 2.6 c 1.5 0 2.6 -1.2 2.6 -2.6 C 8.6 4.4 7.4 3.2 5.9 3.2 z M 5.9 7.6 C 5 7.6 4.2 6.8 4.2 5.9 c 0 -0.9 0.8 -1.7 1.7 -1.7 c 0.9 0 1.7 0.8 1.7 1.7 C 7.6 6.8 6.9 7.6 5.9 7.6 z M 5.9 3.2 c -1.5 0 -2.6 1.2 -2.6 2.6 c 0 1.5 1.2 2.6 2.6 2.6 c 1.5 0 2.6 -1.2 2.6 -2.6 C 8.6 4.4 7.4 3.2 5.9 3.2 z M 5.9 7.6 C 5 7.6 4.2 6.8 4.2 5.9 c 0 -0.9 0.8 -1.7 1.7 -1.7 c 0.9 0 1.7 0.8 1.7 1.7 C 7.6 6.8 6.9 7.6 5.9 7.6 z M 5.9 3.2 c -1.5 0 -2.6 1.2 -2.6 2.6 c 0 1.5 1.2 2.6 2.6 2.6 c 1.5 0 2.6 -1.2 2.6 -2.6 C 8.6 4.4 7.4 3.2 5.9 3.2 z M 5.9 7.6 C 5 7.6 4.2 6.8 4.2 5.9 c 0 -0.9 0.8 -1.7 1.7 -1.7 c 0.9 0 1.7 0.8 1.7 1.7 C 7.6 6.8 6.9 7.6 5.9 7.6 z M 5.9 3.2 c -1.5 0 -2.6 1.2 -2.6 2.6 c 0 1.5 1.2 2.6 2.6 2.6 c 1.5 0 2.6 -1.2 2.6 -2.6 C 8.6 4.4 7.4 3.2 5.9 3.2 z M 5.9 7.6 C 5 7.6 4.2 6.8 4.2 5.9 c 0 -0.9 0.8 -1.7 1.7 -1.7 c 0.9 0 1.7 0.8 1.7 1.7 C 7.6 6.8 6.9 7.6 5.9 7.6 z M 9.3 3.1 c 0 0.3 -0.3 0.6 -0.6 0.6 c -0.3 0 -0.6 -0.3 -0.6 -0.6 s 0.3 -0.6 0.6 -0.6 C 9 2.5 9.3 2.8 9.3 3.1 z M 9.3 3.1 c 0 0.3 -0.3 0.6 -0.6 0.6 c -0.3 0 -0.6 -0.3 -0.6 -0.6 s 0.3 -0.6 0.6 -0.6 C 9 2.5 9.3 2.8 9.3 3.1 z M 9.3 3.1 c 0 0.3 -0.3 0.6 -0.6 0.6 c -0.3 0 -0.6 -0.3 -0.6 -0.6 s 0.3 -0.6 0.6 -0.6 C 9 2.5 9.3 2.8 9.3 3.1 z M 9.3 3.1 c 0 0.3 -0.3 0.6 -0.6 0.6 c -0.3 0 -0.6 -0.3 -0.6 -0.6 s 0.3 -0.6 0.6 -0.6 C 9 2.5 9.3 2.8 9.3 3.1 z M 9.3 3.1 c 0 0.3 -0.3 0.6 -0.6 0.6 c -0.3 0 -0.6 -0.3 -0.6 -0.6 s 0.3 -0.6 0.6 -0.6 C 9 2.5 9.3 2.8 9.3 3.1 z M 9.3 3.1 c 0 0.3 -0.3 0.6 -0.6 0.6 c -0.3 0 -0.6 -0.3 -0.6 -0.6 s 0.3 -0.6 0.6 -0.6 C 9 2.5 9.3 2.8 9.3 3.1 z" style="stroke: none; stroke-width: 1; stroke-dasharray: none; stroke-linecap: butt; stroke-linejoin: miter; stroke-miterlimit: 4; fill: rgb(255,255,255); fill-rule: nonzero; opacity: 1;" transform="translate(436.35 370.1) scale(0.89 0.89) translate(-5.8999999999999995, -5.8500000000000005) " stroke-linecap="round" />
	<g transform="translate(410.3 87.44) scale(2.28 2.28)">
		<text xml:space="preserve" font-family="Poppins" font-size="6" font-style="normal" font-weight="bold" style="stroke: none; stroke-width: 1; stroke-dasharray: none; stroke-linecap: butt; stroke-linejoin: miter; stroke-miterlimit: 4; fill: rgb(255,255,255); fill-rule: nonzero; opacity: 1; white-space: pre;" ><tspan x="-25.07" y="1.88" >COMPANY NAME</tspan></text>
	</g>
	<g transform="translate(304.29 185.84) scale(2.28 2.28)">
		<text xml:space="preserve" font-family="Roboto" font-size="16" font-style="normal" font-weight="bold" style="stroke: none; stroke-width: 1; stroke-dasharray: none; stroke-linecap: butt; stroke-linejoin: miter; stroke-miterlimit: 4; fill: rgb(45,46,131); fill-rule: nonzero; opacity: 1; white-space: pre;" ><tspan x="-32.85" y="5.03" >Business</tspan></text>
	</g>
	<g transform="translate(302.24 219.45) scale(2.28 2.28)">
		<text xml:space="preserve" font-family="Roboto" font-size="12" font-style="normal" font-weight="normal" style="stroke: none; stroke-width: 1; stroke-dasharray: none; stroke-linecap: butt; stroke-linejoin: miter; stroke-miterlimit: 4; fill: rgb(29,113,184); fill-rule: nonzero; opacity: 1; white-space: pre;" ><tspan x="-32.2" y="3.77" >B</tspan><tspan x="-24.46" y="3.77" >R</tspan><tspan x="-16.46" y="3.77" >O</tspan><tspan x="-7.95" y="3.77" >C</tspan><tspan x="0.22" y="3.77" >H</tspan><tspan x="9.1" y="3.77" >U</tspan><tspan x="17.37" y="3.77" >R</tspan><tspan x="25.37" y="3.77" >E</tspan></text>
	</g>
	<g transform="translate(200.63 286.64) scale(2.28 2.28)">
		<text xml:space="preserve" font-family="Poppins" font-size="4" font-style="normal" font-weight="bold" style="stroke: none; stroke-width: 1; stroke-dasharray: none; stroke-linecap: butt; stroke-linejoin: miter; stroke-miterlimit: 4; fill: rgb(29,113,184); fill-rule: nonzero; opacity: 1; white-space: pre;" ><tspan x="-29.86" y="1.26" >LOREM IPSUM DOLOR SIT AMET</tspan></text>
	</g>
	<g transform="translate(202.24 307.58) scale(2.28 2.28)">
		<text xml:space="preserve" font-family="Poppins" font-size="4" font-style="normal" font-weight="normal" style="stroke: none; stroke-width: 1; stroke-dasharray: none; stroke-linecap: butt; stroke-linejoin: miter; stroke-miterlimit: 4; fill: rgb(79,84,103); fill-rule: nonzero; opacity: 1; white-space: pre;" ><tspan x="-30.88" y="-1.37" >Vestibulum auctor purus elit,</tspan><tspan x="-30.88" y="3.88" style="white-space: pre; ">at placerat eros vestibulum id. </tspan></text>
	</g>
	<g transform="translate(304 373.28) scale(2.28 2.28)">
		<text xml:space="preserve" font-family="Poppins" font-size="4" font-style="normal" font-weight="normal" style="stroke: none; stroke-width: 1; stroke-dasharray: none; stroke-linecap: butt; stroke-linejoin: miter; stroke-miterlimit: 4; fill: rgb(255,255,255); fill-rule: nonzero; opacity: 1; white-space: pre;" ><tspan x="-26.62" y="1.26" >WWW.COMPANYNAME.COM</tspan></text>
	</g>
	<g transform="translate(460.16 333.27) scale(1.89 1.89)">
		<text xml:space="preserve" font-family="Poppins" font-size="4" font-style="normal" font-weight="normal" style="stroke: none; stroke-width: 1; stroke-dasharray: none; stroke-linecap: butt; stroke-linejoin: miter; stroke-miterlimit: 4; fill: rgb(255,255,255); fill-rule: nonzero; opacity: 1; white-space: pre;" ><tspan x="-6.33" y="1.26" >LOREM</tspan></text>
	</g>
	<g transform="translate(466.59 354.25) scale(1.89 1.98)">
		<text xml:space="preserve" font-family="Poppins" font-size="4" font-style="normal" font-weight="normal" style="stroke: none; stroke-width: 1; stroke-dasharray: none; stroke-linecap: butt; stroke-linejoin: miter; stroke-miterlimit: 4; fill: rgb(255,255,255); fill-rule: nonzero; opacity: 1; white-space: pre;" ><tspan x="-10.23" y="1.26" >CONSECTE</tspan></text>
	</g>
	<g transform="translate(463.41 370.02) scale(1.89 1.89)">
		<text xml:space="preserve" font-family="Poppins" font-size="4" font-style="normal" font-weight="normal" style="stroke: none; stroke-width: 1; stroke-dasharray: none; stroke-linecap: butt; stroke-linejoin: miter; stroke-miterlimit: 4; fill: rgb(255,255,255); fill-rule: nonzero; opacity: 1; white-space: pre;" ><tspan x="-8.05" y="1.26" >DIPISCIN</tspan></text>
	</g>
</svg>