<?xml version="1.0" encoding="UTF-8" standalone="no" ?>
<!DOCTYPE svg PUBLIC "-//W3C//DTD SVG 1.1//EN" "http://www.w3.org/Graphics/SVG/1.1/DTD/svg11.dtd">
<svg xmlns="http://www.w3.org/2000/svg" xmlns:xlink="http://www.w3.org/1999/xlink" version="1.1" width="1201" height="901" viewBox="0 0 697.58 523.33" xml:space="preserve">
<desc>Created with Fabric.js 2.3.3</desc>
<defs>
</defs>
<g transform="translate(346 259.98) scale(1.47 1.47)" style="">
	<linearGradient id="SVGID_0" gradientUnits="userSpaceOnUse" x1="262.2478" y1="228.7962" x2="249.50190000000003" y2="83.0185">
<stop offset="0%" style="stop-color:rgb(228,228,228);stop-opacity: 1"/>
<stop offset="22.09%" style="stop-color:rgb(238,238,238);stop-opacity: 1"/>
<stop offset="61.8%" style="stop-color:rgb(251,251,251);stop-opacity: 1"/>
<stop offset="100%" style="stop-color:rgb(255,255,255);stop-opacity: 1"/>
</linearGradient>
<path d="M 506.1 17 v 249.3 c 0 9.4 -7.6 17 -17 17 h -469 c -9.4 0 -17 -7.6 -17 -17 V 17 c 0 -9.4 7.6 -17 17 -17 h 469 C 498.5 0 506.1 7.6 506.1 17 z" style="stroke: none; stroke-width: 1; stroke-dasharray: none; stroke-linecap: butt; stroke-linejoin: miter; stroke-miterlimit: 4; fill: url(#SVGID_0); fill-rule: nonzero; opacity: 1;" transform="translate(0.9 0.05) translate(-254.60000000000002, -141.65) " stroke-linecap="round" />
	<linearGradient id="SVGID_1" gradientUnits="userSpaceOnUse" x1="370.6649" y1="110.82339999999999" x2="312.386" y2="274.5285">
<stop offset="0%" style="stop-color:rgb(15,26,46);stop-opacity: 1"/>
<stop offset="48.57%" style="stop-color:rgb(50,69,110);stop-opacity: 1"/>
</linearGradient>
<path d="M 507.4 69.7 c 0 0 -171.2 169 -396.3 213.5 h 396.3 V 69.7 z" style="stroke: none; stroke-width: 1; stroke-dasharray: none; stroke-linecap: butt; stroke-linejoin: miter; stroke-miterlimit: 4; fill: url(#SVGID_1); fill-rule: nonzero; opacity: 1;" transform="translate(55.55 34.85) translate(-309.25, -176.45) " stroke-linecap="round" />
	<linearGradient id="SVGID_2" gradientUnits="userSpaceOnUse" x1="358.4776" y1="54.401" x2="288.7357" y2="250.3054">
<stop offset="1.02041%" style="stop-color:rgb(110,194,165);stop-opacity: 1"/>
<stop offset="100%" style="stop-color:rgb(67,119,165);stop-opacity: 1"/>
</linearGradient>
<path d="M 111.2 283.2 c 0 0 361.1 -69.7 421.3 -251.8 L 507.4 0 C 507.4 0 453.9 161.3 111.2 283.2 z" style="stroke: none; stroke-width: 1; stroke-dasharray: none; stroke-linecap: butt; stroke-linejoin: miter; stroke-miterlimit: 4; fill: url(#SVGID_2); fill-rule: nonzero; opacity: 1; visibility: hidden;" transform="translate(68.15 0) translate(-321.85, -141.6) " stroke-linecap="round" />
	<linearGradient id="SVGID_3" gradientUnits="userSpaceOnUse" x1="92.42529999999996" y1="143.6729" x2="532.4771" y2="143.6729">
<stop offset="0%" style="stop-color:rgb(0,242,206);stop-opacity: 1"/>
<stop offset="100%" style="stop-color:rgb(0,116,180);stop-opacity: 1"/>
</linearGradient>
<path d="M 507.4 0 l 25.1 31.4 c 0 0 -32.4 186.7 -440.1 255.9 C 92.4 287.3 355.4 235.5 507.4 0 z" style="stroke: none; stroke-width: 1; stroke-dasharray: none; stroke-linecap: butt; stroke-linejoin: miter; stroke-miterlimit: 4; fill: url(#SVGID_3); fill-rule: nonzero; opacity: 1;" transform="translate(58.75 2.05) translate(-312.45, -143.65) " stroke-linecap="round" />
</g>
	<g transform="translate(192.08 113.92)">
		<text xml:space="preserve" font-family="Raleway" font-size="31.365" font-style="normal" font-weight="bold" style="stroke: none; stroke-width: 1; stroke-dasharray: none; stroke-linecap: butt; stroke-linejoin: miter; stroke-miterlimit: 4; fill: rgb(0,0,0); fill-rule: nonzero; opacity: 1; white-space: pre;" ><tspan x="-138.26" y="9.85" >YOUR dasdsadsad</tspan></text>
	</g>
<g transform="translate(75.34 183.99) scale(1.49 1.49)" style="">
	<path d="M 3.1 22 L 3 21.8 c -2.6 -4.5 -2.6 -10 0 -14.5 l 0.1 -0.1 C 5.7 2.8 10.5 0 15.6 0 h 0.2 c 5.2 0 9.9 2.8 12.5 7.2 l 0.1 0.1 c 2.6 4.5 2.6 10 0 14.5 L 28.3 22 c -2.6 4.5 -7.4 7.2 -12.5 7.2 h -0.2 C 10.5 29.2 5.7 26.5 3.1 22 z" style="stroke: none; stroke-width: 1; stroke-dasharray: none; stroke-linecap: butt; stroke-linejoin: miter; stroke-miterlimit: 4; fill: rgb(79,84,103); fill-rule: nonzero; opacity: 1;" transform="translate(0.5 0) translate(-15.7, -14.6) " stroke-linecap="round" />
	<path d="M 23.2 21.6 h -5 c -0.3 0 -0.6 -0.3 -0.6 -0.6 v -6.1 h -3.7 V 21 c 0 0.3 -0.3 0.6 -0.6 0.6 h -5 c -0.3 0 -0.6 -0.3 -0.6 -0.6 v -9.4 c 0 -0.2 0.1 -0.4 0.2 -0.5 l 7.5 -5.5 c 0.2 -0.2 0.5 -0.2 0.7 0 l 7.5 5.5 c 0.2 0.1 0.2 0.3 0.2 0.5 V 21 C 23.8 21.4 23.6 21.6 23.2 21.6 z M 18.8 20.4 h 3.8 v -8.5 l -6.9 -5.1 l -6.9 5.1 v 8.5 h 3.8 v -6.2 c 0 -0.3 0.3 -0.6 0.6 -0.6 h 4.9 c 0.3 0 0.6 0.3 0.6 0.6 V 20.4 z" style="stroke: none; stroke-width: 1; stroke-dasharray: none; stroke-linecap: butt; stroke-linejoin: miter; stroke-miterlimit: 4; fill: rgb(255,255,255); fill-rule: nonzero; opacity: 1;" transform="translate(0.55 -1.07) translate(-15.749999999999998, -13.525000000000002) " stroke-linecap="round" />
</g>
<g transform="translate(75.77 247.86) scale(1.49 1.49)" style="">
	<linearGradient id="SVGID_4" gradientUnits="userSpaceOnUse" x1="15.732599999999998" y1="29.2129" x2="15.732599999999998" y2="0">
<stop offset="0%" style="stop-color:rgb(15,26,46);stop-opacity: 1"/>
<stop offset="44.9%" style="stop-color:rgb(23,42,85);stop-opacity: 1"/>
<stop offset="71.06%" style="stop-color:rgb(38,57,99);stop-opacity: 1"/>
<stop offset="100%" style="stop-color:rgb(50,69,110);stop-opacity: 1"/>
</linearGradient>
<path d="M 3.1 22 L 3 21.8 c -2.6 -4.5 -2.6 -10 0 -14.5 l 0.1 -0.1 C 5.7 2.8 10.5 0 15.6 0 h 0.2 c 5.2 0 9.9 2.8 12.5 7.2 l 0.1 0.1 c 2.6 4.5 2.6 10 0 14.5 L 28.3 22 c -2.6 4.5 -7.4 7.2 -12.5 7.2 h -0.2 C 10.5 29.2 5.7 26.5 3.1 22 z" style="stroke: none; stroke-width: 1; stroke-dasharray: none; stroke-linecap: butt; stroke-linejoin: miter; stroke-miterlimit: 4; fill: url(#SVGID_4); fill-rule: nonzero; opacity: 1;" transform="translate(0.05 0) translate(-15.7, -14.6) " stroke-linecap="round" />
	<path d="M 7.9 7.7 C 7.9 7.7 7.9 7.7 7.9 7.7 c 0.3 -0.3 0.6 -0.5 0.8 -0.8 l 0.1 -0.1 c 0.1 -0.1 0.3 -0.3 0.4 -0.4 c 0.7 -0.7 1.5 -0.7 2.2 0 l 2.3 2.3 C 14 9 14.2 9.4 14.2 9.7 c 0 0.4 -0.2 0.8 -0.5 1.1 l -1.4 1.4 c 0 0 -0.1 0.1 -0.1 0.2 c 0 0 0 0 0 0.1 c 0 0 0 0 0 0 c 0.1 0.1 0.2 0.3 0.2 0.4 c 0.1 0.1 0.1 0.3 0.2 0.4 c 0.8 1.3 1.8 2.4 3.2 3.5 c 0 0 0 0 0 0 c 0.7 0.6 1.3 1 2 1.2 l 0 0 c 0.1 0 0.2 0 0.3 -0.1 c 0 0 0 0 0 0 c 0.3 -0.4 0.6 -0.7 1 -1 c 0.1 -0.1 0.2 -0.2 0.2 -0.2 l 0.1 -0.1 c 0.7 -0.7 1.5 -0.7 2.2 0 l 1.1 1.1 c 0.1 0.1 0.1 0.1 0.2 0.2 c 0.1 0.1 0.1 0.1 0.2 0.2 c 0.3 0.3 0.5 0.5 0.8 0.8 l 0 0 c 0.3 0.3 0.5 0.7 0.5 1.1 c 0 0.4 -0.2 0.7 -0.5 1.1 c 0 0 0 0 0 0 l -1.4 1.4 c -0.4 0.4 -1 0.7 -1.6 0.8 c -0.9 0.1 -1.7 -0.1 -2.8 -0.5 c -1.7 -0.6 -3.4 -1.6 -5.1 -3.1 c -2.1 -1.8 -3.7 -3.9 -4.9 -6.3 c -0.4 -0.9 -0.9 -2.1 -1 -3.4 c 0 -0.1 0 -0.2 0 -0.2 C 7.1 8.9 7.3 8.2 7.9 7.7 z M 23.1 20 c 0 0 0 -0.1 -0.1 -0.1 l 0 0 c 0 0 0 0 0 0 c -0.2 -0.2 -0.4 -0.5 -0.7 -0.7 c -0.1 -0.1 -0.1 -0.1 -0.2 -0.2 c -0.1 -0.1 -0.1 -0.1 -0.2 -0.2 l -1.1 -1.1 c -0.1 -0.1 -0.2 -0.1 -0.2 -0.1 c 0 0 -0.1 0 -0.2 0.1 l -0.1 0.1 c -0.1 0.1 -0.2 0.2 -0.2 0.2 c 0 0 0 0 0 0 c -0.4 0.4 -0.7 0.7 -1 1 c 0 0 0 0 -0.1 0.1 c -0.4 0.4 -1 0.5 -1.6 0.3 l 0 0 c 0 0 0 0 0 0 c -0.8 -0.3 -1.5 -0.7 -2.3 -1.4 c 0 0 0 0 0 0 c -1.4 -1.2 -2.6 -2.4 -3.4 -3.8 c -0.1 -0.2 -0.2 -0.4 -0.3 -0.6 c -0.1 -0.1 -0.1 -0.3 -0.2 -0.3 c 0 0 0 0 0 0 c 0 0 0 -0.1 0 -0.1 c -0.1 -0.2 -0.2 -0.5 -0.2 -0.7 c 0 -0.4 0.2 -0.8 0.5 -1.1 l 1.4 -1.4 c 0.1 -0.1 0.1 -0.1 0.1 -0.1 c 0 0 0 -0.1 -0.1 -0.1 c 0 0 0 0 0 0 l -2.3 -2.3 c -0.1 -0.1 -0.2 -0.1 -0.2 -0.1 c 0 0 -0.1 0 -0.2 0.1 c 0 0 0 0 0 0 C 10 7.5 9.9 7.6 9.7 7.8 L 9.7 7.8 C 9.4 8.1 9.1 8.4 8.8 8.7 C 8.5 9 8.4 9.3 8.4 9.7 c 0 0 0 0.1 0 0.1 c 0.1 1.1 0.5 2.2 0.9 3 c 1.1 2.2 2.6 4.2 4.6 5.8 c 1.6 1.3 3.1 2.3 4.7 2.8 c 0.9 0.3 1.6 0.5 2.3 0.4 c 0.3 0 0.6 -0.1 0.8 -0.4 l 1.4 -1.4 C 23.1 20.1 23.1 20 23.1 20 z" style="stroke: none; stroke-width: 1; stroke-dasharray: none; stroke-linecap: butt; stroke-linejoin: miter; stroke-miterlimit: 4; fill: rgb(255,255,255); fill-rule: nonzero; opacity: 1;" transform="translate(0.1 0) translate(-15.749999999999998, -14.60024169979695) " stroke-linecap="round" />
</g>
<g transform="translate(76.16 312.37) scale(1.49 1.49)" style="">
	<linearGradient id="SVGID_5" gradientUnits="userSpaceOnUse" x1="15.732599999999998" y1="29.2139" x2="15.732599999999998" y2="0">
<stop offset="0%" style="stop-color:rgb(15,26,46);stop-opacity: 1"/>
<stop offset="44.9%" style="stop-color:rgb(23,42,85);stop-opacity: 1"/>
<stop offset="71.06%" style="stop-color:rgb(38,57,99);stop-opacity: 1"/>
<stop offset="100%" style="stop-color:rgb(50,69,110);stop-opacity: 1"/>
</linearGradient>
<path d="M 3.1 22 L 3 21.8 c -2.6 -4.5 -2.6 -10 0 -14.5 l 0.1 -0.1 C 5.7 2.8 10.5 0 15.6 0 h 0.2 c 5.2 0 9.9 2.8 12.5 7.2 l 0.1 0.1 c 2.6 4.5 2.6 10 0 14.5 L 28.3 22 c -2.6 4.5 -7.4 7.2 -12.5 7.2 h -0.2 C 10.5 29.2 5.7 26.5 3.1 22 z" style="stroke: none; stroke-width: 1; stroke-dasharray: none; stroke-linecap: butt; stroke-linejoin: miter; stroke-miterlimit: 4; fill: url(#SVGID_5); fill-rule: nonzero; opacity: 1;" transform="translate(0.05 0) translate(-15.7, -14.6) " stroke-linecap="round" />
	<path d="M 24.9 8.6 C 24.9 8.5 24.8 8.5 24.9 8.6 c 0 -0.1 0 -0.1 0 -0.1 c 0 0 0 0 0 -0.1 c 0 0 0 0 0 -0.1 c 0 0 0 0 0 -0.1 c 0 0 0 0 0 -0.1 c 0 0 0 0 0 0 c 0 0 0 0 0 0 c 0 0 0 0 -0.1 -0.1 c 0 0 0 0 0 0 c 0 0 0 0 -0.1 0 c 0 0 0 0 -0.1 0 c 0 0 0 0 -0.1 0 c 0 0 0 0 -0.1 0 c 0 0 0 0 -0.1 0 c 0 0 0 0 -0.1 0 c 0 0 0 0 0 0 H 7.3 c 0 0 0 0 0 0 c 0 0 0 0 -0.1 0 c 0 0 0 0 -0.1 0 c 0 0 0 0 -0.1 0 c 0 0 0 0 -0.1 0 C 7 8 7 8 7 8 c 0 0 0 0 -0.1 0 c 0 0 0 0 0 0 c 0 0 0 0 -0.1 0.1 c 0 0 0 0 0 0 c 0 0 0 0 0 0 c 0 0 0 0 0 0.1 c 0 0 0 0 0 0.1 c 0 0 0 0 0 0.1 c 0 0 0 0 0 0.1 c 0 0 0 0 0 0.1 c 0 0 0 0.1 0 0.1 c 0 0 0 0 0 0 v 12 c 0 0.4 0.3 0.7 0.7 0.7 h 16.8 c 0.4 0 0.7 -0.3 0.7 -0.7 L 24.9 8.6 C 24.9 8.6 24.9 8.6 24.9 8.6 z M 22.3 9.3 l -6.5 5.6 L 9.2 9.3 H 22.3 z M 8 19.9 v -9.8 l 7.3 6.2 c 0.1 0.1 0.3 0.2 0.4 0.2 c 0.2 0 0.3 -0.1 0.4 -0.2 l 7.3 -6.2 v 9.8 H 8 z" style="stroke: none; stroke-width: 1; stroke-dasharray: none; stroke-linecap: butt; stroke-linejoin: miter; stroke-miterlimit: 4; fill: rgb(255,255,255); fill-rule: nonzero; opacity: 1;" transform="translate(0.25 0.1) translate(-15.9, -14.699999999999998) " stroke-linecap="round" />
</g>
<g transform="translate(75.29 377.72) scale(1.49 1.49)" style="">
	<linearGradient id="SVGID_6" gradientUnits="userSpaceOnUse" x1="14.6294" y1="29.2138" x2="14.6294" y2="0">
<stop offset="0%" style="stop-color:rgb(15,26,46);stop-opacity: 1"/>
<stop offset="44.9%" style="stop-color:rgb(23,42,85);stop-opacity: 1"/>
<stop offset="71.06%" style="stop-color:rgb(38,57,99);stop-opacity: 1"/>
<stop offset="100%" style="stop-color:rgb(50,69,110);stop-opacity: 1"/>
</linearGradient>
<path d="M 2 22 l -0.1 -0.1 c -2.6 -4.5 -2.6 -10 0 -14.5 L 2 7.2 C 4.6 2.8 9.4 0 14.5 0 h 0.2 c 5.2 0 9.9 2.8 12.5 7.2 l 0.1 0.1 c 2.6 4.5 2.6 10 0 14.5 L 27.2 22 c -2.6 4.5 -7.4 7.2 -12.5 7.2 h -0.2 C 9.4 29.2 4.6 26.5 2 22 z" style="stroke: none; stroke-width: 1; stroke-dasharray: none; stroke-linecap: butt; stroke-linejoin: miter; stroke-miterlimit: 4; fill: url(#SVGID_6); fill-rule: nonzero; opacity: 1;" transform="translate(-0.05 0) translate(-14.6, -14.6) " stroke-linecap="round" />
	<path d="M 14.7 5.9 C 9.9 5.9 6 9.8 6 14.6 c 0 4.8 3.9 8.7 8.7 8.7 c 4.8 0 8.7 -3.9 8.7 -8.7 C 23.4 9.8 19.5 5.9 14.7 5.9 z M 22 13.9 h -2.1 c -0.1 -2.3 -0.7 -4.4 -1.7 -5.8 C 20.3 9.3 21.8 11.4 22 13.9 z M 14 7.3 v 6.6 h -3.3 C 10.9 10.7 12.3 7.9 14 7.3 z M 14 15.3 v 6.6 c -1.7 -0.6 -3.1 -3.3 -3.3 -6.6 H 14 z M 15.3 21.9 v -6.6 h 3.3 C 18.4 18.6 17 21.3 15.3 21.9 z M 15.3 13.9 V 7.3 c 1.7 0.6 3.1 3.3 3.3 6.6 H 15.3 z M 11.1 8.1 c -1 1.4 -1.6 3.5 -1.7 5.8 H 7.3 C 7.5 11.4 9 9.3 11.1 8.1 z M 7.3 15.3 h 2.1 c 0.1 2.3 0.7 4.4 1.7 5.8 C 9 19.9 7.5 17.8 7.3 15.3 z M 18.2 21.1 c 1 -1.4 1.6 -3.5 1.7 -5.8 H 22 C 21.8 17.8 20.3 19.9 18.2 21.1 z" style="stroke: none; stroke-width: 1; stroke-dasharray: none; stroke-linecap: butt; stroke-linejoin: miter; stroke-miterlimit: 4; fill: rgb(255,255,255); fill-rule: nonzero; opacity: 1;" transform="translate(0.05 0) translate(-14.7, -14.6) " stroke-linecap="round" />
</g>
	<g transform="translate(153.52 180.94) scale(0.93 0.93)">
		<text xml:space="preserve" font-family="Raleway" font-size="18.65" font-style="normal" font-weight="normal" style="stroke: none; stroke-width: 1; stroke-dasharray: none; stroke-linecap: butt; stroke-linejoin: miter; stroke-miterlimit: 4; fill: rgb(0,0,0); fill-rule: nonzero; opacity: 1; white-space: pre;" ><tspan x="-38.67" y="5.86" style="white-space: pre; ">LEONEL </tspan></text>
	</g>
	<g transform="translate(222.1 313.77) scale(3.48 3.48)">
		<text xml:space="preserve" font-family="Raleway" font-size="5" font-style="normal" font-weight="normal" style="stroke: none; stroke-width: 1; stroke-dasharray: none; stroke-linecap: butt; stroke-linejoin: miter; stroke-miterlimit: 4; fill: rgb(79,84,103); fill-rule: nonzero; opacity: 1; white-space: pre;" ><tspan x="-28.43" y="1.57" >YOURWEB@EMAIL.COM</tspan></text>
	</g>
	<g transform="translate(175.09 243.6) scale(0.93 0.93)">
		<text xml:space="preserve" font-family="Raleway" font-size="18.65" font-style="normal" font-weight="normal" style="stroke: none; stroke-width: 1; stroke-dasharray: none; stroke-linecap: butt; stroke-linejoin: miter; stroke-miterlimit: 4; fill: rgb(79,84,103); fill-rule: nonzero; opacity: 1; white-space: pre;" ><tspan x="-54.3" y="5.86" >123 - 456789</tspan></text>
	</g>
	<g transform="translate(183.76 377.37) scale(3.48 3.48)">
		<text xml:space="preserve" font-family="Raleway" font-size="5" font-style="normal" font-weight="normal" style="stroke: none; stroke-width: 1; stroke-dasharray: none; stroke-linecap: butt; stroke-linejoin: miter; stroke-miterlimit: 4; fill: rgb(79,84,103); fill-rule: nonzero; opacity: 1; white-space: pre;" ><tspan x="-17.18" y="1.57" >WEBSITE.COM</tspan></text>
	</g>
<g transform="translate(586.3 380.7) scale(1.99 1.99)" style="">
	<linearGradient id="SVGID_7" gradientUnits="userSpaceOnUse" x1="-7.6127" y1="0.00560000000000116" x2="7.6089" y2="0.00560000000000116">
<stop offset="0%" style="stop-color:rgb(0,242,206);stop-opacity: 1"/>
<stop offset="100%" style="stop-color:rgb(0,116,180);stop-opacity: 1"/>
</linearGradient>
<polygon points="-7.65,8.7 -1.35,8.7 7.65,-8.7 0.95,-8.7 " style="stroke: none; stroke-width: 1; stroke-dasharray: none; stroke-linecap: butt; stroke-linejoin: miter; stroke-miterlimit: 4; fill: url(#SVGID_7); fill-rule: nonzero; opacity: 1;" transform="translate(-4.3 0) "/>
	<linearGradient id="SVGID_8" gradientUnits="userSpaceOnUse" x1="-7.663900000000002" y1="0.00560000000000116" x2="7.662299999999995" y2="0.00560000000000116">
<stop offset="0%" style="stop-color:rgb(0,242,206);stop-opacity: 1"/>
<stop offset="100%" style="stop-color:rgb(0,116,180);stop-opacity: 1"/>
</linearGradient>
<polygon points="-7.65,-8.7 1.15,8.7 7.65,8.7 -0.95,-8.7 " style="stroke: none; stroke-width: 1; stroke-dasharray: none; stroke-linecap: butt; stroke-linejoin: miter; stroke-miterlimit: 4; fill: url(#SVGID_8); fill-rule: nonzero; opacity: 1;" transform="translate(4.3 0) "/>
	<linearGradient id="SVGID_9" gradientUnits="userSpaceOnUse" x1="-7.9" y1="0.00560000000000116" x2="7.948599999999999" y2="0.00560000000000116">
<stop offset="0%" style="stop-color:rgb(0,242,206);stop-opacity: 1"/>
<stop offset="100%" style="stop-color:rgb(0,116,180);stop-opacity: 1"/>
</linearGradient>
<polygon points="-7.9,8.7 -1.2,8.7 7.9,-8.7 0.9,-8.7 " style="stroke: none; stroke-width: 1; stroke-dasharray: none; stroke-linecap: butt; stroke-linejoin: miter; stroke-miterlimit: 4; fill: url(#SVGID_9); fill-rule: nonzero; opacity: 1;" transform="translate(-12.25 0) "/>
	<linearGradient id="SVGID_10" gradientUnits="userSpaceOnUse" gradientTransform="matrix(-1 0 0 1 -2725.9319 0)"  x1="-2798.6285000000003" y1="0.00560000000000116" x2="-2782.7818" y2="0.00560000000000116">
<stop offset="0%" style="stop-color:rgb(0,242,206);stop-opacity: 1"/>
<stop offset="100%" style="stop-color:rgb(0,116,180);stop-opacity: 1"/>
</linearGradient>
<polygon points="7.9,8.7 1.2,8.7 -7.9,-8.7 -0.9,-8.7 " style="stroke: none; stroke-width: 1; stroke-dasharray: none; stroke-linecap: butt; stroke-linejoin: miter; stroke-miterlimit: 4; fill: url(#SVGID_10); fill-rule: nonzero; opacity: 1;" transform="translate(12.25 0) "/>
</g>
	<g transform="translate(579.2 423.13) scale(3.48 3.48)">
		<text xml:space="preserve" font-family="Raleway" font-size="7" font-style="normal" font-weight="bold" style="stroke: none; stroke-width: 1; stroke-dasharray: none; stroke-linecap: butt; stroke-linejoin: miter; stroke-miterlimit: 4; fill: rgb(255,255,255); fill-rule: nonzero; opacity: 1; white-space: pre;" ><tspan x="-28.4" y="2.2" >COMPANY NAME</tspan></text>
	</g>
	<g transform="translate(589.48 447.72) scale(3.48 3.48)">
		<text xml:space="preserve" font-family="Raleway" font-size="4" font-style="normal" font-weight="normal" style="stroke: none; stroke-width: 1; stroke-dasharray: none; stroke-linecap: butt; stroke-linejoin: miter; stroke-miterlimit: 4; fill: rgb(255,255,255); fill-rule: nonzero; opacity: 1; white-space: pre;" ><tspan x="-13.85" y="1.26" >SLOGAN HERE</tspan></text>
	</g>
</svg>