<?xml version="1.0" encoding="UTF-8" standalone="no" ?>
<!DOCTYPE svg PUBLIC "-//W3C//DTD SVG 1.1//EN" "http://www.w3.org/Graphics/SVG/1.1/DTD/svg11.dtd">
<svg xmlns="http://www.w3.org/2000/svg" xmlns:xlink="http://www.w3.org/1999/xlink" version="1.1" width="1201" height="901" viewBox="0 0 751.63 563.88" xml:space="preserve">
<desc>Created with Fabric.js 2.3.3</desc>
<defs>
</defs>
<g transform="translate(380.32 283.62) scale(1.73 1.73)" style="">
	<rect x="-218.92" y="-91.805" rx="0" ry="0" width="437.84" height="183.61" style="stroke: none; stroke-width: 1; stroke-dasharray: none; stroke-linecap: butt; stroke-linejoin: miter; stroke-miterlimit: 4; fill: rgb(201,218,43); fill-rule: nonzero; opacity: 1;" transform="translate(0 0)"/>
	<polygon points="-0.01,16.63 -34.88,-11 -69.75,16.63 -104.61,-11 -139.48,16.63 -174.34,-11 -209.21,16.63 -245.78,-12.35 -242.37,-15.28 -209.21,11 -174.34,-16.63 -139.48,11 -104.61,-16.63 -69.75,11 -34.88,-16.63 -0.01,11 34.85,-16.63 69.72,11 104.59,-16.63 139.46,11 174.33,-16.63 209.2,11 242.37,-15.28 245.78,-12.35 209.2,16.63 174.33,-11 139.46,16.63 104.59,-11 69.72,16.63 34.85,-11 " style="stroke: none; stroke-width: 1; stroke-dasharray: none; stroke-linecap: butt; stroke-linejoin: miter; stroke-miterlimit: 4; fill: rgb(125,157,62); fill-rule: nonzero; opacity: 0.3;" transform="translate(0 -71.35) "/>
	<polygon points="-0.01,16.63 -34.88,-11 -69.75,16.63 -104.61,-11 -139.48,16.63 -174.34,-11 -209.21,16.63 -245.78,-12.35 -242.37,-15.28 -209.21,11 -174.34,-16.63 -139.48,11 -104.61,-16.63 -69.75,11 -34.88,-16.63 -0.01,11 34.85,-16.63 69.72,11 104.59,-16.63 139.46,11 174.33,-16.63 209.2,11 242.37,-15.28 245.78,-12.35 209.2,16.63 174.33,-11 139.46,16.63 104.59,-11 69.72,16.63 34.85,-11 " style="stroke: none; stroke-width: 1; stroke-dasharray: none; stroke-linecap: butt; stroke-linejoin: miter; stroke-miterlimit: 4; fill: rgb(125,157,62); fill-rule: nonzero; opacity: 0.3;" transform="translate(0 -36.75) "/>
	<polygon points="-0.01,16.63 -34.88,-11 -69.75,16.63 -104.61,-11 -139.48,16.63 -174.34,-11 -209.21,16.63 -245.78,-12.35 -242.37,-15.28 -209.21,11 -174.34,-16.63 -139.48,11 -104.61,-16.63 -69.75,11 -34.88,-16.63 -0.01,11 34.85,-16.63 69.72,11 104.59,-16.63 139.46,11 174.33,-16.63 209.2,11 242.37,-15.28 245.78,-12.35 209.2,16.63 174.33,-11 139.46,16.63 104.59,-11 69.72,16.63 34.85,-11 " style="stroke: none; stroke-width: 1; stroke-dasharray: none; stroke-linecap: butt; stroke-linejoin: miter; stroke-miterlimit: 4; fill: rgb(125,157,62); fill-rule: nonzero; opacity: 0.3;" transform="translate(0 -2.14) "/>
	<polygon points="-0.01,16.63 -34.88,-11 -69.75,16.63 -104.61,-11 -139.48,16.63 -174.34,-11 -209.21,16.63 -245.78,-12.35 -242.37,-15.28 -209.21,11 -174.34,-16.63 -139.48,11 -104.61,-16.63 -69.75,11 -34.88,-16.63 -0.01,11 34.85,-16.63 69.72,11 104.59,-16.63 139.46,11 174.33,-16.63 209.2,11 242.37,-15.28 245.78,-12.35 209.2,16.63 174.33,-11 139.46,16.63 104.59,-11 69.72,16.63 34.85,-11 " style="stroke: none; stroke-width: 1; stroke-dasharray: none; stroke-linecap: butt; stroke-linejoin: miter; stroke-miterlimit: 4; fill: rgb(125,157,62); fill-rule: nonzero; opacity: 0.3;" transform="translate(0 32.47) "/>
	<polygon points="-0.01,16.63 -34.88,-11 -69.75,16.63 -104.61,-11 -139.48,16.63 -174.34,-11 -209.21,16.63 -245.78,-12.35 -242.37,-15.28 -209.21,11 -174.34,-16.63 -139.48,11 -104.61,-16.63 -69.75,11 -34.88,-16.63 -0.01,11 34.85,-16.63 69.72,11 104.59,-16.63 139.46,11 174.33,-16.63 209.2,11 242.37,-15.28 245.78,-12.35 209.2,16.63 174.33,-11 139.46,16.63 104.59,-11 69.72,16.63 34.85,-11 " style="stroke: none; stroke-width: 1; stroke-dasharray: none; stroke-linecap: butt; stroke-linejoin: miter; stroke-miterlimit: 4; fill: rgb(125,157,62); fill-rule: nonzero; opacity: 0.3;" transform="translate(0 67.07) "/>
	<polygon points="-0.01,16.63 -34.88,-11 -69.75,16.63 -104.61,-11 -139.48,16.63 -174.34,-11 -209.21,16.63 -245.78,-12.35 -242.37,-15.28 -209.21,11 -174.34,-16.63 -139.48,11 -104.61,-16.63 -69.75,11 -34.88,-16.63 -0.01,11 34.85,-16.63 69.72,11 104.59,-16.63 139.46,11 174.33,-16.63 209.2,11 242.37,-15.28 245.78,-12.35 209.2,16.63 174.33,-11 139.46,16.63 104.59,-11 69.72,16.63 34.85,-11 " style="stroke: none; stroke-width: 1; stroke-dasharray: none; stroke-linecap: butt; stroke-linejoin: miter; stroke-miterlimit: 4; fill: rgb(125,157,62); fill-rule: nonzero; opacity: 0.3;" transform="translate(0 101.68) "/>
	<path d="M 437.84 155.552 c -32.732 17.345 -100.458 16.774 -127.523 9.33 c -27.065 -7.445 -63.479 -22.737 -102.701 -6.976 c -39.221 15.761 -110.325 12.004 -148.37 2.928 c -23.581 -5.626 -45.42 -6.164 -59.247 -5.743 v 28.52 h 437.84 V 155.552 z" style="stroke: none; stroke-width: 1; stroke-dasharray: none; stroke-linecap: butt; stroke-linejoin: miter; stroke-miterlimit: 4; fill: rgb(247,146,30); fill-rule: nonzero; opacity: 1;" transform="translate(0 75.52) translate(-218.91949999999997, -167.32528568426048) " stroke-linecap="round" />
	<path d="M 38.605 169.684 c 38.044 9.077 109.148 12.834 148.369 -2.927 c 39.222 -15.761 75.636 -0.469 102.701 6.976 c 23.735 6.529 106.166 6.034 148.166 -5.885 v -12.296 c -32.732 17.345 -100.458 16.774 -127.523 9.33 c -27.065 -7.445 -63.479 -22.737 -102.701 -6.976 c -39.221 15.761 -110.325 12.004 -148.37 2.928 c -23.581 -5.626 -45.42 -6.164 -59.247 -5.743 v 9.109 C 11.409 164.825 24.696 166.365 38.605 169.684 z" style="stroke: none; stroke-width: 1; stroke-dasharray: none; stroke-linecap: butt; stroke-linejoin: miter; stroke-miterlimit: 4; fill: rgb(241,199,24); fill-rule: nonzero; opacity: 1;" transform="translate(0 72.67) translate(-218.92049999999995, -164.47893029320937) " stroke-linecap="round" />
	<polygon points="-2.66,6.1 0,-6.1 2.66,6.1 " style="stroke: none; stroke-width: 1; stroke-dasharray: none; stroke-linecap: butt; stroke-linejoin: miter; stroke-miterlimit: 4; fill: rgb(12,66,32); fill-rule: nonzero; opacity: 1;" transform="translate(-179.64 -34.94) "/>
	<polygon points="6.16,2.66 -6.16,0.54 5.92,-2.66 " style="stroke: none; stroke-width: 1; stroke-dasharray: none; stroke-linecap: butt; stroke-linejoin: miter; stroke-miterlimit: 4; fill: rgb(12,66,32); fill-rule: nonzero; opacity: 1;" transform="translate(-194.1 -11.83) "/>
	<polygon points="6.16,2.66 -6.16,0.54 5.92,-2.66 " style="stroke: none; stroke-width: 1; stroke-dasharray: none; stroke-linecap: butt; stroke-linejoin: miter; stroke-miterlimit: 4; fill: rgb(12,66,32); fill-rule: nonzero; opacity: 1;" transform="translate(-185.32 3.27) "/>
	<polygon points="-5.5,12.6 0,-12.6 5.5,12.6 " style="stroke: none; stroke-width: 1; stroke-dasharray: none; stroke-linecap: butt; stroke-linejoin: miter; stroke-miterlimit: 4; fill: rgb(12,66,32); fill-rule: nonzero; opacity: 1;" transform="translate(-106.71 -69.58) "/>
	<polygon points="-2.45,5.61 0,-5.61 2.45,5.61 " style="stroke: none; stroke-width: 1; stroke-dasharray: none; stroke-linecap: butt; stroke-linejoin: miter; stroke-miterlimit: 4; fill: rgb(12,66,32); fill-rule: nonzero; opacity: 1;" transform="translate(-120.95 -65.69) "/>
	<polygon points="-3.76,6.12 3.76,-7.97 2.79,7.97 " style="stroke: none; stroke-width: 1; stroke-dasharray: none; stroke-linecap: butt; stroke-linejoin: miter; stroke-miterlimit: 4; fill: rgb(12,66,32); fill-rule: nonzero; opacity: 1;" transform="translate(-96.33 -66.24) "/>
	<polygon points="-11.19,2.32 11.19,-10.48 -3.83,10.48 " style="stroke: none; stroke-width: 1; stroke-dasharray: none; stroke-linecap: butt; stroke-linejoin: miter; stroke-miterlimit: 4; fill: rgb(12,66,32); fill-rule: nonzero; opacity: 1;" transform="translate(-75.25 -48.13) "/>
	<polygon points="-9.43,-2.02 9.43,-5.52 -6.26,5.52 " style="stroke: none; stroke-width: 1; stroke-dasharray: none; stroke-linecap: butt; stroke-linejoin: miter; stroke-miterlimit: 4; fill: rgb(12,66,32); fill-rule: nonzero; opacity: 1;" transform="translate(-83.08 28.5) "/>
	<polygon points="-4.99,1.03 4.99,-4.67 -1.71,4.67 " style="stroke: none; stroke-width: 1; stroke-dasharray: none; stroke-linecap: butt; stroke-linejoin: miter; stroke-miterlimit: 4; fill: rgb(12,66,32); fill-rule: nonzero; opacity: 1;" transform="translate(-81.41 -60.07) "/>
	<polygon points="-5.7,-1.65 5.71,-2.98 -4.12,2.98 " style="stroke: none; stroke-width: 1; stroke-dasharray: none; stroke-linecap: butt; stroke-linejoin: miter; stroke-miterlimit: 4; fill: rgb(12,66,32); fill-rule: nonzero; opacity: 1;" transform="translate(-85.98 47.34) "/>
	<polygon points="-7.75,-1.12 7.75,-4.98 -4.73,4.98 " style="stroke: none; stroke-width: 1; stroke-dasharray: none; stroke-linecap: butt; stroke-linejoin: miter; stroke-miterlimit: 4; fill: rgb(12,66,32); fill-rule: nonzero; opacity: 1;" transform="translate(-70.52 -37.66) "/>
	<polygon points="11.19,2.32 -11.19,-10.48 3.83,10.48 " style="stroke: none; stroke-width: 1; stroke-dasharray: none; stroke-linecap: butt; stroke-linejoin: miter; stroke-miterlimit: 4; fill: rgb(12,66,32); fill-rule: nonzero; opacity: 1;" transform="translate(-144.4 -41.04) "/>
	<polygon points="4.99,1.03 -4.99,-4.67 1.7,4.67 " style="stroke: none; stroke-width: 1; stroke-dasharray: none; stroke-linecap: butt; stroke-linejoin: miter; stroke-miterlimit: 4; fill: rgb(12,66,32); fill-rule: nonzero; opacity: 1;" transform="translate(-137.54 -54.77) "/>
	<polygon points="7.75,-1.12 -7.75,-4.98 4.73,4.98 " style="stroke: none; stroke-width: 1; stroke-dasharray: none; stroke-linecap: butt; stroke-linejoin: miter; stroke-miterlimit: 4; fill: rgb(12,66,32); fill-rule: nonzero; opacity: 1;" transform="translate(-143.89 -24.18) "/>
	<polygon points="7.75,-1.12 -7.75,-4.98 4.73,4.98 " style="stroke: none; stroke-width: 1; stroke-dasharray: none; stroke-linecap: butt; stroke-linejoin: miter; stroke-miterlimit: 4; fill: rgb(12,66,32); fill-rule: nonzero; opacity: 1;" transform="translate(-124.81 50.33) "/>
	<polygon points="7.02,-3.37 -7.97,2.17 7.97,3.37 " style="stroke: none; stroke-width: 1; stroke-dasharray: none; stroke-linecap: butt; stroke-linejoin: miter; stroke-miterlimit: 4; fill: rgb(12,66,32); fill-rule: nonzero; opacity: 1;" transform="translate(-123.69 31.38) "/>
	<polygon points="-3.76,6.12 3.76,-7.97 2.79,7.97 " style="stroke: none; stroke-width: 1; stroke-dasharray: none; stroke-linecap: butt; stroke-linejoin: miter; stroke-miterlimit: 4; fill: rgb(12,66,32); fill-rule: nonzero; opacity: 1;" transform="translate(-58.55 -37) "/>
	<polygon points="4.39,5.24 -7.66,-5.24 7.66,-0.73 " style="stroke: none; stroke-width: 1; stroke-dasharray: none; stroke-linecap: butt; stroke-linejoin: miter; stroke-miterlimit: 4; fill: rgb(12,66,32); fill-rule: nonzero; opacity: 1;" transform="translate(-62.87 -23.15) "/>
	<polygon points="-3.76,6.12 3.76,-7.97 2.79,7.97 " style="stroke: none; stroke-width: 1; stroke-dasharray: none; stroke-linecap: butt; stroke-linejoin: miter; stroke-miterlimit: 4; fill: rgb(12,66,32); fill-rule: nonzero; opacity: 1;" transform="translate(-48.02 -37.66) "/>
	<polygon points="-7.55,-0.31 7.55,-5.51 -4.02,5.51 " style="stroke: none; stroke-width: 1; stroke-dasharray: none; stroke-linecap: butt; stroke-linejoin: miter; stroke-miterlimit: 4; fill: rgb(12,66,32); fill-rule: nonzero; opacity: 1;" transform="translate(-40.89 -29.68) "/>
	<polygon points="-6.97,-3.37 7.97,2.3 -7.97,3.37 " style="stroke: none; stroke-width: 1; stroke-dasharray: none; stroke-linecap: butt; stroke-linejoin: miter; stroke-miterlimit: 4; fill: rgb(12,66,32); fill-rule: nonzero; opacity: 1;" transform="translate(-40 -17.16) "/>
	<polygon points="-2.85,-6.24 7.13,6.24 -7.14,-0.95 " style="stroke: none; stroke-width: 1; stroke-dasharray: none; stroke-linecap: butt; stroke-linejoin: miter; stroke-miterlimit: 4; fill: rgb(12,66,32); fill-rule: nonzero; opacity: 1;" transform="translate(-48.01 -8.22) "/>
	<polygon points="-3.12,7.99 -3.5,-7.99 3.5,6.37 " style="stroke: none; stroke-width: 1; stroke-dasharray: none; stroke-linecap: butt; stroke-linejoin: miter; stroke-miterlimit: 4; fill: rgb(12,66,32); fill-rule: nonzero; opacity: 1;" transform="translate(-167.85 -34.06) "/>
	<polygon points="1.3,6.99 -6.42,-6.99 6.42,2.51 " style="stroke: none; stroke-width: 1; stroke-dasharray: none; stroke-linecap: butt; stroke-linejoin: miter; stroke-miterlimit: 4; fill: rgb(12,66,32); fill-rule: nonzero; opacity: 1;" transform="translate(-184.83 -26.76) "/>
	<path d="M 98.509 104.03 c -0.075 0.207 -0.178 0.442 -0.296 0.678 c -0.176 0.339 -0.354 0.665 -0.575 1.003 c -0.384 0.605 -0.841 1.21 -1.357 1.801 c -1.151 1.328 -2.626 2.597 -4.382 3.718 c -0.664 0.429 -1.373 0.841 -2.125 1.21 h -0.015 c -0.811 0.428 -1.652 0.813 -2.553 1.151 v 0.015 c -0.029 0.015 -0.059 0.03 -0.088 0.03 c -0.192 0.074 -0.384 0.147 -0.59 0.207 c 0 0 0 0 -0.015 0 c -0.251 0.104 -0.502 0.192 -0.767 0.28 c -0.605 0.206 -1.225 0.384 -1.874 0.546 c -0.797 0.207 -1.638 0.384 -2.494 0.517 c -0.458 0.074 -0.9 0.147 -1.358 0.206 c -0.458 0.059 -0.93 0.103 -1.402 0.147 c -0.62 0.06 -1.254 0.088 -1.904 0.118 c -0.354 0.015 -0.723 0.015 -1.092 0.015 c -0.62 0 -1.254 -0.015 -1.903 -0.045 c -1.918 -0.104 -3.911 -0.354 -5.977 -0.781 c -0.118 -0.045 -0.25 -0.074 -0.369 -0.074 c -0.015 0 -0.015 0 -0.029 -0.015 c -0.251 -0.059 -0.502 -0.118 -0.753 -0.162 c -0.015 0 -0.015 -0.015 -0.015 -0.015 h -0.015 c -0.383 -0.104 -0.767 -0.192 -1.165 -0.296 c -0.015 0 -0.03 -0.015 -0.03 -0.015 c -0.398 -0.118 -0.782 -0.221 -1.18 -0.339 h -0.015 c -0.206 -0.06 -0.413 -0.119 -0.634 -0.207 c -0.192 -0.059 -0.398 -0.118 -0.59 -0.191 c -0.354 -0.118 -0.693 -0.236 -1.048 -0.354 c 0 -0.016 -0.015 -0.016 -0.029 -0.016 c 0 0 0 -0.015 -0.015 -0.015 c -0.029 0 -0.044 0 -0.059 -0.014 c -0.029 0 -0.045 0 -0.074 -0.015 c -0.015 0 -0.015 -0.015 -0.015 -0.015 c -0.826 -0.295 -1.653 -0.619 -2.493 -0.973 c -0.016 0 -0.016 0 -0.016 -0.015 c -0.413 -0.177 -0.84 -0.369 -1.254 -0.546 c -0.015 0 -0.015 -0.015 -0.015 -0.015 c -0.635 -0.295 -1.269 -0.604 -1.904 -0.929 c -0.457 -0.222 -0.9 -0.458 -1.357 -0.709 c -0.206 -0.103 -0.414 -0.221 -0.62 -0.339 c -0.693 -0.399 -1.417 -0.812 -2.125 -1.24 c -0.782 -0.487 -1.564 -0.988 -2.361 -1.535 c -0.708 -0.472 -1.416 -0.974 -2.139 -1.505 c -0.443 -0.325 -0.9 -0.664 -1.358 -1.018 c -0.442 -0.339 -0.9 -0.693 -1.357 -1.063 c -0.443 -0.369 -0.9 -0.753 -1.358 -1.136 c -0.915 -0.768 -1.829 -1.579 -2.744 -2.42 c -0.93 -0.855 -1.845 -1.741 -2.774 -2.671 c -0.915 -0.93 -1.844 -1.889 -2.774 -2.907 c -6.139 -6.684 -7.835 -14.004 -6.847 -20.142 c 0.119 -0.842 0.31 -1.654 0.547 -2.45 c 0.944 -3.276 2.67 -6.094 4.839 -8.145 c 0.221 -0.207 0.442 -0.414 0.679 -0.605 c 0.28 -0.221 0.546 -0.428 0.841 -0.619 c 0.207 -0.148 0.414 -0.295 0.62 -0.413 c 0.103 -0.089 0.206 -0.163 0.324 -0.222 c 2.243 -1.313 4.412 -2.155 6.508 -2.538 c 0.545 -0.118 1.077 -0.192 1.608 -0.222 c 0.988 -0.103 1.977 -0.088 2.936 0.015 c 0.251 0.029 0.517 0.059 0.768 0.103 c 0.236 0.045 0.458 0.089 0.693 0.133 h 0.015 c 0.915 0.192 1.8 0.473 2.655 0.826 c 5.888 2.45 10.654 8.618 13.783 16.675 c 5.593 14.372 13.635 19.862 20.452 22.267 c 0.369 0.133 0.738 0.251 1.091 0.369 c 0.133 0.044 0.266 0.074 0.399 0.118 c 2.184 0.65 4.206 1.019 5.932 1.313 C 97.019 101.227 99.468 101.448 98.509 104.03 z" style="stroke: none; stroke-width: 1; stroke-dasharray: none; stroke-linecap: butt; stroke-linejoin: miter; stroke-miterlimit: 4; fill: rgb(50,179,74); fill-rule: nonzero; opacity: 1;" transform="translate(-155.59 -4.64) translate(-63.33241605308274, -87.1639209245051) " stroke-linecap="round" />
	<path d="M 81.377 115.186 c -0.458 0.074 -0.9 0.147 -1.358 0.206 c -0.458 0.059 -0.93 0.103 -1.402 0.147 c -0.62 0.06 -1.254 0.088 -1.904 0.118 c -0.354 0.015 -0.723 0.015 -1.092 0.015 c -0.62 0 -1.254 -0.015 -1.903 -0.045 c -1.918 -0.104 -3.911 -0.354 -5.977 -0.781 c -0.118 -0.045 -0.25 -0.074 -0.369 -0.074 c -0.015 0 -0.015 0 -0.029 -0.015 c -0.251 -0.059 -0.502 -0.118 -0.753 -0.162 v -0.015 c -0.015 0 -0.015 0 -0.015 0 h -0.015 c -0.383 -0.104 -0.767 -0.192 -1.165 -0.296 v -0.015 c -0.015 0 -0.015 0 -0.03 0 c -0.398 -0.118 -0.782 -0.221 -1.18 -0.339 h -0.015 l -0.015 -0.015 c -0.207 -0.059 -0.413 -0.118 -0.62 -0.192 c -0.192 -0.059 -0.398 -0.118 -0.59 -0.191 c -0.354 -0.118 -0.693 -0.236 -1.048 -0.354 c 0 -0.016 -0.015 -0.016 -0.029 -0.016 c 0 0 0 -0.015 -0.015 -0.015 c -0.029 0 -0.044 0 -0.059 -0.014 c -0.029 0 -0.045 0 -0.074 -0.015 v -0.015 c 0 0 0 0 -0.015 0 c -0.826 -0.295 -1.653 -0.619 -2.493 -0.973 v -0.015 c 0 0 0 0 -0.016 0 c -0.413 -0.177 -0.84 -0.369 -1.254 -0.546 v -0.015 H 57.93 c -0.635 -0.295 -1.269 -0.604 -1.904 -0.929 c -0.457 -0.222 -0.9 -0.458 -1.357 -0.709 c -0.206 -0.103 -0.414 -0.221 -0.62 -0.339 c -0.693 -0.399 -1.417 -0.812 -2.125 -1.24 c -0.782 -0.487 -1.564 -0.988 -2.361 -1.535 c -0.708 -0.472 -1.416 -0.974 -2.139 -1.505 c -0.443 -0.325 -0.9 -0.664 -1.358 -1.018 c -0.9 -0.693 -1.815 -1.431 -2.715 -2.199 c -0.915 -0.768 -1.829 -1.579 -2.744 -2.42 c -0.93 -0.855 -1.845 -1.741 -2.774 -2.671 c -0.915 -0.93 -1.844 -1.889 -2.774 -2.907 c -6.139 -6.684 -7.835 -14.004 -6.847 -20.142 c 0.119 -0.842 0.31 -1.654 0.547 -2.45 c 0.944 -3.276 2.67 -6.094 4.839 -8.145 c 0.221 -0.207 0.442 -0.414 0.679 -0.605 c 0.28 -0.221 0.546 -0.428 0.841 -0.619 c 0.207 -0.148 0.414 -0.295 0.62 -0.413 c 0.103 -0.089 0.206 -0.163 0.324 -0.222 c 2.243 -1.313 4.412 -2.155 6.508 -2.538 c 0.545 -0.118 1.077 -0.192 1.608 -0.222 c 0.988 -0.103 1.977 -0.088 2.936 0.015 c 0.251 0.029 0.517 0.059 0.768 0.103 c 0.236 0.045 0.458 0.089 0.693 0.133 h 0.015 c 0.915 0.192 1.8 0.473 2.655 0.826 c -1.136 0.428 -2.302 0.989 -3.482 1.683 c -0.457 0.266 -0.885 0.561 -1.313 0.9 c -0.413 0.295 -0.812 0.634 -1.18 0.989 c -1.785 1.667 -3.246 3.852 -4.235 6.39 c -0.132 0.31 -0.251 0.634 -0.354 0.959 v 0.015 c -0.133 0.398 -0.251 0.797 -0.354 1.21 c -0.103 0.369 -0.176 0.737 -0.25 1.107 c -1.313 6.315 0.25 14.004 6.684 21.027 C 59.139 107.571 71.151 113.563 81.377 115.186 z" style="stroke: none; stroke-width: 1; stroke-dasharray: none; stroke-linecap: butt; stroke-linejoin: miter; stroke-miterlimit: 4; fill: rgb(15,125,63); fill-rule: nonzero; opacity: 0.5;" transform="translate(-164.26 -4.64) translate(-54.66315633943877, -87.16392092450513) " stroke-linecap="round" />
	<path d="M 78.618 115.54 c -0.62 0.06 -1.254 0.088 -1.904 0.118 c -0.354 0.015 -0.723 0.015 -1.092 0.015 c -0.62 0 -1.254 -0.015 -1.903 -0.045 c -1.918 -0.104 -3.911 -0.354 -5.977 -0.781 c -0.118 -0.045 -0.25 -0.074 -0.369 -0.074 c -0.015 0 -0.015 0 -0.029 -0.015 l -0.015 -0.015 c -0.236 -0.045 -0.487 -0.104 -0.738 -0.162 c -0.015 0 -0.015 0 -0.015 0 h -0.015 c -0.383 -0.104 -0.782 -0.208 -1.165 -0.311 c -0.015 0 -0.015 0 -0.03 0 c -0.398 -0.118 -0.782 -0.221 -1.18 -0.339 h -0.015 l -0.015 -0.015 c -0.207 -0.059 -0.413 -0.118 -0.62 -0.192 c -0.192 -0.059 -0.398 -0.118 -0.59 -0.191 c -0.354 -0.118 -0.693 -0.236 -1.048 -0.354 c 0 -0.016 -0.015 -0.016 -0.029 -0.016 c 0 0 0 -0.015 -0.015 -0.015 c -0.029 0 -0.044 0 -0.059 -0.014 c -0.029 0 -0.045 -0.015 -0.074 -0.03 c 0 0 0 0 -0.015 0 c -0.826 -0.295 -1.653 -0.619 -2.493 -0.988 c 0 0 0 0 -0.016 0 c -0.413 -0.177 -0.826 -0.369 -1.254 -0.561 H 57.93 c -0.635 -0.295 -1.269 -0.604 -1.904 -0.929 c -0.457 -0.222 -0.9 -0.458 -1.357 -0.709 c -0.206 -0.103 -0.414 -0.221 -0.62 -0.339 c -0.693 -0.399 -1.417 -0.812 -2.125 -1.24 c -0.782 -0.487 -1.564 -0.988 -2.361 -1.535 c -0.708 -0.472 -1.416 -0.974 -2.139 -1.505 c -0.443 -0.325 -0.9 -0.664 -1.358 -1.018 c -0.442 -0.339 -0.9 -0.693 -1.357 -1.063 c -0.443 -0.369 -0.9 -0.753 -1.358 -1.136 c -0.915 -0.768 -1.829 -1.579 -2.744 -2.42 c -0.93 -0.855 -1.845 -1.741 -2.774 -2.671 c -0.915 -0.93 -1.844 -1.889 -2.774 -2.907 c -6.139 -6.684 -7.835 -14.004 -6.847 -20.142 c 0.119 -0.842 0.31 -1.654 0.547 -2.45 c 0.944 -3.276 2.67 -6.094 4.839 -8.145 c 0.221 -0.207 0.442 -0.414 0.679 -0.605 c 0.28 -0.221 0.546 -0.428 0.841 -0.619 c 0.207 -0.148 0.414 -0.295 0.62 -0.413 c 0.103 -0.089 0.206 -0.163 0.324 -0.222 c 2.243 -1.313 4.412 -2.155 6.508 -2.538 c 0.545 -0.118 1.077 -0.192 1.608 -0.222 c 0.988 -0.103 1.977 -0.088 2.936 0.015 c 0.251 0.029 0.517 0.059 0.768 0.103 c 0.236 0.045 0.458 0.089 0.693 0.133 c -1.166 0.236 -2.346 0.605 -3.556 1.107 c -0.458 0.192 -0.93 0.398 -1.387 0.65 c -0.473 0.221 -0.945 0.472 -1.417 0.752 c -1.564 0.93 -2.996 2.213 -4.191 3.777 c -0.176 0.221 -0.354 0.458 -0.517 0.693 c -0.206 0.295 -0.398 0.605 -0.59 0.915 c -0.163 0.251 -0.31 0.517 -0.442 0.797 c -1.845 3.335 -2.745 7.511 -2.229 11.982 c 0.163 1.49 0.487 3.025 1.003 4.56 c 1.092 3.305 3.01 6.655 5.961 9.872 c 3.261 3.556 6.492 6.581 9.68 9.148 l 0.03 0.03 c 3.231 2.582 6.389 4.722 9.488 6.434 h 0.015 C 66.931 113.297 73.069 115.053 78.618 115.54 z" style="stroke: none; stroke-width: 1; stroke-dasharray: none; stroke-linecap: butt; stroke-linejoin: miter; stroke-miterlimit: 4; fill: rgb(15,125,63); fill-rule: nonzero; opacity: 1;" transform="translate(-165.64 -4.64) translate(-53.28365633943877, -87.16492092450513) " stroke-linecap="round" />
	<path d="M 173.308 82.206 c -12.971 14.137 -24.51 13.295 -32.08 10.433 c -1.505 -0.546 -2.848 -1.195 -4.014 -1.815 c -0.221 -0.118 -0.442 -0.236 -0.649 -0.354 c -0.281 -0.148 -0.546 -0.296 -0.797 -0.458 h -0.015 c -0.103 -0.059 -0.207 -0.118 -0.31 -0.177 c 0 0 0 -0.014 -0.014 -0.014 c -0.133 -0.074 -0.267 -0.148 -0.4 -0.236 c -0.014 -0.015 -0.029 -0.015 -0.044 -0.029 c -0.089 -0.045 -0.177 -0.089 -0.25 -0.148 c -0.06 -0.03 -0.119 -0.059 -0.178 -0.103 c -0.28 -0.163 -0.531 -0.325 -0.767 -0.458 c -2.745 -1.608 -3.881 -7.305 2.302 -8.13 v -0.015 c 0.457 -0.044 0.945 -0.089 1.49 -0.089 c 1.962 -0.014 4.485 0.37 7.703 1.344 c 0.501 0.147 1.002 0.31 1.535 0.486 c 3.541 1.196 10.019 -5.813 8.056 -13.752 c -1.401 -5.696 1.048 -11.554 6.685 -13.34 c 0.472 -0.147 0.958 -0.266 1.476 -0.354 c 1.652 -0.295 3.526 -0.25 5.607 0.177 c 0.339 0.074 0.664 0.147 0.974 0.236 c 0.31 0.074 0.62 0.176 0.9 0.266 c 0.146 0.044 0.28 0.088 0.428 0.148 c 0.044 0.015 0.088 0.029 0.118 0.044 c 0.103 0.044 0.206 0.088 0.309 0.118 c 0.03 0.014 0.074 0.029 0.104 0.059 c 0.044 0 0.073 0.03 0.102 0.03 c 0.045 0.029 0.089 0.029 0.119 0.044 c 0.03 0.014 0.044 0.029 0.059 0.029 c 0.088 0.044 0.177 0.088 0.266 0.133 c 0.059 0.015 0.103 0.044 0.147 0.06 c 0.059 0.029 0.104 0.043 0.162 0.073 c 0.06 0.029 0.133 0.074 0.192 0.103 c 0.221 0.119 0.428 0.236 0.635 0.354 c 0.118 0.074 0.236 0.132 0.339 0.207 c 0.192 0.118 0.384 0.251 0.561 0.384 c 0.044 0.015 0.073 0.044 0.118 0.074 c 0.133 0.103 0.266 0.207 0.398 0.309 c 0 0.015 0 0.015 0 0.015 c 0.073 0.045 0.133 0.089 0.192 0.163 c 0.074 0.059 0.148 0.118 0.207 0.177 c 0.236 0.192 0.442 0.413 0.649 0.619 c 0.015 0.015 0.029 0.03 0.029 0.03 c 0.147 0.162 0.295 0.325 0.428 0.487 c 0.295 0.325 0.545 0.679 0.767 1.033 c 0.236 0.354 0.443 0.724 0.635 1.093 C 180.671 67.7 178.251 76.835 173.308 82.206 z" style="stroke: none; stroke-width: 1; stroke-dasharray: none; stroke-linecap: butt; stroke-linejoin: miter; stroke-miterlimit: 4; fill: rgb(50,179,74); fill-rule: nonzero; opacity: 1;" transform="translate(-63.67 -17.23) translate(-155.250579556844, -74.57835287186185) " stroke-linecap="round" />
	<path d="M 177.484 61.459 c -0.915 -0.473 -1.934 -0.871 -3.085 -1.166 c -0.28 -0.074 -0.561 -0.147 -0.84 -0.207 c -0.207 -0.044 -0.414 -0.089 -0.605 -0.119 c -4.382 -0.752 -7.791 0.281 -10.078 2.317 c -0.635 0.561 -1.181 1.21 -1.653 1.903 c -1.697 2.554 -2.228 5.873 -1.476 9.164 c 0.015 0.088 0.044 0.163 0.06 0.251 c 0.295 1.21 0.398 2.391 0.354 3.527 c 0 0 -0.015 0 -0.015 0.015 c -0.295 6.36 -5.401 11.23 -8.396 10.211 c -0.797 -0.266 -1.564 -0.502 -2.288 -0.694 c -2.08 -0.604 -3.851 -0.929 -5.356 -1.062 c -0.25 -0.03 -0.486 -0.044 -0.708 -0.044 c -3.217 -0.162 -5.106 0.648 -6.064 1.829 c -0.752 0.9 -0.944 2.022 -0.768 3.085 c -0.281 -0.148 -0.546 -0.296 -0.797 -0.458 h -0.015 c -0.103 -0.059 -0.207 -0.118 -0.31 -0.177 c 0 0 0 -0.014 -0.014 -0.014 c -0.133 -0.074 -0.267 -0.148 -0.4 -0.236 c -0.014 0 -0.029 -0.015 -0.044 -0.015 v -0.015 c -0.089 -0.045 -0.177 -0.089 -0.25 -0.148 c -0.06 -0.03 -0.119 -0.059 -0.178 -0.103 c -0.28 -0.163 -0.531 -0.325 -0.767 -0.458 c -2.745 -1.608 -3.881 -7.305 2.302 -8.13 v -0.015 c 0.457 -0.044 0.945 -0.089 1.49 -0.089 c 1.962 -0.014 4.485 0.37 7.703 1.344 c 0.501 0.147 1.002 0.31 1.535 0.486 c 3.541 1.196 10.019 -5.813 8.056 -13.752 c -1.401 -5.696 1.048 -11.554 6.685 -13.34 c 0.472 -0.147 0.958 -0.266 1.476 -0.354 c 1.652 -0.295 3.526 -0.25 5.607 0.177 c 0.339 0.074 0.664 0.147 0.974 0.236 c 0.31 0.074 0.62 0.176 0.9 0.266 c 0.146 0.044 0.28 0.088 0.428 0.148 c 0.044 0.015 0.088 0.029 0.118 0.044 c 0.103 0.044 0.206 0.088 0.309 0.118 c 0.074 0.029 0.148 0.059 0.206 0.088 c 0.045 0.029 0.089 0.029 0.119 0.044 c 0.03 0.014 0.044 0.029 0.059 0.029 c 0.147 0.059 0.28 0.133 0.413 0.192 c 0.059 0.029 0.104 0.043 0.162 0.073 c 0.06 0.029 0.133 0.074 0.192 0.103 c 0.221 0.119 0.428 0.236 0.635 0.354 c 0.118 0.074 0.236 0.132 0.339 0.207 c 0.192 0.118 0.384 0.251 0.561 0.384 c 0.044 0.015 0.073 0.044 0.118 0.074 c 0.133 0.103 0.266 0.207 0.398 0.309 c 0.06 0.06 0.133 0.104 0.192 0.178 c 0.074 0.059 0.148 0.118 0.207 0.177 c 0.236 0.192 0.442 0.413 0.649 0.619 c 0.015 0.015 0.029 0.03 0.029 0.03 c 0.147 0.162 0.295 0.325 0.428 0.487 c 0.28 0.325 0.531 0.679 0.767 1.033 C 177.085 60.72 177.292 61.09 177.484 61.459 z" style="stroke: none; stroke-width: 1; stroke-dasharray: none; stroke-linecap: butt; stroke-linejoin: miter; stroke-miterlimit: 4; fill: rgb(15,125,63); fill-rule: nonzero; opacity: 0.5;" transform="translate(-64.39 -19.17) translate(-154.5317592540161, -72.63766569111866) " stroke-linecap="round" />
	<path d="M 175.624 58.817 c -0.34 -0.176 -0.708 -0.354 -1.078 -0.517 c -0.458 -0.192 -0.929 -0.369 -1.431 -0.516 c -0.487 -0.162 -0.988 -0.295 -1.52 -0.398 c -3.468 -0.723 -6.345 -0.339 -8.573 0.782 c -0.546 0.266 -1.048 0.576 -1.505 0.915 c -3.467 2.597 -4.811 7.261 -3.688 11.82 c 1.962 7.938 -4.515 14.948 -8.058 13.753 c -1.829 -0.62 -3.467 -1.063 -4.913 -1.343 c -1.314 -0.28 -2.479 -0.428 -3.512 -0.457 c -0.413 -0.03 -0.811 -0.044 -1.181 -0.014 c -1.063 0.029 -1.962 0.191 -2.686 0.442 c -0.62 0.222 -1.121 0.487 -1.52 0.812 c -1.918 1.505 -1.697 4.043 -0.531 5.726 c -0.133 -0.074 -0.267 -0.148 -0.4 -0.236 c -0.014 0 -0.029 -0.015 -0.044 -0.015 c -0.089 -0.06 -0.177 -0.104 -0.25 -0.163 c -0.06 -0.03 -0.119 -0.059 -0.178 -0.103 c -0.28 -0.163 -0.531 -0.325 -0.767 -0.458 c -2.745 -1.608 -3.881 -7.305 2.302 -8.13 v -0.015 c 0.457 -0.044 0.945 -0.089 1.49 -0.089 c 1.962 -0.014 4.485 0.37 7.703 1.344 c 0.501 0.147 1.002 0.31 1.535 0.486 c 3.541 1.196 10.019 -5.813 8.056 -13.752 c -1.401 -5.696 1.048 -11.554 6.685 -13.34 c 0.472 -0.147 0.958 -0.266 1.476 -0.354 c 1.652 -0.295 3.526 -0.25 5.607 0.177 c 0.339 0.074 0.664 0.147 0.974 0.236 c 0.31 0.074 0.62 0.176 0.9 0.266 c 0.146 0.044 0.28 0.088 0.428 0.148 c 0.044 0.015 0.088 0.029 0.118 0.044 c 0.103 0.044 0.206 0.088 0.309 0.118 c 0.03 0.014 0.074 0.029 0.104 0.059 c 0.044 0 0.073 0.03 0.102 0.03 c 0.045 0.029 0.089 0.029 0.119 0.044 c 0.03 0.014 0.044 0.029 0.059 0.029 c 0.088 0.044 0.177 0.088 0.266 0.133 c 0.059 0.015 0.103 0.044 0.147 0.06 c 0.118 0.058 0.236 0.117 0.354 0.176 c 0.221 0.119 0.428 0.236 0.635 0.354 c 0.118 0.074 0.236 0.132 0.339 0.207 c 0.192 0.118 0.384 0.251 0.561 0.384 c 0.178 0.133 0.354 0.266 0.517 0.413 c 0.073 0.044 0.133 0.089 0.192 0.148 c 0.074 0.059 0.148 0.118 0.207 0.177 C 175.211 58.39 175.417 58.611 175.624 58.817 z" style="stroke: none; stroke-width: 1; stroke-dasharray: none; stroke-linecap: butt; stroke-linejoin: miter; stroke-miterlimit: 4; fill: rgb(15,125,63); fill-rule: nonzero; opacity: 1;" transform="translate(-65.32 -19.49) translate(-153.60075925401605, -72.31516569111861) " stroke-linecap="round" />
	<path d="M 163.038 54.995 c 0.015 1.078 0 2.14 -0.015 3.172 c -0.015 1.432 -0.074 2.804 -0.147 4.117 c -0.37 6.065 -1.269 11.023 -2.715 14.845 c 0 0 -0.015 0 -0.015 0.015 c -1.505 3.955 -3.601 6.699 -6.271 8.204 c -1.46 0.827 -2.966 1.21 -4.412 1.313 c -0.236 0.015 -0.457 0.015 -0.693 0.015 c -1.741 0 -3.379 -0.399 -4.736 -0.885 c -0.222 -0.074 -0.428 -0.162 -0.635 -0.236 c -1.786 -0.724 -2.966 -1.55 -3.084 -1.623 c -0.34 -0.237 -0.413 -0.694 -0.192 -1.034 c 0.015 -0.029 0.03 -0.044 0.044 -0.058 c 0.251 -0.295 0.679 -0.34 0.989 -0.119 c 0 0 0.074 0.044 0.192 0.133 c 0.428 0.266 1.608 0.959 3.173 1.52 c 2.376 0.855 5.651 1.387 8.632 -0.31 c 2.42 -1.358 4.958 -4.383 6.596 -10.713 c 0.664 -2.509 1.18 -5.519 1.476 -9.164 c 0.148 -1.578 0.236 -3.275 0.295 -5.106 c 0.03 -1.18 0.045 -2.435 0.045 -3.733 C 162.034 55.202 162.52 55.083 163.038 54.995 z" style="stroke: none; stroke-width: 1; stroke-dasharray: none; stroke-linecap: butt; stroke-linejoin: miter; stroke-miterlimit: 4; fill: rgb(9,76,38); fill-rule: nonzero; opacity: 1;" transform="translate(-67.4 -20.97) translate(-151.52057341692574, -70.8355) " stroke-linecap="round" />
	<path d="M 174.577 57.843 c 0 0.015 0 0.015 0 0.015 c 0 0.015 0 0.015 0 0.015 c -0.015 0.148 -0.015 0.295 -0.03 0.428 c -0.044 0.679 -0.088 1.343 -0.148 1.993 c -1.239 14.741 -5.533 24.51 -12.823 29.158 c -3.497 2.228 -7.23 2.966 -10.609 2.966 c -3.571 0 -6.773 -0.812 -8.957 -1.564 c -1.727 -0.604 -2.818 -1.151 -2.981 -1.225 c -0.354 -0.177 -0.502 -0.62 -0.31 -0.988 c 0.192 -0.354 0.635 -0.502 0.988 -0.311 c 0.03 0.015 1.122 0.561 2.893 1.151 c 4.043 1.329 11.657 2.893 18.194 -1.283 c 6.92 -4.412 10.993 -13.871 12.159 -28.229 c 0.059 -0.723 0.104 -1.446 0.163 -2.184 c 0.015 -0.31 0.029 -0.605 0.044 -0.915 c 0.118 0.074 0.236 0.132 0.339 0.207 c 0.192 0.118 0.384 0.251 0.561 0.384 c 0.044 0.015 0.073 0.044 0.118 0.074 C 174.311 57.637 174.444 57.74 174.577 57.843 z" style="stroke: none; stroke-width: 1; stroke-dasharray: none; stroke-linecap: butt; stroke-linejoin: miter; stroke-miterlimit: 4; fill: rgb(9,76,38); fill-rule: nonzero; opacity: 1;" transform="translate(-62.31 -17.16) translate(-156.60569099549693, -74.64399999999999) " stroke-linecap="round" />
	<path d="M 98.494 105.388 c -0.281 0.118 -0.576 0.222 -0.856 0.324 c -0.635 0.207 -1.283 0.384 -1.933 0.517 c -1.019 0.207 -2.066 0.31 -3.114 0.31 c -0.885 0 -1.771 -0.074 -2.671 -0.221 c -0.93 -0.133 -1.859 -0.339 -2.804 -0.62 c -0.502 -0.148 -0.989 -0.31 -1.491 -0.487 c -15.877 -5.813 -32.345 -29.158 -40.357 -41.833 c -0.576 -0.944 -1.136 -1.83 -1.638 -2.641 c -0.384 -0.65 -0.738 -1.24 -1.063 -1.786 c 0.545 -0.118 1.077 -0.192 1.608 -0.222 c 0.266 0.429 0.545 0.886 0.841 1.358 c 0.442 0.723 0.915 1.49 1.431 2.302 c 7.835 12.321 23.979 35.223 39.148 41.199 c 0.487 0.206 0.989 0.384 1.476 0.531 c 0.708 0.237 1.417 0.414 2.125 0.561 c 1.992 0.414 3.94 0.502 5.844 0.163 c 0.974 -0.163 1.947 -0.443 2.892 -0.827 c 0.192 -0.073 0.398 -0.059 0.576 0.015 c 0.176 0.059 0.324 0.207 0.398 0.398 C 99.055 104.797 98.878 105.225 98.494 105.388 z" style="stroke: none; stroke-width: 1; stroke-dasharray: none; stroke-linecap: butt; stroke-linejoin: miter; stroke-miterlimit: 4; fill: rgb(9,76,38); fill-rule: nonzero; opacity: 1;" transform="translate(-148.16 -9.17) translate(-70.76279662136061, -82.634) " stroke-linecap="round" />
	<path d="M 87.117 113.636 c -0.192 0.074 -0.384 0.147 -0.59 0.207 c 0 0 0 0 -0.015 0 c -0.251 0.104 -0.502 0.192 -0.767 0.28 c -0.605 0.206 -1.225 0.384 -1.874 0.546 c -16.025 -4.751 -32.803 -25.557 -43.546 -41.243 c -0.088 -0.118 -0.176 -0.251 -0.25 -0.369 c -1.136 -1.638 -2.184 -3.217 -3.158 -4.707 c -0.147 -0.236 -0.296 -0.457 -0.442 -0.679 c -0.546 -0.826 -1.875 -2.804 -2.878 -4.323 c 0.221 -0.207 0.442 -0.414 0.679 -0.605 c 0.28 -0.221 0.546 -0.428 0.841 -0.619 c 0.915 1.461 1.992 3.231 2.39 3.836 c 0.177 0.251 0.34 0.517 0.517 0.783 c 0.827 1.269 1.712 2.612 2.656 3.984 v 0.015 c 0.118 0.177 0.236 0.325 0.354 0.502 c 10.919 16.04 28.582 38.262 44.682 42.113 C 86.188 113.474 86.645 113.577 87.117 113.636 z" style="stroke: none; stroke-width: 1; stroke-dasharray: none; stroke-linecap: butt; stroke-linejoin: miter; stroke-miterlimit: 4; fill: rgb(9,76,38); fill-rule: nonzero; opacity: 1;" transform="translate(-158.56 -3.41) translate(-60.357000000000006, -88.3965) " stroke-linecap="round" />
	<path d="M 67.329 114.743 l 0.015 0.015 c -0.251 -0.059 -0.502 -0.118 -0.753 -0.162 c -0.015 0 -0.015 -0.015 -0.015 -0.015 h -0.015 c -0.383 -0.104 -0.767 -0.192 -1.165 -0.296 c -0.015 0 -0.03 -0.015 -0.03 -0.015 c -0.398 -0.118 -0.782 -0.221 -1.18 -0.339 h -0.015 c -0.206 -0.06 -0.413 -0.119 -0.634 -0.207 c -0.192 -0.059 -0.398 -0.118 -0.59 -0.191 c -0.354 -0.118 -0.693 -0.236 -1.048 -0.354 c 0 -0.016 -0.015 -0.016 -0.029 -0.016 c 0 0 0 -0.015 -0.015 -0.015 c -3.733 -2.833 -7.408 -6.212 -10.934 -9.886 l -0.03 -0.03 c -5.726 -5.961 -11.067 -12.69 -15.642 -19.02 c -2.627 -3.63 -5.002 -7.143 -7.039 -10.27 c 0.119 -0.842 0.31 -1.654 0.547 -2.45 c 1.607 2.479 3.452 5.253 5.489 8.16 c 7.039 10.063 16.38 21.883 26.163 30.043 h 0.015 C 62.711 111.615 65.027 113.326 67.329 114.743 z" style="stroke: none; stroke-width: 1; stroke-dasharray: none; stroke-linecap: butt; stroke-linejoin: miter; stroke-miterlimit: 4; fill: rgb(9,76,38); fill-rule: nonzero; opacity: 1;" transform="translate(-171.14 1.32) translate(-47.77699999999998, -93.125) " stroke-linecap="round" />
	<path d="M 140.136 176.143 c -0.487 -0.03 -1.003 -0.074 -1.535 -0.118 c -3.836 -0.325 -8.514 -0.827 -12.912 -1.329 c -0.501 -0.059 -1.018 -0.118 -1.52 -0.177 c -5.297 -0.59 -9.99 -1.15 -11.966 -1.298 c -0.325 -0.014 -0.561 -0.029 -0.738 -0.029 c -0.089 0 -0.206 0 -0.354 0.015 h -0.383 c -0.104 0 -0.222 0.014 -0.339 0.029 c -0.856 0.059 -2.081 0.147 -3.541 0.266 c -0.31 0.029 -0.62 0.044 -0.944 0.074 c -0.281 0.03 -0.59 0.044 -0.885 0.074 c -0.915 0.088 -1.874 0.162 -2.878 0.236 c -0.088 0.015 -0.177 0.015 -0.266 0.015 c -1.062 0.088 -2.154 0.177 -3.261 0.28 c -0.502 0.03 -1.018 0.074 -1.52 0.118 c -0.649 0.044 -1.313 0.104 -1.963 0.147 c -0.015 0 -0.015 0 -0.029 0 c -0.177 0.015 -0.339 0.03 -0.516 0.044 c -0.752 0.059 -1.491 0.118 -2.214 0.162 c -0.192 0.015 -0.383 0.029 -0.59 0.044 c -0.281 0.015 -0.546 0.044 -0.827 0.06 c -0.088 0.015 -0.162 0.015 -0.251 0.015 c -0.118 0.014 -0.221 0.014 -0.339 0.029 c -0.222 0.015 -0.428 0.03 -0.635 0.044 c -0.133 0.015 -0.251 0.015 -0.369 0.029 c -0.132 0 -0.266 0.015 -0.398 0.015 c -0.089 0.015 -0.163 0.015 -0.236 0.03 h -0.06 c -0.089 0 -0.177 0 -0.251 0.014 c -0.088 0 -0.162 0 -0.25 0.015 c -0.473 0.03 -0.93 0.06 -1.373 0.075 c -0.059 0 -0.118 0.015 -0.162 0.015 c -0.221 0.015 -0.443 0.015 -0.649 0.029 h -0.059 c -0.074 0.015 -0.162 0.015 -0.236 0.015 c -0.797 0.029 -1.49 0.059 -2.081 0.073 c -0.664 0 -1.181 0 -1.52 -0.044 c -0.266 -0.015 -0.428 -0.059 -0.472 -0.104 c -0.059 -0.029 -0.044 -0.074 0.015 -0.118 c 0.029 -0.029 0.089 -0.059 0.148 -0.088 c 0.147 -0.074 0.295 -0.133 0.428 -0.206 c 0.59 -0.281 1.165 -0.59 1.711 -0.9 c 17.53 -10.049 17.722 -35.031 9.031 -59.644 c -0.207 -0.561 -0.399 -1.122 -0.605 -1.683 c -0.147 -0.384 -0.295 -0.768 -0.442 -1.137 c -0.62 -1.652 -1.284 -3.29 -1.977 -4.913 c -0.236 -0.546 -0.472 -1.092 -0.723 -1.638 c -0.693 -1.594 -1.431 -3.172 -2.213 -4.736 c -0.132 -0.281 -0.265 -0.561 -0.413 -0.827 c -0.368 -0.738 -0.737 -1.476 -1.136 -2.213 c -0.989 -1.918 -2.037 -3.792 -3.128 -5.652 c -10.713 -18.253 -8.824 -37.583 0.635 -50.392 c 0.443 -0.606 0.9 -1.195 1.372 -1.771 c 3.306 -3.969 7.378 -7.201 12.056 -9.444 c 0.472 -0.236 0.944 -0.457 1.431 -0.649 c 3.939 -1.697 8.293 -2.685 12.926 -2.833 c 0.442 -0.03 0.885 -0.044 1.343 -0.044 h 0.133 c 0.458 0 0.9 0.014 1.357 0.029 c 0.177 0 0.369 0.015 0.546 0.03 c 0.014 0 0.014 0 0.029 0 h 0.251 c 0.088 0 0.163 0.014 0.236 0.014 c 0.325 0.015 0.649 0.044 0.959 0.074 c 0.074 0 0.147 0 0.222 0.015 c 0.147 0 0.31 0.015 0.457 0.03 c 0.015 0 0.029 0.015 0.044 0.015 h 0.118 c 0.162 0.029 0.324 0.045 0.487 0.074 c 0.073 0 0.132 0 0.192 0.015 c 0.03 0 0.074 0 0.103 0.014 c 0.029 0 0.06 0 0.089 0.015 c 0.118 0 0.236 0.015 0.369 0.03 c 0.059 0.014 0.133 0.014 0.192 0.029 c 0.059 0.015 0.133 0.015 0.192 0.03 c 0.118 0.015 0.236 0.029 0.354 0.044 c 0.163 0.029 0.339 0.058 0.502 0.088 c 0.664 0.103 1.313 0.221 1.948 0.369 c 0.236 0.059 0.472 0.103 0.708 0.162 c 0.148 0.029 0.28 0.074 0.413 0.104 c 0.133 0.03 0.28 0.074 0.413 0.103 c 0.133 0.044 0.266 0.074 0.383 0.103 c 0.428 0.119 0.856 0.237 1.27 0.37 c 0.369 0.118 0.738 0.25 1.106 0.369 c 0.074 0.029 0.118 0.044 0.177 0.073 c 0.059 0 0.104 0.029 0.163 0.044 c 0.029 0.015 0.073 0.029 0.118 0.044 c 0.045 0.015 0.088 0.03 0.133 0.059 c 0.221 0.088 0.442 0.163 0.649 0.251 c 0.192 0.074 0.369 0.147 0.546 0.222 c 0.206 0.088 0.398 0.177 0.59 0.251 c 0.251 0.103 0.487 0.221 0.723 0.339 c 0.178 0.074 0.34 0.147 0.503 0.236 l 0.531 0.266 c 0.06 0.029 0.104 0.059 0.163 0.088 c 0.044 0.015 0.103 0.044 0.147 0.059 c 0.029 0.029 0.059 0.044 0.103 0.059 c 0.074 0.045 0.163 0.089 0.251 0.133 c 0.28 0.163 0.546 0.31 0.826 0.473 c 0.207 0.132 0.428 0.251 0.635 0.383 c 0.074 0.044 0.147 0.088 0.221 0.147 c 0.044 0.015 0.075 0.045 0.119 0.075 c 0.015 0 0.029 0.014 0.044 0.014 c 0.119 0.059 0.222 0.133 0.325 0.222 c 0.207 0.118 0.413 0.265 0.62 0.413 c 0.414 0.265 0.812 0.561 1.195 0.856 c 0.206 0.147 0.398 0.295 0.605 0.472 c 0.222 0.162 0.443 0.339 0.65 0.531 c 0.221 0.162 0.428 0.354 0.634 0.546 c 0.325 0.28 0.635 0.575 0.944 0.87 c 0.089 0.074 0.163 0.162 0.236 0.236 c 0.325 0.311 0.635 0.62 0.93 0.945 c 0.147 0.162 0.295 0.325 0.442 0.487 c 0.236 0.251 0.457 0.502 0.665 0.768 c 0.059 0.074 0.133 0.148 0.191 0.222 c 0.044 0.059 0.088 0.118 0.133 0.177 h 0.015 c 0.132 0.147 0.251 0.295 0.369 0.458 c 8.264 10.477 10.521 26.413 5.549 43.294 c -0.133 0.457 -0.281 0.9 -0.428 1.357 c -0.104 0.354 -0.222 0.708 -0.339 1.063 c -0.133 0.398 -0.266 0.812 -0.414 1.225 c -0.029 0.058 -0.044 0.118 -0.073 0.191 c -0.443 1.225 -0.915 2.464 -1.432 3.689 c -0.191 0.457 -0.383 0.915 -0.59 1.373 c -0.059 0.133 -0.118 0.266 -0.178 0.398 c -0.207 0.458 -0.413 0.915 -0.604 1.387 c -1.712 3.969 -3.173 8.027 -4.382 12.233 v 0.059 c -0.591 2.006 -1.108 3.969 -1.579 5.991 c 0.014 0.014 0 0.044 0 0.059 c -4.162 18.091 -3.852 36.905 1.268 50.304 c 0.015 0.015 0.015 0.015 0 0.028 v 0.016 c 0.591 1.505 1.226 2.906 1.919 4.264 c 0 0 0 0.015 0.015 0.044 c 2.154 4.161 4.87 7.599 8.175 10.078 C 147.661 176.482 144.71 176.482 140.136 176.143 z" style="stroke: none; stroke-width: 1; stroke-dasharray: none; stroke-linecap: butt; stroke-linejoin: miter; stroke-miterlimit: 4; fill: rgb(50,179,74); fill-rule: nonzero; opacity: 1;" transform="translate(-107.45 9.43) translate(-111.47064815762423, -101.23887619892982) " stroke-linecap="round" />
	<path d="M 139.369 38.203 h -0.015 c -0.34 -0.103 -0.694 -0.192 -1.048 -0.281 c -2.981 -0.723 -6.198 -1.106 -9.636 -1.106 c -0.768 0 -1.535 0.029 -2.302 0.088 c -0.487 0.015 -0.989 0.044 -1.476 0.103 c -4.588 0.458 -8.854 1.742 -12.689 3.704 c -0.502 0.266 -1.004 0.532 -1.476 0.812 c -4.545 2.597 -8.426 6.168 -11.495 10.448 v 0.015 c -0.487 0.664 -0.93 1.328 -1.357 2.021 c -7.968 12.749 -9.016 30.81 1.033 47.942 c 0.324 0.546 0.634 1.092 0.943 1.638 c 0.517 0.915 1.034 1.844 1.535 2.774 c 3.808 7.068 6.994 14.52 9.341 21.942 c 0.546 1.682 1.033 3.379 1.476 5.061 c 3.673 13.871 4.19 27.285 0 37.466 c -0.325 0.812 -0.694 1.609 -1.093 2.376 c -0.117 0 -0.236 0.014 -0.383 0.014 c -0.104 0 -0.222 0.015 -0.339 0.015 c -0.856 0.059 -2.081 0.147 -3.541 0.266 c -0.31 0.029 -0.62 0.044 -0.944 0.074 c -0.281 0.03 -0.59 0.044 -0.885 0.074 c -0.915 0.088 -1.874 0.162 -2.878 0.236 c -0.088 0.015 -0.177 0.015 -0.266 0.015 c -1.062 0.088 -2.154 0.177 -3.261 0.28 c -0.502 0.03 -1.018 0.074 -1.52 0.118 c -0.649 0.044 -1.313 0.104 -1.963 0.147 c -0.015 0 -0.015 0 -0.029 0 c -0.177 0.015 -0.339 0.03 -0.516 0.044 c -0.752 0.059 -1.491 0.118 -2.214 0.162 c -0.192 0.015 -0.383 0.029 -0.59 0.044 c -0.281 0.015 -0.546 0.044 -0.827 0.06 c -0.088 0.015 -0.162 0.015 -0.251 0.015 c -0.029 0.014 -0.044 0.014 -0.073 0.014 c -0.089 0 -0.178 0.015 -0.266 0.015 c -0.222 0.015 -0.428 0.03 -0.635 0.044 c -0.133 0.015 -0.251 0.015 -0.369 0.029 c -0.221 0.015 -0.428 0.029 -0.634 0.045 h -0.06 c -0.089 0 -0.177 0 -0.251 0.014 c -0.088 0 -0.162 0 -0.25 0.015 c -0.473 0.03 -0.93 0.06 -1.373 0.075 c -0.059 0 -0.118 0.015 -0.162 0.015 c -0.221 0.015 -0.443 0.015 -0.649 0.029 h -0.059 c -0.044 0 -0.074 0.015 -0.104 0.015 h -0.132 c -0.797 0.029 -1.49 0.059 -2.081 0.073 c -0.664 0 -1.181 0 -1.52 -0.044 c -0.266 -0.015 -0.428 -0.059 -0.472 -0.104 c -0.059 -0.029 -0.044 -0.074 0.015 -0.118 c 0.029 -0.029 0.089 -0.059 0.148 -0.088 c 0.147 -0.074 0.295 -0.133 0.428 -0.206 c 0.59 -0.281 1.165 -0.59 1.711 -0.9 c 17.53 -10.049 17.722 -35.031 9.031 -59.644 c -0.207 -0.561 -0.399 -1.122 -0.605 -1.683 c -0.147 -0.384 -0.295 -0.768 -0.442 -1.137 c -0.62 -1.652 -1.284 -3.29 -1.977 -4.913 c -0.236 -0.546 -0.472 -1.092 -0.723 -1.638 c -0.693 -1.594 -1.431 -3.172 -2.213 -4.736 c -0.132 -0.281 -0.265 -0.561 -0.413 -0.827 c -0.368 -0.738 -0.737 -1.476 -1.136 -2.213 c -0.989 -1.918 -2.037 -3.792 -3.128 -5.652 c -10.713 -18.253 -8.824 -37.583 0.635 -50.392 c 0.443 -0.606 0.9 -1.195 1.372 -1.771 c 3.306 -3.969 7.378 -7.201 12.056 -9.444 c 0.472 -0.236 0.944 -0.457 1.431 -0.649 c 3.939 -1.697 8.293 -2.685 12.926 -2.833 c 0.442 -0.03 0.885 -0.044 1.343 -0.044 h 0.133 c 0.458 0 0.9 0.014 1.357 0.029 c 0.177 0 0.369 0.015 0.546 0.03 c 0.014 0 0.014 0 0.029 0 h 0.251 c 0.088 0 0.163 0.014 0.236 0.014 c 0.325 0.015 0.649 0.044 0.959 0.074 c 0.074 0 0.147 0 0.222 0.015 c 0.147 0 0.31 0.015 0.457 0.03 c 0.059 0.015 0.104 0.015 0.163 0.015 c 0.221 0.029 0.457 0.059 0.679 0.088 c 0.03 0 0.074 0 0.103 0.014 c 0.029 0 0.06 0 0.089 0.015 c 0.192 0.015 0.384 0.03 0.561 0.059 c 0.059 0.015 0.133 0.015 0.192 0.03 c 0.118 0.015 0.236 0.029 0.354 0.044 c 0.163 0.029 0.339 0.058 0.502 0.088 c 0.664 0.103 1.313 0.221 1.948 0.369 c 0.236 0.059 0.472 0.103 0.708 0.162 c 0.148 0.029 0.28 0.074 0.413 0.104 c 0.133 0.03 0.28 0.074 0.413 0.103 c 0.133 0.044 0.266 0.074 0.383 0.103 c 0.428 0.119 0.856 0.237 1.27 0.37 c 0.369 0.118 0.738 0.25 1.106 0.369 c 0.074 0.029 0.118 0.044 0.177 0.073 c 0.059 0 0.104 0.029 0.163 0.044 c 0 0 0 0 0 0.015 c 0.044 0 0.073 0.014 0.118 0.029 c 0.045 0.015 0.088 0.03 0.133 0.059 c 0.221 0.088 0.442 0.163 0.649 0.251 c 0.192 0.074 0.369 0.147 0.546 0.222 c 0.206 0.088 0.398 0.177 0.59 0.251 c 0.251 0.103 0.487 0.221 0.723 0.339 c 0.178 0.074 0.34 0.147 0.503 0.236 l 0.531 0.266 c 0.104 0.044 0.207 0.103 0.31 0.148 c 0.029 0.029 0.059 0.044 0.103 0.059 c 0.074 0.045 0.163 0.089 0.251 0.133 c 0.28 0.163 0.546 0.31 0.826 0.473 c 0.207 0.132 0.428 0.251 0.635 0.383 c 0.074 0.044 0.147 0.088 0.221 0.147 c 0.044 0.015 0.075 0.045 0.119 0.075 c 0.118 0.073 0.251 0.147 0.369 0.236 c 0.207 0.118 0.413 0.265 0.62 0.413 c 0.414 0.265 0.812 0.561 1.195 0.856 c 0.206 0.147 0.398 0.295 0.605 0.472 c 0.222 0.162 0.443 0.339 0.65 0.531 c 0.221 0.162 0.428 0.354 0.634 0.546 c 0.325 0.28 0.635 0.575 0.944 0.87 c 0.089 0.074 0.163 0.162 0.236 0.236 c 0.325 0.311 0.635 0.62 0.93 0.945 c 0.147 0.162 0.295 0.325 0.442 0.487 c 0.236 0.251 0.457 0.502 0.665 0.768 c 0.059 0.074 0.133 0.148 0.191 0.222 C 139.265 38.085 139.309 38.145 139.369 38.203 z" style="stroke: none; stroke-width: 1; stroke-dasharray: none; stroke-linecap: butt; stroke-linejoin: miter; stroke-miterlimit: 4; fill: rgb(15,125,63); fill-rule: nonzero; opacity: 0.5;" transform="translate(-111.72 8.83) translate(-107.20077239779597, -100.63499999999998) " stroke-linecap="round" />
	<path d="M 131.74 31.445 c -1.564 -0.517 -3.202 -0.93 -4.914 -1.226 c -0.472 -0.103 -0.959 -0.176 -1.461 -0.251 c -1.903 -0.266 -3.88 -0.413 -5.946 -0.413 c -2.494 0 -4.899 0.237 -7.215 0.709 c -0.502 0.088 -0.989 0.191 -1.476 0.324 c -4.589 1.092 -8.78 3.069 -12.439 5.726 c -0.472 0.339 -0.944 0.693 -1.402 1.077 c -5.209 4.176 -9.252 9.813 -11.731 16.305 c 0 0.015 0 0.015 0 0.015 c -0.487 1.27 -0.915 2.568 -1.269 3.896 C 81.628 65.9 81.79 75.315 85.08 84.803 c 0.458 1.372 0.989 2.73 1.609 4.088 c 0.84 1.933 1.83 3.881 2.966 5.799 c 1.121 1.918 2.213 3.866 3.246 5.858 c 0.738 1.416 1.462 2.848 2.14 4.294 c 0.221 0.457 0.442 0.914 0.664 1.387 c 0.191 0.428 0.383 0.856 0.575 1.284 c 1.401 3.083 2.657 6.198 3.778 9.325 v 0.015 c 0.531 1.475 1.032 2.966 1.49 4.441 v 0.015 c 5.902 18.755 6.404 37.23 -2.272 48.725 c -0.546 0.768 -1.151 1.476 -1.815 2.169 c -0.015 0.014 -0.015 0.014 -0.015 0.014 c -0.723 0.783 -1.505 1.535 -2.346 2.229 c -0.177 0.015 -0.339 0.03 -0.516 0.044 c -0.752 0.059 -1.491 0.118 -2.214 0.162 c -0.192 0.015 -0.383 0.029 -0.59 0.044 c -0.281 0.015 -0.546 0.044 -0.827 0.06 c -0.118 0.015 -0.221 0.015 -0.324 0.029 c -0.089 0 -0.178 0.015 -0.266 0.015 c -0.222 0.015 -0.428 0.03 -0.635 0.044 c -0.133 0.015 -0.251 0.015 -0.369 0.029 c -0.132 0 -0.266 0.015 -0.398 0.015 c -0.089 0.015 -0.163 0.015 -0.236 0.03 h -0.06 c -0.089 0 -0.177 0 -0.251 0.014 c -0.088 0 -0.162 0 -0.25 0.015 c -0.473 0.03 -0.93 0.06 -1.373 0.075 c -0.059 0 -0.118 0.015 -0.162 0.015 c -0.221 0.015 -0.443 0.015 -0.649 0.029 h -0.059 c -0.044 0 -0.074 0.015 -0.104 0.015 h -0.132 c -0.797 0.029 -1.49 0.059 -2.081 0.073 c -0.664 0 -1.181 0 -1.52 -0.044 c -0.266 -0.015 -0.428 -0.059 -0.472 -0.104 c -0.044 -0.029 -0.044 -0.074 0.015 -0.118 c 0.029 -0.029 0.089 -0.059 0.148 -0.088 c 0.147 -0.074 0.295 -0.133 0.428 -0.206 c 0.59 -0.281 1.165 -0.59 1.711 -0.9 c 17.53 -10.049 17.722 -35.031 9.031 -59.644 c -0.207 -0.561 -0.399 -1.122 -0.605 -1.683 c -0.147 -0.384 -0.295 -0.768 -0.442 -1.137 c -0.62 -1.652 -1.284 -3.29 -1.977 -4.913 c -0.236 -0.546 -0.472 -1.092 -0.723 -1.638 c -0.693 -1.594 -1.431 -3.172 -2.213 -4.736 c -0.132 -0.281 -0.265 -0.561 -0.413 -0.827 c -0.368 -0.738 -0.737 -1.476 -1.136 -2.213 c -0.989 -1.918 -2.037 -3.792 -3.128 -5.652 c -10.713 -18.253 -8.824 -37.583 0.635 -50.392 c 0.443 -0.606 0.9 -1.195 1.372 -1.771 c 3.306 -3.969 7.378 -7.201 12.056 -9.444 c 0.472 -0.236 0.944 -0.457 1.431 -0.649 c 3.939 -1.697 8.293 -2.685 12.926 -2.833 c 0.442 -0.03 0.885 -0.044 1.343 -0.044 h 0.133 c 0.458 0 0.9 0.014 1.357 0.029 c 0.177 0 0.369 0.015 0.546 0.03 c 0.014 0 0.014 0 0.029 0 h 0.251 c 0.088 0 0.163 0.014 0.236 0.014 c 0.325 0.015 0.649 0.044 0.959 0.074 c 0.074 0 0.147 0 0.222 0.015 c 0.177 0.015 0.339 0.03 0.501 0.044 c 0.207 0.014 0.413 0.045 0.605 0.074 c 0.073 0 0.132 0 0.192 0.015 c 0.03 0 0.074 0 0.103 0.014 c 0.029 0 0.06 0 0.089 0.015 c 0.118 0 0.236 0.015 0.369 0.03 c 0.059 0.014 0.133 0.014 0.192 0.029 c 0.059 0.015 0.133 0.015 0.192 0.03 c 0.295 0.044 0.576 0.088 0.856 0.133 c 0.664 0.103 1.313 0.221 1.948 0.369 c 0.236 0.059 0.472 0.103 0.708 0.162 c 0.148 0.029 0.28 0.074 0.413 0.104 c 0.133 0.03 0.28 0.074 0.413 0.103 c 0.133 0.044 0.266 0.074 0.383 0.103 c 0.428 0.119 0.856 0.237 1.27 0.37 c 0.369 0.118 0.738 0.25 1.106 0.369 c 0.074 0.029 0.118 0.044 0.177 0.073 c 0.059 0.015 0.104 0.029 0.163 0.059 c 0.088 0.029 0.162 0.059 0.25 0.088 c 0.221 0.088 0.442 0.163 0.649 0.251 c 0.192 0.074 0.369 0.147 0.546 0.222 c 0.206 0.088 0.398 0.177 0.59 0.251 c 0.251 0.103 0.487 0.221 0.723 0.339 c 0.178 0.074 0.34 0.147 0.503 0.236 l 0.531 0.266 c 0.06 0.029 0.104 0.059 0.163 0.088 c 0.044 0.015 0.103 0.044 0.147 0.059 c 0.029 0.029 0.059 0.044 0.103 0.059 c 0.074 0.045 0.163 0.089 0.251 0.133 c 0.28 0.163 0.546 0.31 0.826 0.473 c 0.207 0.132 0.428 0.251 0.635 0.383 c 0.074 0.044 0.147 0.088 0.221 0.147 C 131.665 31.386 131.696 31.415 131.74 31.445 z" style="stroke: none; stroke-width: 1; stroke-dasharray: none; stroke-linecap: butt; stroke-linejoin: miter; stroke-miterlimit: 4; fill: rgb(15,125,63); fill-rule: nonzero; opacity: 1;" transform="translate(-115.53 8.83) translate(-103.38577239779598, -100.63600000000001) " stroke-linecap="round" />
	<path d="M 136.846 104.93 c -0.591 2.006 -1.108 3.969 -1.579 5.991 c 0.103 -6.979 0.28 -14.019 0.487 -20.91 h 0.015 c 0.059 -1.992 0.133 -3.97 0.192 -5.917 c 0.044 -1.137 0.088 -2.272 0.133 -3.394 c 0.649 -16.719 1.52 -32.006 2.213 -42.778 c 0.015 -0.295 0.029 -0.59 0.059 -0.885 c 0.236 0.251 0.457 0.502 0.665 0.768 c 0.059 0.074 0.133 0.148 0.191 0.222 c 0.044 0.059 0.088 0.118 0.148 0.177 c 0.132 0.147 0.251 0.295 0.369 0.458 c -0.678 10.698 -1.52 25.631 -2.154 41.951 c -0.03 0.886 -0.074 1.786 -0.104 2.671 c -0.044 1.358 -0.103 2.73 -0.147 4.102 c -0.044 1.137 -0.074 2.287 -0.119 3.438 c -0.147 4.648 -0.266 9.341 -0.368 14.048 V 104.93 z" style="stroke: none; stroke-width: 1; stroke-dasharray: none; stroke-linecap: butt; stroke-linejoin: miter; stroke-miterlimit: 4; fill: rgb(9,76,38); fill-rule: nonzero; opacity: 1;" transform="translate(-81.42 -17.83) translate(-137.503, -73.97900000000001) " stroke-linecap="round" />
	<path d="M 140.136 176.143 c -0.487 -0.03 -1.003 -0.074 -1.535 -0.118 c -0.87 -4.088 -1.549 -9.075 -2.066 -14.697 c 0.591 1.505 1.226 2.906 1.919 4.264 c 0 0 0 0.015 0.015 0.044 C 138.911 169.576 139.472 173.119 140.136 176.143 z" style="stroke: none; stroke-width: 1; stroke-dasharray: none; stroke-linecap: butt; stroke-linejoin: miter; stroke-miterlimit: 4; fill: rgb(9,76,38); fill-rule: nonzero; opacity: 1;" transform="translate(-80.58 76.93) translate(-138.3355, -168.7355) " stroke-linecap="round" />
	<path d="M 126.929 28.937 c -0.044 0.398 -0.074 0.826 -0.103 1.283 c -0.133 1.83 -0.281 4.073 -0.457 6.685 c -1.934 29.453 -6.139 104.96 -0.679 137.792 c -0.501 -0.059 -1.018 -0.118 -1.52 -0.177 c -5.356 -33.201 -1.209 -108.015 0.723 -137.512 c 0.177 -2.774 0.339 -5.135 0.472 -7.039 c 0.044 -0.575 0.089 -1.106 0.119 -1.593 c 0 -0.015 0 -0.015 0 -0.015 c 0.029 0.015 0.073 0.029 0.118 0.044 c 0.045 0.015 0.088 0.03 0.133 0.059 c 0.221 0.088 0.442 0.163 0.649 0.251 C 126.575 28.789 126.752 28.862 126.929 28.937 z" style="stroke: none; stroke-width: 1; stroke-dasharray: none; stroke-linecap: butt; stroke-linejoin: miter; stroke-miterlimit: 4; fill: rgb(9,76,38); fill-rule: nonzero; opacity: 1;" transform="translate(-94.69 9.72) translate(-124.2312106044927, -101.529) " stroke-linecap="round" />
	<path d="M 85.08 84.803 c 0.134 3.984 0.251 8.027 0.354 12.1 c 0.398 0.738 0.768 1.476 1.136 2.213 c 0.148 0.266 0.281 0.546 0.413 0.827 c 0 -0.236 0 -0.473 -0.015 -0.709 c -0.074 -3.468 -0.177 -6.92 -0.28 -10.344 c -0.399 -12.572 -0.959 -24.702 -1.535 -35.179 c 0 0 0 0 0 -0.015 c -0.28 -5.356 -0.575 -10.285 -0.841 -14.608 c -0.472 0.576 -0.929 1.165 -1.372 1.771 c 0.295 4.958 0.619 10.609 0.944 16.747 C 84.313 65.959 84.741 75.211 85.08 84.803 z" style="stroke: none; stroke-width: 1; stroke-dasharray: none; stroke-linecap: butt; stroke-linejoin: miter; stroke-miterlimit: 4; fill: rgb(9,76,38); fill-rule: nonzero; opacity: 1;" transform="translate(-133.96 -22.29) translate(-84.9615, -69.51549999999997) " stroke-linecap="round" />
	<path d="M 99.276 170.034 c -0.207 1.46 -0.428 2.833 -0.664 4.146 c -0.502 0.03 -1.018 0.074 -1.52 0.118 c 0.118 -0.678 0.236 -1.372 0.354 -2.081 c 0 0 0 0 0.015 -0.014 c 2.184 -13.458 2.774 -33.88 2.597 -55.351 v -0.015 c -0.044 -4.382 -0.104 -8.824 -0.208 -13.25 c -0.383 -17.722 -1.195 -35.341 -1.977 -49.581 c -0.354 -6.286 -0.694 -11.923 -0.989 -16.615 c -0.192 -2.981 -0.369 -5.593 -0.516 -7.747 c 0.472 -0.236 0.944 -0.457 1.431 -0.649 c 0.132 2.021 0.31 4.485 0.487 7.319 c 0.295 4.412 0.62 9.709 0.944 15.656 v 0.015 c 0.871 15.302 1.786 34.869 2.154 54.376 c 0.089 5.003 0.163 10.004 0.163 14.932 v 0.015 C 101.607 139.961 101.033 157.52 99.276 170.034 z" style="stroke: none; stroke-width: 1; stroke-dasharray: none; stroke-linecap: butt; stroke-linejoin: miter; stroke-miterlimit: 4; fill: rgb(9,76,38); fill-rule: nonzero; opacity: 1;" transform="translate(-119.96 9.84) translate(-98.9596011133868, -101.64649999999997) " stroke-linecap="round" />
	<path d="M 112.203 26.118 v 147.103 c -0.325 -0.014 -0.561 -0.029 -0.738 -0.029 c -0.089 0 -0.206 0 -0.354 0.015 c -0.117 0 -0.236 0.014 -0.383 0.014 V 26.162 c 0.442 -0.03 0.885 -0.044 1.343 -0.044 H 112.203 z" style="stroke: none; stroke-width: 1; stroke-dasharray: none; stroke-linecap: butt; stroke-linejoin: miter; stroke-miterlimit: 4; fill: rgb(9,76,38); fill-rule: nonzero; opacity: 1;" transform="translate(-107.45 7.86) translate(-111.4655, -99.6695) " stroke-linecap="round" />
	<polygon points="-3.17,-0.16 3.17,-4.05 -0.52,4.05 " style="stroke: none; stroke-width: 1; stroke-dasharray: none; stroke-linecap: butt; stroke-linejoin: miter; stroke-miterlimit: 4; fill: rgb(12,66,32); fill-rule: nonzero; opacity: 1;" transform="translate(-85.04 -31.97) "/>
	<polygon points="-3.17,-0.16 3.17,-4.05 -0.52,4.05 " style="stroke: none; stroke-width: 1; stroke-dasharray: none; stroke-linecap: butt; stroke-linejoin: miter; stroke-miterlimit: 4; fill: rgb(12,66,32); fill-rule: nonzero; opacity: 1;" transform="translate(-123.94 -43.72) "/>
	<polygon points="-3.17,-0.16 3.17,-4.05 -0.52,4.05 " style="stroke: none; stroke-width: 1; stroke-dasharray: none; stroke-linecap: butt; stroke-linejoin: miter; stroke-miterlimit: 4; fill: rgb(12,66,32); fill-rule: nonzero; opacity: 1;" transform="translate(-46.82 -26.71) "/>
	<polygon points="-3.17,-0.16 3.17,-4.05 -0.52,4.05 " style="stroke: none; stroke-width: 1; stroke-dasharray: none; stroke-linecap: butt; stroke-linejoin: miter; stroke-miterlimit: 4; fill: rgb(12,66,32); fill-rule: nonzero; opacity: 1;" transform="translate(-88.21 8.76) "/>
	<polygon points="-3.17,-0.16 3.17,-4.05 -0.52,4.05 " style="stroke: none; stroke-width: 1; stroke-dasharray: none; stroke-linecap: butt; stroke-linejoin: miter; stroke-miterlimit: 4; fill: rgb(12,66,32); fill-rule: nonzero; opacity: 1;" transform="translate(-104.93 25.11) "/>
	<polygon points="-3.17,-0.16 3.17,-4.05 -0.52,4.05 " style="stroke: none; stroke-width: 1; stroke-dasharray: none; stroke-linecap: butt; stroke-linejoin: miter; stroke-miterlimit: 4; fill: rgb(12,66,32); fill-rule: nonzero; opacity: 1;" transform="translate(-113.75 -0.47) "/>
	<polygon points="-3.69,-2.04 3.69,-2.9 -3.06,2.9 " style="stroke: none; stroke-width: 1; stroke-dasharray: none; stroke-linecap: butt; stroke-linejoin: miter; stroke-miterlimit: 4; fill: rgb(12,66,32); fill-rule: nonzero; opacity: 1;" transform="translate(-92.02 39.8) "/>
	<polygon points="3.29,-2.46 -4.05,-1.23 4.05,2.46 " style="stroke: none; stroke-width: 1; stroke-dasharray: none; stroke-linecap: butt; stroke-linejoin: miter; stroke-miterlimit: 4; fill: rgb(12,66,32); fill-rule: nonzero; opacity: 1;" transform="translate(-114.75 39.49) "/>
	<polygon points="-2.53,-2.31 4.36,0.5 -4.36,2.31 " style="stroke: none; stroke-width: 1; stroke-dasharray: none; stroke-linecap: butt; stroke-linejoin: miter; stroke-miterlimit: 4; fill: rgb(12,66,32); fill-rule: nonzero; opacity: 1;" transform="translate(-97.4 60.26) "/>
	<polygon points="-3.17,-0.16 3.17,-4.05 -0.52,4.05 " style="stroke: none; stroke-width: 1; stroke-dasharray: none; stroke-linecap: butt; stroke-linejoin: miter; stroke-miterlimit: 4; fill: rgb(12,66,32); fill-rule: nonzero; opacity: 1;" transform="translate(-156.78 -6.21) "/>
	<polygon points="3.48,-2.48 -3.92,-1.73 3.92,2.48 " style="stroke: none; stroke-width: 1; stroke-dasharray: none; stroke-linecap: butt; stroke-linejoin: miter; stroke-miterlimit: 4; fill: rgb(12,66,32); fill-rule: nonzero; opacity: 1;" transform="translate(-164.91 7.49) "/>
	<polygon points="3.17,-0.16 -3.17,-4.05 0.52,4.05 " style="stroke: none; stroke-width: 1; stroke-dasharray: none; stroke-linecap: butt; stroke-linejoin: miter; stroke-miterlimit: 4; fill: rgb(12,66,32); fill-rule: nonzero; opacity: 1;" transform="translate(-172.02 -24.23) "/>
	<polygon points="3.17,-0.16 -3.17,-4.05 0.52,4.05 " style="stroke: none; stroke-width: 1; stroke-dasharray: none; stroke-linecap: butt; stroke-linejoin: miter; stroke-miterlimit: 4; fill: rgb(12,66,32); fill-rule: nonzero; opacity: 1;" transform="translate(-103.24 -49.21) "/>
	<polygon points="3.17,-0.16 -3.17,-4.05 0.52,4.05 " style="stroke: none; stroke-width: 1; stroke-dasharray: none; stroke-linecap: butt; stroke-linejoin: miter; stroke-miterlimit: 4; fill: rgb(12,66,32); fill-rule: nonzero; opacity: 1;" transform="translate(-127.11 -18.91) "/>
	<polygon points="3.17,-0.16 -3.17,-4.05 0.52,4.05 " style="stroke: none; stroke-width: 1; stroke-dasharray: none; stroke-linecap: butt; stroke-linejoin: miter; stroke-miterlimit: 4; fill: rgb(12,66,32); fill-rule: nonzero; opacity: 1;" transform="translate(-56.18 -15.54) "/>
	<polygon points="3.17,-0.16 -3.17,-4.05 0.52,4.05 " style="stroke: none; stroke-width: 1; stroke-dasharray: none; stroke-linecap: butt; stroke-linejoin: miter; stroke-miterlimit: 4; fill: rgb(12,66,32); fill-rule: nonzero; opacity: 1;" transform="translate(-113.75 -26.71) "/>
	<polygon points="3.17,-0.16 -3.17,-4.05 0.52,4.05 " style="stroke: none; stroke-width: 1; stroke-dasharray: none; stroke-linecap: butt; stroke-linejoin: miter; stroke-miterlimit: 4; fill: rgb(12,66,32); fill-rule: nonzero; opacity: 1;" transform="translate(-85.04 -6.21) "/>
	<polygon points="-3.17,-0.16 3.17,-4.05 -0.52,4.05 " style="stroke: none; stroke-width: 1; stroke-dasharray: none; stroke-linecap: butt; stroke-linejoin: miter; stroke-miterlimit: 4; fill: rgb(12,66,32); fill-rule: nonzero; opacity: 1;" transform="translate(-176.62 -12.91) "/>
	<path d="M 224.754 132.369 c -14.28 10.984 -44.073 -0.928 -48.23 -5.22 c -4.158 -4.292 17.484 3.313 33.179 -10.319 c 6.315 -5.483 12.376 -8.766 17.217 -7.634 c 0.005 -0.005 0.005 -0.005 0.005 -0.005 c 1.178 0.279 2.285 0.814 3.306 1.645 c 3.406 2.772 4.406 5.95 3.792 9.172 C 233.199 124.337 229.462 128.743 224.754 132.369 z" style="stroke: none; stroke-width: 1; stroke-dasharray: none; stroke-linecap: butt; stroke-linejoin: miter; stroke-miterlimit: 4; fill: rgb(210,54,39); fill-rule: nonzero; opacity: 1;" transform="translate(-13.82 31.13) translate(-205.09825565484948, -122.93501231874835) " stroke-linecap="round" />
	<path d="M 234.12 117.19 c -0.735 4.399 -4.51 8.897 -9.3 12.582 c -13.215 10.165 -39.706 0.727 -46.886 -4.14 c -1.83 0.092 -2.485 0.404 -1.41 1.516 c 4.156 4.291 33.95 16.204 48.233 5.218 C 230.496 127.951 234.777 122.37 234.12 117.19 z" style="stroke: none; stroke-width: 1; stroke-dasharray: none; stroke-linecap: butt; stroke-linejoin: miter; stroke-miterlimit: 4; fill: rgb(170,77,37); fill-rule: nonzero; opacity: 1;" transform="translate(-13.82 35.24) translate(-205.09579950607525, -127.04236965623218) " stroke-linecap="round" />
	<path d="M 216.338 114.936 c -8.776 9.063 -13.619 7.58 -13.216 8.786 c 0.403 1.206 8.996 -0.901 14.511 -5.172 c 5.628 -4.358 8.885 -2.446 8.444 -5.961 C 225.703 109.603 221.23 109.885 216.338 114.936 z" style="stroke: none; stroke-width: 1; stroke-dasharray: none; stroke-linecap: butt; stroke-linejoin: miter; stroke-miterlimit: 4; fill: rgb(254,214,24); fill-rule: nonzero; opacity: 0.2;" transform="translate(-4.31 25.56) translate(-214.60771757595023, -117.36284835168264) " stroke-linecap="round" />
	<path d="M 233.143 114.21 c 8.704 -3.121 8.649 -13.534 8.648 -13.643 c -0.007 -0.55 -0.443 -0.962 -0.973 -0.919 c -0.527 0.044 -0.948 0.527 -0.939 1.077 c 0.007 0.394 0.052 9.478 -7.901 11.806 c -0.493 -0.579 -1.069 -1.145 -1.746 -1.695 c -1.021 -0.831 -2.128 -1.366 -3.306 -1.645 c 0 0 0 0 -0.005 0.005 c -0.555 0.992 -0.6 2.243 0.003 3.222 c 0.391 0.644 0.988 1.049 1.651 1.211 c -0.117 0.721 -0.009 1.471 0.381 2.114 c 0.359 0.584 0.892 0.968 1.49 1.161 c -0.074 0.668 0.044 1.341 0.399 1.93 c 0.684 1.103 1.976 1.547 3.178 1.174 C 234.4 118.031 234.165 116.07 233.143 114.21 z" style="stroke: none; stroke-width: 1; stroke-dasharray: none; stroke-linecap: butt; stroke-linejoin: miter; stroke-miterlimit: 4; fill: rgb(167,204,56); fill-rule: nonzero; opacity: 1;" transform="translate(15.22 18.09) translate(-234.1395812190076, -109.89129092905563) " stroke-linecap="round" />
	<path d="M 231.977 112.531 C 232.048 112.612 231.907 112.449 231.977 112.531 c 7.953 -2.328 8.732 -11.367 8.726 -11.76 c -0.007 -0.438 0.26 -0.821 0.634 -0.987 c -0.151 -0.092 -0.323 -0.153 -0.519 -0.137 c -0.527 0.044 -0.948 0.527 -0.939 1.077 C 239.884 101.107 239.326 109.933 231.977 112.531 z" style="stroke: none; stroke-width: 1; stroke-dasharray: none; stroke-linecap: butt; stroke-linejoin: miter; stroke-miterlimit: 4; fill: rgb(144,95,37); fill-rule: nonzero; opacity: 1;" transform="translate(17.73 14.29) translate(-236.6469489448882, -106.09936490482905) " stroke-linecap="round" />
	<path d="M 231.668 118.88 c -0.353 -0.589 -0.474 -1.263 -0.398 -1.93 c -0.599 -0.193 -1.13 -0.577 -1.489 -1.161 c -0.39 -0.644 -0.498 -1.394 -0.382 -2.114 c -0.663 -0.162 -1.26 -0.567 -1.65 -1.211 c -0.569 -0.926 -0.556 -2.091 -0.084 -3.054 c -0.244 -0.083 -0.489 -0.16 -0.739 -0.219 c 0 0 0 0 -0.005 0.005 c -0.555 0.992 -0.6 2.243 0.003 3.222 c 0.391 0.644 0.988 1.049 1.651 1.211 c -0.117 0.721 -0.009 1.471 0.381 2.114 c 0.359 0.584 0.892 0.968 1.49 1.161 c -0.074 0.668 0.044 1.341 0.399 1.93 c 0.572 0.922 1.568 1.375 2.581 1.285 C 232.721 119.969 232.084 119.547 231.668 118.88 z" style="stroke: none; stroke-width: 1; stroke-dasharray: none; stroke-linecap: butt; stroke-linejoin: miter; stroke-miterlimit: 4; fill: rgb(137,91,36); fill-rule: nonzero; opacity: 1;" transform="translate(11.04 22.86) translate(-229.9570536459152, -114.66061516217178) " stroke-linecap="round" />
	<path d="M 191.838 46.485 c 3.331 11.352 23.75 16.553 27.616 15.883 c 3.866 -0.67 -10.561 -5.004 -13.618 -18.309 c -1.231 -5.353 -3.178 -9.438 -6.185 -10.71 c 0 -0.005 0 -0.005 0 -0.005 c -0.733 -0.308 -1.528 -0.452 -2.391 -0.406 c -2.879 0.154 -4.639 1.455 -5.56 3.402 C 190.462 38.958 190.741 42.74 191.838 46.485 z" style="stroke: none; stroke-width: 1; stroke-dasharray: none; stroke-linecap: butt; stroke-linejoin: miter; stroke-miterlimit: 4; fill: rgb(210,54,39); fill-rule: nonzero; opacity: 1;" transform="translate(-13.42 -44.13) translate(-205.4968470216022, -47.67744708963815) " stroke-linecap="round" />
	<path d="M 192.738 34.808 c -1.311 2.619 -1.048 6.466 0.069 10.274 c 3.082 10.505 20.792 15.742 26.484 15.936 c 0.937 0.757 1.162 1.176 0.162 1.35 c -3.865 0.67 -24.285 -4.531 -27.616 -15.886 C 190.499 41.92 190.385 37.303 192.738 34.808 z" style="stroke: none; stroke-width: 1; stroke-dasharray: none; stroke-linecap: butt; stroke-linejoin: miter; stroke-miterlimit: 4; fill: rgb(170,77,37); fill-rule: nonzero; opacity: 1;" transform="translate(-13.42 -43.19) translate(-205.4965053994589, -48.616646479593115) " stroke-linecap="round" />
	<path d="M 203.046 40.488 c 1.153 8.204 4.297 9.29 3.616 9.774 c -0.68 0.484 -4.425 -3.957 -5.701 -8.357 c -1.302 -4.49 -3.77 -4.735 -2.176 -6.43 C 200.139 34.035 202.404 35.916 203.046 40.488 z" style="stroke: none; stroke-width: 1; stroke-dasharray: none; stroke-linecap: butt; stroke-linejoin: miter; stroke-miterlimit: 4; fill: rgb(254,214,24); fill-rule: nonzero; opacity: 0.2;" transform="translate(-16.41 -49.16) translate(-202.51184463238226, -42.649183246555495) " stroke-linecap="round" />
	<path d="M 194.409 33.603 c -3.413 -5.022 0.644 -10.527 0.687 -10.585 c 0.217 -0.289 0.608 -0.339 0.872 -0.111 c 0.263 0.228 0.3 0.646 0.082 0.935 c -0.155 0.206 -3.692 5.01 -0.372 9.322 c 0.485 -0.117 1.011 -0.194 1.582 -0.225 c 0.863 -0.046 1.658 0.098 2.391 0.406 c 0 0 0 0 0 0.005 c -0.089 0.741 -0.549 1.421 -1.248 1.708 c -0.456 0.191 -0.93 0.175 -1.344 0.005 c -0.218 0.427 -0.564 0.783 -1.02 0.975 c -0.417 0.17 -0.847 0.169 -1.239 0.04 c -0.219 0.383 -0.542 0.695 -0.958 0.871 c -0.79 0.32 -1.647 0.056 -2.141 -0.606 C 192.264 35.146 193.147 34.195 194.409 33.603 z" style="stroke: none; stroke-width: 1; stroke-dasharray: none; stroke-linecap: butt; stroke-linejoin: miter; stroke-miterlimit: 4; fill: rgb(167,204,56); fill-rule: nonzero; opacity: 1;" transform="translate(-23.24 -61.88) translate(-195.676, -29.92427470876011) " stroke-linecap="round" />
	<path d="M 195.677 33.164 C 195.607 33.179 195.746 33.147 195.677 33.164 c -3.32 -4.312 -0.238 -9.41 -0.083 -9.617 c 0.172 -0.229 0.179 -0.537 0.045 -0.769 c 0.115 0.01 0.23 0.044 0.328 0.128 c 0.263 0.228 0.3 0.646 0.082 0.935 C 195.898 24.042 192.781 28.942 195.677 33.164 z" style="stroke: none; stroke-width: 1; stroke-dasharray: none; stroke-linecap: butt; stroke-linejoin: miter; stroke-miterlimit: 4; fill: rgb(144,95,37); fill-rule: nonzero; opacity: 1;" transform="translate(-23.75 -63.83) translate(-195.16739995930266, -27.973064021600642) " stroke-linecap="round" />
	<path d="M 193.385 36.652 c 0.416 -0.176 0.74 -0.487 0.958 -0.87 c 0.392 0.129 0.823 0.131 1.24 -0.04 c 0.456 -0.191 0.803 -0.547 1.02 -0.975 c 0.415 0.17 0.889 0.186 1.345 -0.005 c 0.66 -0.271 1.104 -0.895 1.226 -1.588 c 0.162 0.05 0.322 0.104 0.477 0.169 c 0 0 0 0 0 0.005 c -0.089 0.741 -0.549 1.421 -1.248 1.708 c -0.456 0.191 -0.93 0.175 -1.344 0.005 c -0.218 0.427 -0.564 0.783 -1.02 0.975 c -0.417 0.17 -0.847 0.169 -1.239 0.04 c -0.219 0.383 -0.542 0.695 -0.958 0.871 c -0.66 0.268 -1.364 0.123 -1.867 -0.316 C 192.405 36.823 192.907 36.846 193.385 36.652 z" style="stroke: none; stroke-width: 1; stroke-dasharray: none; stroke-linecap: butt; stroke-linejoin: miter; stroke-miterlimit: 4; fill: rgb(137,91,36); fill-rule: nonzero; opacity: 1;" transform="translate(-23.11 -56.68) translate(-195.81300000000002, -35.12790523344509) " stroke-linecap="round" />
	<path d="M 423.718 123.876 c 1.84 11.688 -14.399 25.114 -18.181 26.161 c -3.781 1.046 7.41 -9.037 4.489 -22.373 c -1.175 -5.365 -1.16 -9.891 1.016 -12.326 c -0.001 -0.004 -0.001 -0.004 -0.001 -0.004 c 0.53 -0.592 1.188 -1.063 1.988 -1.389 c 2.669 -1.091 4.814 -0.668 6.479 0.7 C 421.746 116.482 423.111 120.021 423.718 123.876 z" style="stroke: none; stroke-width: 1; stroke-dasharray: none; stroke-linecap: butt; stroke-linejoin: miter; stroke-miterlimit: 4; fill: rgb(210,54,39); fill-rule: nonzero; opacity: 1;" transform="translate(195.39 39.91) translate(-414.30526854245363, -131.71859085272004) " stroke-linecap="round" />
	<path d="M 417.914 113.703 c 2.305 1.808 3.711 5.399 4.328 9.319 c 1.703 10.815 -12.071 23.117 -17.135 25.725 c -0.524 1.084 -0.549 1.56 0.43 1.29 c 3.78 -1.046 20.02 -14.473 18.18 -26.163 C 422.979 119.177 421.108 114.953 417.914 113.703 z" style="stroke: none; stroke-width: 1; stroke-dasharray: none; stroke-linecap: butt; stroke-linejoin: miter; stroke-miterlimit: 4; fill: rgb(170,77,37); fill-rule: nonzero; opacity: 1;" transform="translate(195.38 40.1) translate(-414.30486725761085, -131.90706498258618) " stroke-linecap="round" />
	<path d="M 411.021 123.244 c 2.465 7.91 0.086 10.235 0.908 10.382 c 0.822 0.147 2.31 -5.469 1.583 -9.992 c -0.741 -4.616 1.385 -5.891 -0.78 -6.743 C 410.893 116.168 409.649 118.835 411.021 123.244 z" style="stroke: none; stroke-width: 1; stroke-dasharray: none; stroke-linecap: butt; stroke-linejoin: miter; stroke-miterlimit: 4; fill: rgb(254,214,24); fill-rule: nonzero; opacity: 0.2;" transform="translate(193.17 33.4) translate(-412.08684411468647, -125.20104909786235) " stroke-linecap="round" />
	<path d="M 415.89 113.328 c 0.939 -5.999 -5.081 -9.243 -5.145 -9.277 c -0.32 -0.168 -0.694 -0.047 -0.837 0.272 c -0.14 0.318 0.006 0.713 0.326 0.881 c 0.228 0.12 5.479 2.952 4.32 8.269 c -0.488 0.101 -0.996 0.256 -1.525 0.472 c -0.801 0.327 -1.458 0.797 -1.988 1.389 c 0 0 0 0 0.001 0.004 c 0.398 0.632 1.104 1.051 1.858 1.012 c 0.494 -0.022 0.916 -0.24 1.217 -0.571 c 0.379 0.295 0.845 0.468 1.339 0.446 c 0.45 -0.023 0.839 -0.208 1.138 -0.493 c 0.361 0.252 0.786 0.396 1.238 0.376 c 0.852 -0.048 1.513 -0.653 1.677 -1.463 C 418.487 113.806 417.285 113.324 415.89 113.328 z" style="stroke: none; stroke-width: 1; stroke-dasharray: none; stroke-linecap: butt; stroke-linejoin: miter; stroke-miterlimit: 4; fill: rgb(167,204,56); fill-rule: nonzero; opacity: 1;" transform="translate(195.76 18.36) translate(-414.6819142180333, -110.16393031911123) " stroke-linecap="round" />
	<path d="M 414.555 113.473 C 414.624 113.456 414.486 113.487 414.555 113.473 c 1.159 -5.317 -3.806 -8.61 -4.034 -8.73 c -0.254 -0.133 -0.392 -0.408 -0.369 -0.676 c -0.102 0.06 -0.19 0.139 -0.243 0.256 c -0.14 0.318 0.006 0.713 0.326 0.881 C 410.457 105.32 415.37 108.418 414.555 113.473 z" style="stroke: none; stroke-width: 1; stroke-dasharray: none; stroke-linecap: butt; stroke-linejoin: miter; stroke-miterlimit: 4; fill: rgb(144,95,37); fill-rule: nonzero; opacity: 1;" transform="translate(193.37 16.97) translate(-412.29297155560005, -108.77187310679709) " stroke-linecap="round" />
	<path d="M 418.119 115.646 c -0.451 0.02 -0.877 -0.124 -1.238 -0.377 c -0.3 0.284 -0.688 0.469 -1.139 0.493 c -0.493 0.022 -0.959 -0.151 -1.338 -0.445 c -0.302 0.331 -0.724 0.548 -1.218 0.57 c -0.713 0.037 -1.38 -0.338 -1.787 -0.913 c -0.124 0.115 -0.246 0.232 -0.357 0.358 c 0 0 0 0 0.001 0.004 c 0.398 0.632 1.104 1.051 1.858 1.012 c 0.494 -0.022 0.916 -0.24 1.217 -0.571 c 0.379 0.295 0.845 0.468 1.339 0.446 c 0.45 -0.023 0.839 -0.208 1.138 -0.493 c 0.361 0.252 0.786 0.396 1.238 0.376 c 0.711 -0.04 1.286 -0.472 1.553 -1.084 C 419.078 115.383 418.633 115.617 418.119 115.646 z" style="stroke: none; stroke-width: 1; stroke-dasharray: none; stroke-linecap: butt; stroke-linejoin: miter; stroke-miterlimit: 4; fill: rgb(137,91,36); fill-rule: nonzero; opacity: 1;" transform="translate(196.29 23.86) translate(-415.21399999999994, -115.66225498014887) " stroke-linecap="round" />
	<path d="M 28.146 20.165 c -9.294 7.321 -6.512 28.207 -4.449 31.545 c 2.062 3.338 0.709 -11.665 11.916 -19.459 c 4.509 -3.138 7.576 -6.466 7.635 -9.73 c 0.004 -0.002 0.004 -0.002 0.004 -0.002 c 0.012 -0.795 -0.15 -1.587 -0.515 -2.37 c -1.216 -2.615 -3.077 -3.764 -5.228 -3.893 C 34.62 16.083 31.213 17.752 28.146 20.165 z" style="stroke: none; stroke-width: 1; stroke-dasharray: none; stroke-linecap: butt; stroke-linejoin: miter; stroke-miterlimit: 4; fill: rgb(210,54,39); fill-rule: nonzero; opacity: 1;" transform="translate(-186.47 -57.59) translate(-32.44581512249228, -34.21534126920244) " stroke-linecap="round" />
	<path d="M 39.317 16.649 c -2.918 -0.24 -6.39 1.437 -9.508 3.892 c -8.601 6.775 -6.862 25.161 -4.921 30.516 c -0.354 1.15 -0.658 1.517 -1.191 0.653 c -2.063 -3.338 -4.845 -24.225 4.451 -31.546 C 31.883 17.222 36.126 15.396 39.317 16.649 z" style="stroke: none; stroke-width: 1; stroke-dasharray: none; stroke-linecap: butt; stroke-linejoin: miter; stroke-miterlimit: 4; fill: rgb(170,77,37); fill-rule: nonzero; opacity: 1;" transform="translate(-188.44 -57.59) translate(-30.478103742037483, -34.21724133364454) " stroke-linecap="round" />
	<path d="M 37.888 28.332 c -7.184 4.127 -7.02 7.449 -7.723 6.998 c -0.703 -0.451 2.023 -5.582 5.631 -8.404 c 3.682 -2.881 2.989 -5.263 5.156 -4.416 C 42.792 23.23 41.892 26.032 37.888 28.332 z" style="stroke: none; stroke-width: 1; stroke-dasharray: none; stroke-linecap: butt; stroke-linejoin: miter; stroke-miterlimit: 4; fill: rgb(254,214,24); fill-rule: nonzero; opacity: 0.2;" transform="translate(-182.96 -62.95) translate(-35.95968495866214, -28.853859977422488) " stroke-linecap="round" />
	<path d="M 41.058 17.751 c 3.39 -5.038 10.01 -3.325 10.08 -3.307 c 0.349 0.093 0.542 0.438 0.428 0.767 c -0.113 0.329 -0.489 0.52 -0.837 0.425 c -0.249 -0.067 -6.025 -1.561 -8.79 3.127 c 0.29 0.408 0.557 0.866 0.798 1.385 c 0.365 0.783 0.527 1.576 0.515 2.37 c 0 0 0 0 -0.004 0.002 c -0.721 0.194 -1.523 0.021 -2.05 -0.521 c -0.348 -0.353 -0.509 -0.798 -0.505 -1.246 c -0.478 -0.042 -0.937 -0.231 -1.284 -0.583 c -0.314 -0.323 -0.472 -0.724 -0.499 -1.135 c -0.437 -0.06 -0.847 -0.245 -1.165 -0.566 c -0.592 -0.614 -0.666 -1.507 -0.235 -2.212 C 38.829 16.335 40.038 16.8 41.058 17.751 z" style="stroke: none; stroke-width: 1; stroke-dasharray: none; stroke-linecap: butt; stroke-linejoin: miter; stroke-miterlimit: 4; fill: rgb(167,204,56); fill-rule: nonzero; opacity: 1;" transform="translate(-174.5 -73.43) translate(-44.41695396202748, -18.372997030446157) " stroke-linecap="round" />
	<path d="M 41.938 18.764 C 41.898 18.704 41.979 18.822 41.938 18.764 c 2.765 -4.688 8.645 -3.727 8.893 -3.66 c 0.277 0.076 0.565 -0.033 0.731 -0.244 c 0.033 0.112 0.045 0.231 0.003 0.352 c -0.113 0.329 -0.489 0.52 -0.837 0.425 C 50.485 15.571 44.777 14.504 41.938 18.764 z" style="stroke: none; stroke-width: 1; stroke-dasharray: none; stroke-linecap: butt; stroke-linejoin: miter; stroke-miterlimit: 4; fill: rgb(144,95,37); fill-rule: nonzero; opacity: 1;" transform="translate(-172.16 -74.99) translate(-46.75923000862887, -16.820267147679377) " stroke-linecap="round" />
	<path d="M 37.848 17.936 c 0.317 0.321 0.727 0.505 1.164 0.565 c 0.026 0.413 0.186 0.813 0.499 1.136 c 0.348 0.352 0.807 0.542 1.285 0.583 c -0.004 0.447 0.157 0.894 0.505 1.246 c 0.497 0.512 1.242 0.69 1.931 0.546 c 0.013 0.169 0.023 0.337 0.02 0.506 c 0 0 0 0 -0.004 0.002 c -0.721 0.194 -1.523 0.021 -2.05 -0.521 c -0.348 -0.353 -0.509 -0.798 -0.505 -1.246 c -0.478 -0.042 -0.937 -0.231 -1.284 -0.583 c -0.314 -0.323 -0.472 -0.724 -0.499 -1.135 c -0.437 -0.06 -0.847 -0.245 -1.165 -0.566 c -0.494 -0.512 -0.623 -1.219 -0.401 -1.85 C 37.324 17.091 37.489 17.565 37.848 17.936 z" style="stroke: none; stroke-width: 1; stroke-dasharray: none; stroke-linecap: butt; stroke-linejoin: miter; stroke-miterlimit: 4; fill: rgb(137,91,36); fill-rule: nonzero; opacity: 1;" transform="translate(-178.67 -72.2) translate(-40.24583332756029, -19.607937959560047) " stroke-linecap="round" />
	<path d="M 59.801 165.458 c 0 1.031 -0.836 1.868 -1.868 1.868 c -1.032 0 -1.868 -0.836 -1.868 -1.868 c 0 -1.032 0.836 -1.868 1.868 -1.868 C 58.965 163.589 59.801 164.426 59.801 165.458 z" style="stroke: none; stroke-width: 1; stroke-dasharray: none; stroke-linecap: butt; stroke-linejoin: miter; stroke-miterlimit: 4; fill: rgb(186,117,42); fill-rule: nonzero; opacity: 1;" transform="translate(-160.99 73.65) translate(-57.933, -165.45799955243766) " stroke-linecap="round" />
	<path d="M 110.883 160.296 c 0 1.33 -1.078 2.408 -2.408 2.408 c -1.33 0 -2.408 -1.078 -2.408 -2.408 c 0 -1.33 1.079 -2.408 2.408 -2.408 C 109.805 157.889 110.883 158.966 110.883 160.296 z" style="stroke: none; stroke-width: 1; stroke-dasharray: none; stroke-linecap: butt; stroke-linejoin: miter; stroke-miterlimit: 4; fill: rgb(186,117,42); fill-rule: nonzero; opacity: 1;" transform="translate(-110.44 68.49) translate(-108.475, -160.296) " stroke-linecap="round" />
	<circle cx="0" cy="0" r="1.868" style="stroke: none; stroke-width: 1; stroke-dasharray: none; stroke-linecap: butt; stroke-linejoin: miter; stroke-miterlimit: 4; fill: rgb(186,117,42); fill-rule: nonzero; opacity: 1;" transform="translate(-194.11 75.52) "/>
	<path d="M 235.917 167.888 c 0 0.982 -0.796 1.778 -1.778 1.778 c -0.982 0 -1.777 -0.795 -1.777 -1.778 c 0 -0.981 0.795 -1.777 1.777 -1.777 C 235.121 166.111 235.917 166.907 235.917 167.888 z" style="stroke: none; stroke-width: 1; stroke-dasharray: none; stroke-linecap: butt; stroke-linejoin: miter; stroke-miterlimit: 4; fill: rgb(186,117,42); fill-rule: nonzero; opacity: 1;" transform="translate(15.22 76.08) translate(-234.1395, -167.8885) " stroke-linecap="round" />
	<path d="M 182.479 171.443 c 0 0.981 -0.796 1.778 -1.777 1.778 c -0.982 0 -1.779 -0.796 -1.779 -1.778 c 0 -0.982 0.797 -1.778 1.779 -1.778 C 181.683 169.665 182.479 170.462 182.479 171.443 z" style="stroke: none; stroke-width: 1; stroke-dasharray: none; stroke-linecap: butt; stroke-linejoin: miter; stroke-miterlimit: 4; fill: rgb(186,117,42); fill-rule: nonzero; opacity: 1;" transform="translate(-38.22 79.64) translate(-180.70100000000002, -171.44299999999998) " stroke-linecap="round" />
	<path d="M 427.419 176.36 c 0 0.981 -0.797 1.777 -1.779 1.777 c -0.981 0 -1.776 -0.796 -1.776 -1.777 c 0 -0.982 0.795 -1.777 1.776 -1.777 C 426.622 174.583 427.419 175.378 427.419 176.36 z" style="stroke: none; stroke-width: 1; stroke-dasharray: none; stroke-linecap: butt; stroke-linejoin: miter; stroke-miterlimit: 4; fill: rgb(186,117,42); fill-rule: nonzero; opacity: 1;" transform="translate(206.72 84.55) translate(-425.64149999999995, -176.36) " stroke-linecap="round" />
	<path d="M 42.569 176.36 c 0 0.707 -0.574 1.28 -1.281 1.28 c -0.707 0 -1.279 -0.573 -1.279 -1.28 c 0 -0.708 0.573 -1.28 1.279 -1.28 C 41.995 175.08 42.569 175.652 42.569 176.36 z" style="stroke: none; stroke-width: 1; stroke-dasharray: none; stroke-linecap: butt; stroke-linejoin: miter; stroke-miterlimit: 4; fill: rgb(186,117,42); fill-rule: nonzero; opacity: 1;" transform="translate(-177.63 84.55) translate(-41.289, -176.36) " stroke-linecap="round" />
	<path d="M 291.176 176.143 c 0 0.707 -0.574 1.28 -1.281 1.28 c -0.707 0 -1.28 -0.573 -1.28 -1.28 c 0 -0.708 0.573 -1.28 1.28 -1.28 C 290.602 174.863 291.176 175.436 291.176 176.143 z" style="stroke: none; stroke-width: 1; stroke-dasharray: none; stroke-linecap: butt; stroke-linejoin: miter; stroke-miterlimit: 4; fill: rgb(186,117,42); fill-rule: nonzero; opacity: 1;" transform="translate(70.98 84.34) translate(-289.89549999999997, -176.143) " stroke-linecap="round" />
	<path d="M 200.621 178.863 c 0 0.522 -0.423 0.945 -0.945 0.945 c -0.522 0 -0.945 -0.423 -0.945 -0.945 c 0 -0.522 0.423 -0.945 0.945 -0.945 C 200.198 177.917 200.621 178.341 200.621 178.863 z" style="stroke: none; stroke-width: 1; stroke-dasharray: none; stroke-linecap: butt; stroke-linejoin: miter; stroke-miterlimit: 4; fill: rgb(186,117,42); fill-rule: nonzero; opacity: 1;" transform="translate(-19.24 87.06) translate(-199.67600000000002, -178.86299911738064) " stroke-linecap="round" />
	<path d="M 343.663 176.36 c 0 0.521 -0.423 0.945 -0.944 0.945 c -0.522 0 -0.945 -0.424 -0.945 -0.945 c 0 -0.522 0.423 -0.945 0.945 -0.945 C 343.241 175.415 343.663 175.838 343.663 176.36 z" style="stroke: none; stroke-width: 1; stroke-dasharray: none; stroke-linecap: butt; stroke-linejoin: miter; stroke-miterlimit: 4; fill: rgb(186,117,42); fill-rule: nonzero; opacity: 1;" transform="translate(123.8 84.55) translate(-342.7185, -176.36) " stroke-linecap="round" />
	<circle cx="0" cy="0" r="0.945" style="stroke: none; stroke-width: 1; stroke-dasharray: none; stroke-linecap: butt; stroke-linejoin: miter; stroke-miterlimit: 4; fill: rgb(186,117,42); fill-rule: nonzero; opacity: 1;" transform="translate(-151.58 83.34) "/>
	<polygon points="-42.59,-147.09 13.53,149.71 42.59,-149.71 " style="stroke: none; stroke-width: 1; stroke-dasharray: none; stroke-linecap: butt; stroke-linejoin: miter; stroke-miterlimit: 4; fill: rgb(179,225,232); fill-rule: nonzero; opacity: 0.2;" transform="translate(-22.51 68.84) "/>
	<polygon points="25.95,-140.7 -101.78,140.7 101.78,-108.69 " style="stroke: none; stroke-width: 1; stroke-dasharray: none; stroke-linecap: butt; stroke-linejoin: miter; stroke-miterlimit: 4; fill: rgb(179,225,232); fill-rule: nonzero; opacity: 0.2;" transform="translate(92.8 77.88) "/>
	<polygon points="110.1,-101.18 -159.78,101.18 159.78,-44.22 " style="stroke: none; stroke-width: 1; stroke-dasharray: none; stroke-linecap: butt; stroke-linejoin: miter; stroke-miterlimit: 4; fill: rgb(179,225,232); fill-rule: nonzero; opacity: 0.2;" transform="translate(150.8 117.4) "/>
	<polygon points="-169.04,-26.1 169.04,87.46 -127.83,-87.46 " style="stroke: none; stroke-width: 1; stroke-dasharray: none; stroke-linecap: butt; stroke-linejoin: miter; stroke-miterlimit: 4; fill: rgb(179,225,232); fill-rule: nonzero; opacity: 0.2;" transform="translate(-178.02 131.12) "/>
	<polygon points="-118.86,-94.46 118.86,133.57 -48.12,-133.57 " style="stroke: none; stroke-width: 1; stroke-dasharray: none; stroke-linecap: butt; stroke-linejoin: miter; stroke-miterlimit: 4; fill: rgb(179,225,232); fill-rule: nonzero; opacity: 0.2;" transform="translate(-127.83 85.02) "/>
</g>
<g transform="translate(555.42 280.18) scale(1.61 1.61)" style="">
	<path d="M 128.964 140.341 c -16.597 15.723 -81.123 28.596 -111.269 -2.951 c -30.147 -31.546 -19.95 -97.079 16.793 -116.771 c 36.743 -19.692 66.43 -23.113 96.576 8.433 C 161.21 60.599 152.972 117.597 128.964 140.341 z" style="stroke: none; stroke-width: 1; stroke-dasharray: none; stroke-linecap: butt; stroke-linejoin: miter; stroke-miterlimit: 4; fill: rgb(88,33,13); fill-rule: nonzero; opacity: 0.3;" transform="translate(-4.13 1.93) translate(-75.25244617379794, -81.1781909238186) " stroke-linecap="round" />
	<path d="M 137.23 134.766 c -16.597 15.722 -81.124 28.596 -111.27 -2.951 C -4.185 100.268 6.011 34.736 42.754 15.044 c 36.742 -19.692 66.43 -23.112 96.578 8.434 C 169.478 55.024 161.238 112.023 137.23 134.766 z" style="stroke: none; stroke-width: 1; stroke-dasharray: none; stroke-linecap: butt; stroke-linejoin: miter; stroke-miterlimit: 4; fill: rgb(255,255,255); fill-rule: nonzero; opacity: 1;" transform="translate(4.13 -3.64) translate(-83.51912460432222, -75.6032554779214) " stroke-linecap="round" />
</g>
	<g transform="translate(622.13 212.04) scale(4.51 4.51)">
		<text xml:space="preserve" font-family="Amatic SC" font-size="16" font-style="normal" font-weight="bold" style="stroke: none; stroke-width: 1; stroke-dasharray: none; stroke-linecap: butt; stroke-linejoin: miter; stroke-miterlimit: 4; fill: rgb(186,117,42); fill-rule: nonzero; opacity: 1; white-space: pre;" ><tspan x="-26.67" y="5.03" >CINCO</tspan></text>
	</g>
	<g transform="translate(622.06 353.19) scale(4.51 4.51)">
		<text xml:space="preserve" font-family="Amatic SC" font-size="16" font-style="normal" font-weight="bold" style="stroke: none; stroke-width: 1; stroke-dasharray: none; stroke-linecap: butt; stroke-linejoin: miter; stroke-miterlimit: 4; fill: rgb(88,33,13); fill-rule: nonzero; opacity: 1; white-space: pre;" ><tspan x="-24.59" y="5.03" >MAYO</tspan></text>
	</g>
	<g transform="translate(582.04 280.84) scale(3.27 3.27)">
		<text xml:space="preserve" font-family="Amatic SC" font-size="16" font-style="normal" font-weight="bold" style="stroke: none; stroke-width: 1; stroke-dasharray: none; stroke-linecap: butt; stroke-linejoin: miter; stroke-miterlimit: 4; fill: rgb(210,54,39); fill-rule: nonzero; opacity: 1; white-space: pre;" ><tspan x="-11.11" y="5.03" >DE</tspan></text>
	</g>
</svg>