<?xml version="1.0" encoding="UTF-8" standalone="no" ?>
<!DOCTYPE svg PUBLIC "-//W3C//DTD SVG 1.1//EN" "http://www.w3.org/Graphics/SVG/1.1/DTD/svg11.dtd">
<svg xmlns="http://www.w3.org/2000/svg" xmlns:xlink="http://www.w3.org/1999/xlink" version="1.1" width="703" height="703" viewBox="0 0 703 703" xml:space="preserve">
<desc>Created with Fabric.js 2.3.3</desc>
<defs>
</defs>
<g transform="translate(350.16 350.51) scale(2.98 2.98)" style="">
	<rect x="-120.5" y="-71.15" rx="0" ry="0" width="241" height="142.3" style="stroke: none; stroke-width: 1; stroke-dasharray: none; stroke-linecap: butt; stroke-linejoin: miter; stroke-miterlimit: 4; fill: rgb(255,255,255); fill-rule: nonzero; opacity: 1;" transform="translate(0.05 0.2)"/>
	<path d="M 241 -0.1 v 91.9 C 225.6 3.4 117 -0.1 117 -0.1 H 241 z" style="stroke: none; stroke-width: 1; stroke-dasharray: none; stroke-linecap: butt; stroke-linejoin: miter; stroke-miterlimit: 4; fill: rgb(145,188,77); fill-rule: nonzero; opacity: 1;" transform="translate(58.55 -25) translate(-179, -45.85) " stroke-linecap="round" />
	<path d="M 241 62.5 v 12.5 C 222.6 19.5 163.5 4.1 135.6 -0.1 h 15.9 c 17.9 2.8 41 9.8 61.7 26.2 C 228.5 38.4 236.7 51.3 241 62.5 z" style="stroke: none; stroke-width: 1; stroke-dasharray: none; stroke-linecap: butt; stroke-linejoin: miter; stroke-miterlimit: 4; fill: rgb(214,236,156); fill-rule: nonzero; opacity: 1;" transform="translate(67.85 -33.4) translate(-188.3, -37.449999999999996) " stroke-linecap="round" />
	<path d="M 241 78.7 v 13.2 C 225.6 3.4 117 -0.1 117 -0.1 s 6.5 -0.7 16.7 0 c 18.4 1.2 49 6.6 75.7 27.8 C 231.9 45.7 239 65.2 241 78.7 z" style="stroke: none; stroke-width: 1; stroke-dasharray: none; stroke-linecap: butt; stroke-linejoin: miter; stroke-miterlimit: 4; fill: rgb(56,60,68); fill-rule: nonzero; opacity: 1;" transform="translate(58.55 -25.11) translate(-179, -45.74444444444445) " stroke-linecap="round" />
	<path d="M 0 142.3 V 50.4 c 15.4 88.4 124 91.9 124 91.9 H 0 z" style="stroke: none; stroke-width: 1; stroke-dasharray: none; stroke-linecap: butt; stroke-linejoin: miter; stroke-miterlimit: 4; fill: rgb(145,188,77); fill-rule: nonzero; opacity: 1;" transform="translate(-58.45 25.5) translate(-62, -96.35) " stroke-linecap="round" />
	<path d="M 0 79.7 V 67.2 c 18.4 55.5 77.5 70.9 105.4 75.1 H 89.5 c -17.9 -2.8 -41 -9.8 -61.7 -26.2 C 12.5 103.9 4.3 90.9 0 79.7 z" style="stroke: none; stroke-width: 1; stroke-dasharray: none; stroke-linecap: butt; stroke-linejoin: miter; stroke-miterlimit: 4; fill: rgb(214,236,156); fill-rule: nonzero; opacity: 1;" transform="translate(-67.75 33.9) translate(-52.7, -104.75) " stroke-linecap="round" />
	<path d="M 0 63.6 V 50.4 c 15.4 88.4 124 91.9 124 91.9 s -6.5 0.7 -16.7 0 c -18.4 -1.2 -49 -6.6 -75.7 -27.8 C 9.1 96.6 2 77.1 0 63.6 z" style="stroke: none; stroke-width: 1; stroke-dasharray: none; stroke-linecap: butt; stroke-linejoin: miter; stroke-miterlimit: 4; fill: rgb(56,60,68); fill-rule: nonzero; opacity: 1;" transform="translate(-58.45 25.66) translate(-62, -96.50555555555556) " stroke-linecap="round" />
</g>
<g transform="translate(351.1 260.41) scale(3.62 3.62)" style="">
	<polygon points="0.05,11.2 -12.15,0 0.05,-11.2 12.15,0 " style="stroke: none; stroke-width: 1; stroke-dasharray: none; stroke-linecap: butt; stroke-linejoin: miter; stroke-miterlimit: 4; fill: rgb(145,188,77); fill-rule: nonzero; opacity: 1;" transform="translate(0.05 0.4) "/>
	<path d="M 14.1 25.5 L 0.4 12.9 L 14.1 0.3 l 13.7 12.6 L 14.1 25.5 z M 3.5 12.9 l 10.6 9.8 l 10.6 -9.8 L 14.1 3.1 L 3.5 12.9 z" style="stroke: none; stroke-width: 1; stroke-dasharray: none; stroke-linecap: butt; stroke-linejoin: miter; stroke-miterlimit: 4; fill: rgb(58,60,68); fill-rule: nonzero; opacity: 1;" transform="translate(0.1 0.4) translate(-14.1, -12.9) " stroke-linecap="round" />
	<rect x="-3.55" y="-3.25" rx="0" ry="0" width="7.1" height="6.5" style="stroke: none; stroke-width: 1; stroke-dasharray: none; stroke-linecap: butt; stroke-linejoin: miter; stroke-miterlimit: 4; fill: rgb(214,236,156); fill-rule: nonzero; opacity: 1;" transform="translate(0.05 0.45)"/>
</g>
<g transform="translate(363.68 373.04) scale(0.92 0.52)" style="">
	<rect x="-254.5" y="-1.25" rx="0" ry="0" width="509" height="2.5" style="stroke: none; stroke-width: 1; stroke-dasharray: none; stroke-linecap: butt; stroke-linejoin: miter; stroke-miterlimit: 10; fill: rgb(64,71,98); fill-rule: nonzero; opacity: 1;" transform="translate(-1.4 17.6)"/>
</g>
	<g transform="translate(256.08 349.74)">
		<text xml:space="preserve" font-family="Raleway" font-size="57.8799467376831" font-style="normal" font-weight="bold" style="stroke: none; stroke-width: 1; stroke-dasharray: none; stroke-linecap: butt; stroke-linejoin: miter; stroke-miterlimit: 4; fill: rgb(64,71,98); fill-rule: nonzero; opacity: 1; white-space: pre;" ><tspan x="-133.04" y="18.18" >7879oy8y</tspan></text>
	</g>
	<g transform="translate(350.97 422.59) scale(2.64 2.64)">
		<text xml:space="preserve" font-family="Raleway" font-size="16" font-style="normal" font-weight="normal" style="stroke: none; stroke-width: 1; stroke-dasharray: none; stroke-linecap: butt; stroke-linejoin: miter; stroke-miterlimit: 4; fill: rgb(64,71,98); fill-rule: nonzero; opacity: 1; white-space: pre;" ><tspan x="-45.64" y="5.03" >Slogan Here</tspan></text>
	</g>
<path d="M 0 0 l 4 0 l 0 4 l -4 0 l 0 -4 z M 4 0 l 4 0 l 0 4 l -4 0 l 0 -4 z M 8 0 l 4 0 l 0 4 l -4 0 l 0 -4 z M 12 0 l 4 0 l 0 4 l -4 0 l 0 -4 z M 16 0 l 4 0 l 0 4 l -4 0 l 0 -4 z M 20 0 l 4 0 l 0 4 l -4 0 l 0 -4 z M 24 0 l 4 0 l 0 4 l -4 0 l 0 -4 z M 32 0 l 4 0 l 0 4 l -4 0 l 0 -4 z M 52 0 l 4 0 l 0 4 l -4 0 l 0 -4 z M 56 0 l 4 0 l 0 4 l -4 0 l 0 -4 z M 64 0 l 4 0 l 0 4 l -4 0 l 0 -4 z M 72 0 l 4 0 l 0 4 l -4 0 l 0 -4 z M 76 0 l 4 0 l 0 4 l -4 0 l 0 -4 z M 104 0 l 4 0 l 0 4 l -4 0 l 0 -4 z M 108 0 l 4 0 l 0 4 l -4 0 l 0 -4 z M 112 0 l 4 0 l 0 4 l -4 0 l 0 -4 z M 116 0 l 4 0 l 0 4 l -4 0 l 0 -4 z M 120 0 l 4 0 l 0 4 l -4 0 l 0 -4 z M 124 0 l 4 0 l 0 4 l -4 0 l 0 -4 z M 128 0 l 4 0 l 0 4 l -4 0 l 0 -4 z M 0 4 l 4 0 l 0 4 l -4 0 l 0 -4 z M 24 4 l 4 0 l 0 4 l -4 0 l 0 -4 z M 32 4 l 4 0 l 0 4 l -4 0 l 0 -4 z M 44 4 l 4 0 l 0 4 l -4 0 l 0 -4 z M 48 4 l 4 0 l 0 4 l -4 0 l 0 -4 z M 52 4 l 4 0 l 0 4 l -4 0 l 0 -4 z M 56 4 l 4 0 l 0 4 l -4 0 l 0 -4 z M 60 4 l 4 0 l 0 4 l -4 0 l 0 -4 z M 72 4 l 4 0 l 0 4 l -4 0 l 0 -4 z M 80 4 l 4 0 l 0 4 l -4 0 l 0 -4 z M 92 4 l 4 0 l 0 4 l -4 0 l 0 -4 z M 96 4 l 4 0 l 0 4 l -4 0 l 0 -4 z M 104 4 l 4 0 l 0 4 l -4 0 l 0 -4 z M 128 4 l 4 0 l 0 4 l -4 0 l 0 -4 z M 0 8 l 4 0 l 0 4 l -4 0 l 0 -4 z M 8 8 l 4 0 l 0 4 l -4 0 l 0 -4 z M 12 8 l 4 0 l 0 4 l -4 0 l 0 -4 z M 16 8 l 4 0 l 0 4 l -4 0 l 0 -4 z M 24 8 l 4 0 l 0 4 l -4 0 l 0 -4 z M 32 8 l 4 0 l 0 4 l -4 0 l 0 -4 z M 36 8 l 4 0 l 0 4 l -4 0 l 0 -4 z M 48 8 l 4 0 l 0 4 l -4 0 l 0 -4 z M 56 8 l 4 0 l 0 4 l -4 0 l 0 -4 z M 68 8 l 4 0 l 0 4 l -4 0 l 0 -4 z M 72 8 l 4 0 l 0 4 l -4 0 l 0 -4 z M 76 8 l 4 0 l 0 4 l -4 0 l 0 -4 z M 80 8 l 4 0 l 0 4 l -4 0 l 0 -4 z M 84 8 l 4 0 l 0 4 l -4 0 l 0 -4 z M 96 8 l 4 0 l 0 4 l -4 0 l 0 -4 z M 104 8 l 4 0 l 0 4 l -4 0 l 0 -4 z M 112 8 l 4 0 l 0 4 l -4 0 l 0 -4 z M 116 8 l 4 0 l 0 4 l -4 0 l 0 -4 z M 120 8 l 4 0 l 0 4 l -4 0 l 0 -4 z M 128 8 l 4 0 l 0 4 l -4 0 l 0 -4 z M 0 12 l 4 0 l 0 4 l -4 0 l 0 -4 z M 8 12 l 4 0 l 0 4 l -4 0 l 0 -4 z M 12 12 l 4 0 l 0 4 l -4 0 l 0 -4 z M 16 12 l 4 0 l 0 4 l -4 0 l 0 -4 z M 24 12 l 4 0 l 0 4 l -4 0 l 0 -4 z M 32 12 l 4 0 l 0 4 l -4 0 l 0 -4 z M 36 12 l 4 0 l 0 4 l -4 0 l 0 -4 z M 40 12 l 4 0 l 0 4 l -4 0 l 0 -4 z M 48 12 l 4 0 l 0 4 l -4 0 l 0 -4 z M 68 12 l 4 0 l 0 4 l -4 0 l 0 -4 z M 76 12 l 4 0 l 0 4 l -4 0 l 0 -4 z M 80 12 l 4 0 l 0 4 l -4 0 l 0 -4 z M 84 12 l 4 0 l 0 4 l -4 0 l 0 -4 z M 88 12 l 4 0 l 0 4 l -4 0 l 0 -4 z M 96 12 l 4 0 l 0 4 l -4 0 l 0 -4 z M 104 12 l 4 0 l 0 4 l -4 0 l 0 -4 z M 112 12 l 4 0 l 0 4 l -4 0 l 0 -4 z M 116 12 l 4 0 l 0 4 l -4 0 l 0 -4 z M 120 12 l 4 0 l 0 4 l -4 0 l 0 -4 z M 128 12 l 4 0 l 0 4 l -4 0 l 0 -4 z M 0 16 l 4 0 l 0 4 l -4 0 l 0 -4 z M 8 16 l 4 0 l 0 4 l -4 0 l 0 -4 z M 12 16 l 4 0 l 0 4 l -4 0 l 0 -4 z M 16 16 l 4 0 l 0 4 l -4 0 l 0 -4 z M 24 16 l 4 0 l 0 4 l -4 0 l 0 -4 z M 36 16 l 4 0 l 0 4 l -4 0 l 0 -4 z M 40 16 l 4 0 l 0 4 l -4 0 l 0 -4 z M 48 16 l 4 0 l 0 4 l -4 0 l 0 -4 z M 68 16 l 4 0 l 0 4 l -4 0 l 0 -4 z M 76 16 l 4 0 l 0 4 l -4 0 l 0 -4 z M 80 16 l 4 0 l 0 4 l -4 0 l 0 -4 z M 84 16 l 4 0 l 0 4 l -4 0 l 0 -4 z M 88 16 l 4 0 l 0 4 l -4 0 l 0 -4 z M 96 16 l 4 0 l 0 4 l -4 0 l 0 -4 z M 104 16 l 4 0 l 0 4 l -4 0 l 0 -4 z M 112 16 l 4 0 l 0 4 l -4 0 l 0 -4 z M 116 16 l 4 0 l 0 4 l -4 0 l 0 -4 z M 120 16 l 4 0 l 0 4 l -4 0 l 0 -4 z M 128 16 l 4 0 l 0 4 l -4 0 l 0 -4 z M 0 20 l 4 0 l 0 4 l -4 0 l 0 -4 z M 24 20 l 4 0 l 0 4 l -4 0 l 0 -4 z M 32 20 l 4 0 l 0 4 l -4 0 l 0 -4 z M 36 20 l 4 0 l 0 4 l -4 0 l 0 -4 z M 40 20 l 4 0 l 0 4 l -4 0 l 0 -4 z M 64 20 l 4 0 l 0 4 l -4 0 l 0 -4 z M 68 20 l 4 0 l 0 4 l -4 0 l 0 -4 z M 76 20 l 4 0 l 0 4 l -4 0 l 0 -4 z M 84 20 l 4 0 l 0 4 l -4 0 l 0 -4 z M 88 20 l 4 0 l 0 4 l -4 0 l 0 -4 z M 104 20 l 4 0 l 0 4 l -4 0 l 0 -4 z M 128 20 l 4 0 l 0 4 l -4 0 l 0 -4 z M 0 24 l 4 0 l 0 4 l -4 0 l 0 -4 z M 4 24 l 4 0 l 0 4 l -4 0 l 0 -4 z M 8 24 l 4 0 l 0 4 l -4 0 l 0 -4 z M 12 24 l 4 0 l 0 4 l -4 0 l 0 -4 z M 16 24 l 4 0 l 0 4 l -4 0 l 0 -4 z M 20 24 l 4 0 l 0 4 l -4 0 l 0 -4 z M 24 24 l 4 0 l 0 4 l -4 0 l 0 -4 z M 32 24 l 4 0 l 0 4 l -4 0 l 0 -4 z M 40 24 l 4 0 l 0 4 l -4 0 l 0 -4 z M 48 24 l 4 0 l 0 4 l -4 0 l 0 -4 z M 56 24 l 4 0 l 0 4 l -4 0 l 0 -4 z M 64 24 l 4 0 l 0 4 l -4 0 l 0 -4 z M 72 24 l 4 0 l 0 4 l -4 0 l 0 -4 z M 80 24 l 4 0 l 0 4 l -4 0 l 0 -4 z M 88 24 l 4 0 l 0 4 l -4 0 l 0 -4 z M 96 24 l 4 0 l 0 4 l -4 0 l 0 -4 z M 104 24 l 4 0 l 0 4 l -4 0 l 0 -4 z M 108 24 l 4 0 l 0 4 l -4 0 l 0 -4 z M 112 24 l 4 0 l 0 4 l -4 0 l 0 -4 z M 116 24 l 4 0 l 0 4 l -4 0 l 0 -4 z M 120 24 l 4 0 l 0 4 l -4 0 l 0 -4 z M 124 24 l 4 0 l 0 4 l -4 0 l 0 -4 z M 128 24 l 4 0 l 0 4 l -4 0 l 0 -4 z M 40 28 l 4 0 l 0 4 l -4 0 l 0 -4 z M 44 28 l 4 0 l 0 4 l -4 0 l 0 -4 z M 52 28 l 4 0 l 0 4 l -4 0 l 0 -4 z M 60 28 l 4 0 l 0 4 l -4 0 l 0 -4 z M 64 28 l 4 0 l 0 4 l -4 0 l 0 -4 z M 88 28 l 4 0 l 0 4 l -4 0 l 0 -4 z M 92 28 l 4 0 l 0 4 l -4 0 l 0 -4 z M 0 32 l 4 0 l 0 4 l -4 0 l 0 -4 z M 4 32 l 4 0 l 0 4 l -4 0 l 0 -4 z M 16 32 l 4 0 l 0 4 l -4 0 l 0 -4 z M 20 32 l 4 0 l 0 4 l -4 0 l 0 -4 z M 24 32 l 4 0 l 0 4 l -4 0 l 0 -4 z M 40 32 l 4 0 l 0 4 l -4 0 l 0 -4 z M 48 32 l 4 0 l 0 4 l -4 0 l 0 -4 z M 52 32 l 4 0 l 0 4 l -4 0 l 0 -4 z M 76 32 l 4 0 l 0 4 l -4 0 l 0 -4 z M 80 32 l 4 0 l 0 4 l -4 0 l 0 -4 z M 88 32 l 4 0 l 0 4 l -4 0 l 0 -4 z M 96 32 l 4 0 l 0 4 l -4 0 l 0 -4 z M 108 32 l 4 0 l 0 4 l -4 0 l 0 -4 z M 116 32 l 4 0 l 0 4 l -4 0 l 0 -4 z M 120 32 l 4 0 l 0 4 l -4 0 l 0 -4 z M 124 32 l 4 0 l 0 4 l -4 0 l 0 -4 z M 128 32 l 4 0 l 0 4 l -4 0 l 0 -4 z M 0 36 l 4 0 l 0 4 l -4 0 l 0 -4 z M 4 36 l 4 0 l 0 4 l -4 0 l 0 -4 z M 16 36 l 4 0 l 0 4 l -4 0 l 0 -4 z M 28 36 l 4 0 l 0 4 l -4 0 l 0 -4 z M 32 36 l 4 0 l 0 4 l -4 0 l 0 -4 z M 52 36 l 4 0 l 0 4 l -4 0 l 0 -4 z M 56 36 l 4 0 l 0 4 l -4 0 l 0 -4 z M 64 36 l 4 0 l 0 4 l -4 0 l 0 -4 z M 72 36 l 4 0 l 0 4 l -4 0 l 0 -4 z M 76 36 l 4 0 l 0 4 l -4 0 l 0 -4 z M 100 36 l 4 0 l 0 4 l -4 0 l 0 -4 z M 108 36 l 4 0 l 0 4 l -4 0 l 0 -4 z M 116 36 l 4 0 l 0 4 l -4 0 l 0 -4 z M 124 36 l 4 0 l 0 4 l -4 0 l 0 -4 z M 0 40 l 4 0 l 0 4 l -4 0 l 0 -4 z M 16 40 l 4 0 l 0 4 l -4 0 l 0 -4 z M 20 40 l 4 0 l 0 4 l -4 0 l 0 -4 z M 24 40 l 4 0 l 0 4 l -4 0 l 0 -4 z M 36 40 l 4 0 l 0 4 l -4 0 l 0 -4 z M 40 40 l 4 0 l 0 4 l -4 0 l 0 -4 z M 64 40 l 4 0 l 0 4 l -4 0 l 0 -4 z M 68 40 l 4 0 l 0 4 l -4 0 l 0 -4 z M 76 40 l 4 0 l 0 4 l -4 0 l 0 -4 z M 84 40 l 4 0 l 0 4 l -4 0 l 0 -4 z M 88 40 l 4 0 l 0 4 l -4 0 l 0 -4 z M 108 40 l 4 0 l 0 4 l -4 0 l 0 -4 z M 120 40 l 4 0 l 0 4 l -4 0 l 0 -4 z M 124 40 l 4 0 l 0 4 l -4 0 l 0 -4 z M 0 44 l 4 0 l 0 4 l -4 0 l 0 -4 z M 12 44 l 4 0 l 0 4 l -4 0 l 0 -4 z M 16 44 l 4 0 l 0 4 l -4 0 l 0 -4 z M 28 44 l 4 0 l 0 4 l -4 0 l 0 -4 z M 32 44 l 4 0 l 0 4 l -4 0 l 0 -4 z M 36 44 l 4 0 l 0 4 l -4 0 l 0 -4 z M 48 44 l 4 0 l 0 4 l -4 0 l 0 -4 z M 56 44 l 4 0 l 0 4 l -4 0 l 0 -4 z M 68 44 l 4 0 l 0 4 l -4 0 l 0 -4 z M 72 44 l 4 0 l 0 4 l -4 0 l 0 -4 z M 76 44 l 4 0 l 0 4 l -4 0 l 0 -4 z M 80 44 l 4 0 l 0 4 l -4 0 l 0 -4 z M 84 44 l 4 0 l 0 4 l -4 0 l 0 -4 z M 96 44 l 4 0 l 0 4 l -4 0 l 0 -4 z M 100 44 l 4 0 l 0 4 l -4 0 l 0 -4 z M 104 44 l 4 0 l 0 4 l -4 0 l 0 -4 z M 128 44 l 4 0 l 0 4 l -4 0 l 0 -4 z M 4 48 l 4 0 l 0 4 l -4 0 l 0 -4 z M 16 48 l 4 0 l 0 4 l -4 0 l 0 -4 z M 24 48 l 4 0 l 0 4 l -4 0 l 0 -4 z M 28 48 l 4 0 l 0 4 l -4 0 l 0 -4 z M 44 48 l 4 0 l 0 4 l -4 0 l 0 -4 z M 52 48 l 4 0 l 0 4 l -4 0 l 0 -4 z M 56 48 l 4 0 l 0 4 l -4 0 l 0 -4 z M 60 48 l 4 0 l 0 4 l -4 0 l 0 -4 z M 64 48 l 4 0 l 0 4 l -4 0 l 0 -4 z M 72 48 l 4 0 l 0 4 l -4 0 l 0 -4 z M 92 48 l 4 0 l 0 4 l -4 0 l 0 -4 z M 104 48 l 4 0 l 0 4 l -4 0 l 0 -4 z M 112 48 l 4 0 l 0 4 l -4 0 l 0 -4 z M 116 48 l 4 0 l 0 4 l -4 0 l 0 -4 z M 0 52 l 4 0 l 0 4 l -4 0 l 0 -4 z M 12 52 l 4 0 l 0 4 l -4 0 l 0 -4 z M 16 52 l 4 0 l 0 4 l -4 0 l 0 -4 z M 20 52 l 4 0 l 0 4 l -4 0 l 0 -4 z M 28 52 l 4 0 l 0 4 l -4 0 l 0 -4 z M 32 52 l 4 0 l 0 4 l -4 0 l 0 -4 z M 40 52 l 4 0 l 0 4 l -4 0 l 0 -4 z M 48 52 l 4 0 l 0 4 l -4 0 l 0 -4 z M 68 52 l 4 0 l 0 4 l -4 0 l 0 -4 z M 76 52 l 4 0 l 0 4 l -4 0 l 0 -4 z M 80 52 l 4 0 l 0 4 l -4 0 l 0 -4 z M 84 52 l 4 0 l 0 4 l -4 0 l 0 -4 z M 88 52 l 4 0 l 0 4 l -4 0 l 0 -4 z M 96 52 l 4 0 l 0 4 l -4 0 l 0 -4 z M 100 52 l 4 0 l 0 4 l -4 0 l 0 -4 z M 124 52 l 4 0 l 0 4 l -4 0 l 0 -4 z M 0 56 l 4 0 l 0 4 l -4 0 l 0 -4 z M 8 56 l 4 0 l 0 4 l -4 0 l 0 -4 z M 16 56 l 4 0 l 0 4 l -4 0 l 0 -4 z M 20 56 l 4 0 l 0 4 l -4 0 l 0 -4 z M 24 56 l 4 0 l 0 4 l -4 0 l 0 -4 z M 28 56 l 4 0 l 0 4 l -4 0 l 0 -4 z M 36 56 l 4 0 l 0 4 l -4 0 l 0 -4 z M 44 56 l 4 0 l 0 4 l -4 0 l 0 -4 z M 48 56 l 4 0 l 0 4 l -4 0 l 0 -4 z M 52 56 l 4 0 l 0 4 l -4 0 l 0 -4 z M 56 56 l 4 0 l 0 4 l -4 0 l 0 -4 z M 60 56 l 4 0 l 0 4 l -4 0 l 0 -4 z M 72 56 l 4 0 l 0 4 l -4 0 l 0 -4 z M 80 56 l 4 0 l 0 4 l -4 0 l 0 -4 z M 92 56 l 4 0 l 0 4 l -4 0 l 0 -4 z M 96 56 l 4 0 l 0 4 l -4 0 l 0 -4 z M 100 56 l 4 0 l 0 4 l -4 0 l 0 -4 z M 104 56 l 4 0 l 0 4 l -4 0 l 0 -4 z M 108 56 l 4 0 l 0 4 l -4 0 l 0 -4 z M 112 56 l 4 0 l 0 4 l -4 0 l 0 -4 z M 116 56 l 4 0 l 0 4 l -4 0 l 0 -4 z M 0 60 l 4 0 l 0 4 l -4 0 l 0 -4 z M 8 60 l 4 0 l 0 4 l -4 0 l 0 -4 z M 12 60 l 4 0 l 0 4 l -4 0 l 0 -4 z M 20 60 l 4 0 l 0 4 l -4 0 l 0 -4 z M 36 60 l 4 0 l 0 4 l -4 0 l 0 -4 z M 44 60 l 4 0 l 0 4 l -4 0 l 0 -4 z M 52 60 l 4 0 l 0 4 l -4 0 l 0 -4 z M 60 60 l 4 0 l 0 4 l -4 0 l 0 -4 z M 64 60 l 4 0 l 0 4 l -4 0 l 0 -4 z M 88 60 l 4 0 l 0 4 l -4 0 l 0 -4 z M 92 60 l 4 0 l 0 4 l -4 0 l 0 -4 z M 100 60 l 4 0 l 0 4 l -4 0 l 0 -4 z M 104 60 l 4 0 l 0 4 l -4 0 l 0 -4 z M 112 60 l 4 0 l 0 4 l -4 0 l 0 -4 z M 124 60 l 4 0 l 0 4 l -4 0 l 0 -4 z M 128 60 l 4 0 l 0 4 l -4 0 l 0 -4 z M 0 64 l 4 0 l 0 4 l -4 0 l 0 -4 z M 8 64 l 4 0 l 0 4 l -4 0 l 0 -4 z M 12 64 l 4 0 l 0 4 l -4 0 l 0 -4 z M 16 64 l 4 0 l 0 4 l -4 0 l 0 -4 z M 24 64 l 4 0 l 0 4 l -4 0 l 0 -4 z M 48 64 l 4 0 l 0 4 l -4 0 l 0 -4 z M 52 64 l 4 0 l 0 4 l -4 0 l 0 -4 z M 76 64 l 4 0 l 0 4 l -4 0 l 0 -4 z M 80 64 l 4 0 l 0 4 l -4 0 l 0 -4 z M 88 64 l 4 0 l 0 4 l -4 0 l 0 -4 z M 96 64 l 4 0 l 0 4 l -4 0 l 0 -4 z M 104 64 l 4 0 l 0 4 l -4 0 l 0 -4 z M 108 64 l 4 0 l 0 4 l -4 0 l 0 -4 z M 112 64 l 4 0 l 0 4 l -4 0 l 0 -4 z M 128 64 l 4 0 l 0 4 l -4 0 l 0 -4 z M 0 68 l 4 0 l 0 4 l -4 0 l 0 -4 z M 4 68 l 4 0 l 0 4 l -4 0 l 0 -4 z M 8 68 l 4 0 l 0 4 l -4 0 l 0 -4 z M 12 68 l 4 0 l 0 4 l -4 0 l 0 -4 z M 28 68 l 4 0 l 0 4 l -4 0 l 0 -4 z M 36 68 l 4 0 l 0 4 l -4 0 l 0 -4 z M 52 68 l 4 0 l 0 4 l -4 0 l 0 -4 z M 56 68 l 4 0 l 0 4 l -4 0 l 0 -4 z M 64 68 l 4 0 l 0 4 l -4 0 l 0 -4 z M 72 68 l 4 0 l 0 4 l -4 0 l 0 -4 z M 76 68 l 4 0 l 0 4 l -4 0 l 0 -4 z M 100 68 l 4 0 l 0 4 l -4 0 l 0 -4 z M 108 68 l 4 0 l 0 4 l -4 0 l 0 -4 z M 0 72 l 4 0 l 0 4 l -4 0 l 0 -4 z M 8 72 l 4 0 l 0 4 l -4 0 l 0 -4 z M 12 72 l 4 0 l 0 4 l -4 0 l 0 -4 z M 20 72 l 4 0 l 0 4 l -4 0 l 0 -4 z M 24 72 l 4 0 l 0 4 l -4 0 l 0 -4 z M 32 72 l 4 0 l 0 4 l -4 0 l 0 -4 z M 64 72 l 4 0 l 0 4 l -4 0 l 0 -4 z M 68 72 l 4 0 l 0 4 l -4 0 l 0 -4 z M 76 72 l 4 0 l 0 4 l -4 0 l 0 -4 z M 84 72 l 4 0 l 0 4 l -4 0 l 0 -4 z M 88 72 l 4 0 l 0 4 l -4 0 l 0 -4 z M 100 72 l 4 0 l 0 4 l -4 0 l 0 -4 z M 104 72 l 4 0 l 0 4 l -4 0 l 0 -4 z M 108 72 l 4 0 l 0 4 l -4 0 l 0 -4 z M 124 72 l 4 0 l 0 4 l -4 0 l 0 -4 z M 8 76 l 4 0 l 0 4 l -4 0 l 0 -4 z M 12 76 l 4 0 l 0 4 l -4 0 l 0 -4 z M 28 76 l 4 0 l 0 4 l -4 0 l 0 -4 z M 32 76 l 4 0 l 0 4 l -4 0 l 0 -4 z M 36 76 l 4 0 l 0 4 l -4 0 l 0 -4 z M 48 76 l 4 0 l 0 4 l -4 0 l 0 -4 z M 56 76 l 4 0 l 0 4 l -4 0 l 0 -4 z M 68 76 l 4 0 l 0 4 l -4 0 l 0 -4 z M 72 76 l 4 0 l 0 4 l -4 0 l 0 -4 z M 76 76 l 4 0 l 0 4 l -4 0 l 0 -4 z M 80 76 l 4 0 l 0 4 l -4 0 l 0 -4 z M 84 76 l 4 0 l 0 4 l -4 0 l 0 -4 z M 96 76 l 4 0 l 0 4 l -4 0 l 0 -4 z M 100 76 l 4 0 l 0 4 l -4 0 l 0 -4 z M 124 76 l 4 0 l 0 4 l -4 0 l 0 -4 z M 128 76 l 4 0 l 0 4 l -4 0 l 0 -4 z M 8 80 l 4 0 l 0 4 l -4 0 l 0 -4 z M 20 80 l 4 0 l 0 4 l -4 0 l 0 -4 z M 24 80 l 4 0 l 0 4 l -4 0 l 0 -4 z M 32 80 l 4 0 l 0 4 l -4 0 l 0 -4 z M 36 80 l 4 0 l 0 4 l -4 0 l 0 -4 z M 44 80 l 4 0 l 0 4 l -4 0 l 0 -4 z M 52 80 l 4 0 l 0 4 l -4 0 l 0 -4 z M 56 80 l 4 0 l 0 4 l -4 0 l 0 -4 z M 60 80 l 4 0 l 0 4 l -4 0 l 0 -4 z M 64 80 l 4 0 l 0 4 l -4 0 l 0 -4 z M 72 80 l 4 0 l 0 4 l -4 0 l 0 -4 z M 92 80 l 4 0 l 0 4 l -4 0 l 0 -4 z M 100 80 l 4 0 l 0 4 l -4 0 l 0 -4 z M 104 80 l 4 0 l 0 4 l -4 0 l 0 -4 z M 112 80 l 4 0 l 0 4 l -4 0 l 0 -4 z M 116 80 l 4 0 l 0 4 l -4 0 l 0 -4 z M 128 80 l 4 0 l 0 4 l -4 0 l 0 -4 z M 0 84 l 4 0 l 0 4 l -4 0 l 0 -4 z M 4 84 l 4 0 l 0 4 l -4 0 l 0 -4 z M 8 84 l 4 0 l 0 4 l -4 0 l 0 -4 z M 12 84 l 4 0 l 0 4 l -4 0 l 0 -4 z M 28 84 l 4 0 l 0 4 l -4 0 l 0 -4 z M 32 84 l 4 0 l 0 4 l -4 0 l 0 -4 z M 36 84 l 4 0 l 0 4 l -4 0 l 0 -4 z M 40 84 l 4 0 l 0 4 l -4 0 l 0 -4 z M 48 84 l 4 0 l 0 4 l -4 0 l 0 -4 z M 68 84 l 4 0 l 0 4 l -4 0 l 0 -4 z M 76 84 l 4 0 l 0 4 l -4 0 l 0 -4 z M 80 84 l 4 0 l 0 4 l -4 0 l 0 -4 z M 84 84 l 4 0 l 0 4 l -4 0 l 0 -4 z M 88 84 l 4 0 l 0 4 l -4 0 l 0 -4 z M 96 84 l 4 0 l 0 4 l -4 0 l 0 -4 z M 100 84 l 4 0 l 0 4 l -4 0 l 0 -4 z M 104 84 l 4 0 l 0 4 l -4 0 l 0 -4 z M 108 84 l 4 0 l 0 4 l -4 0 l 0 -4 z M 116 84 l 4 0 l 0 4 l -4 0 l 0 -4 z M 120 84 l 4 0 l 0 4 l -4 0 l 0 -4 z M 8 88 l 4 0 l 0 4 l -4 0 l 0 -4 z M 16 88 l 4 0 l 0 4 l -4 0 l 0 -4 z M 24 88 l 4 0 l 0 4 l -4 0 l 0 -4 z M 32 88 l 4 0 l 0 4 l -4 0 l 0 -4 z M 40 88 l 4 0 l 0 4 l -4 0 l 0 -4 z M 44 88 l 4 0 l 0 4 l -4 0 l 0 -4 z M 48 88 l 4 0 l 0 4 l -4 0 l 0 -4 z M 52 88 l 4 0 l 0 4 l -4 0 l 0 -4 z M 56 88 l 4 0 l 0 4 l -4 0 l 0 -4 z M 60 88 l 4 0 l 0 4 l -4 0 l 0 -4 z M 72 88 l 4 0 l 0 4 l -4 0 l 0 -4 z M 80 88 l 4 0 l 0 4 l -4 0 l 0 -4 z M 92 88 l 4 0 l 0 4 l -4 0 l 0 -4 z M 96 88 l 4 0 l 0 4 l -4 0 l 0 -4 z M 100 88 l 4 0 l 0 4 l -4 0 l 0 -4 z M 104 88 l 4 0 l 0 4 l -4 0 l 0 -4 z M 112 88 l 4 0 l 0 4 l -4 0 l 0 -4 z M 124 88 l 4 0 l 0 4 l -4 0 l 0 -4 z M 12 92 l 4 0 l 0 4 l -4 0 l 0 -4 z M 28 92 l 4 0 l 0 4 l -4 0 l 0 -4 z M 32 92 l 4 0 l 0 4 l -4 0 l 0 -4 z M 36 92 l 4 0 l 0 4 l -4 0 l 0 -4 z M 40 92 l 4 0 l 0 4 l -4 0 l 0 -4 z M 44 92 l 4 0 l 0 4 l -4 0 l 0 -4 z M 52 92 l 4 0 l 0 4 l -4 0 l 0 -4 z M 60 92 l 4 0 l 0 4 l -4 0 l 0 -4 z M 64 92 l 4 0 l 0 4 l -4 0 l 0 -4 z M 88 92 l 4 0 l 0 4 l -4 0 l 0 -4 z M 92 92 l 4 0 l 0 4 l -4 0 l 0 -4 z M 104 92 l 4 0 l 0 4 l -4 0 l 0 -4 z M 108 92 l 4 0 l 0 4 l -4 0 l 0 -4 z M 124 92 l 4 0 l 0 4 l -4 0 l 0 -4 z M 128 92 l 4 0 l 0 4 l -4 0 l 0 -4 z M 0 96 l 4 0 l 0 4 l -4 0 l 0 -4 z M 4 96 l 4 0 l 0 4 l -4 0 l 0 -4 z M 8 96 l 4 0 l 0 4 l -4 0 l 0 -4 z M 12 96 l 4 0 l 0 4 l -4 0 l 0 -4 z M 16 96 l 4 0 l 0 4 l -4 0 l 0 -4 z M 24 96 l 4 0 l 0 4 l -4 0 l 0 -4 z M 28 96 l 4 0 l 0 4 l -4 0 l 0 -4 z M 32 96 l 4 0 l 0 4 l -4 0 l 0 -4 z M 48 96 l 4 0 l 0 4 l -4 0 l 0 -4 z M 52 96 l 4 0 l 0 4 l -4 0 l 0 -4 z M 76 96 l 4 0 l 0 4 l -4 0 l 0 -4 z M 80 96 l 4 0 l 0 4 l -4 0 l 0 -4 z M 88 96 l 4 0 l 0 4 l -4 0 l 0 -4 z M 96 96 l 4 0 l 0 4 l -4 0 l 0 -4 z M 100 96 l 4 0 l 0 4 l -4 0 l 0 -4 z M 104 96 l 4 0 l 0 4 l -4 0 l 0 -4 z M 108 96 l 4 0 l 0 4 l -4 0 l 0 -4 z M 112 96 l 4 0 l 0 4 l -4 0 l 0 -4 z M 128 96 l 4 0 l 0 4 l -4 0 l 0 -4 z M 32 100 l 4 0 l 0 4 l -4 0 l 0 -4 z M 36 100 l 4 0 l 0 4 l -4 0 l 0 -4 z M 52 100 l 4 0 l 0 4 l -4 0 l 0 -4 z M 56 100 l 4 0 l 0 4 l -4 0 l 0 -4 z M 64 100 l 4 0 l 0 4 l -4 0 l 0 -4 z M 72 100 l 4 0 l 0 4 l -4 0 l 0 -4 z M 76 100 l 4 0 l 0 4 l -4 0 l 0 -4 z M 96 100 l 4 0 l 0 4 l -4 0 l 0 -4 z M 112 100 l 4 0 l 0 4 l -4 0 l 0 -4 z M 116 100 l 4 0 l 0 4 l -4 0 l 0 -4 z M 0 104 l 4 0 l 0 4 l -4 0 l 0 -4 z M 4 104 l 4 0 l 0 4 l -4 0 l 0 -4 z M 8 104 l 4 0 l 0 4 l -4 0 l 0 -4 z M 12 104 l 4 0 l 0 4 l -4 0 l 0 -4 z M 16 104 l 4 0 l 0 4 l -4 0 l 0 -4 z M 20 104 l 4 0 l 0 4 l -4 0 l 0 -4 z M 24 104 l 4 0 l 0 4 l -4 0 l 0 -4 z M 36 104 l 4 0 l 0 4 l -4 0 l 0 -4 z M 64 104 l 4 0 l 0 4 l -4 0 l 0 -4 z M 68 104 l 4 0 l 0 4 l -4 0 l 0 -4 z M 76 104 l 4 0 l 0 4 l -4 0 l 0 -4 z M 84 104 l 4 0 l 0 4 l -4 0 l 0 -4 z M 88 104 l 4 0 l 0 4 l -4 0 l 0 -4 z M 92 104 l 4 0 l 0 4 l -4 0 l 0 -4 z M 96 104 l 4 0 l 0 4 l -4 0 l 0 -4 z M 104 104 l 4 0 l 0 4 l -4 0 l 0 -4 z M 112 104 l 4 0 l 0 4 l -4 0 l 0 -4 z M 124 104 l 4 0 l 0 4 l -4 0 l 0 -4 z M 0 108 l 4 0 l 0 4 l -4 0 l 0 -4 z M 24 108 l 4 0 l 0 4 l -4 0 l 0 -4 z M 32 108 l 4 0 l 0 4 l -4 0 l 0 -4 z M 48 108 l 4 0 l 0 4 l -4 0 l 0 -4 z M 56 108 l 4 0 l 0 4 l -4 0 l 0 -4 z M 68 108 l 4 0 l 0 4 l -4 0 l 0 -4 z M 72 108 l 4 0 l 0 4 l -4 0 l 0 -4 z M 76 108 l 4 0 l 0 4 l -4 0 l 0 -4 z M 80 108 l 4 0 l 0 4 l -4 0 l 0 -4 z M 84 108 l 4 0 l 0 4 l -4 0 l 0 -4 z M 96 108 l 4 0 l 0 4 l -4 0 l 0 -4 z M 112 108 l 4 0 l 0 4 l -4 0 l 0 -4 z M 128 108 l 4 0 l 0 4 l -4 0 l 0 -4 z M 0 112 l 4 0 l 0 4 l -4 0 l 0 -4 z M 8 112 l 4 0 l 0 4 l -4 0 l 0 -4 z M 12 112 l 4 0 l 0 4 l -4 0 l 0 -4 z M 16 112 l 4 0 l 0 4 l -4 0 l 0 -4 z M 24 112 l 4 0 l 0 4 l -4 0 l 0 -4 z M 32 112 l 4 0 l 0 4 l -4 0 l 0 -4 z M 40 112 l 4 0 l 0 4 l -4 0 l 0 -4 z M 44 112 l 4 0 l 0 4 l -4 0 l 0 -4 z M 52 112 l 4 0 l 0 4 l -4 0 l 0 -4 z M 56 112 l 4 0 l 0 4 l -4 0 l 0 -4 z M 60 112 l 4 0 l 0 4 l -4 0 l 0 -4 z M 64 112 l 4 0 l 0 4 l -4 0 l 0 -4 z M 72 112 l 4 0 l 0 4 l -4 0 l 0 -4 z M 92 112 l 4 0 l 0 4 l -4 0 l 0 -4 z M 96 112 l 4 0 l 0 4 l -4 0 l 0 -4 z M 100 112 l 4 0 l 0 4 l -4 0 l 0 -4 z M 104 112 l 4 0 l 0 4 l -4 0 l 0 -4 z M 108 112 l 4 0 l 0 4 l -4 0 l 0 -4 z M 112 112 l 4 0 l 0 4 l -4 0 l 0 -4 z M 116 112 l 4 0 l 0 4 l -4 0 l 0 -4 z M 124 112 l 4 0 l 0 4 l -4 0 l 0 -4 z M 128 112 l 4 0 l 0 4 l -4 0 l 0 -4 z M 0 116 l 4 0 l 0 4 l -4 0 l 0 -4 z M 8 116 l 4 0 l 0 4 l -4 0 l 0 -4 z M 12 116 l 4 0 l 0 4 l -4 0 l 0 -4 z M 16 116 l 4 0 l 0 4 l -4 0 l 0 -4 z M 24 116 l 4 0 l 0 4 l -4 0 l 0 -4 z M 48 116 l 4 0 l 0 4 l -4 0 l 0 -4 z M 68 116 l 4 0 l 0 4 l -4 0 l 0 -4 z M 76 116 l 4 0 l 0 4 l -4 0 l 0 -4 z M 80 116 l 4 0 l 0 4 l -4 0 l 0 -4 z M 84 116 l 4 0 l 0 4 l -4 0 l 0 -4 z M 88 116 l 4 0 l 0 4 l -4 0 l 0 -4 z M 112 116 l 4 0 l 0 4 l -4 0 l 0 -4 z M 120 116 l 4 0 l 0 4 l -4 0 l 0 -4 z M 128 116 l 4 0 l 0 4 l -4 0 l 0 -4 z M 0 120 l 4 0 l 0 4 l -4 0 l 0 -4 z M 8 120 l 4 0 l 0 4 l -4 0 l 0 -4 z M 12 120 l 4 0 l 0 4 l -4 0 l 0 -4 z M 16 120 l 4 0 l 0 4 l -4 0 l 0 -4 z M 24 120 l 4 0 l 0 4 l -4 0 l 0 -4 z M 36 120 l 4 0 l 0 4 l -4 0 l 0 -4 z M 40 120 l 4 0 l 0 4 l -4 0 l 0 -4 z M 44 120 l 4 0 l 0 4 l -4 0 l 0 -4 z M 48 120 l 4 0 l 0 4 l -4 0 l 0 -4 z M 52 120 l 4 0 l 0 4 l -4 0 l 0 -4 z M 56 120 l 4 0 l 0 4 l -4 0 l 0 -4 z M 60 120 l 4 0 l 0 4 l -4 0 l 0 -4 z M 72 120 l 4 0 l 0 4 l -4 0 l 0 -4 z M 80 120 l 4 0 l 0 4 l -4 0 l 0 -4 z M 96 120 l 4 0 l 0 4 l -4 0 l 0 -4 z M 112 120 l 4 0 l 0 4 l -4 0 l 0 -4 z M 116 120 l 4 0 l 0 4 l -4 0 l 0 -4 z M 0 124 l 4 0 l 0 4 l -4 0 l 0 -4 z M 24 124 l 4 0 l 0 4 l -4 0 l 0 -4 z M 32 124 l 4 0 l 0 4 l -4 0 l 0 -4 z M 36 124 l 4 0 l 0 4 l -4 0 l 0 -4 z M 40 124 l 4 0 l 0 4 l -4 0 l 0 -4 z M 44 124 l 4 0 l 0 4 l -4 0 l 0 -4 z M 52 124 l 4 0 l 0 4 l -4 0 l 0 -4 z M 60 124 l 4 0 l 0 4 l -4 0 l 0 -4 z M 64 124 l 4 0 l 0 4 l -4 0 l 0 -4 z M 88 124 l 4 0 l 0 4 l -4 0 l 0 -4 z M 108 124 l 4 0 l 0 4 l -4 0 l 0 -4 z M 0 128 l 4 0 l 0 4 l -4 0 l 0 -4 z M 4 128 l 4 0 l 0 4 l -4 0 l 0 -4 z M 8 128 l 4 0 l 0 4 l -4 0 l 0 -4 z M 12 128 l 4 0 l 0 4 l -4 0 l 0 -4 z M 16 128 l 4 0 l 0 4 l -4 0 l 0 -4 z M 20 128 l 4 0 l 0 4 l -4 0 l 0 -4 z M 24 128 l 4 0 l 0 4 l -4 0 l 0 -4 z M 32 128 l 4 0 l 0 4 l -4 0 l 0 -4 z M 48 128 l 4 0 l 0 4 l -4 0 l 0 -4 z M 52 128 l 4 0 l 0 4 l -4 0 l 0 -4 z M 76 128 l 4 0 l 0 4 l -4 0 l 0 -4 z M 80 128 l 4 0 l 0 4 l -4 0 l 0 -4 z M 88 128 l 4 0 l 0 4 l -4 0 l 0 -4 z M 96 128 l 4 0 l 0 4 l -4 0 l 0 -4 z M 104 128 l 4 0 l 0 4 l -4 0 l 0 -4 z M 116 128 l 4 0 l 0 4 l -4 0 l 0 -4 z M 128 128 l 4 0 l 0 4 l -4 0 l 0 -4 z" style="stroke: rgb(255,255,255); stroke-opacity: 0; stroke-width: 1; stroke-dasharray: none; stroke-linecap: butt; stroke-linejoin: miter; stroke-miterlimit: 4; fill: rgb(0,0,0); fill-rule: nonzero; opacity: 1;" transform="translate(547.29 427.42) scale(0.93 0.93) translate(-66, -66) " stroke-linecap="round" />
</svg>