<?xml version="1.0" encoding="UTF-8" standalone="no" ?>
<!DOCTYPE svg PUBLIC "-//W3C//DTD SVG 1.1//EN" "http://www.w3.org/Graphics/SVG/1.1/DTD/svg11.dtd">
<svg xmlns="http://www.w3.org/2000/svg" xmlns:xlink="http://www.w3.org/1999/xlink" version="1.1" width="419" height="419" viewBox="0 0 419 419" xml:space="preserve">
<desc>Created with Fabric.js 2.3.3</desc>
<defs>
</defs>
<linearGradient id="SVGID_0" gradientUnits="userSpaceOnUse" x1="-120.5" y1="0.05000000000001137" x2="120.5" y2="0.05000000000001137">
<stop offset="16.08%" style="stop-color:rgb(255,123,172);stop-opacity: 1"/>
<stop offset="25.290000000000003%" style="stop-color:rgb(247,118,176);stop-opacity: 0.8902"/>
<stop offset="39.44%" style="stop-color:rgb(226,103,185);stop-opacity: 0.7217"/>
<stop offset="56.75%" style="stop-color:rgb(191,79,202);stop-opacity: 0.5154"/>
<stop offset="76.55%" style="stop-color:rgb(142,46,224);stop-opacity: 0.2794"/>
<stop offset="98.21%" style="stop-color:rgb(80,4,252);stop-opacity: 0.02136856"/>
<stop offset="100%" style="stop-color:rgb(75,0,255);stop-opacity: 0"/>
</linearGradient>
<rect x="-120.5" y="-70.85" rx="0" ry="0" width="241" height="141.7" style="stroke: none; stroke-width: 1; stroke-dasharray: none; stroke-linecap: butt; stroke-linejoin: miter; stroke-miterlimit: 4; fill: url(#SVGID_0); fill-rule: nonzero; opacity: 1;" transform="translate(210.53 210.11) scale(1.72 1.72)"/>
<g transform="translate(209.82 209.69) scale(1.83 1.83)" style="">
	<path d="M 175.9 91.6 c 0 8.2 -6.7 14.9 -14.9 14.9 H 16.3 c -8.2 0 -14.9 -6.7 -14.9 -14.9 v -75 C 1.3 8.3 8 1.6 16.3 1.6 H 161 c 8.2 0 14.9 6.7 14.9 14.9 V 91.6 z" style="stroke: none; stroke-width: 1; stroke-dasharray: none; stroke-linecap: butt; stroke-linejoin: miter; stroke-miterlimit: 4; fill: rgb(255,255,255); fill-rule: nonzero; opacity: 0.7;" transform="translate(0.15 0.55) translate(-88.64944749141843, -54.050000000000004) " stroke-linecap="round" />
	<path d="M 161 107.2 H 16.3 c -8.6 0 -15.6 -7 -15.6 -15.6 v -75 C 0.7 8 7.7 1 16.3 1 H 161 c 8.6 0 15.6 7 15.6 15.6 v 75 C 176.6 100.2 169.6 107.2 161 107.2 z M 16.3 2.3 C 8.4 2.3 2 8.7 2 16.6 v 75 c 0 7.9 6.4 14.3 14.3 14.3 H 161 c 7.9 0 14.3 -6.4 14.3 -14.3 v -75 c 0 -7.9 -6.4 -14.3 -14.3 -14.3 H 16.3 z" style="stroke: none; stroke-width: 1; stroke-dasharray: none; stroke-linecap: butt; stroke-linejoin: miter; stroke-miterlimit: 4; fill: rgb(79,84,103); fill-rule: nonzero; opacity: 0.7;" transform="translate(0.15 0.6) translate(-88.65, -54.1) " stroke-linecap="round" />
</g>
	<g transform="translate(209.36 187.55) scale(2.75 2.75)">
		<text xml:space="preserve" font-family="Nanum Brush Script" font-size="16" font-style="normal" font-weight="normal" style="stroke: none; stroke-width: 1; stroke-dasharray: none; stroke-linecap: butt; stroke-linejoin: miter; stroke-miterlimit: 4; fill: rgb(0,0,0); fill-rule: nonzero; opacity: 1; white-space: pre;" ><tspan x="-31.06" y="5.03" >Slena Jason</tspan></text>
	</g>
	<g transform="translate(208.54 213.29) scale(0.94 0.94)">
		<text xml:space="preserve" font-family="Nanum Brush Script" font-size="16" font-style="normal" font-weight="normal" style="stroke: none; stroke-width: 1; stroke-dasharray: none; stroke-linecap: butt; stroke-linejoin: miter; stroke-miterlimit: 4; fill: rgb(0,0,0); fill-rule: nonzero; opacity: 1; white-space: pre;" ><tspan x="-43.46" y="5.03" >Graphic Designer</tspan></text>
	</g>
	<g transform="translate(209.6 251.04) scale(0.65 0.65)">
		<text xml:space="preserve" font-family="Libre Baskerville" font-size="16" font-style="normal" font-weight="normal" style="stroke: none; stroke-width: 1; stroke-dasharray: none; stroke-linecap: butt; stroke-linejoin: miter; stroke-miterlimit: 4; fill: rgb(0,0,0); fill-rule: nonzero; opacity: 1; white-space: pre;" ><tspan x="-50.08" y="5.03" >934-435-455</tspan></text>
	</g>
	<g transform="translate(209.73 265.47) scale(0.65 0.65)">
		<text xml:space="preserve" font-family="Libre Baskerville" font-size="16" font-style="normal" font-weight="normal" style="stroke: none; stroke-width: 1; stroke-dasharray: none; stroke-linecap: butt; stroke-linejoin: miter; stroke-miterlimit: 4; fill: rgb(0,0,0); fill-rule: nonzero; opacity: 1; white-space: pre;" ><tspan x="-72.49" y="5.03" >www.website.com</tspan></text>
	</g>
	<g transform="translate(209.75 279.93) scale(0.65 0.65)">
		<text xml:space="preserve" font-family="Libre Baskerville" font-size="16" font-style="normal" font-weight="normal" style="stroke: none; stroke-width: 1; stroke-dasharray: none; stroke-linecap: butt; stroke-linejoin: miter; stroke-miterlimit: 4; fill: rgb(0,0,0); fill-rule: nonzero; opacity: 1; white-space: pre;" ><tspan x="-83.49" y="5.03" >email@hotmail.com</tspan></text>
	</g>
</svg>