<?xml version="1.0" encoding="UTF-8" standalone="no" ?>
<!DOCTYPE svg PUBLIC "-//W3C//DTD SVG 1.1//EN" "http://www.w3.org/Graphics/SVG/1.1/DTD/svg11.dtd">
<svg xmlns="http://www.w3.org/2000/svg" xmlns:xlink="http://www.w3.org/1999/xlink" version="1.1" width="1201" height="901" viewBox="0 0 684.57 513.57" xml:space="preserve">
<desc>Created with Fabric.js 2.3.3</desc>
<defs>
</defs>
<g transform="translate(343.67 264.07) scale(2.56 2.56)" style="">
	<path d="M 268.5 9 v 134.4 c 0 0.3 0 0.5 0 0.8 c -0.2 2.7 -1.7 5 -3.9 6.4 h 0 c -1.1 0.7 -2.3 1.2 -3.7 1.3 c -0.3 0 -0.6 0.1 -1 0.1 H 8.5 c -0.2 0 -0.4 0 -0.6 0 c -0.1 0 -0.2 0 -0.2 0 c -0.6 -0.1 -1.3 -0.2 -1.9 -0.4 c -1 -0.3 -1.8 -0.8 -2.6 -1.4 c -0.6 -0.5 -1.2 -1.1 -1.7 -1.8 c -1 -1.4 -1.6 -3.1 -1.6 -4.9 V 9 c 0 -2.6 1.1 -4.8 2.9 -6.4 c 1.5 -1.3 3.5 -2.1 5.6 -2.1 H 260 c 0.3 0 0.6 0 1 0.1 c 0.9 0.1 1.8 0.4 2.6 0.7 c 1.9 0.9 3.4 2.4 4.3 4.3 c 0.1 0.3 0.3 0.6 0.3 0.9 c 0.2 0.6 0.3 1.2 0.4 1.8 C 268.5 8.5 268.5 8.7 268.5 9 z" style="stroke: none; stroke-width: 1; stroke-dasharray: none; stroke-linecap: butt; stroke-linejoin: miter; stroke-miterlimit: 4; fill: rgb(255,255,255); fill-rule: nonzero; opacity: 1;" transform="translate(0.2 0.3) translate(-134.25000000000003, -76.25000000000001) " stroke-linecap="round" />
	<polygon points="5.85,4.85 2.65,-4.85 -5.85,2.55 " style="stroke: none; stroke-width: 1; stroke-dasharray: none; stroke-linecap: butt; stroke-linejoin: miter; stroke-miterlimit: 4; fill: rgb(183,53,146); fill-rule: nonzero; opacity: 1;" transform="translate(-77.9 1.3) "/>
	<polygon points="0.45,4.5 4.95,-3.3 -4.95,-4.5 " style="stroke: none; stroke-width: 1; stroke-dasharray: none; stroke-linecap: butt; stroke-linejoin: miter; stroke-miterlimit: 4; fill: rgb(61,196,235); fill-rule: nonzero; opacity: 1;" transform="translate(108 4.35) "/>
	<polygon points="0.4,-3.15 -2.5,0.35 2.5,3.15 " style="stroke: none; stroke-width: 1; stroke-dasharray: none; stroke-linecap: butt; stroke-linejoin: miter; stroke-miterlimit: 4; fill: rgb(61,196,235); fill-rule: nonzero; opacity: 1;" transform="translate(91.35 -3.1) "/>
	<polygon points="0.3,-3.15 -2.5,0.35 2.5,3.15 " style="stroke: none; stroke-width: 1; stroke-dasharray: none; stroke-linecap: butt; stroke-linejoin: miter; stroke-miterlimit: 4; fill: rgb(236,34,59); fill-rule: nonzero; opacity: 1;" transform="translate(-22.95 18.8) "/>
	<polygon points="1.2,1.9 0.6,-1.9 -1.2,1 " style="stroke: none; stroke-width: 1; stroke-dasharray: none; stroke-linecap: butt; stroke-linejoin: miter; stroke-miterlimit: 4; fill: rgb(244,117,39); fill-rule: nonzero; opacity: 1;" transform="translate(4.95 35.05) "/>
	<polygon points="9.65,-8.1 -9.65,-7.3 5.55,8.1 " style="stroke: none; stroke-width: 1; stroke-dasharray: none; stroke-linecap: butt; stroke-linejoin: miter; stroke-miterlimit: 4; fill: rgb(156,36,142); fill-rule: nonzero; opacity: 1;" transform="translate(-100.2 -48.25) "/>
	<polygon points="-3.35,-1.5 -1.45,1.9 3.35,-1.9 " style="stroke: none; stroke-width: 1; stroke-dasharray: none; stroke-linecap: butt; stroke-linejoin: miter; stroke-miterlimit: 4; fill: rgb(191,61,149); fill-rule: nonzero; opacity: 1;" transform="translate(-95 -11.05) "/>
	<polygon points="-3.9,-14.2 -6.1,14.2 6.1,-7.3 " style="stroke: none; stroke-width: 1; stroke-dasharray: none; stroke-linecap: butt; stroke-linejoin: miter; stroke-miterlimit: 4; fill: rgb(16,128,181); fill-rule: nonzero; opacity: 1;" transform="translate(124.35 -35.15) "/>
	<polygon points="7.2,5.85 -7.2,-6.45 -6.7,6.45 " style="stroke: none; stroke-width: 1; stroke-dasharray: none; stroke-linecap: butt; stroke-linejoin: miter; stroke-miterlimit: 4; fill: rgb(239,66,56); fill-rule: nonzero; opacity: 1;" transform="translate(-29.75 40.5) "/>
	<polygon points="-2.5,-0.45 1.3,1.75 2.5,-1.75 " style="stroke: none; stroke-width: 1; stroke-dasharray: none; stroke-linecap: butt; stroke-linejoin: miter; stroke-miterlimit: 4; fill: rgb(239,66,56); fill-rule: nonzero; opacity: 1;" transform="translate(-59.15 21.7) "/>
	<polygon points="4.1,4.7 -2.4,-4.7 -4.1,2.8 " style="stroke: none; stroke-width: 1; stroke-dasharray: none; stroke-linecap: butt; stroke-linejoin: miter; stroke-miterlimit: 4; fill: rgb(191,61,149); fill-rule: nonzero; opacity: 1;" transform="translate(-100.15 21.95) "/>
	<polygon points="4.75,0.8 -2.15,-4.7 -4.75,4.7 " style="stroke: none; stroke-width: 1; stroke-dasharray: none; stroke-linecap: butt; stroke-linejoin: miter; stroke-miterlimit: 4; fill: rgb(61,196,235); fill-rule: nonzero; opacity: 1;" transform="translate(115.7 -58.55) "/>
	<polygon points="-2.55,-1.75 -1.65,1.75 2.55,-0.15 " style="stroke: none; stroke-width: 1; stroke-dasharray: none; stroke-linecap: butt; stroke-linejoin: miter; stroke-miterlimit: 4; fill: rgb(61,196,235); fill-rule: nonzero; opacity: 1;" transform="translate(75.5 8.7) "/>
	<polygon points="3.7,-2.95 -4.2,2.95 4.2,1.25 " style="stroke: none; stroke-width: 1; stroke-dasharray: none; stroke-linecap: butt; stroke-linejoin: miter; stroke-miterlimit: 4; fill: rgb(16,128,181); fill-rule: nonzero; opacity: 1;" transform="translate(88.35 -27.1) "/>
	<polygon points="4.6,-2.15 -4.6,-2.35 -0.4,2.35 " style="stroke: none; stroke-width: 1; stroke-dasharray: none; stroke-linecap: butt; stroke-linejoin: miter; stroke-miterlimit: 4; fill: rgb(0,167,202); fill-rule: nonzero; opacity: 1;" transform="translate(91.15 -65.1) "/>
	<polygon points="6.3,-1.85 -6.3,-1.45 -2.5,1.85 " style="stroke: none; stroke-width: 1; stroke-dasharray: none; stroke-linecap: butt; stroke-linejoin: miter; stroke-miterlimit: 4; fill: rgb(248,178,24); fill-rule: nonzero; opacity: 1;" transform="translate(34.95 24.9) "/>
	<polygon points="-1.95,-13.8 8.75,-1.1 -8.75,13.8 " style="stroke: none; stroke-width: 1; stroke-dasharray: none; stroke-linecap: butt; stroke-linejoin: miter; stroke-miterlimit: 4; fill: rgb(246,147,34); fill-rule: nonzero; opacity: 1;" transform="translate(0.6 26.75) "/>
	<polygon points="2.3,-6.5 -11.7,4.1 11.7,6.5 " style="stroke: none; stroke-width: 1; stroke-dasharray: none; stroke-linecap: butt; stroke-linejoin: miter; stroke-miterlimit: 4; fill: rgb(236,34,59); fill-rule: nonzero; opacity: 1;" transform="translate(-74.05 37.45) "/>
	<polygon points="20.85,11.85 7.95,-11.85 -20.85,11.85 " style="stroke: none; stroke-width: 1; stroke-dasharray: none; stroke-linecap: butt; stroke-linejoin: miter; stroke-miterlimit: 4; fill: rgb(236,91,45); fill-rule: nonzero; opacity: 1;" transform="translate(-58.6 64.1) "/>
	<polygon points="-13.8,-11.9 -13.8,11.9 13.8,8.4 " style="stroke: none; stroke-width: 1; stroke-dasharray: none; stroke-linecap: butt; stroke-linejoin: miter; stroke-miterlimit: 4; fill: rgb(212,30,68); fill-rule: nonzero; opacity: 1;" transform="translate(-120.25 24.95) "/>
	<polygon points="13.8,-7.35 -13.8,-3.85 -13.8,6.15 -2.6,7.35 " style="stroke: none; stroke-width: 1; stroke-dasharray: none; stroke-linecap: butt; stroke-linejoin: miter; stroke-miterlimit: 4; fill: rgb(235,35,75); fill-rule: nonzero; opacity: 1;" transform="translate(-120.25 40.7) "/>
	<polygon points="-3.75,-7.55 -14.95,2.45 -14.95,7.55 14.95,-5.65 " style="stroke: none; stroke-width: 1; stroke-dasharray: none; stroke-linecap: butt; stroke-linejoin: miter; stroke-miterlimit: 4; fill: rgb(212,30,68); fill-rule: nonzero; opacity: 1;" transform="translate(-119.1 55.6) "/>
	<polygon points="9.35,8.3 7.05,-8.3 -9.35,6.4 " style="stroke: none; stroke-width: 1; stroke-dasharray: none; stroke-linecap: butt; stroke-linejoin: miter; stroke-miterlimit: 4; fill: rgb(238,69,87); fill-rule: nonzero; opacity: 1;" transform="translate(-113.5 41.65) "/>
	<polygon points="-5.6,-5.6 -5.6,5.6 5.6,-4.4 " style="stroke: none; stroke-width: 1; stroke-dasharray: none; stroke-linecap: butt; stroke-linejoin: miter; stroke-miterlimit: 4; fill: rgb(141,24,51); fill-rule: nonzero; opacity: 1;" transform="translate(-128.45 52.45) "/>
	<polygon points="15.4,8.95 8.1,5.25 -20.9,-11.85 -8,11.85 12.5,11.85 20.9,11.85 " style="stroke: none; stroke-width: 1; stroke-dasharray: none; stroke-linecap: butt; stroke-linejoin: miter; stroke-miterlimit: 4; fill: rgb(244,117,39); fill-rule: nonzero; opacity: 1;" transform="translate(-29.75 64.1) "/>
	<polygon points="22.25,-18.5 -22.25,14.8 -14.95,18.5 " style="stroke: none; stroke-width: 1; stroke-dasharray: none; stroke-linecap: butt; stroke-linejoin: miter; stroke-miterlimit: 4; fill: rgb(221,94,39); fill-rule: nonzero; opacity: 1;" transform="translate(0.6 54.55) "/>
	<polygon points="-10.05,3.35 10.05,3.35 3.75,-3.35 " style="stroke: none; stroke-width: 1; stroke-dasharray: none; stroke-linecap: butt; stroke-linejoin: miter; stroke-miterlimit: 4; fill: rgb(212,30,68); fill-rule: nonzero; opacity: 1;" transform="translate(-89.5 72.6) "/>
	<polygon points="-17.55,5.15 -11.25,11.85 17.55,-11.85 " style="stroke: none; stroke-width: 1; stroke-dasharray: none; stroke-linecap: butt; stroke-linejoin: miter; stroke-miterlimit: 4; fill: rgb(239,66,56); fill-rule: nonzero; opacity: 1;" transform="translate(-68.2 64.1) "/>
	<polygon points="26.75,-7.35 -26.75,-9.65 -8.35,9.65 " style="stroke: none; stroke-width: 1; stroke-dasharray: none; stroke-linecap: butt; stroke-linejoin: miter; stroke-miterlimit: 4; fill: rgb(237,72,75); fill-rule: nonzero; opacity: 1;" transform="translate(-77.4 59.6) "/>
	<path d="M 0 139.1 v 4.2 c 0 1.8 0.6 3.6 1.6 4.9 c 0.5 0.7 1 1.3 1.7 1.8 c 0.8 0.6 1.6 1.1 2.6 1.4 c 0.6 0.2 1.2 0.3 1.9 0.4 c 0.1 0 0.2 0 0.2 0 c 0.2 0 0.4 0 0.6 0 h 3.2 l 18.2 -26 L 0 139.1 z" style="stroke: none; stroke-width: 1; stroke-dasharray: none; stroke-linecap: butt; stroke-linejoin: miter; stroke-miterlimit: 4; fill: rgb(212,30,68); fill-rule: nonzero; opacity: 1;" transform="translate(-119.05 62.85) translate(-15, -138.8) " stroke-linecap="round" />
	<polygon points="-0.1,-13 -18.3,13 4.5,13 18.3,6.3 " style="stroke: none; stroke-width: 1; stroke-dasharray: none; stroke-linecap: butt; stroke-linejoin: miter; stroke-miterlimit: 4; fill: rgb(236,34,59); fill-rule: nonzero; opacity: 1;" transform="translate(-104.05 62.95) "/>
	<polygon points="-18.6,17.05 -13.1,19.95 5.5,19.95 18.6,-19.95 " style="stroke: none; stroke-width: 1; stroke-dasharray: none; stroke-linecap: butt; stroke-linejoin: miter; stroke-miterlimit: 4; fill: rgb(248,161,32); fill-rule: nonzero; opacity: 1;" transform="translate(4.25 56) "/>
	<polygon points="6.35,15.95 10.15,9.05 -5.85,-15.95 -10.15,-0.45 " style="stroke: none; stroke-width: 1; stroke-dasharray: none; stroke-linecap: butt; stroke-linejoin: miter; stroke-miterlimit: 4; fill: rgb(0,167,202); fill-rule: nonzero; opacity: 1;" transform="translate(94.1 18.7) "/>
	<polygon points="3.4,-7.75 -3.4,5.25 -0.9,7.75 " style="stroke: none; stroke-width: 1; stroke-dasharray: none; stroke-linecap: butt; stroke-linejoin: miter; stroke-miterlimit: 4; fill: rgb(92,201,232); fill-rule: nonzero; opacity: 1;" transform="translate(84.85 10.5) "/>
	<polygon points="6.7,-16.35 -9.2,13.85 0.8,16.35 9.2,-13.85 " style="stroke: none; stroke-width: 1; stroke-dasharray: none; stroke-linecap: butt; stroke-linejoin: miter; stroke-miterlimit: 4; fill: rgb(8,166,175); fill-rule: nonzero; opacity: 1;" transform="translate(74.75 32.1) "/>
	<polygon points="12.45,-0.55 -4.05,-16.95 -12.45,13.25 2.75,16.95 " style="stroke: none; stroke-width: 1; stroke-dasharray: none; stroke-linecap: butt; stroke-linejoin: miter; stroke-miterlimit: 4; fill: rgb(12,139,168); fill-rule: nonzero; opacity: 1;" transform="translate(88 35.2) "/>
	<polygon points="7.85,-6.35 -10.15,6.35 10.15,6.35 " style="stroke: none; stroke-width: 1; stroke-dasharray: none; stroke-linecap: butt; stroke-linejoin: miter; stroke-miterlimit: 4; fill: rgb(248,159,31); fill-rule: nonzero; opacity: 1;" transform="translate(19.9 69.6) "/>
	<polygon points="4.1,-19.95 -9,19.95 9,7.25 " style="stroke: none; stroke-width: 1; stroke-dasharray: none; stroke-linecap: butt; stroke-linejoin: miter; stroke-miterlimit: 4; fill: rgb(246,147,34); fill-rule: nonzero; opacity: 1;" transform="translate(18.75 56) "/>
	<polygon points="17.6,-0.7 -7.6,-6.9 -17.6,-9.2 12.3,9.2 " style="stroke: none; stroke-width: 1; stroke-dasharray: none; stroke-linecap: butt; stroke-linejoin: miter; stroke-miterlimit: 4; fill: rgb(66,183,92); fill-rule: nonzero; opacity: 1;" transform="translate(73.15 52.85) "/>
	<path d="M 224.8 128.1 l -5.3 9.8 l 22.7 13.9 H 260 c 0.3 0 0.7 0 1 -0.1 c 1.3 -0.1 2.6 -0.6 3.7 -1.3 h 0 c 2.1 -1.4 3.6 -3.7 3.9 -6.4 c 0 -0.2 0 -0.5 0 -0.8 v -4.5 L 224.8 128.1 z" style="stroke: none; stroke-width: 1; stroke-dasharray: none; stroke-linecap: butt; stroke-linejoin: miter; stroke-miterlimit: 4; fill: rgb(13,171,182); fill-rule: nonzero; opacity: 1;" transform="translate(110 64) translate(-244.04999999999998, -139.95) " stroke-linecap="round" />
	<polygon points="-15.15,6.95 15.15,6.95 -7.55,-6.95 " style="stroke: none; stroke-width: 1; stroke-dasharray: none; stroke-linecap: butt; stroke-linejoin: miter; stroke-miterlimit: 4; fill: rgb(87,191,152); fill-rule: nonzero; opacity: 1;" transform="translate(93 69) "/>
	<polygon points="16.35,0.65 -16.35,-6.95 7.35,6.95 " style="stroke: none; stroke-width: 1; stroke-dasharray: none; stroke-linecap: butt; stroke-linejoin: miter; stroke-miterlimit: 4; fill: rgb(134,195,64); fill-rule: nonzero; opacity: 1;" transform="translate(39.2 43) "/>
	<polygon points="-11.85,-13.6 -6.95,13.6 11.85,0.3 " style="stroke: none; stroke-width: 1; stroke-dasharray: none; stroke-linecap: butt; stroke-linejoin: miter; stroke-miterlimit: 4; fill: rgb(248,178,24); fill-rule: nonzero; opacity: 1;" transform="translate(34.7 49.65) "/>
	<polygon points="-26.65,0.3 -24.35,13 23.45,13 26.65,7.2 -7.85,-13 " style="stroke: none; stroke-width: 1; stroke-dasharray: none; stroke-linecap: butt; stroke-linejoin: miter; stroke-miterlimit: 4; fill: rgb(143,198,64); fill-rule: nonzero; opacity: 1;" transform="translate(54.4 62.95) "/>
	<polygon points="-10.45,-13.25 -19.45,-6.95 15.05,13.25 19.45,5.15 " style="stroke: none; stroke-width: 1; stroke-dasharray: none; stroke-linecap: butt; stroke-linejoin: miter; stroke-miterlimit: 4; fill: rgb(107,190,70); fill-rule: nonzero; opacity: 1;" transform="translate(66 56.9) "/>
	<polygon points="5.7,-14.2 -5.7,-8.5 -2,14.2 " style="stroke: none; stroke-width: 1; stroke-dasharray: none; stroke-linecap: butt; stroke-linejoin: miter; stroke-miterlimit: 4; fill: rgb(92,201,232); fill-rule: nonzero; opacity: 1;" transform="translate(128.75 1.55) "/>
	<linearGradient id="SVGID_0" gradientUnits="userSpaceOnUse" x1="-0.018200000000035743" y1="0.007799999999988927" x2="0.04149999999998499" y2="0.007799999999988927">
<stop offset="0%" style="stop-color:rgb(255,255,255);stop-opacity: 1"/>
<stop offset="100%" style="stop-color:rgb(0,0,0);stop-opacity: 1"/>
</linearGradient>
<polygon points="0,-0.05 0,-0.05 0,0.05 " style="stroke: none; stroke-width: 1; stroke-dasharray: none; stroke-linecap: butt; stroke-linejoin: miter; stroke-miterlimit: 4; fill: url(#SVGID_0); fill-rule: nonzero; opacity: 1;" transform="translate(126.75 15.7) "/>
	<polygon points="3.85,-14.15 -3.85,14.15 3.85,7.35 " style="stroke: none; stroke-width: 1; stroke-dasharray: none; stroke-linecap: butt; stroke-linejoin: miter; stroke-miterlimit: 4; fill: rgb(12,139,168); fill-rule: nonzero; opacity: 1;" transform="translate(130.6 1.5) "/>
	<polygon points="-3.85,-20.25 -3.85,-20.15 3.85,27.05 3.85,-27.05 " style="stroke: none; stroke-width: 1; stroke-dasharray: none; stroke-linecap: butt; stroke-linejoin: miter; stroke-miterlimit: 4; fill: rgb(0,167,202); fill-rule: nonzero; opacity: 1;" transform="translate(130.6 35.9) "/>
	<polygon points="10.1,3.95 13.6,-24.95 -5.2,9.75 -13.6,24.95 -13.6,24.95 " style="stroke: none; stroke-width: 1; stroke-dasharray: none; stroke-linecap: butt; stroke-linejoin: miter; stroke-miterlimit: 4; fill: rgb(61,196,235); fill-rule: nonzero; opacity: 1;" transform="translate(109.45 18) "/>
	<polygon points="3.6,8.15 -0.1,-14.45 -3.6,14.45 " style="stroke: none; stroke-width: 1; stroke-dasharray: none; stroke-linecap: butt; stroke-linejoin: miter; stroke-miterlimit: 4; fill: rgb(0,167,202); fill-rule: nonzero; opacity: 1;" transform="translate(123.15 7.5) "/>
	<polygon points="-5.75,21.3 5.75,-21.2 5.75,-21.3 -1.45,-15 " style="stroke: none; stroke-width: 1; stroke-dasharray: none; stroke-linecap: butt; stroke-linejoin: miter; stroke-miterlimit: 4; fill: rgb(50,121,137); fill-rule: nonzero; opacity: 1;" transform="translate(121 36.95) "/>
	<polygon points="14.4,-18.15 -9.3,2.85 -14.4,12.05 10.1,18.15 10.1,18.05 " style="stroke: none; stroke-width: 1; stroke-dasharray: none; stroke-linecap: butt; stroke-linejoin: miter; stroke-miterlimit: 4; fill: rgb(1,181,210); fill-rule: nonzero; opacity: 1;" transform="translate(105.15 40.1) "/>
	<polygon points="1.9,-23.6 -9.6,18.9 -9.6,18.8 -9.6,18.9 9.6,23.6 " style="stroke: none; stroke-width: 1; stroke-dasharray: none; stroke-linecap: butt; stroke-linejoin: miter; stroke-miterlimit: 4; fill: rgb(15,142,162); fill-rule: nonzero; opacity: 1;" transform="translate(124.85 39.35) "/>
	<polygon points="-9.15,-11.2 -9.15,11.2 -1.45,5.5 9.15,-2.2 " style="stroke: none; stroke-width: 1; stroke-dasharray: none; stroke-linecap: butt; stroke-linejoin: miter; stroke-miterlimit: 4; fill: rgb(119,41,127); fill-rule: nonzero; opacity: 1;" transform="translate(-124.9 -45.45) "/>
	<linearGradient id="SVGID_1" gradientUnits="userSpaceOnUse" x1="-5.8919000000000015" y1="0.006399999999999295" x2="5.8919999999999995" y2="0.006399999999999295">
<stop offset="0%" style="stop-color:rgb(255,255,255);stop-opacity: 1"/>
<stop offset="100%" style="stop-color:rgb(0,0,0);stop-opacity: 1"/>
</linearGradient>
<polygon points="5.9,9.4 5.9,9.4 -5.9,-9.4 3.5,5.6 " style="stroke: none; stroke-width: 1; stroke-dasharray: none; stroke-linecap: butt; stroke-linejoin: miter; stroke-miterlimit: 4; fill: url(#SVGID_1); fill-rule: nonzero; opacity: 1;" transform="translate(-125.45 -26.85) "/>
	<linearGradient id="SVGID_2" gradientUnits="userSpaceOnUse" x1="-1.5079999999999991" y1="-0.010899999999999466" x2="1.4930999999999983" y2="-0.010899999999999466">
<stop offset="0%" style="stop-color:rgb(255,255,255);stop-opacity: 1"/>
<stop offset="100%" style="stop-color:rgb(0,0,0);stop-opacity: 1"/>
</linearGradient>
<polygon points="-1.5,-2.4 1.5,2.4 -1.5,-2.4 " style="stroke: none; stroke-width: 1; stroke-dasharray: none; stroke-linecap: butt; stroke-linejoin: miter; stroke-miterlimit: 4; fill: url(#SVGID_2); fill-rule: nonzero; opacity: 1;" transform="translate(-118.05 -15.05) "/>
	<linearGradient id="SVGID_3" gradientUnits="userSpaceOnUse" x1="-0.1" y1="0.014499999999998181" x2="0.055400000000000005" y2="0.014499999999998181">
<stop offset="0%" style="stop-color:rgb(255,255,255);stop-opacity: 1"/>
<stop offset="100%" style="stop-color:rgb(0,0,0);stop-opacity: 1"/>
</linearGradient>
<polygon points="-0.1,-0.05 -0.1,0.05 0.1,0.05 " style="stroke: none; stroke-width: 1; stroke-dasharray: none; stroke-linecap: butt; stroke-linejoin: miter; stroke-miterlimit: 4; fill: url(#SVGID_3); fill-rule: nonzero; opacity: 1;" transform="translate(-133.95 -11.7) "/>
	<polygon points="-14.9,-5.55 14.9,11.35 2.4,-6.55 -0.6,-11.35 " style="stroke: none; stroke-width: 1; stroke-dasharray: none; stroke-linecap: butt; stroke-linejoin: miter; stroke-miterlimit: 4; fill: rgb(183,53,146); fill-rule: nonzero; opacity: 1;" transform="translate(-118.95 -6.1) "/>
	<polygon points="4.85,2.7 -4.55,-12.3 -7.25,-10.3 -7.25,5.5 -7.25,12.2 -7.05,12.3 7.25,6.5 " style="stroke: none; stroke-width: 1; stroke-dasharray: none; stroke-linecap: butt; stroke-linejoin: miter; stroke-miterlimit: 4; fill: rgb(156,36,142); fill-rule: nonzero; opacity: 1;" transform="translate(-126.8 -23.95) "/>
	<polygon points="15.65,3.35 9.85,-7.35 -10.65,-11.25 -15.65,-7.55 -3.85,11.25 " style="stroke: none; stroke-width: 1; stroke-dasharray: none; stroke-linecap: butt; stroke-linejoin: miter; stroke-miterlimit: 4; fill: rgb(191,79,156); fill-rule: nonzero; opacity: 1;" transform="translate(-115.7 -28.7) "/>
	<polygon points="-10.35,1.55 -7.35,6.35 10.35,-4.05 9.15,-6.35 " style="stroke: none; stroke-width: 1; stroke-dasharray: none; stroke-linecap: butt; stroke-linejoin: miter; stroke-miterlimit: 4; fill: rgb(156,36,142); fill-rule: nonzero; opacity: 1;" transform="translate(-109.2 -19) "/>
	<polygon points="-6.95,4.4 8.15,-4.4 -8.15,2.1 " style="stroke: none; stroke-width: 1; stroke-dasharray: none; stroke-linecap: butt; stroke-linejoin: miter; stroke-miterlimit: 4; fill: rgb(142,38,121); fill-rule: nonzero; opacity: 1;" transform="translate(-91.9 -27.45) "/>
	<polygon points="-5.25,5.35 11.05,-1.15 -11.05,-5.35 " style="stroke: none; stroke-width: 1; stroke-dasharray: none; stroke-linecap: butt; stroke-linejoin: miter; stroke-miterlimit: 4; fill: rgb(209,114,173); fill-rule: nonzero; opacity: 1;" transform="translate(-94.8 -30.7) "/>
	<polygon points="-2.6,9.85 11.2,-9.85 -11.2,3.45 " style="stroke: none; stroke-width: 1; stroke-dasharray: none; stroke-linecap: butt; stroke-linejoin: miter; stroke-miterlimit: 4; fill: rgb(191,60,149); fill-rule: nonzero; opacity: 1;" transform="translate(-115.25 15.1) "/>
	<polygon points="-8.45,9.6 -0.85,15.1 8.45,9.6 -8.45,-15.1 " style="stroke: none; stroke-width: 1; stroke-dasharray: none; stroke-linecap: butt; stroke-linejoin: miter; stroke-miterlimit: 4; fill: rgb(201,88,160); fill-rule: nonzero; opacity: 1;" transform="translate(-125.6 3.45) "/>
	<polygon points="-14.8,-12.35 -15,-12.35 1.9,12.35 15,4.55 " style="stroke: none; stroke-width: 1; stroke-dasharray: none; stroke-linecap: butt; stroke-linejoin: miter; stroke-miterlimit: 4; fill: rgb(139,36,113); fill-rule: nonzero; opacity: 1;" transform="translate(-119.05 0.7) "/>
</g>
<g transform="translate(341.66 138.29) scale(2.39 2.39)" style="">
	<path d="M 9.9 12.5 L 18.3 0 h 16.4 l 8.4 12.5 l -8.4 12.5 H 18.3 L 9.9 12.5 z M 19.8 2.8 l -6.5 9.7 l 6.5 9.7 h 13.5 l 6.5 -9.7 l -6.5 -9.7 H 19.8 z" style="stroke: none; stroke-width: 1; stroke-dasharray: none; stroke-linecap: butt; stroke-linejoin: miter; stroke-miterlimit: 4; fill: rgb(248,161,32); fill-rule: nonzero; opacity: 1;" transform="translate(4.9 0.05) translate(-26.5, -12.5) " stroke-linecap="round" />
	<polygon points="1.55,9.75 -4.95,0.05 1.55,-9.65 6.55,-9.65 8.35,-12.45 0.05,-12.45 -8.35,0.05 0.05,12.45 8.35,12.45 6.55,9.75 " style="stroke: none; stroke-width: 1; stroke-dasharray: none; stroke-linecap: butt; stroke-linejoin: miter; stroke-miterlimit: 4; fill: rgb(212,30,68); fill-rule: nonzero; opacity: 1;" transform="translate(-13.25 0) "/>
	<polygon points="4.95,0 -1.65,-9.7 -4.95,-9.7 1.55,0 -4.95,9.7 -1.65,9.7 " style="stroke: none; stroke-width: 1; stroke-dasharray: none; stroke-linecap: butt; stroke-linejoin: miter; stroke-miterlimit: 4; fill: rgb(212,30,68); fill-rule: nonzero; opacity: 1;" transform="translate(6.75 0.05) "/>
</g>
	<g transform="translate(342.01 201.08) scale(3.42 3.42)">
		<text xml:space="preserve" font-family="Raleway" font-size="9" font-style="normal" font-weight="bold" style="stroke: none; stroke-width: 1; stroke-dasharray: none; stroke-linecap: butt; stroke-linejoin: miter; stroke-miterlimit: 4; fill: rgb(248,178,24); fill-rule: nonzero; opacity: 1; white-space: pre;" ><tspan x="-36.51" y="2.83" >COMPANY NAME</tspan></text>
	</g>
	<g transform="translate(350.93 233.31) scale(3.42 3.42)">
		<text xml:space="preserve" font-family="Raleway" font-size="4" font-style="normal" font-weight="normal" style="stroke: none; stroke-width: 1; stroke-dasharray: none; stroke-linecap: butt; stroke-linejoin: miter; stroke-miterlimit: 4; fill: rgb(0,0,0); fill-rule: nonzero; opacity: 1; white-space: pre;" ><tspan x="-19.81" y="1.26" >TAGLINE GOES HERE</tspan></text>
	</g>
</svg>