<?xml version="1.0" encoding="UTF-8" standalone="no" ?>
<!DOCTYPE svg PUBLIC "-//W3C//DTD SVG 1.1//EN" "http://www.w3.org/Graphics/SVG/1.1/DTD/svg11.dtd">
<svg xmlns="http://www.w3.org/2000/svg" xmlns:xlink="http://www.w3.org/1999/xlink" version="1.1" width="1276" height="1651" viewBox="0 0 461.68 597.36" xml:space="preserve">
<desc>Created with Fabric.js 2.3.3</desc>
<defs>
</defs>
<g transform="translate(225.12 291.21) scale(0.28 0.28)" style="">
	<rect x="-529.15" y="-698.35" rx="0" ry="0" width="1058.3" height="1396.7" style="stroke: none; stroke-width: 1; stroke-dasharray: none; stroke-linecap: butt; stroke-linejoin: miter; stroke-miterlimit: 4; fill: rgb(255,255,255); fill-rule: nonzero; opacity: 1;" transform="translate(-2.4 6)"/>
	<polygon points="529.15,238.1 -529.15,238.2 -529.15,179.6 -529.15,-238.2 " style="stroke: none; stroke-width: 1; stroke-dasharray: none; stroke-linecap: butt; stroke-linejoin: miter; stroke-miterlimit: 4; fill: rgb(204,204,204); fill-rule: nonzero; opacity: 0.15;" transform="translate(-2.4 466.25) "/>
	<polygon points="529.15,292.25 -529.15,292.35 -529.15,245.85 529.15,-292.35 " style="stroke: none; stroke-width: 1; stroke-dasharray: none; stroke-linecap: butt; stroke-linejoin: miter; stroke-miterlimit: 4; fill: rgb(204,204,204); fill-rule: nonzero; opacity: 0.15;" transform="translate(-2.4 412.1) "/>
	<polygon points="529.15,96.35 -529.15,96.45 -529.15,-32.55 529.15,-96.45 " style="stroke: none; stroke-width: 1; stroke-dasharray: none; stroke-linecap: butt; stroke-linejoin: miter; stroke-miterlimit: 4; fill: rgb(0,149,168); fill-rule: nonzero; opacity: 1;" transform="translate(-2.4 608) "/>
	<polygon points="529.15,165.05 -529.15,165.15 -529.15,43.95 -529.15,-165.15 " style="stroke: none; stroke-width: 1; stroke-dasharray: none; stroke-linecap: butt; stroke-linejoin: miter; stroke-miterlimit: 4; fill: rgb(140,218,63); fill-rule: nonzero; opacity: 1;" transform="translate(-2.4 539.3) "/>
	<polygon points="500.45,133.35 -500.45,133.45 -500.45,4.45 234.25,-133.45 " style="stroke: none; stroke-width: 1; stroke-dasharray: none; stroke-linecap: butt; stroke-linejoin: miter; stroke-miterlimit: 4; fill: rgb(0,149,168); fill-rule: nonzero; opacity: 1;" transform="translate(-31.1 571) "/>
	<polygon points="359.35,88.7 -359.35,88.7 359.35,-88.7 " style="stroke: none; stroke-width: 1; stroke-dasharray: none; stroke-linecap: butt; stroke-linejoin: miter; stroke-miterlimit: 4; fill: rgb(0,39,68); fill-rule: nonzero; opacity: 1;" transform="translate(167.4 615.65) "/>
	<polygon points="364.7,177.35 -364.7,177.35 -364.7,-36.95 -155.3,-177.35 " style="stroke: none; stroke-width: 1; stroke-dasharray: none; stroke-linecap: butt; stroke-linejoin: miter; stroke-miterlimit: 4; fill: rgb(2,44,73); fill-rule: nonzero; opacity: 1;" transform="translate(-166.85 527) "/>
	<polygon points="-529.15,-363.65 529.15,-363.85 529.15,363.85 " style="stroke: none; stroke-width: 1; stroke-dasharray: none; stroke-linecap: butt; stroke-linejoin: miter; stroke-miterlimit: 4; fill: rgb(204,204,204); fill-rule: nonzero; opacity: 0.15;" transform="translate(-2.4 -328.5) "/>
	<polygon points="-529.15,196.15 -529.15,-196.15 529.15,-196.05 " style="stroke: none; stroke-width: 1; stroke-dasharray: none; stroke-linecap: butt; stroke-linejoin: miter; stroke-miterlimit: 4; fill: rgb(0,149,168); fill-rule: nonzero; opacity: 1;" transform="translate(-2.4 -496.2) "/>
	<polygon points="228.25,234.55 -529.15,-234.55 529.15,-234.55 529.15,28.95 " style="stroke: none; stroke-width: 1; stroke-dasharray: none; stroke-linecap: butt; stroke-linejoin: miter; stroke-miterlimit: 4; fill: rgb(0,149,168); fill-rule: nonzero; opacity: 1;" transform="translate(-2.4 -457.7) "/>
	<polygon points="-529.15,151.35 -529.15,-151.35 529.15,-151.35 " style="stroke: none; stroke-width: 1; stroke-dasharray: none; stroke-linecap: butt; stroke-linejoin: miter; stroke-miterlimit: 4; fill: rgb(140,218,63); fill-rule: nonzero; opacity: 1;" transform="translate(-2.4 -540.9) "/>
	<polygon points="202.95,169.05 -529.15,-169.05 529.15,-169.05 " style="stroke: none; stroke-width: 1; stroke-dasharray: none; stroke-linecap: butt; stroke-linejoin: miter; stroke-miterlimit: 4; fill: rgb(77,77,77); fill-rule: nonzero; opacity: 0.16;" transform="translate(-2.4 -523.2) "/>
	<polygon points="450.3,73.35 450.3,-169.05 -450.3,-169.05 122.5,169.05 " style="stroke: none; stroke-width: 1; stroke-dasharray: none; stroke-linecap: butt; stroke-linejoin: miter; stroke-miterlimit: 4; fill: rgb(0,39,68); fill-rule: nonzero; opacity: 1;" transform="translate(76.45 -523.2) "/>
	<polygon points="-529.15,-250.9 529.15,-251 -529.15,251 " style="stroke: none; stroke-width: 1; stroke-dasharray: none; stroke-linecap: butt; stroke-linejoin: miter; stroke-miterlimit: 4; fill: rgb(204,204,204); fill-rule: nonzero; opacity: 0.22;" transform="translate(-2.4 -441.25) "/>
</g>
	<g transform="translate(304.09 138.11) scale(2.72 2.72)">
		<text xml:space="preserve" font-family="Barlow Condensed" font-size="8" font-style="normal" font-weight="normal" style="stroke: none; stroke-width: 1; stroke-dasharray: none; stroke-linecap: butt; stroke-linejoin: miter; stroke-miterlimit: 4; fill: rgb(255,255,255); fill-rule: nonzero; opacity: 1; white-space: pre;" ><tspan x="-20.62" y="2.51" >LOGO COMPANY</tspan></text>
	</g>
	<g transform="translate(230.66 259.86) scale(2.31 2.31)">
		<text xml:space="preserve" font-family="Barlow" font-size="16" font-style="normal" font-weight="bold" style="stroke: none; stroke-width: 1; stroke-dasharray: none; stroke-linecap: butt; stroke-linejoin: miter; stroke-miterlimit: 4; fill: rgb(0,39,68); fill-rule: nonzero; opacity: 1; white-space: pre;" ><tspan x="-39.43" y="5.03" >H</tspan><tspan x="-28.57" y="5.03" >E</tspan><tspan x="-18.41" y="5.03" >A</tspan><tspan x="-6.86" y="5.03" >D</tspan><tspan x="3.85" y="5.03" >L</tspan><tspan x="13.82" y="5.03" >I</tspan><tspan x="18.84" y="5.03" >N</tspan><tspan x="30.09" y="5.03" >E</tspan></text>
	</g>
	<g transform="translate(231.71 282.86) scale(2.31 2.31)">
		<text xml:space="preserve" font-family="Roboto" font-size="4" font-style="normal" font-weight="bold" style="stroke: none; stroke-width: 1; stroke-dasharray: none; stroke-linecap: butt; stroke-linejoin: miter; stroke-miterlimit: 4; fill: rgb(0,39,68); fill-rule: nonzero; opacity: 1; white-space: pre;" ><tspan x="-29.58" y="1.26" >LOREM IPSUM DOLOR SIT AMET</tspan></text>
	</g>
<g transform="translate(159.62 316.67) scale(0.55 0.55)" style="">
	<path d="M 194.1 58.1 C 179.7 58.1 168 46.4 168 32 c 0 -14.4 11.7 -26.1 26.1 -26.1 c 14.4 0 26.1 11.7 26.1 26.1 C 220.2 46.4 208.5 58.1 194.1 58.1 z" style="stroke: none; stroke-width: 1; stroke-dasharray: none; stroke-linecap: butt; stroke-linejoin: miter; stroke-miterlimit: 4; fill: rgb(140,218,63); fill-rule: nonzero; opacity: 1;" transform="translate(79.6 -0.7) translate(-194.1, -32) " stroke-linecap="round" />
	<ellipse cx="0" cy="0" rx="26.1" ry="26.1" style="stroke: none; stroke-width: 1; stroke-dasharray: none; stroke-linecap: butt; stroke-linejoin: miter; stroke-miterlimit: 4; fill: rgb(2,44,73); fill-rule: nonzero; opacity: 1;" transform="translate(1.42 -0.7) rotate(-77.41)"/>
	<circle cx="0" cy="0" r="26.1" style="stroke: none; stroke-width: 1; stroke-dasharray: none; stroke-linecap: butt; stroke-linejoin: miter; stroke-miterlimit: 4; fill: rgb(0,149,168); fill-rule: nonzero; opacity: 1;" transform="translate(-79.1 -0.7) "/>
	<path d="M 39.1 27.5 c 0 2.1 -1.7 3.8 -3.8 3.8 c -2.1 0 -3.8 -1.7 -3.8 -3.8 c 0 -2.1 1.7 -3.8 3.8 -3.8 C 37.4 23.8 39.1 25.4 39.1 27.5 z" style="stroke: none; stroke-width: 1; stroke-dasharray: none; stroke-linecap: butt; stroke-linejoin: miter; stroke-miterlimit: 4; fill: rgb(255,255,255); fill-rule: nonzero; opacity: 1;" transform="translate(-79.2 -5.2) translate(-35.300000000000004, -27.5) " stroke-linecap="round" />
	<path d="M 40.3 30.7 h -0.7 c -0.9 1.4 -2.5 2.3 -4.3 2.3 c -1.8 0 -3.4 -0.9 -4.3 -2.3 h -0.7 c -3 0 -2.5 4.3 -2.7 7.6 h 7.6 H 43 C 42.8 35 43.3 30.7 40.3 30.7 z" style="stroke: none; stroke-width: 1; stroke-dasharray: none; stroke-linecap: butt; stroke-linejoin: miter; stroke-miterlimit: 4; fill: rgb(255,255,255); fill-rule: nonzero; opacity: 1;" transform="translate(-79.2 1.8) translate(-35.3, -34.5) " stroke-linecap="round" />
	<path d="M 120.2 27.2 c -2.1 -2.1 -5.5 -2.1 -7.6 0 c -2.1 2.1 -2.1 5.5 0 7.6 c 2.1 2.1 5.5 2.1 7.6 0 C 122.3 32.7 122.3 29.3 120.2 27.2 z M 113.8 33.6 c -1.5 -1.5 -1.5 -3.8 0 -5.3 c 1.4 -1.5 3.8 -1.5 5.3 0 c 1.4 1.4 1.5 3.8 0 5.3 C 117.6 35.1 115.2 35.1 113.8 33.6 z" style="stroke: none; stroke-width: 1; stroke-dasharray: none; stroke-linecap: butt; stroke-linejoin: miter; stroke-miterlimit: 4; fill: rgb(255,255,255); fill-rule: nonzero; opacity: 1;" transform="translate(1.9 -1.7) translate(-116.4, -31) " stroke-linecap="round" />
	<path d="M 108.5 39.1 l -0.2 -0.2 c -0.4 -0.4 -0.4 -1 0 -1.3 l 3.9 -3.9 c 0.4 -0.4 1 -0.4 1.3 0 l 0.2 0.2 c 0.4 0.4 0.4 1 0 1.3 l -3.9 3.9 C 109.5 39.5 108.9 39.5 108.5 39.1 z" style="stroke: none; stroke-width: 1; stroke-dasharray: none; stroke-linecap: butt; stroke-linejoin: miter; stroke-miterlimit: 4; fill: rgb(255,255,255); fill-rule: nonzero; opacity: 1;" transform="translate(-3.5 3.7) translate(-111, -36.400000000000006) " stroke-linecap="round" />
	<rect x="-1.55" y="-3.7" rx="0" ry="0" width="3.1" height="7.4" style="stroke: none; stroke-width: 1; stroke-dasharray: none; stroke-linecap: butt; stroke-linejoin: miter; stroke-miterlimit: 4; fill: rgb(255,255,255); fill-rule: nonzero; opacity: 1;" transform="translate(75.55 1.9)"/>
	<rect x="-1.55" y="-4.6" rx="0" ry="0" width="3.1" height="9.2" style="stroke: none; stroke-width: 1; stroke-dasharray: none; stroke-linecap: butt; stroke-linejoin: miter; stroke-miterlimit: 4; fill: rgb(255,255,255); fill-rule: nonzero; opacity: 1;" transform="translate(79.65 0.9)"/>
	<rect x="-1.55" y="-5.7" rx="0" ry="0" width="3.1" height="11.4" style="stroke: none; stroke-width: 1; stroke-dasharray: none; stroke-linecap: butt; stroke-linejoin: miter; stroke-miterlimit: 4; fill: rgb(255,255,255); fill-rule: nonzero; opacity: 1;" transform="translate(83.65 -0.2)"/>
</g>
<rect x="-25" y="-25" rx="0" ry="0" width="50" height="50" style="stroke: none; stroke-width: 1; stroke-dasharray: none; stroke-linecap: butt; stroke-linejoin: miter; stroke-miterlimit: 4; fill: rgb(242,242,242); fill-rule: nonzero; opacity: 1;" transform="translate(230.81 337.83) scale(0.07 1.38)"/>
	<g transform="translate(159.47 356.79) scale(2.31 2.31)">
		<text xml:space="preserve" font-family="Roboto" font-size="4" font-style="normal" font-weight="normal" style="stroke: none; stroke-width: 1; stroke-dasharray: none; stroke-linecap: butt; stroke-linejoin: miter; stroke-miterlimit: 4; fill: rgb(79,84,103); fill-rule: nonzero; opacity: 1; white-space: pre;" ><tspan x="-24.63" y="-3.99" >Donec ligula ante, maximus</tspan><tspan x="-24.63" y="1.26" >vehicula tincidunt quis,</tspan><tspan x="-24.63" y="6.5" style="white-space: pre; ">ultrices molestie mauris. </tspan></text>
	</g>
	<g transform="translate(314.75 310.56) scale(2.31 2.31)">
		<text xml:space="preserve" font-family="Barlow" font-size="8" font-style="normal" font-weight="normal" style="stroke: none; stroke-width: 1; stroke-dasharray: none; stroke-linecap: butt; stroke-linejoin: miter; stroke-miterlimit: 4; fill: rgb(0,149,168); fill-rule: nonzero; opacity: 1; white-space: pre;" ><tspan x="-16.66" y="2.51" >Recteque</tspan></text>
	</g>
	<g transform="translate(302.51 334.21) scale(2.31 2.31)">
		<text xml:space="preserve" font-family="Barlow" font-size="8" font-style="normal" font-weight="bold" style="stroke: none; stroke-width: 1; stroke-dasharray: none; stroke-linecap: butt; stroke-linejoin: miter; stroke-miterlimit: 4; fill: rgb(0,149,168); fill-rule: nonzero; opacity: 1; white-space: pre;" ><tspan x="-21.6" y="2.51" >A</tspan><tspan x="-15.77" y="2.51" >d</tspan><tspan x="-10.68" y="2.51" >i</tspan><tspan x="-7.97" y="2.51" >p</tspan><tspan x="-2.86" y="2.51" >i</tspan><tspan x="-0.15" y="2.51" >s</tspan><tspan x="4.5" y="2.51" >c</tspan><tspan x="9.43" y="2.51" >i</tspan><tspan x="12.14" y="2.51" >n</tspan><tspan x="17.15" y="2.51" >g</tspan></text>
	</g>
	<g transform="translate(314.41 359) scale(2.31 2.31)">
		<text xml:space="preserve" font-family="Barlow" font-size="8" font-style="normal" font-weight="normal" style="stroke: none; stroke-width: 1; stroke-dasharray: none; stroke-linecap: butt; stroke-linejoin: miter; stroke-miterlimit: 4; fill: rgb(0,149,168); fill-rule: nonzero; opacity: 1; white-space: pre;" ><tspan x="-17.01" y="2.51" >Scripserit</tspan></text>
	</g>
	<g transform="translate(148.19 448.85) scale(2.31 2.31)">
		<text xml:space="preserve" font-family="Roboto" font-size="3" font-style="normal" font-weight="normal" style="stroke: none; stroke-width: 1; stroke-dasharray: none; stroke-linecap: butt; stroke-linejoin: miter; stroke-miterlimit: 4; fill: rgb(255,255,255); fill-rule: nonzero; opacity: 1; white-space: pre;" ><tspan x="-15.02" y="-1.02" >Lorem ipsum dolor sit</tspan><tspan x="-15.02" y="2.91" style="white-space: pre; ">amet, consectetur </tspan></text>
	</g>
	<g transform="translate(100.03 448.52) scale(2.31 2.31)">
		<text xml:space="preserve" font-family="Barlow" font-size="8" font-style="normal" font-weight="bold" style="stroke: none; stroke-width: 1; stroke-dasharray: none; stroke-linecap: butt; stroke-linejoin: miter; stroke-miterlimit: 4; fill: rgb(255,255,255); fill-rule: nonzero; opacity: 1; white-space: pre;" ><tspan x="-2.68" y="2.51" >A</tspan></text>
	</g>
	<g transform="translate(148.74 475.37) scale(2.31 2.31)">
		<text xml:space="preserve" font-family="Roboto" font-size="3" font-style="normal" font-weight="normal" style="stroke: none; stroke-width: 1; stroke-dasharray: none; stroke-linecap: butt; stroke-linejoin: miter; stroke-miterlimit: 4; fill: rgb(255,255,255); fill-rule: nonzero; opacity: 1; white-space: pre;" ><tspan x="-15.02" y="-1.02" >Lorem ipsum dolor sit</tspan><tspan x="-15.02" y="2.91" style="white-space: pre; ">amet, consectetur </tspan></text>
	</g>
	<g transform="translate(100.58 475.05) scale(2.31 2.31)">
		<text xml:space="preserve" font-family="Barlow" font-size="8" font-style="normal" font-weight="bold" style="stroke: none; stroke-width: 1; stroke-dasharray: none; stroke-linecap: butt; stroke-linejoin: miter; stroke-miterlimit: 4; fill: rgb(255,255,255); fill-rule: nonzero; opacity: 1; white-space: pre;" ><tspan x="-2.48" y="2.51" >B</tspan></text>
	</g>
</svg>