<?xml version="1.0" encoding="UTF-8" standalone="no" ?>
<!DOCTYPE svg PUBLIC "-//W3C//DTD SVG 1.1//EN" "http://www.w3.org/Graphics/SVG/1.1/DTD/svg11.dtd">
<svg xmlns="http://www.w3.org/2000/svg" xmlns:xlink="http://www.w3.org/1999/xlink" version="1.1" width="1201" height="901" viewBox="0 0 745.62 559.37" xml:space="preserve">
<desc>Created with Fabric.js 2.3.3</desc>
<defs>
</defs>
<g transform="translate(408.61 282.03) scale(0.67 0.67)" style="">
	<path d="M 1142.4 703.8 H 76 c -42 0 -76 -34 -76 -76 V 83.6 c 0 -42 34 -76 76 -76 h 1066.4 c 42 0 76 34 76 76 v 544.2 C 1218.5 669.8 1184.4 703.8 1142.4 703.8 z" style="stroke: none; stroke-width: 1; stroke-dasharray: none; stroke-linecap: butt; stroke-linejoin: miter; stroke-miterlimit: 4; fill: rgb(255,255,255); fill-rule: nonzero; opacity: 1;" transform="translate(-0.05 3.8) translate(-609.2001096902497, -355.69999999999993) " stroke-linecap="round" />
	<linearGradient id="SVGID_4" gradientUnits="userSpaceOnUse" x1="207.87709999999998" y1="101.87189999999997" x2="207.87709999999998" y2="464.6803">
<stop offset="1.02041%" style="stop-color:rgb(0,174,239);stop-opacity: 1"/>
<stop offset="37.76%" style="stop-color:rgb(0,125,176);stop-opacity: 1"/>
<stop offset="100%" style="stop-color:rgb(0,109,166);stop-opacity: 1"/>
</linearGradient>
<path d="M 146.2 282.5 c 21.9 64.9 77.1 123.6 134 182.2 c -13.2 -51.4 -33.8 -101.5 -53.8 -150.9 c -27.7 -68.3 -55 -139 -60.3 -211.9 C 136.1 160.9 125.9 222.5 146.2 282.5 z" style="stroke: none; stroke-width: 1; stroke-dasharray: none; stroke-linecap: butt; stroke-linejoin: miter; stroke-miterlimit: 4; fill: url(#SVGID_4); fill-rule: nonzero; opacity: 1;" transform="translate(-401.33 -68.6) translate(-207.91654016944574, -283.29999999999995) " stroke-linecap="round" />
	<linearGradient id="SVGID_5" gradientUnits="userSpaceOnUse" x1="358.3842000000001" y1="464.68029999999993" x2="358.3842000000001" y2="703.8281">
<stop offset="0%" style="stop-color:rgb(0,125,176);stop-opacity: 1"/>
<stop offset="100%" style="stop-color:rgb(0,174,239);stop-opacity: 1"/>
</linearGradient>
<path d="M 280.1 464.7 c 8.2 31.9 13.5 64.2 14.1 97.3 c 0.8 49.1 -8.8 96.4 -25.3 141.9 h 179.1 c -12.4 -41.7 -33.1 -82.6 -62.2 -121.8 C 355.8 541.8 317.6 503.3 280.1 464.7 z" style="stroke: none; stroke-width: 1; stroke-dasharray: none; stroke-linecap: butt; stroke-linejoin: miter; stroke-miterlimit: 4; fill: url(#SVGID_5); fill-rule: nonzero; opacity: 1;" transform="translate(-250.8 232.4) translate(-358.45000000000005, -584.3) " stroke-linecap="round" />
	<linearGradient id="SVGID_6" gradientUnits="userSpaceOnUse" x1="320.985" y1="464.68029999999993" x2="320.985" y2="703.8281">
<stop offset="0%" style="stop-color:rgb(0,84,139);stop-opacity: 1"/>
<stop offset="14.469999999999999%" style="stop-color:rgb(0,98,155);stop-opacity: 1"/>
<stop offset="53.769999999999996%" style="stop-color:rgb(0,136,196);stop-opacity: 1"/>
<stop offset="83.50999999999999%" style="stop-color:rgb(0,160,224);stop-opacity: 1"/>
<stop offset="100%" style="stop-color:rgb(0,174,239);stop-opacity: 1"/>
</linearGradient>
<path d="M 242.7 464.7 c 8.2 31.9 13.5 64.2 14.1 97.3 c 0.8 49.1 -8.8 96.4 -25.3 141.9 h 179.1 c -12.4 -41.7 -33.1 -82.6 -62.2 -121.8 C 318.4 541.8 280.2 503.3 242.7 464.7 z" style="stroke: none; stroke-width: 1; stroke-dasharray: none; stroke-linecap: butt; stroke-linejoin: miter; stroke-miterlimit: 4; fill: url(#SVGID_6); fill-rule: nonzero; opacity: 1;" transform="translate(-288.2 232.4) translate(-321.05, -584.3) " stroke-linecap="round" />
	<path d="M 294.2 561.9 c -0.5 -33 -5.9 -65.4 -14.1 -97.3 c -56.9 -58.6 -112.1 -117.3 -134 -182.2 c -20.2 -60 -10 -121.6 19.9 -180.6 c -0.9 -12.4 -1.2 -24.9 -0.7 -37.5 c 0.7 -19 3.6 -38.2 8.5 -56.8 H 76 c -42 0 -76 34 -76 76 v 544.2 c 0 42 34 76 76 76 h 192.8 C 285.3 658.3 295 611.1 294.2 561.9 z" style="stroke: none; stroke-width: 1; stroke-dasharray: none; stroke-linecap: butt; stroke-linejoin: miter; stroke-miterlimit: 4; fill: rgb(2,32,95); fill-rule: nonzero; opacity: 1;" transform="translate(-462.13 3.7) translate(-147.12296046501382, -355.6) " stroke-linecap="round" />
	<linearGradient id="SVGID_7" gradientUnits="userSpaceOnUse" x1="165.0836" y1="54.7129" x2="231.45" y2="54.7129">
<stop offset="0%" style="stop-color:rgb(0,84,139);stop-opacity: 1"/>
<stop offset="14.469999999999999%" style="stop-color:rgb(0,98,155);stop-opacity: 1"/>
<stop offset="53.769999999999996%" style="stop-color:rgb(0,136,196);stop-opacity: 1"/>
<stop offset="83.50999999999999%" style="stop-color:rgb(0,160,224);stop-opacity: 1"/>
<stop offset="100%" style="stop-color:rgb(0,174,239);stop-opacity: 1"/>
</linearGradient>
<path d="M 166 101.9 c 16.4 -32.4 38.8 -64.1 65.4 -94.3 h -57.6 c -4.9 18.7 -7.8 37.9 -8.5 56.8 C 164.8 76.9 165.1 89.4 166 101.9 z" style="stroke: none; stroke-width: 1; stroke-dasharray: none; stroke-linecap: butt; stroke-linejoin: miter; stroke-miterlimit: 4; fill: url(#SVGID_7); fill-rule: nonzero; opacity: 1;" transform="translate(-411.02 -297.15) translate(-198.22956654172813, -54.75000000000001) " stroke-linecap="round" />
</g>
<g transform="translate(650.78 147.12) scale(0.86 0.86) matrix(-1 0 0 1 0 0) " style="">
	<rect x="-66.55" y="-66.55" rx="0" ry="0" width="133.1" height="133.1" style="stroke: none; stroke-width: 1; stroke-dasharray: none; stroke-linecap: butt; stroke-linejoin: miter; stroke-miterlimit: 4; fill: rgb(255,255,255); fill-rule: nonzero; opacity: 1;" transform="translate(0 0)"/>
	<path d="M 15.2 104.5 c 0 -2.9 0 -5.8 0 -8.7 c 0 -0.1 0 -0.2 0 -0.3 c -1.5 0 -2.9 0 -4.4 0 c 0 -1.5 0 -2.9 0 -4.4 c 0.7 0 1.5 0 2.2 0 c 0.7 0 1.4 0 2.2 0 c 0 -0.5 0 -1 0 -1.5 c 0 -0.5 0 -1 0 -1.5 c 0 -0.5 0 -1 0 -1.5 l 0 0 c 1.5 0 3 0 4.5 0 c 0 3 0 5.9 0 8.9 c 1.5 0 3 0 4.4 0 c 0 -1 0 -2 0 -3 c 0 -1 0 -2 0 -2.9 c 0 -1 0 -2 0 -3 c 0.6 0 1 0 1.5 0 c 0.5 0 1 0 1.5 0 c 0.5 0 1 0 1.5 0 c 0 -0.2 0 -0.4 0 -0.6 c 0 -2.6 0 -5.2 0 -7.8 c 0 -0.2 0 -0.4 0 -0.6 l 0 0 c 0.2 0 0.4 0 0.6 0 c 2.6 0 5.2 0 7.8 0 c 0.2 0 0.4 0 0.6 0 c 0 1.5 0 3 0 4.4 c 0.7 0.1 4 0.1 4.4 0 c 0 -1.4 0 -2.9 0 -4.4 c 0.7 0 1.3 0 1.9 0 c 0.6 0 1.3 0 1.9 0 c 0.6 0 1.3 0 1.9 0 c 0.6 0 1.2 0 1.9 0 c 0.6 0 1.3 0 1.9 0 c 0.6 0 1.3 0 1.9 0 c 0.6 0 1.3 0 1.9 0 c 0 -0.6 0 -1.1 0 -1.5 c 0 -0.5 0 -0.9 0 -1.4 c 0 -0.5 0 -1 0 -1.4 c 3 0 5.9 0 8.9 0 c 0 1.5 0 2.9 0 4.4 c 1.5 0 3 0 4.5 0 l 0 0 c 0 1.5 0 3 0 4.5 c -1.5 0 -3 0 -4.5 0 c 0 1.5 0 3 0 4.4 l 0 0 c -1.5 0 -3 0 -4.4 0 c 0 -1.5 0 -2.9 0 -4.4 c -0.7 -0.1 -4.1 -0.1 -4.5 0 c 0 1.4 0 2.9 0 4.3 c -1.5 0 -2.9 0 -4.4 0 c -0.1 0.8 -0.1 8.5 0 8.9 c 1.4 0 2.9 0 4.4 0 c 0 1.5 0 3 0 4.4 c 3 0 5.9 0 8.9 0 c 0 1.5 0 3 0 4.5 c -1.5 0 -2.9 0 -4.4 0 c -0.1 0.8 -0.1 8.6 0 8.9 c 0.7 0 1.4 0 2.1 0 c 0.7 0 1.5 0 2.2 0 c 0 1.5 0 3 0 4.4 l 0 0 c -1.3 0 -2.5 0 -3.8 0 c -0.2 0 -0.4 0 -0.7 0 c 0 1.5 0 3 0 4.5 c -3 0 -5.9 0 -8.9 0 c 0 -0.7 0 -1.5 0 -2.2 c 0 -0.8 0 -1.5 0 -2.3 c 1.4 0 2.9 0 4.3 0 c 0 0 0.1 0 0.1 -0.1 c 0 -1.4 0 -2.9 0 -4.3 c -0.6 -0.1 -4.1 -0.1 -4.4 0 c 0 1.5 0 2.9 0 4.4 c -2.7 0 -5.4 0 -8.2 0 c -0.3 0 -0.5 0 -0.8 0 l 0 0 c 0 -1.4 0 -2.9 0 -4.3 c 0 0 0 -0.1 0.1 -0.1 c 1.4 0 2.9 0 4.4 0 c 0 -1.5 0 -3 0 -4.5 c 1.5 0 3 0 4.5 0 c 1.5 0 3 0 4.4 0 c 0.1 -1.3 0 -4.1 -0.1 -4.4 c -4.4 0 -8.9 0 -13.3 0 c 0 1.5 0 2.9 0 4.4 c -0.7 0.1 -4.1 0.1 -4.4 0 c 0 -1.4 0 -2.8 0 -4.3 c 0 0 0 0 0 0 c 0 0 0 0 0 0 c -1.4 0 -2.9 0 -4.4 0 c 0 0.5 0 1 0 1.5 c 0 0.5 0 1 0 1.5 c 0 0.5 0 1 0 1.5 c -0.2 0 -0.3 0 -0.4 0 c -2.7 0 -5.4 0 -8.1 0 c -0.1 0 -0.3 0 -0.4 0 l 0 0 c 0 -1.5 0 -3 0 -4.4 c 1.5 0 3 0 4.5 0 c 0 -1.5 0 -3 0 -4.4 c -1.5 0 -2.9 0 -4.5 0 c 0 1.5 0 3 0 4.5 c 0 0 -0.1 0 -0.1 0 C 21.1 104.5 18.1 104.5 15.2 104.5 L 15.2 104.5 z M 33.1 86.7 c 0 4.5 0 8.9 0 13.3 c 0.8 0.1 13 0.1 13.3 0 c 0 -4.4 0 -8.8 0 -13.3 C 42 86.7 37.6 86.7 33.1 86.7 z" style="stroke: none; stroke-width: 1; stroke-dasharray: none; stroke-linecap: butt; stroke-linejoin: miter; stroke-miterlimit: 4; fill: rgb(79,84,103); fill-rule: nonzero; opacity: 1;" transform="translate(-26.8 31.15) translate(-39.74999999999999, -97.70000000000002) " stroke-linecap="round" />
	<path d="M 51 55.4 c 0 -1.1 0 -2.2 0 -3.3 c 0 -0.4 0 -0.8 0 -1.3 l 0 0 c 1.5 0 2.9 0 4.4 0 c 0 -0.2 0 -0.4 0 -0.6 c 0 -3 0 -5.9 0 -8.9 c 0 -1.3 0 -2.6 0 -3.9 l 0 0 c 1.5 0 3 0 4.5 0 c 0 0.8 0 1.5 0 2.3 c 0 0.7 0 1.5 0 2.2 c 0.3 0 0.5 0 0.7 0 c 1.2 0 2.5 0 3.7 0 l 0 0 c 0 1.5 0 3 0 4.4 c -1.4 0 -2.9 0 -4.3 0 c 0 0 -0.1 0 -0.1 0.1 c 0 1.4 0 2.9 0 4.4 c 1.5 0 2.9 0 4.4 0 c 0 -1.5 0 -3 0 -4.4 c 1.5 0 3 0 4.5 0 c 0 -0.2 0 -0.4 0 -0.6 c 0 -1.3 0 -2.6 0 -3.8 l 0 0 c 1.5 0 3 0 4.4 0 l 0 0 c 0 0.2 0 0.4 0 0.5 c 0 1.1 0 2.2 0 3.3 c 0 0.2 0 0.3 0 0.5 c 1.5 0 3 0 4.5 0 c 0 -0.2 0 -0.4 0 -0.6 c 0 -1.3 0 -2.5 0 -3.8 l 0 0 c 1.5 0 3 0 4.4 0 l 0 0 c 0 0.2 0 0.4 0 0.5 c 0 2.6 0 5.1 0 7.7 c 0 0.2 0 0.4 0 0.6 c 0.5 0 1 0 1.5 0 c 0.5 0 1 0 1.5 0 c 0.5 0 1 0 1.5 0 l 0 0 c 0 1.5 0 3 0 4.5 c 0.2 0 0.4 0 0.6 0 c 4.1 0 8.1 0 12.2 0 c 0.2 0 0.4 0 0.6 0.1 l 0 0 c 0 0.1 0 0.2 0 0.2 c 0 1.4 0 2.8 0 4.2 l 0 0 c -0.2 0 -0.4 0 -0.6 0 c -2.6 0 -5.2 0 -7.8 0 c -0.2 0 -0.3 0 -0.6 0 c 0 1.5 0 3 0 4.5 l 0 0 c -2.9 0 -5.8 0 -8.8 0 c -0.1 0 -0.1 0 -0.2 0 c 0 -0.1 0 -0.1 0 -0.2 c 0 -2.8 0 -5.7 0 -8.5 c 0 -0.1 0 -0.2 0 -0.3 c -1.5 0 -2.9 0 -4.4 0 c 0 -1.5 0 -3 0 -4.5 c -1.5 0 -3 0 -4.4 0 c 0 1.5 0 2.9 0 4.5 c 1.5 0 3 0 4.5 0 c 0 0.1 0 0.2 0 0.3 c 0 2.8 0 5.5 0 8.3 c 0 0.1 0 0.2 0 0.3 c -1.5 0 -2.9 0 -4.4 0 c 0 0 -0.1 0 -0.2 0.1 c 0 0.2 0 0.4 0 0.6 c 0 1.3 0 2.5 0 3.8 l 0 0 c -0.1 0 -0.2 0 -0.2 0 c -2.8 0 -5.5 0 -8.3 0 c -0.1 0 -0.2 0 -0.3 0 c -0.1 -0.5 -0.1 -8.5 0 -8.9 c 0.5 0 1 0 1.5 0 c 0.5 0 1 0 1.5 0 c 0.5 0 1 0 1.4 0 c 0.1 -1 0.1 -4.1 0 -4.4 c -2.9 0 -5.9 0 -8.9 0 c 0 4.5 0 8.9 0 13.3 c -1.5 0 -3 0 -4.5 0 c 0 -1.5 0 -2.9 0 -4.4 c -1.5 0 -2.9 0 -4.4 0 c 0 -0.1 -0.1 -0.1 -0.1 -0.1 c 0 -1.5 0 -2.9 0 -4.4 l 0 0 c 1.5 0 2.9 0 4.4 0 c 0 -1.5 0 -3 0 -4.4 C 53.9 55.4 52.4 55.4 51 55.4 L 51 55.4 z" style="stroke: none; stroke-width: 1; stroke-dasharray: none; stroke-linecap: butt; stroke-linejoin: miter; stroke-miterlimit: 4; fill: rgb(79,84,103); fill-rule: nonzero; opacity: 1;" transform="translate(8.85 -13.55) translate(-75.4, -53) " stroke-linecap="round" />
	<path d="M 91.1 10.7 c 10.4 0 20.8 0 31.2 0 c 0 10.4 0 20.8 0 31.3 c -10.4 0 -20.8 0 -31.2 0 C 91.1 31.6 91.1 21.2 91.1 10.7 z M 117.9 37.5 c 0 -7.5 0 -14.9 0 -22.3 c -0.8 -0.1 -22 -0.1 -22.3 0 c 0 7.4 0 14.8 0 22.2 C 103 37.5 110.5 37.5 117.9 37.5 z" style="stroke: none; stroke-width: 1; stroke-dasharray: none; stroke-linecap: butt; stroke-linejoin: miter; stroke-miterlimit: 4; fill: rgb(79,84,103); fill-rule: nonzero; opacity: 1;" transform="translate(40.15 -40.2) translate(-106.69999999999999, -26.35) " stroke-linecap="round" />
	<path d="M 10.8 42 c 0 -10.4 0 -20.8 0 -31.2 c 10.4 0 20.8 0 31.1 0 c 0.1 0.4 0.1 30.6 0 31.2 C 31.6 42 21.2 42 10.8 42 z M 37.5 37.5 c 0 -7.5 0 -14.9 0 -22.3 c -0.7 -0.1 -21.9 -0.1 -22.3 0 c 0 7.4 0 14.8 0 22.2 C 22.7 37.5 30.1 37.5 37.5 37.5 z" style="stroke: none; stroke-width: 1; stroke-dasharray: none; stroke-linecap: butt; stroke-linejoin: miter; stroke-miterlimit: 4; fill: rgb(79,84,103); fill-rule: nonzero; opacity: 1;" transform="translate(-40.16 -40.15) translate(-26.387500000000003, -26.4) " stroke-linecap="round" />
	<path d="M 91.1 122.4 c 0 -10.4 0 -20.8 0 -31.1 c 0 0 0 0 0 0 c 0 0 0 0 0 0 c 0.1 0 0.1 0 0.2 0 c 10.3 0 20.5 0 30.8 0 c 0 0 0.1 0 0.2 0 c 0 10.4 0 20.8 0 31.2 C 112 122.4 101.6 122.4 91.1 122.4 z M 95.6 117.9 c 7.4 0 14.9 0 22.3 0 c 0 -7.4 0 -14.8 0 -22.3 c -7.4 0 -14.9 0 -22.3 0 C 95.6 103 95.6 110.4 95.6 117.9 z" style="stroke: none; stroke-width: 1; stroke-dasharray: none; stroke-linecap: butt; stroke-linejoin: miter; stroke-miterlimit: 4; fill: rgb(79,84,103); fill-rule: nonzero; opacity: 1;" transform="translate(40.15 40.35) translate(-106.69999999999999, -106.9) " stroke-linecap="round" />
	<path d="M 104.5 64.4 c 0.1 0 0.3 0 0.4 0 c 2.7 0 5.4 0 8.2 0 c 0.1 0 0.2 0 0.3 0 c 0.1 0.4 0.1 8.2 0 8.9 c -1.4 0 -2.9 0 -4.4 0 c 0 1.5 0 2.9 0 4.5 c -1.5 0 -3 0 -4.5 0 c -1.5 0 -2.9 0 -4.4 0 c -1.5 0 -3 0 -4.5 0 c -1.5 0 -2.9 0 -4.4 0 c -1.5 0 -3 0 -4.5 0 c 0 1.5 0 3 0 4.5 l 0 0 c -1.1 0 -2.2 0 -3.3 0 c -3.2 0 -6.3 0 -9.5 0 c -0.2 0 -0.4 0 -0.6 0 c 0 -1.5 0 -3 0 -4.5 c -1.5 0 -3 0 -4.5 0 l 0 0 c 0 -1.4 0 -2.9 0 -4.3 c 0 0 0 -0.1 0.1 -0.1 c 1.4 0 2.9 0 4.4 0 c 0 -1.5 0 -3 0 -4.5 l 0 0 c 0.9 0 1.7 0 2.6 0 c 0.7 0 1.3 0 2 0 c 0 1.5 0 2.9 0 4.4 c 0 0 0 0.1 0.1 0.1 c 2.9 0 5.9 0 8.9 0 c 0 -1.5 0 -3 0 -4.5 c 0.2 0 0.4 0 0.5 0 c 1.1 0 2.3 0 3.4 0 c 0.2 0 0.4 0 0.5 -0.1 c 0 0.1 -0.1 0.3 -0.1 0.4 c 0 1.3 0 2.5 0 3.8 c 0 0.1 0 0.2 0 0.4 c 1.5 0 2.9 0 4.4 0 c 0 -1.5 0 -2.9 0 -4.4 c -0.2 0 -0.3 0 -0.5 0 c -1.1 0 -2.3 0 -3.4 0 c -0.2 0 -0.3 0 -0.5 0 c 0 0 0 -0.1 0 -0.1 c 0 -1.4 0 -2.8 0 -4.3 l 0 0 c 0.1 0 0.2 0 0.3 0 c 2.7 0 5.5 0 8.2 0 c 0.1 0 0.3 0 0.4 0 l 0 0 c 0 1.5 0 2.9 0 4.4 c 1.5 0 3 0 4.4 0 C 104.5 67.2 104.5 65.8 104.5 64.4 L 104.5 64.4 z" style="stroke: none; stroke-width: 1; stroke-dasharray: none; stroke-linecap: butt; stroke-linejoin: miter; stroke-miterlimit: 4; fill: rgb(79,84,103); fill-rule: nonzero; opacity: 1;" transform="translate(24.59 6.8) translate(-91.13749999999999, -73.35000000000001) " stroke-linecap="round" />
	<path d="M 82.2 117.9 c -1.4 0 -2.9 0 -4.3 0 c 0 0 -0.1 0 -0.1 0 c 0 -0.2 0 -0.4 0 -0.5 c 0 -2.6 0 -5.2 0 -7.8 c 0 -0.2 0 -0.3 0 -0.5 c -0.7 -0.1 -4.1 -0.1 -4.5 0 c 0 2.9 0 5.9 0 8.8 c 0.1 0 0.2 0 0.3 0 c 1.3 0 2.6 0 3.9 0 c 0.1 0 0.2 0 0.3 -0.1 c 0 0.2 -0.1 0.4 -0.1 0.5 c 0 1.2 0 2.3 0 3.5 c 0 0.2 0 0.3 0 0.5 c -4.5 0 -8.9 0 -13.4 0 c -0.1 -1.5 0 -3 0 -4.5 l 0 0 c 1.5 0 3 0 4.5 0 c 0 -4.5 0 -8.9 0 -13.4 c 3 0 5.9 0 8.9 0 c 0 -1.5 0 -3 0 -4.5 c -0.6 0 -1.2 0 -1.8 0 c -0.6 0 -1.2 0 -1.8 0 c -0.6 0 -1.2 0 -1.8 0 c -0.6 0 -1.2 0 -1.8 0 c -0.6 0 -1.2 0 -1.7 0 c 0 -1.5 0 -3 0 -4.4 l 0 0 c 1.3 0 2.6 0 3.9 0 c 0.2 0 0.3 0 0.6 0 c 0 -1.5 0 -2.9 0 -4.3 c 0.1 -0.1 0.1 -0.1 0.1 -0.1 c 1.5 0 2.9 0 4.4 0 l 0 0 c 0 0.5 0 1 0 1.5 c 0 0.5 0 1 0 1.5 c 0 0.5 0 1 0 1.5 c 0.3 0 0.5 0 0.7 0 c 1.2 0 2.5 0 3.7 0 l 0 0 c 0 0.2 0 0.3 0 0.5 c 0 7.1 0 14.2 0 21.3 C 82.2 117.6 82.2 117.7 82.2 117.9 L 82.2 117.9 z" style="stroke: none; stroke-width: 1; stroke-dasharray: none; stroke-linecap: butt; stroke-linejoin: miter; stroke-miterlimit: 4; fill: rgb(79,84,103); fill-rule: nonzero; opacity: 1;" transform="translate(6.68 40.15) translate(-73.22777777777782, -106.70000000000002) " stroke-linecap="round" />
	<path d="M 73.2 10.7 c 4.5 0 8.9 0 13.4 0 c 0.1 0.4 0.1 8.3 0 8.9 c -1.4 0 -2.9 0 -4.3 0 c -0.1 0.4 -0.1 3.8 0 4.5 c 1.5 0 2.9 0 4.4 0 c 0 3 0 5.9 0 8.9 c -0.4 0.1 -3.9 0.1 -4.5 0 c 0 -1.5 0 -2.9 0 -4.4 c -3 0 -5.9 0 -8.9 0 c 0 -1.5 0 -2.9 0 -4.4 c -1.5 0 -2.9 0 -4.4 0 c -0.1 -0.4 -0.1 -3.9 0 -4.5 c 1.4 0 2.9 0 4.4 0 C 73.2 16.7 73.2 13.7 73.2 10.7 z" style="stroke: none; stroke-width: 1; stroke-dasharray: none; stroke-linecap: butt; stroke-linejoin: miter; stroke-miterlimit: 4; fill: rgb(79,84,103); fill-rule: nonzero; opacity: 1;" transform="translate(11.21 -44.66) translate(-77.76250000000002, -21.887500000000003) " stroke-linecap="round" />
	<path d="M 37.6 117.9 c -1.1 0 -2.3 0 -3.4 0 c -0.3 0 -0.7 0 -1.1 0 c 0 1.5 0 3 0 4.5 c -7.5 0 -14.9 0 -22.3 0 c 0 -1.5 0 -2.9 0 -4.5 c 1.5 0 2.9 0 4.4 0 c 0 -0.1 0.1 -0.1 0.1 -0.2 c 0 -2.9 0 -5.9 0 -8.8 l 0 0 c 3 0 6 0 9 0 l 0 0 c 0 0.2 0 0.4 0 0.5 c 0 1.1 0 2.3 0 3.4 c 0 0.2 0 0.3 0 0.5 c 0.1 0 0.1 0 0.1 0 c 0 0 0.1 0 0.1 0 c 4.3 0 8.5 0 12.8 0 c 0 0 0.1 0 0.1 0 c 0 0 0 0 0 0 c 0 0 0.1 0 0.1 0 c 0 0 0 0 0 0 c 0 0 0 0 0.1 0.1 C 37.6 115 37.6 116.4 37.6 117.9 L 37.6 117.9 z" style="stroke: none; stroke-width: 1; stroke-dasharray: none; stroke-linecap: butt; stroke-linejoin: miter; stroke-miterlimit: 4; fill: rgb(79,84,103); fill-rule: nonzero; opacity: 1;" transform="translate(-42.35 49.1) translate(-24.200000000000003, -115.65) " stroke-linecap="round" />
	<path d="M 59.9 19.6 c 0 2.9 0 5.8 0 8.7 c 0 0 0 0.1 0 0.2 c 0.5 0 1 0 1.4 0 c 0.5 0 0.9 0 1.4 0 c 0.5 0 1 0 1.5 0 c 0 0.1 0.1 0.1 0.1 0.1 c 0 1.5 0 2.9 0 4.4 l 0 0 c -2.9 0 -5.8 0 -8.6 0 c -0.1 0 -0.2 0 -0.3 0.1 c 0 0.2 0 0.4 0 0.6 c 0 1.3 0 2.5 0 3.8 l 0 0 c -1.5 0 -2.9 0 -4.4 0 c 0 0.2 0 0.4 0 0.6 c 0 2.3 0 4.6 0 6.9 c 0 1.9 0 3.9 0 5.8 l 0 0 c -0.1 0 -0.2 0 -0.3 0 c -2.8 0 -5.5 0 -8.3 0 c -0.1 0 -0.2 0 -0.3 0 c -0.1 -0.3 -0.1 -3.8 0 -4.4 c 1.4 0 2.9 0 4.4 0 c 0 -4.5 0 -8.9 0 -13.4 c 1.5 0 3 0 4.5 0 c 0 -0.2 0 -0.4 0 -0.5 c 0 -1.2 0 -2.3 0 -3.5 c 0 -0.2 0 -0.4 0.1 -0.5 l 0 0 c 0.1 0 0.2 0 0.3 0 c 1.3 0 2.6 0 3.8 0 c 0.1 0 0.2 0 0.2 0 c 0 -0.1 0 -0.1 0 -0.2 c 0 -2.9 0 -5.9 0 -8.8 l 0 0 C 56.9 19.6 58.4 19.6 59.9 19.6 L 59.9 19.6 z" style="stroke: none; stroke-width: 1; stroke-dasharray: none; stroke-linecap: butt; stroke-linejoin: miter; stroke-miterlimit: 4; fill: rgb(79,84,103); fill-rule: nonzero; opacity: 1;" transform="translate(-13.39 -31.4) translate(-53.16249999999999, -35.15) " stroke-linecap="round" />
	<path d="M 37.6 64.3 c 0 -1.5 0 -3 0 -4.5 c 1.5 0 2.9 0 4.4 0 c 0 -1.5 0 -2.9 0 -4.4 c 0.1 0 0.2 -0.1 0.3 -0.1 c 2.8 0 5.7 0 8.5 0 c 0.1 0 0.1 0 0.2 0 l 0 0 c 0 1.5 0 3 0 4.4 l 0 0 c -0.2 0 -0.4 0 -0.5 0 c -1.1 0 -2.3 0 -3.4 0 c -0.2 0 -0.3 0 -0.5 0 c 0 3 0 5.9 0 8.9 c 0.5 0 1 0 1.5 0 c 0.5 0 1 0 1.5 0 c 0.5 0 1 0 1.4 0 c 0 1.5 0 3 0 4.4 c -5.9 0 -11.9 0 -17.8 0 c 0 -1.5 0 -3 0 -4.5 c -0.3 0 -0.5 0 -0.7 0 c -1.3 0 -2.5 0 -3.8 0 l 0 0 c 0 -1.5 0 -2.9 0 -4.4 c 0.1 0 0.2 -0.1 0.3 -0.1 C 31.8 64.3 34.7 64.3 37.6 64.3 c 0 1.4 0 2.9 0 4.3 c 0 0 0 0.1 0 0.1 c 1.4 0 2.9 0 4.3 0 c 0 -1.5 0 -2.9 0 -4.4 c -0.1 0 -0.1 0 -0.1 0 C 40.4 64.3 39 64.3 37.6 64.3 z" style="stroke: none; stroke-width: 1; stroke-dasharray: none; stroke-linecap: butt; stroke-linejoin: miter; stroke-miterlimit: 4; fill: rgb(79,84,103); fill-rule: nonzero; opacity: 1;" transform="translate(-26.7 -2.4) translate(-39.85, -64.15) " stroke-linecap="round" />
	<path d="M 24.1 55.4 c 0 1.5 0 2.9 0 4.4 c -0.4 0.1 -8.3 0.1 -8.9 0 c 0 -1.4 0 -2.9 0 -4.4 c -1.5 0 -2.9 0 -4.4 0 c 0 -3 0 -5.9 0 -8.9 c 0.4 -0.1 8.3 -0.1 8.9 0 c 0 2.9 0 5.9 0 8.9 c 0.2 0 0.4 0 0.5 0 c 1.1 0 2.3 0 3.4 0 C 23.8 55.4 24 55.4 24.1 55.4 L 24.1 55.4 z" style="stroke: none; stroke-width: 1; stroke-dasharray: none; stroke-linecap: butt; stroke-linejoin: miter; stroke-miterlimit: 4; fill: rgb(79,84,103); fill-rule: nonzero; opacity: 1;" transform="translate(-49.1 -13.4) translate(-17.450000000000003, -53.15) " stroke-linecap="round" />
	<path d="M 15.2 82.2 c 0 -1.5 0 -3 0 -4.5 c -1.5 0 -2.9 0 -4.4 0 c 0 -4.5 0 -8.9 0 -13.4 c 1.5 0 2.9 0 4.4 0 c 0 2.9 0 5.9 0 8.9 c 0.2 0 0.4 0 0.6 0 c 1.1 0 2.3 0 3.4 0 c 0.2 0 0.4 0 0.5 0 l 0 0 c 0 1.5 0 2.9 0 4.4 c 1.5 0 3 0 4.4 0 l 0 0 c 0.1 1.1 0 4.1 -0.1 4.5 c -0.2 0 -0.4 0 -0.6 0 C 20.7 82.2 17.9 82.2 15.2 82.2 L 15.2 82.2 z" style="stroke: none; stroke-width: 1; stroke-dasharray: none; stroke-linecap: butt; stroke-linejoin: miter; stroke-miterlimit: 4; fill: rgb(79,84,103); fill-rule: nonzero; opacity: 1;" transform="translate(-49.08 6.7) translate(-17.470710678118657, -73.25) " stroke-linecap="round" />
	<path d="M 64.3 33.1 c 0.2 0 0.3 0 0.5 0 c 4.1 0 8.3 0 12.4 0 c 0.2 0 0.3 0 0.5 0 c 0 3 0 6 0 9 l 0 0 c -1.5 0 -3 0 -4.5 0 l 0 0 c 0 -1.5 0 -3 0 -4.5 c -1.5 0 -2.9 0 -4.4 0 c 0 1.5 0 3 0 4.5 l 0 0 c -1.5 0 -3 0 -4.5 0 l 0 0 C 64.3 39.1 64.3 36.1 64.3 33.1 L 64.3 33.1 z" style="stroke: none; stroke-width: 1; stroke-dasharray: none; stroke-linecap: butt; stroke-linejoin: miter; stroke-miterlimit: 4; fill: rgb(79,84,103); fill-rule: nonzero; opacity: 1;" transform="translate(4.45 -28.95) translate(-71, -37.6) " stroke-linecap="round" />
	<path d="M 19.7 73.3 c 0 -0.1 0 -0.3 0 -0.4 c 0 -2.7 0 -5.4 0 -8 c 0 -0.1 0 -0.3 0 -0.5 c 1.5 0 2.9 0 4.4 0 c 0 1.4 0 2.9 0 4.4 c 0.5 0.1 1 0 1.5 0 c 0.5 0 1 0 1.5 0 c 0.5 0 1 0 1.5 0 l 0 0 c 0 3 0 6 0 9 l 0 0 c -0.4 0 -0.8 0 -1.2 0 c -1.1 0 -2.2 0 -3.4 0 l 0 0 c 0 -1.5 0 -2.9 0 -4.4 C 22.6 73.3 21.2 73.3 19.7 73.3 L 19.7 73.3 z" style="stroke: none; stroke-width: 1; stroke-dasharray: none; stroke-linecap: butt; stroke-linejoin: miter; stroke-miterlimit: 4; fill: rgb(79,84,103); fill-rule: nonzero; opacity: 1;" transform="translate(-42.4 4.55) translate(-24.15, -71.1) " stroke-linecap="round" />
	<path d="M 24.1 55.4 c 0 -1.8 0 -3.5 0 -5.3 c 0 -1 0 -2.1 0 -3.1 c 0 -0.2 0 -0.3 0 -0.5 c 3 0 5.9 0 8.9 0 c 0 3 0 5.9 0 8.9 c -0.2 0 -0.4 0 -0.5 0 c -2.6 0 -5.2 0 -7.8 0 C 24.5 55.4 24.3 55.4 24.1 55.4 L 24.1 55.4 z" style="stroke: none; stroke-width: 1; stroke-dasharray: none; stroke-linecap: butt; stroke-linejoin: miter; stroke-miterlimit: 4; fill: rgb(79,84,103); fill-rule: nonzero; opacity: 1;" transform="translate(-38 -15.6) translate(-28.55, -50.95) " stroke-linecap="round" />
	<path d="M 118 59.8 c 0.2 0 0.4 0 0.5 0 c 1.1 0 2.2 0 3.3 0 c 0.2 0 0.3 0 0.5 0 c 0 6 0 11.9 0 17.8 c -0.3 0.1 -3.7 0.1 -4.4 0 c 0 -0.1 0 -0.3 0 -0.4 c 0 -5.7 0 -11.3 0 -17 C 117.9 60.1 118 59.9 118 59.8 L 118 59.8 z" style="stroke: none; stroke-width: 1; stroke-dasharray: none; stroke-linecap: butt; stroke-linejoin: miter; stroke-miterlimit: 4; fill: rgb(79,84,103); fill-rule: nonzero; opacity: 1;" transform="translate(53.55 2.19) translate(-120.1, -68.7375) " stroke-linecap="round" />
	<path d="M 117.9 50.9 c 0 2.9 0 5.8 0 8.7 c 0 0.1 0 0.1 0 0.2 l 0 0 c -0.1 0 -0.3 0.1 -0.4 0.1 c -2.8 0 -5.5 0 -8.3 0 c -0.1 0 -0.2 0 -0.3 0 c 0 -1.5 0 -2.9 0 -4.4 c 1.5 0 2.9 0 4.4 0 c 0 -1.5 0 -2.9 0 -4.5 C 115 50.9 116.5 50.9 117.9 50.9 L 117.9 50.9 z" style="stroke: none; stroke-width: 1; stroke-dasharray: none; stroke-linecap: butt; stroke-linejoin: miter; stroke-miterlimit: 4; fill: rgb(79,84,103); fill-rule: nonzero; opacity: 1;" transform="translate(46.85 -11.15) translate(-113.4, -55.4) " stroke-linecap="round" />
	<path d="M 64.3 86.6 c 1.5 0 3 0 4.5 0 c 0 0.2 0 0.4 0 0.6 c 0 2.6 0 5.2 0 7.8 c 0 0.2 0 0.4 0 0.6 l 0 0 c -1.5 0 -3 0 -4.5 0 c 0 -0.3 0 -0.5 0 -0.6 C 64.3 92.2 64.3 89.4 64.3 86.6 L 64.3 86.6 z" style="stroke: none; stroke-width: 1; stroke-dasharray: none; stroke-linecap: butt; stroke-linejoin: miter; stroke-miterlimit: 4; fill: rgb(79,84,103); fill-rule: nonzero; opacity: 1;" transform="translate(0 24.55) translate(-66.55, -91.1) " stroke-linecap="round" />
	<path d="M 55.4 19.6 c -0.1 0 -0.3 0 -0.4 0 c -2.7 0 -5.4 0 -8 0 c -0.1 0 -0.3 0 -0.5 0 c 0 -1.5 0 -2.9 0 -4.4 c 3 0 5.9 0 8.8 0 c 0 0 0 0.1 0 0.1 C 55.4 16.8 55.4 18.2 55.4 19.6 L 55.4 19.6 z" style="stroke: none; stroke-width: 1; stroke-dasharray: none; stroke-linecap: butt; stroke-linejoin: miter; stroke-miterlimit: 4; fill: rgb(79,84,103); fill-rule: nonzero; opacity: 1;" transform="translate(-15.6 -49.15) translate(-50.95, -17.400000000000002) " stroke-linecap="round" />
	<path d="M 100.1 86.6 c 0 -1.5 0 -2.9 0 -4.3 c 0.4 -0.1 8.3 -0.1 8.9 0 c 0 1.4 0 2.9 0 4.4 C 106 86.6 103.1 86.6 100.1 86.6 z" style="stroke: none; stroke-width: 1; stroke-dasharray: none; stroke-linecap: butt; stroke-linejoin: miter; stroke-miterlimit: 4; fill: rgb(79,84,103); fill-rule: nonzero; opacity: 1;" transform="translate(38 17.91) translate(-104.55, -84.4625) " stroke-linecap="round" />
	<path d="M 86.7 50.9 c 0 -1.5 0 -2.9 0 -4.4 c 0.3 -0.1 8.2 -0.1 8.8 0 c 0 1.4 0 2.9 0 4.4 c -0.1 0 -0.2 0 -0.3 0 c -2.8 0 -5.5 0 -8.3 0 C 86.9 50.9 86.8 50.9 86.7 50.9 L 86.7 50.9 z" style="stroke: none; stroke-width: 1; stroke-dasharray: none; stroke-linecap: butt; stroke-linejoin: miter; stroke-miterlimit: 4; fill: rgb(79,84,103); fill-rule: nonzero; opacity: 1;" transform="translate(24.55 -17.89) translate(-91.1, -48.662499999999994) " stroke-linecap="round" />
	<path d="M 86.7 82.2 c 0.1 0 0.2 0 0.3 0 c 2.7 0 5.4 0 8.1 0 c 0.1 0 0.2 0 0.4 0 c 0 1.5 0 2.9 0 4.4 c -3 0 -5.9 0 -8.8 0 c 0 0 -0.1 -0.1 -0.1 -0.1 C 86.7 85.1 86.7 83.7 86.7 82.2 L 86.7 82.2 z" style="stroke: none; stroke-width: 1; stroke-dasharray: none; stroke-linecap: butt; stroke-linejoin: miter; stroke-miterlimit: 4; fill: rgb(79,84,103); fill-rule: nonzero; opacity: 1;" transform="translate(24.5 17.85) translate(-91.05000000000001, -84.4) " stroke-linecap="round" />
	<path d="M 82.2 117.9 c 1.5 0 3 0 4.5 0 c 0 1.5 0 3 0 4.5 c -1.5 0 -2.9 0 -4.4 0 C 82.2 120.9 82.2 119.4 82.2 117.9 L 82.2 117.9 z" style="stroke: none; stroke-width: 1; stroke-dasharray: none; stroke-linecap: butt; stroke-linejoin: miter; stroke-miterlimit: 4; fill: rgb(79,84,103); fill-rule: nonzero; opacity: 1;" transform="translate(17.9 53.6) translate(-84.45, -120.15) " stroke-linecap="round" />
	<path d="M 82.2 42.1 c 0 -1.5 0 -3 0 -4.5 c 1.5 0 3 0 4.5 0 c 0 1.5 0 2.9 0 4.4 C 85.2 42 83.7 42 82.2 42.1 L 82.2 42.1 z" style="stroke: none; stroke-width: 1; stroke-dasharray: none; stroke-linecap: butt; stroke-linejoin: miter; stroke-miterlimit: 4; fill: rgb(79,84,103); fill-rule: nonzero; opacity: 1;" transform="translate(17.9 -26.7) translate(-84.45, -39.85) " stroke-linecap="round" />
	<path d="M 100.1 55.4 c 0 -0.1 -0.1 -0.2 -0.1 -0.3 c 0 -1.3 0 -2.6 0 -3.9 c 0 -0.1 0 -0.2 0 -0.3 c 1.5 0 2.9 0 4.4 0 c 0 1.5 0 2.9 0 4.4 c -0.2 0 -0.3 0 -0.5 0 c -1.1 0 -2.3 0 -3.4 0 C 100.4 55.4 100.3 55.4 100.1 55.4 L 100.1 55.4 z" style="stroke: none; stroke-width: 1; stroke-dasharray: none; stroke-linecap: butt; stroke-linejoin: miter; stroke-miterlimit: 4; fill: rgb(79,84,103); fill-rule: nonzero; opacity: 1;" transform="translate(35.65 -13.4) translate(-102.2, -53.150000000000006) " stroke-linecap="round" />
	<path d="M 100.1 59.8 c 1.5 0 2.9 0 4.3 0 c 0 0.1 0.1 0.1 0.1 0.2 c 0 1.5 0 2.9 0 4.4 l 0 0 c -1.5 0 -3 0 -4.4 0 l 0 0 c 0 -0.2 0 -0.3 0 -0.5 C 100.1 62.5 100.1 61.2 100.1 59.8 L 100.1 59.8 z" style="stroke: none; stroke-width: 1; stroke-dasharray: none; stroke-linecap: butt; stroke-linejoin: miter; stroke-miterlimit: 4; fill: rgb(79,84,103); fill-rule: nonzero; opacity: 1;" transform="translate(35.75 -4.45) translate(-102.29999999999998, -62.1) " stroke-linecap="round" />
	<path d="M 82.2 91.2 c 1.1 0 2.2 0 3.3 0 c 0.4 0 0.7 0 1.2 0 c 0 1.5 0 2.9 0 4.4 c -1.5 0.1 -3 0 -4.5 0 l 0 0 C 82.2 94.1 82.2 92.6 82.2 91.2 L 82.2 91.2 z" style="stroke: none; stroke-width: 1; stroke-dasharray: none; stroke-linecap: butt; stroke-linejoin: miter; stroke-miterlimit: 4; fill: rgb(79,84,103); fill-rule: nonzero; opacity: 1;" transform="translate(17.9 26.87) translate(-84.45, -93.42222222222223) " stroke-linecap="round" />
	<path d="M 51 28.5 c -0.1 0 -0.2 0.1 -0.3 0.1 c -1.3 0 -2.6 0 -3.9 0 c -0.1 0 -0.2 0 -0.3 0 c 0 -1.5 0 -2.9 0 -4.4 c 1.5 0 2.9 0 4.4 0 c 0 0.2 0 0.3 0 0.5 c 0 1.1 0 2.3 0 3.4 C 50.9 28.2 51 28.4 51 28.5 C 51 28.5 51 28.5 51 28.5 z" style="stroke: none; stroke-width: 1; stroke-dasharray: none; stroke-linecap: butt; stroke-linejoin: miter; stroke-miterlimit: 4; fill: rgb(79,84,103); fill-rule: nonzero; opacity: 1;" transform="translate(-17.8 -40.15) translate(-48.75, -26.400000000000002) " stroke-linecap="round" />
	<path d="M 77.8 91.2 c 0 -1.1 0 -2.2 0 -3.2 c 0 -0.4 0 -0.8 0 -1.3 c 1.5 0 2.9 0 4.4 0 c 0 0 0.1 0.1 0.1 0.1 c 0 1.5 0 2.9 0 4.4 l 0 0 C 80.7 91.2 79.2 91.2 77.8 91.2 L 77.8 91.2 z" style="stroke: none; stroke-width: 1; stroke-dasharray: none; stroke-linecap: butt; stroke-linejoin: miter; stroke-miterlimit: 4; fill: rgb(79,84,103); fill-rule: nonzero; opacity: 1;" transform="translate(13.5 22.4) translate(-80.05, -88.95) " stroke-linecap="round" />
	<path d="M 42 117.9 c 0 1.5 0 3 0 4.5 c -1.5 0 -2.9 0 -4.3 0 c 0 0 -0.1 -0.1 -0.1 -0.1 c 0 -1.5 0 -2.9 0 -4.4 l 0 0 C 39.1 117.9 40.5 117.9 42 117.9 L 42 117.9 z" style="stroke: none; stroke-width: 1; stroke-dasharray: none; stroke-linecap: butt; stroke-linejoin: miter; stroke-miterlimit: 4; fill: rgb(79,84,103); fill-rule: nonzero; opacity: 1;" transform="translate(-26.75 53.6) translate(-39.8, -120.15) " stroke-linecap="round" />
	<path d="M 59.9 19.6 c 0 -1.5 0 -2.9 0 -4.4 c 1.5 0 2.9 0 4.4 0 c 0 1.5 0 2.9 0 4.4 c 0 0 -0.1 0.1 -0.1 0.1 C 62.8 19.6 61.3 19.6 59.9 19.6 L 59.9 19.6 z" style="stroke: none; stroke-width: 1; stroke-dasharray: none; stroke-linecap: butt; stroke-linejoin: miter; stroke-miterlimit: 4; fill: rgb(79,84,103); fill-rule: nonzero; opacity: 1;" transform="translate(-4.45 -49.1) translate(-62.099999999999994, -17.450000000000003) " stroke-linecap="round" />
	<path d="M 118 50.9 c 0 -1.5 0 -2.9 0 -4.4 c 0.3 -0.1 3.8 -0.1 4.4 0 c 0 1.4 0 2.9 0 4.3 c 0 0 -0.1 0.1 -0.1 0.1 C 120.8 50.9 119.4 50.9 118 50.9 L 118 50.9 z" style="stroke: none; stroke-width: 1; stroke-dasharray: none; stroke-linecap: butt; stroke-linejoin: miter; stroke-miterlimit: 4; fill: rgb(79,84,103); fill-rule: nonzero; opacity: 1;" transform="translate(53.65 -17.89) translate(-120.2, -48.662499999999994) " stroke-linecap="round" />
	<path d="M 15.2 86.6 c -1.5 0 -2.9 0 -4.4 0 c -0.1 -0.3 -0.1 -3.7 0 -4.4 c 0 0 0.1 0 0.1 0 c 1.4 0 2.9 0 4.3 0 l 0 0 C 15.2 83.7 15.2 85.2 15.2 86.6 L 15.2 86.6 z" style="stroke: none; stroke-width: 1; stroke-dasharray: none; stroke-linecap: butt; stroke-linejoin: miter; stroke-miterlimit: 4; fill: rgb(79,84,103); fill-rule: nonzero; opacity: 1;" transform="translate(-53.59 17.85) translate(-12.962499999999999, -84.39999999999999) " stroke-linecap="round" />
	<path d="M 15.2 108.9 c -1.5 0 -2.9 0 -4.4 0 c 0 -1.5 0 -2.9 0 -4.3 c 0.1 0 0.1 -0.1 0.1 -0.1 c 1.4 0 2.9 0 4.3 0 l 0 0 C 15.2 106 15.2 107.5 15.2 108.9 L 15.2 108.9 z" style="stroke: none; stroke-width: 1; stroke-dasharray: none; stroke-linecap: butt; stroke-linejoin: miter; stroke-miterlimit: 4; fill: rgb(79,84,103); fill-rule: nonzero; opacity: 1;" transform="translate(-53.55 40.15) translate(-13, -106.70000000000002) " stroke-linecap="round" />
	<path d="M 55.4 86.6 c 1.1 0 2.2 0 3.3 0 c 0.4 0 0.8 0 1.3 0 c 0 1.3 0 2.6 0 3.9 c 0 0.2 0 0.4 0 0.6 c -1.5 0 -3 0 -4.5 0 c 0 -0.2 0 -0.3 0 -0.5 c 0 -1.1 0 -2.3 0 -3.4 C 55.4 87 55.4 86.8 55.4 86.6 z" style="stroke: none; stroke-width: 1; stroke-dasharray: none; stroke-linecap: butt; stroke-linejoin: miter; stroke-miterlimit: 4; fill: rgb(79,84,103); fill-rule: nonzero; opacity: 1;" transform="translate(-8.85 22.3) translate(-57.699999999999996, -88.85) " stroke-linecap="round" />
	<path d="M 41.9 95.5 c -1.4 0 -2.9 0 -4.4 0 c 0 -1.5 0 -2.9 0 -4.4 c 1.5 0 2.9 0 4.3 0 C 42 91.5 42 94.9 41.9 95.5 z" style="stroke: none; stroke-width: 1; stroke-dasharray: none; stroke-linecap: butt; stroke-linejoin: miter; stroke-miterlimit: 4; fill: rgb(79,84,103); fill-rule: nonzero; opacity: 1;" transform="translate(-26.82 26.75) translate(-39.73284271247462, -93.3) " stroke-linecap="round" />
	<path d="M 100.1 33.1 c 0 -4.5 0 -8.9 0 -13.4 c 4.4 0 8.9 0 13.3 0 c 0.1 0.4 0.1 12.7 0 13.4 C 109 33.1 104.6 33.1 100.1 33.1 z" style="stroke: none; stroke-width: 1; stroke-dasharray: none; stroke-linecap: butt; stroke-linejoin: miter; stroke-miterlimit: 4; fill: rgb(79,84,103); fill-rule: nonzero; opacity: 1;" transform="translate(40.24 -40.15) translate(-106.7875, -26.400000000000002) " stroke-linecap="round" />
	<path d="M 33.1 33.1 c -4.5 0 -8.9 0 -13.3 0 c 0 -4.5 0 -8.9 0 -13.4 c 4.5 0 8.9 0 13.3 0 C 33.1 24.2 33.1 28.6 33.1 33.1 z" style="stroke: none; stroke-width: 1; stroke-dasharray: none; stroke-linecap: butt; stroke-linejoin: miter; stroke-miterlimit: 4; fill: rgb(79,84,103); fill-rule: nonzero; opacity: 1;" transform="translate(-40.1 -40.15) translate(-26.450000000000003, -26.400000000000002) " stroke-linecap="round" />
	<path d="M 113.4 100 c 0 4.5 0 8.9 0 13.4 c -4.5 0 -8.9 0 -13.3 0 c 0 -4.5 0 -8.9 0 -13.4 C 104.5 100 109 100 113.4 100 z" style="stroke: none; stroke-width: 1; stroke-dasharray: none; stroke-linecap: butt; stroke-linejoin: miter; stroke-miterlimit: 4; fill: rgb(79,84,103); fill-rule: nonzero; opacity: 1;" transform="translate(40.2 40.15) translate(-106.75, -106.7) " stroke-linecap="round" />
</g>
<g transform="translate(91.2 381.72) scale(0.6 0.6)" style="">
	<path d="M 63.6 57.6 C 68.8 41 69.9 23.2 67 6 c -5.1 -1.8 -10.5 -2.8 -16.2 -2.8 c -12.8 0 -24.5 5 -33.2 13.1 c 7.1 2.4 13.9 6.1 19.8 10.2 C 48.9 34.5 58 46.3 63.6 57.6 z" style="stroke: none; stroke-width: 1; stroke-dasharray: none; stroke-linecap: butt; stroke-linejoin: miter; stroke-miterlimit: 4; fill: rgb(255,255,255); fill-rule: nonzero; opacity: 1;" transform="translate(-7.81 -19.7) translate(-43.08607180492223, -30.4) " stroke-linecap="round" />
	<path d="M 84.6 17 C 82.1 42.8 74.5 68 62 90.7 C 49.6 68.2 28.2 48.5 3.8 39.6 c -1 3.9 -1.5 8 -1.5 12.2 c 0 26.8 21.7 48.5 48.5 48.5 s 48.5 -21.7 48.5 -48.5 C 99.2 38.1 93.6 25.8 84.6 17 z" style="stroke: none; stroke-width: 1; stroke-dasharray: none; stroke-linecap: butt; stroke-linejoin: miter; stroke-miterlimit: 4; fill: rgb(255,255,255); fill-rule: nonzero; opacity: 1;" transform="translate(-0.1 8.55) translate(-50.8, -58.65) " stroke-linecap="round" />
</g>
	<g transform="translate(97.88 443.09) scale(3.72 3.72)">
		<text xml:space="preserve" font-family="Open Sans" font-size="6" font-style="normal" font-weight="bold" style="stroke: none; stroke-width: 1; stroke-dasharray: none; stroke-linecap: butt; stroke-linejoin: miter; stroke-miterlimit: 4; fill: rgb(255,255,255); fill-rule: nonzero; opacity: 1; white-space: pre;" ><tspan x="-16.58" y="1.88" >LOGO TEXT</tspan></text>
	</g>
	<g transform="translate(100.07 465.08) scale(3.72 3.72)">
		<text xml:space="preserve" font-family="Roboto" font-size="3" font-style="normal" font-weight="normal" style="stroke: none; stroke-width: 1; stroke-dasharray: none; stroke-linecap: butt; stroke-linejoin: miter; stroke-miterlimit: 4; fill: rgb(255,255,255); fill-rule: nonzero; opacity: 1; white-space: pre;" ><tspan x="-15.76" y="0.94" >B</tspan><tspan x="-13.8" y="0.94" >U</tspan><tspan x="-11.76" y="0.94" >S</tspan><tspan x="-9.88" y="0.94" >I</tspan><tspan x="-8.97" y="0.94" >N</tspan><tspan x="-6.74" y="0.94" >E</tspan><tspan x="-4.94" y="0.94" >S</tspan><tspan x="-3.06" y="0.94" >S</tspan><tspan x="-1.18" y="0.94" >L</tspan><tspan x="0.53" y="0.94" >I</tspan><tspan x="1.44" y="0.94" >N</tspan><tspan x="3.67" y="0.94" >E</tspan><tspan x="5.47" y="0.94" style="white-space: pre; "> </tspan><tspan x="6.31" y="0.94" >S</tspan><tspan x="8.19" y="0.94" >P</tspan><tspan x="9.97" y="0.94" >A</tspan><tspan x="12.01" y="0.94" >C</tspan><tspan x="14.06" y="0.94" >E</tspan></text>
	</g>
	<g transform="translate(306.24 118.16) scale(5.1 5.1)">
		<text xml:space="preserve" font-family="Open Sans" font-size="9" font-style="normal" font-weight="bold" style="stroke: none; stroke-width: 1; stroke-dasharray: none; stroke-linecap: butt; stroke-linejoin: miter; stroke-miterlimit: 4; fill: rgb(2,32,95); fill-rule: nonzero; opacity: 1; white-space: pre;" ><tspan x="-27.46" y="2.83" >YOUR NAME</tspan></text>
	</g>
	<g transform="translate(305.5 159.88) scale(5.1 4.69)">
		<text xml:space="preserve" font-family="Open Sans" font-size="6" font-style="normal" font-weight="normal" style="stroke: none; stroke-width: 1; stroke-dasharray: none; stroke-linecap: butt; stroke-linejoin: miter; stroke-miterlimit: 4; fill: rgb(46,178,255); fill-rule: nonzero; opacity: 1; white-space: pre;" ><tspan x="-25.32" y="1.88" >y</tspan><tspan x="-21.16" y="1.88" >o</tspan><tspan x="-16.39" y="1.88" >u</tspan><tspan x="-11.57" y="1.88" >r</tspan><tspan x="-7.98" y="1.88" style="white-space: pre; "> </tspan><tspan x="-5.28" y="1.88" >p</tspan><tspan x="-0.47" y="1.88" >o</tspan><tspan x="4.3" y="1.88" >s</tspan><tspan x="8.3" y="1.88" >i</tspan><tspan x="10.96" y="1.88" >t</tspan><tspan x="14.22" y="1.88" >i</tspan><tspan x="16.87" y="1.88" >o</tspan><tspan x="21.64" y="1.88" >n</tspan></text>
	</g>
<g transform="translate(678.7 265.87) scale(0.82 0.82)" style="">
	<path d="M 25.6 53.4 L 25.6 53.4 C 11.5 53.4 0 41.9 0 27.8 l 0 0 C 0 13.7 11.5 2.2 25.6 2.2 l 0 0 c 14.1 0 25.6 11.5 25.6 25.6 l 0 0 C 51.2 41.9 39.7 53.4 25.6 53.4 z" style="stroke: none; stroke-width: 1; stroke-dasharray: none; stroke-linecap: butt; stroke-linejoin: miter; stroke-miterlimit: 4; fill: rgb(2,32,95); fill-rule: nonzero; opacity: 1;" transform="translate(0 1.1) translate(-25.6, -27.799999999999997) " stroke-linecap="round" />
	<path d="M 25.6 13.8 c -5.1 0 -9.3 4.2 -9.3 9.3 c 0 2.1 1.3 5.4 4 10.3 c 1.9 3.4 3.8 6.3 3.9 6.4 l 1.4 2.1 l 1.4 -2.1 c 0.1 -0.1 2 -3 3.9 -6.4 c 2.7 -4.9 4 -8.2 4 -10.3 C 34.9 17.9 30.7 13.8 25.6 13.8 L 25.6 13.8 z M 25.6 27.8 c -2.7 0 -4.8 -2.2 -4.8 -4.8 c 0 -2.7 2.2 -4.8 4.8 -4.8 c 2.7 0 4.8 2.2 4.8 4.8 C 30.4 25.7 28.2 27.8 25.6 27.8 L 25.6 27.8 z M 25.6 27.8" style="stroke: none; stroke-width: 1; stroke-dasharray: none; stroke-linecap: butt; stroke-linejoin: miter; stroke-miterlimit: 4; fill: rgb(255,255,255); fill-rule: nonzero; opacity: 1;" transform="translate(0 1.15) translate(-25.599999999999994, -27.85) " stroke-linecap="round" />
</g>
<g transform="translate(678.69 321.12) scale(0.82 0.82)" style="">
	<path d="M 28.3 51.2 L 28.3 51.2 c -14.1 0 -25.6 -11.5 -25.6 -25.6 l 0 0 C 2.7 11.5 14.1 0 28.3 0 l 0 0 c 14.1 0 25.6 11.5 25.6 25.6 l 0 0 C 53.8 39.7 42.4 51.2 28.3 51.2 z" style="stroke: none; stroke-width: 1; stroke-dasharray: none; stroke-linecap: butt; stroke-linejoin: miter; stroke-miterlimit: 4; fill: rgb(0,125,176); fill-rule: nonzero; opacity: 1;" transform="translate(1.4 0.2) translate(-28.3, -25.6) " stroke-linecap="round" />
	<path d="M 42.3 32.6 c 0 0.6 -0.2 1.2 -0.5 1.7 L 33 24.4 l 8.8 -7.7 c 0.3 0.5 0.5 1.2 0.5 1.9 V 32.6 z M 28.3 26.2 l 12.2 -10.7 C 40 15.2 39.4 15 38.8 15 H 17.7 c -0.6 0 -1.2 0.2 -1.7 0.4 L 28.3 26.2 z M 31.7 25.5 L 28.8 28 c -0.2 0.1 -0.4 0.2 -0.6 0.2 c -0.2 0 -0.4 -0.1 -0.6 -0.2 l -2.8 -2.5 l -9 10.1 c 0.5 0.3 1.2 0.5 1.9 0.5 h 21.1 c 0.7 0 1.3 -0.2 1.9 -0.5 L 31.7 25.5 z M 14.8 16.7 c -0.3 0.5 -0.5 1.2 -0.5 1.9 v 14 c 0 0.6 0.2 1.2 0.5 1.7 l 8.9 -9.9 L 14.8 16.7 z M 14.8 16.7" style="stroke: none; stroke-width: 1; stroke-dasharray: none; stroke-linecap: butt; stroke-linejoin: miter; stroke-miterlimit: 4; fill: rgb(255,255,255); fill-rule: nonzero; opacity: 1;" transform="translate(1.4 0.15) translate(-28.299999999999997, -25.55) " stroke-linecap="round" />
</g>
<g transform="translate(680.06 376.68) scale(0.82 0.82)" style="">
	<path d="M 29.1 51.2 L 29.1 51.2 C 15 51.2 3.5 39.7 3.5 25.6 v 0 C 3.5 11.5 15 0 29.1 0 l 0 0 c 14.1 0 25.6 11.5 25.6 25.6 v 0 C 54.7 39.7 43.2 51.2 29.1 51.2 z" style="stroke: none; stroke-width: 1; stroke-dasharray: none; stroke-linecap: butt; stroke-linejoin: miter; stroke-miterlimit: 4; fill: rgb(0,174,239); fill-rule: nonzero; opacity: 1;" transform="translate(1.75 0) translate(-29.1, -25.6) " stroke-linecap="round" />
	<path d="M 43.1 33.7 c 0.1 0.5 -0.1 0.9 -0.4 1.2 l -4 3.9 c -0.2 0.2 -0.4 0.4 -0.7 0.5 c -0.3 0.1 -0.6 0.2 -0.8 0.3 c 0 0 -0.1 0 -0.2 0 c -0.1 0 -0.2 0 -0.4 0 c -0.4 0 -1 -0.1 -1.8 -0.2 c -0.8 -0.1 -1.9 -0.4 -3.1 -1 c -1.2 -0.5 -2.6 -1.3 -4.2 -2.3 c -1.5 -1 -3.2 -2.4 -4.9 -4.2 c -1.4 -1.4 -2.5 -2.7 -3.5 -3.9 c -0.9 -1.3 -1.6 -2.4 -2.2 -3.5 c -0.6 -1.1 -1 -2 -1.3 -2.9 c -0.3 -0.9 -0.5 -1.6 -0.6 -2.2 c -0.1 -0.6 -0.1 -1.1 -0.1 -1.5 c 0 -0.4 0 -0.6 0 -0.6 c 0 -0.3 0.1 -0.6 0.3 -0.8 c 0.1 -0.3 0.3 -0.5 0.5 -0.7 l 4 -4 c 0.3 -0.3 0.6 -0.4 1 -0.4 c 0.3 0 0.5 0.1 0.7 0.2 c 0.2 0.1 0.4 0.3 0.5 0.6 l 3.2 6 c 0.2 0.3 0.2 0.7 0.1 1 c -0.1 0.4 -0.2 0.7 -0.5 1 l -1.5 1.5 c 0 0 -0.1 0.1 -0.1 0.2 c 0 0.1 0 0.2 0 0.2 c 0.1 0.4 0.3 0.9 0.5 1.4 c 0.2 0.5 0.6 1.1 1.1 1.7 c 0.5 0.7 1.2 1.5 2.1 2.4 c 0.9 0.9 1.7 1.6 2.4 2.1 c 0.7 0.5 1.3 0.9 1.7 1.1 c 0.5 0.2 0.8 0.4 1.1 0.4 l 0.4 0.1 c 0 0 0.1 0 0.2 0 c 0.1 0 0.2 -0.1 0.2 -0.1 l 1.7 -1.7 c 0.4 -0.3 0.8 -0.5 1.3 -0.5 c 0.3 0 0.6 0.1 0.8 0.2 h 0 l 5.7 3.4 C 42.8 33 43.1 33.3 43.1 33.7 L 43.1 33.7 z M 43.1 33.7" style="stroke: none; stroke-width: 1; stroke-dasharray: none; stroke-linecap: butt; stroke-linejoin: miter; stroke-miterlimit: 4; fill: rgb(255,255,255); fill-rule: nonzero; opacity: 1;" transform="translate(1.66 -0.1) translate(-29.013006479436307, -25.5) " stroke-linecap="round" />
</g>
<g transform="translate(682.4 429.32) scale(0.82 0.82)" style="">
	<path d="M 28.2 53.6 L 28.2 53.6 c -14.1 0 -25.6 -11.5 -25.6 -25.6 l 0 0 c 0 -14.1 11.5 -25.6 25.6 -25.6 l 0 0 c 14.1 0 25.6 11.5 25.6 25.6 l 0 0 C 53.8 42.2 42.3 53.6 28.2 53.6 z" style="stroke: none; stroke-width: 1; stroke-dasharray: none; stroke-linecap: butt; stroke-linejoin: miter; stroke-miterlimit: 4; fill: rgb(0,61,123); fill-rule: nonzero; opacity: 1;" transform="translate(0 0.25) translate(-28.2, -28) " stroke-linecap="round" />
	<path d="M 28.2 14 c -7.7 0 -14 6.3 -14 14 c 0 7.7 6.3 14 14 14 c 7.7 0 14 -6.3 14 -14 C 42.2 20.3 35.9 14 28.2 14 L 28.2 14 z M 37.9 22.4 h -4.1 c -0.4 -1.8 -1.1 -3.4 -2 -5.1 C 34.4 18.4 36.6 20.1 37.9 22.4 L 37.9 22.4 z M 28.2 16.8 c 1.1 1.7 2.1 3.5 2.7 5.6 h -5.3 C 26.1 20.5 27.1 18.5 28.2 16.8 L 28.2 16.8 z M 17.4 30.9 c -0.3 -0.8 -0.4 -1.8 -0.4 -2.8 c 0 -1 0.1 -2 0.4 -2.8 h 4.8 c -0.1 1 -0.1 1.8 -0.1 2.8 c 0 1 0.1 1.8 0.1 2.8 H 17.4 z M 18.5 33.7 h 4.1 c 0.4 1.8 1.1 3.4 2 5.1 C 22 37.8 19.8 36.1 18.5 33.7 L 18.5 33.7 z M 22.6 22.4 h -4.1 c 1.4 -2.4 3.5 -4.1 6 -5.1 C 23.7 19.1 23 20.6 22.6 22.4 L 22.6 22.4 z M 28.2 39.3 c -1.1 -1.7 -2.1 -3.5 -2.7 -5.6 h 5.3 C 30.3 35.7 29.3 37.6 28.2 39.3 L 28.2 39.3 z M 31.4 30.9 H 25 c -0.1 -1 -0.3 -1.8 -0.3 -2.8 c 0 -1 0.1 -1.8 0.3 -2.8 h 6.6 c 0.1 1 0.3 1.8 0.3 2.8 C 31.8 29 31.6 29.9 31.4 30.9 L 31.4 30.9 z M 31.8 38.7 c 0.8 -1.5 1.6 -3.2 2 -5.1 h 4.1 C 36.6 36.1 34.4 37.8 31.8 38.7 L 31.8 38.7 z M 34.4 30.9 c 0.1 -1 0.1 -1.8 0.1 -2.8 c 0 -1 -0.1 -1.8 -0.1 -2.8 h 4.8 c 0.3 0.8 0.4 1.8 0.4 2.8 c 0 1 -0.1 2 -0.4 2.8 H 34.4 z M 34.4 30.9" style="stroke: none; stroke-width: 1; stroke-dasharray: none; stroke-linecap: butt; stroke-linejoin: miter; stroke-miterlimit: 4; fill: rgb(255,255,255); fill-rule: nonzero; opacity: 1;" transform="translate(0 0.25) translate(-28.200000000000003, -28) " stroke-linecap="round" />
</g>
	<g transform="translate(480.68 268.14) scale(3.72 3.72)">
		<text xml:space="preserve" font-family="Open Sans" font-size="5" font-style="normal" font-weight="normal" style="stroke: none; stroke-width: 1; stroke-dasharray: none; stroke-linecap: butt; stroke-linejoin: miter; stroke-miterlimit: 4; fill: rgb(0,61,123); fill-rule: nonzero; opacity: 1; white-space: pre;" ><tspan x="-42.94" y="1.57" >23 Silicon Valley Lorem st, Ipsum City</tspan></text>
	</g>
	<g transform="translate(530.1 324.02) scale(3.72 3.72)">
		<text xml:space="preserve" font-family="Open Sans" font-size="5" font-style="normal" font-weight="normal" style="stroke: none; stroke-width: 1; stroke-dasharray: none; stroke-linecap: butt; stroke-linejoin: miter; stroke-miterlimit: 4; fill: rgb(0,61,123); fill-rule: nonzero; opacity: 1; white-space: pre;" ><tspan x="-29.01" y="1.57" >Noble@loremipsum.com</tspan></text>
	</g>
	<g transform="translate(592.52 379.15) scale(3.72 3.72)">
		<text xml:space="preserve" font-family="Open Sans" font-size="5" font-style="normal" font-weight="normal" style="stroke: none; stroke-width: 1; stroke-dasharray: none; stroke-linecap: butt; stroke-linejoin: miter; stroke-miterlimit: 4; fill: rgb(0,61,123); fill-rule: nonzero; opacity: 1; white-space: pre;" ><tspan x="-12.77" y="1.57" >07.898.369</tspan></text>
	</g>
	<g transform="translate(564.18 432.04) scale(3.72 3.72)">
		<text xml:space="preserve" font-family="Open Sans" font-size="5" font-style="normal" font-weight="normal" style="stroke: none; stroke-width: 1; stroke-dasharray: none; stroke-linecap: butt; stroke-linejoin: miter; stroke-miterlimit: 4; fill: rgb(0,61,123); fill-rule: nonzero; opacity: 1; white-space: pre;" ><tspan x="-21.76" y="1.57" >yourcompany.com</tspan></text>
	</g>
</svg>