<?xml version="1.0" encoding="UTF-8" standalone="no" ?>
<!DOCTYPE svg PUBLIC "-//W3C//DTD SVG 1.1//EN" "http://www.w3.org/Graphics/SVG/1.1/DTD/svg11.dtd">
<svg xmlns="http://www.w3.org/2000/svg" xmlns:xlink="http://www.w3.org/1999/xlink" version="1.1" width="1201" height="901" viewBox="0 0 374.31 280.81" xml:space="preserve">
<desc>Created with Fabric.js 2.3.3</desc>
<defs>
</defs>
<g transform="translate(164.5 109.67) scale(0.42 0.42)" style="">
	<path d="M 417.111 159.839 H 0 V 0 h 417.111 V 159.839 z" style="stroke: none; stroke-width: 1; stroke-dasharray: none; stroke-linecap: butt; stroke-linejoin: miter; stroke-miterlimit: 4; fill: rgb(255,255,255); fill-rule: nonzero; opacity: 1;" transform="translate(0 0) translate(-208.5555, -79.9195) " stroke-linecap="round" />
	<path d="M 417.111 159.839 V 0 H 271.793 c -32.431 23.767 -60.676 53.248 -82.648 86.928 c -14.186 21.745 -26.007 45.356 -43.935 64.135 c -2.958 3.099 -6.053 6.008 -9.248 8.775 H 417.111 z" style="stroke: none; stroke-width: 1; stroke-dasharray: none; stroke-linecap: butt; stroke-linejoin: miter; stroke-miterlimit: 4; fill: rgb(255,87,77); fill-rule: nonzero; opacity: 1;" transform="translate(67.98 0) translate(-276.53650000000005, -79.9195) " stroke-linecap="round" />
	<path d="M 417.111 90.727 l -242.869 20.27 c -8.659 14.162 -17.604 28.096 -29.032 40.066 c -2.958 3.099 -6.053 6.008 -9.248 8.775 h 281.149 V 90.727 z" style="stroke: none; stroke-width: 1; stroke-dasharray: none; stroke-linecap: butt; stroke-linejoin: miter; stroke-miterlimit: 4; fill: rgb(255,109,99); fill-rule: nonzero; opacity: 1;" transform="translate(67.98 45.36) translate(-276.5365, -125.2825) " stroke-linecap="round" />
	<path d="M 417.111 45.976 V 0 h -59.029 L 244.183 22.559 c -14.07 12.767 -27.065 26.708 -38.769 41.668 L 417.111 45.976 z" style="stroke: none; stroke-width: 1; stroke-dasharray: none; stroke-linecap: butt; stroke-linejoin: miter; stroke-miterlimit: 4; fill: rgb(255,109,99); fill-rule: nonzero; opacity: 1;" transform="translate(102.71 -47.81) translate(-311.2625, -32.1135) " stroke-linecap="round" />
	<polygon points="112.15,9.27 112.15,-16.48 -112.15,16.48 " style="stroke: none; stroke-width: 1; stroke-dasharray: none; stroke-linecap: butt; stroke-linejoin: miter; stroke-miterlimit: 4; fill: rgb(255,109,99); fill-rule: nonzero; opacity: 1;" transform="translate(96.4 -5.97) "/>
	<path d="M 162.682 158.559 c 16.28 -20.225 26.066 -44.75 38.366 -67.614 C 219.471 56.699 244.083 25.886 273.094 0 h -1.302 c -32.431 23.767 -60.676 53.248 -82.648 86.928 c -14.186 21.745 -26.007 45.356 -43.935 64.135 c -2.958 3.099 -6.053 6.008 -9.248 8.775 h 25.661 C 161.976 159.412 162.334 158.991 162.682 158.559 z" style="stroke: none; stroke-width: 1; stroke-dasharray: none; stroke-linecap: butt; stroke-linejoin: miter; stroke-miterlimit: 4; fill: rgb(79,84,103); fill-rule: nonzero; opacity: 0.1;" transform="translate(-4.03 0) translate(-204.52749999999997, -79.919) " stroke-linecap="round" />
	<path d="M 53.793 0 H 0 v 49.092 C 16.095 30.864 34.171 14.38 53.793 0 z" style="stroke: none; stroke-width: 1; stroke-dasharray: none; stroke-linecap: butt; stroke-linejoin: miter; stroke-miterlimit: 4; fill: rgb(255,87,77); fill-rule: nonzero; opacity: 1;" transform="translate(-181.66 -55.37) translate(-26.8965, -24.546) " stroke-linecap="round" />
	<path d="M 0 18.027 v 8.044 l 25.754 -3.128 c 5.719 -5.21 11.632 -10.205 17.693 -15.015 L 0 18.027 z" style="stroke: none; stroke-width: 1; stroke-dasharray: none; stroke-linecap: butt; stroke-linejoin: miter; stroke-miterlimit: 4; fill: rgb(255,109,99); fill-rule: nonzero; opacity: 1;" transform="translate(-186.83 -62.92) translate(-21.7235, -16.9995) " stroke-linecap="round" />
	<path d="M 0 38.265 v 10.827 C 16.095 30.864 34.171 14.38 53.793 0 C 34.67 10.967 16.633 23.811 0 38.265 z" style="stroke: none; stroke-width: 1; stroke-dasharray: none; stroke-linecap: butt; stroke-linejoin: miter; stroke-miterlimit: 4; fill: rgb(79,84,103); fill-rule: nonzero; opacity: 0.1;" transform="translate(-181.66 -55.37) translate(-26.8965, -24.546) " stroke-linecap="round" />
	<path d="M 124.373 83.104 c -3.364 -28.482 -15.69 -49.611 -30.39 -49.611 c -14.699 0 -27.026 21.129 -30.389 49.611 H 124.373 z" style="stroke: none; stroke-width: 1; stroke-dasharray: none; stroke-linecap: butt; stroke-linejoin: miter; stroke-miterlimit: 4; fill: rgb(246,175,51); fill-rule: nonzero; opacity: 1;" transform="translate(-114.57 -21.62) translate(-93.9835, -58.298500000000004) " stroke-linecap="round" />
	<path d="M 67.797 63.019 c -0.178 0.567 -0.35 1.143 -0.52 1.722 c 8.783 -0.334 17.695 -0.504 26.706 -0.504 c 9.011 0 17.923 0.17 26.706 0.504 c -0.17 -0.579 -0.341 -1.155 -0.52 -1.722 c -8.599 -0.324 -17.338 -0.493 -26.186 -0.493 C 85.135 62.526 76.396 62.695 67.797 63.019 z" style="stroke: none; stroke-width: 1; stroke-dasharray: none; stroke-linecap: butt; stroke-linejoin: miter; stroke-miterlimit: 4; fill: rgb(87,133,0); fill-rule: nonzero; opacity: 1;" transform="translate(-114.57 -16.29) translate(-93.983, -63.6335) " stroke-linecap="round" />
	<path d="M 66.565 67.292 c -0.299 1.133 -0.585 2.283 -0.852 3.456 c 9.289 -0.375 18.721 -0.572 28.27 -0.572 c 9.549 0 18.981 0.197 28.271 0.572 c -0.268 -1.172 -0.553 -2.323 -0.852 -3.456 c -8.996 -0.356 -18.149 -0.538 -27.418 -0.538 C 84.714 66.754 75.561 66.937 66.565 67.292 z" style="stroke: none; stroke-width: 1; stroke-dasharray: none; stroke-linecap: butt; stroke-linejoin: miter; stroke-miterlimit: 4; fill: rgb(255,89,44); fill-rule: nonzero; opacity: 1;" transform="translate(-114.57 -11.17) translate(-93.98349999999999, -68.751) " stroke-linecap="round" />
	<path d="M 93.983 33.492 c -2.827 0 -5.565 0.789 -8.17 2.254 c 10.938 6.153 19.503 24.353 22.22 47.358 h 16.34 C 121.009 54.621 108.682 33.492 93.983 33.492 z" style="stroke: none; stroke-width: 1; stroke-dasharray: none; stroke-linecap: butt; stroke-linejoin: miter; stroke-miterlimit: 4; fill: rgb(79,84,103); fill-rule: nonzero; opacity: 0.1;" transform="translate(-103.46 -21.62) translate(-105.093, -58.29799999999999) " stroke-linecap="round" />
	<path d="M 138.306 114.405 H 49.66 c -2.98 0 -5.668 -1.789 -6.819 -4.537 l -6.917 -16.516 c -2.04 -4.871 1.538 -10.249 6.819 -10.249 h 102.48 c 5.281 0 8.859 5.377 6.819 10.249 l -6.917 16.516 C 143.974 112.617 141.286 114.405 138.306 114.405 z" style="stroke: none; stroke-width: 1; stroke-dasharray: none; stroke-linecap: butt; stroke-linejoin: miter; stroke-miterlimit: 4; fill: rgb(246,175,51); fill-rule: nonzero; opacity: 1;" transform="translate(-114.57 18.83) translate(-93.983, -98.754) " stroke-linecap="round" />
	<path d="M 147.021 102.264 l -8.84 8.84 l -8.84 -8.84 l -8.84 8.84 l -8.84 -8.84 l -8.84 8.84 l -8.84 -8.84 l -8.84 8.84 l -8.84 -8.84 l -8.84 8.84 l -8.84 -8.84 l -8.84 8.84 l -8.84 -8.84 l -0.908 0.908 l 2.804 6.696 c 1.151 2.748 3.839 4.537 6.819 4.537 h 88.646 c 2.98 0 5.668 -1.789 6.819 -4.537 l 2.804 -6.696 L 147.021 102.264 z" style="stroke: none; stroke-width: 1; stroke-dasharray: none; stroke-linecap: butt; stroke-linejoin: miter; stroke-miterlimit: 4; fill: rgb(255,89,44); fill-rule: nonzero; opacity: 1;" transform="translate(-114.58 28.41) translate(-93.97899999999996, -108.33449999999999) " stroke-linecap="round" />
	<path d="M 42.743 88.641 h 102.48 c 3.204 0 5.772 1.984 6.847 4.629 c 1.966 -4.849 -1.596 -10.166 -6.847 -10.166 H 42.743 c -5.252 0 -8.814 5.317 -6.847 10.166 C 36.972 90.625 39.539 88.641 42.743 88.641 z" style="stroke: none; stroke-width: 1; stroke-dasharray: none; stroke-linecap: butt; stroke-linejoin: miter; stroke-miterlimit: 4; fill: rgb(87,133,0); fill-rule: nonzero; opacity: 1;" transform="translate(-114.57 8.27) translate(-93.98276873766123, -88.18700000000001) " stroke-linecap="round" />
	<path d="M 50.89 104.292 c 0 1.004 -0.814 1.818 -1.818 1.818 c -1.004 0 -1.818 -0.814 -1.818 -1.818 c 0 -1.004 0.814 -1.818 1.818 -1.818 C 50.076 102.474 50.89 103.288 50.89 104.292 z" style="stroke: none; stroke-width: 1; stroke-dasharray: none; stroke-linecap: butt; stroke-linejoin: miter; stroke-miterlimit: 4; fill: rgb(87,133,0); fill-rule: nonzero; opacity: 1;" transform="translate(-159.48 24.37) translate(-49.072, -104.292) " stroke-linecap="round" />
	<path d="M 68.854 104.292 c 0 1.004 -0.814 1.818 -1.818 1.818 s -1.818 -0.814 -1.818 -1.818 c 0 -1.004 0.814 -1.818 1.818 -1.818 S 68.854 103.288 68.854 104.292 z" style="stroke: none; stroke-width: 1; stroke-dasharray: none; stroke-linecap: butt; stroke-linejoin: miter; stroke-miterlimit: 4; fill: rgb(87,133,0); fill-rule: nonzero; opacity: 1;" transform="translate(-141.52 24.37) translate(-67.036, -104.292) " stroke-linecap="round" />
	<path d="M 86.819 104.292 c 0 1.004 -0.814 1.818 -1.818 1.818 s -1.818 -0.814 -1.818 -1.818 c 0 -1.004 0.814 -1.818 1.818 -1.818 S 86.819 103.288 86.819 104.292 z" style="stroke: none; stroke-width: 1; stroke-dasharray: none; stroke-linecap: butt; stroke-linejoin: miter; stroke-miterlimit: 4; fill: rgb(87,133,0); fill-rule: nonzero; opacity: 1;" transform="translate(-123.55 24.37) translate(-85.001, -104.292) " stroke-linecap="round" />
	<path d="M 104.783 104.292 c 0 1.004 -0.814 1.818 -1.818 1.818 s -1.818 -0.814 -1.818 -1.818 c 0 -1.004 0.814 -1.818 1.818 -1.818 S 104.783 103.288 104.783 104.292 z" style="stroke: none; stroke-width: 1; stroke-dasharray: none; stroke-linecap: butt; stroke-linejoin: miter; stroke-miterlimit: 4; fill: rgb(87,133,0); fill-rule: nonzero; opacity: 1;" transform="translate(-105.59 24.37) translate(-102.965, -104.292) " stroke-linecap="round" />
	<path d="M 122.748 104.292 c 0 1.004 -0.814 1.818 -1.818 1.818 s -1.818 -0.814 -1.818 -1.818 c 0 -1.004 0.814 -1.818 1.818 -1.818 S 122.748 103.288 122.748 104.292 z" style="stroke: none; stroke-width: 1; stroke-dasharray: none; stroke-linecap: butt; stroke-linejoin: miter; stroke-miterlimit: 4; fill: rgb(87,133,0); fill-rule: nonzero; opacity: 1;" transform="translate(-87.63 24.37) translate(-120.93, -104.292) " stroke-linecap="round" />
	<path d="M 140.712 104.292 c 0 1.004 -0.814 1.818 -1.818 1.818 s -1.818 -0.814 -1.818 -1.818 c 0 -1.004 0.814 -1.818 1.818 -1.818 S 140.712 103.288 140.712 104.292 z" style="stroke: none; stroke-width: 1; stroke-dasharray: none; stroke-linecap: butt; stroke-linejoin: miter; stroke-miterlimit: 4; fill: rgb(87,133,0); fill-rule: nonzero; opacity: 1;" transform="translate(-69.66 24.37) translate(-138.89399999999998, -104.292) " stroke-linecap="round" />
	<path d="M 188.192 36.938 L 188.192 36.938 c 1.589 1.162 1.512 2.975 0.138 4.275 c -6.754 6.906 -9.003 17.107 -15.756 24.013 c -1.374 1.3 -3.884 1.331 -5.298 0.297 l 0 0 c -1.414 -1.035 -2.143 -3.437 -1.32 -5.14 c 4.539 -8.527 13.581 -13.757 18.12 -22.284 C 184.899 36.396 186.604 35.775 188.192 36.938 z" style="stroke: none; stroke-width: 1; stroke-dasharray: none; stroke-linecap: butt; stroke-linejoin: miter; stroke-miterlimit: 4; fill: rgb(74,89,47); fill-rule: nonzero; opacity: 1;" transform="translate(-31.06 -28.62) translate(-177.4913233656681, -51.29822597783712) " stroke-linecap="round" />
	<ellipse cx="0" cy="0" rx="19.444" ry="13.715" style="stroke: none; stroke-width: 1; stroke-dasharray: none; stroke-linecap: butt; stroke-linejoin: miter; stroke-miterlimit: 4; fill: rgb(246,175,51); fill-rule: nonzero; opacity: 1;" transform="translate(-14.18 -51.43) rotate(-53.81)"/>
	<path d="M 188.33 41.212 c 1.374 -1.3 1.45 -3.112 -0.138 -4.275 c -0.424 -0.31 -0.856 -0.485 -1.277 -0.554 c 0.532 1.046 0.23 2.272 -0.777 3.225 c -6.754 6.906 -9.003 17.107 -15.756 24.013 c -1.023 0.968 -2.677 1.232 -4.039 0.876 c 0.257 0.407 0.572 0.761 0.933 1.025 c 1.414 1.035 3.924 1.003 5.298 -0.297 C 179.327 58.32 181.577 48.118 188.33 41.212 z" style="stroke: none; stroke-width: 1; stroke-dasharray: none; stroke-linecap: butt; stroke-linejoin: miter; stroke-miterlimit: 4; fill: rgb(59,71,38); fill-rule: nonzero; opacity: 1;" transform="translate(-30.7 -28.6) translate(-177.85743585930103, -51.31823984489475) " stroke-linecap="round" />
	<ellipse cx="0" cy="0" rx="19.444" ry="13.715" style="stroke: none; stroke-width: 1; stroke-dasharray: none; stroke-linecap: butt; stroke-linejoin: miter; stroke-miterlimit: 4; fill: rgb(246,175,51); fill-rule: nonzero; opacity: 1;" transform="translate(-14.18 -51.43) rotate(-53.81)"/>
	<path d="M 187.296 31.69 c -0.326 0.391 -0.931 0.425 -1.343 0.067 c -0.413 -0.358 -0.465 -0.961 -0.124 -1.339 c 0.341 -0.378 0.935 -0.399 1.333 -0.055 C 187.559 30.708 187.623 31.299 187.296 31.69 z" style="stroke: none; stroke-width: 1; stroke-dasharray: none; stroke-linecap: butt; stroke-linejoin: miter; stroke-miterlimit: 4; fill: rgb(87,133,0); fill-rule: nonzero; opacity: 1;" transform="translate(-22 -48.86) translate(-186.55498148781314, -31.06232531769669) " stroke-linecap="round" />
	<path d="M 195.121 37.217 c -0.257 0.44 -0.848 0.573 -1.314 0.287 c -0.466 -0.285 -0.617 -0.871 -0.343 -1.301 c 0.275 -0.429 0.856 -0.548 1.305 -0.274 C 195.219 36.205 195.378 36.777 195.121 37.217 z" style="stroke: none; stroke-width: 1; stroke-dasharray: none; stroke-linecap: butt; stroke-linejoin: miter; stroke-miterlimit: 4; fill: rgb(87,133,0); fill-rule: nonzero; opacity: 1;" transform="translate(-14.27 -43.2) translate(-194.28581128086398, -36.718600120626675) " stroke-linecap="round" />
	<path d="M 191.742 12.934 c -1.127 0.598 -2.238 1.319 -3.312 2.153 c 0.555 1.273 1.061 2.55 1.505 3.827 c 2.058 -0.635 4.194 -1.159 6.397 -1.561 c 0.64 2.147 1.139 4.287 1.503 6.406 c 2.13 -0.295 4.321 -0.467 6.561 -0.506 c 0.283 2.222 0.43 4.416 0.448 6.57 c 1.352 0.037 2.721 0.133 4.103 0.277 c 0.47 -1.277 0.821 -2.553 1.05 -3.808 C 204.768 20.776 198.581 16.249 191.742 12.934 z" style="stroke: none; stroke-width: 1; stroke-dasharray: none; stroke-linecap: butt; stroke-linejoin: miter; stroke-miterlimit: 4; fill: rgb(255,89,44); fill-rule: nonzero; opacity: 1;" transform="translate(-9.34 -58.4) translate(-199.21349999999998, -21.517000000000003) " stroke-linecap="round" />
	<path d="M 197.007 44.043 c 1.127 -0.598 2.238 -1.319 3.312 -2.153 c -0.555 -1.273 -1.061 -2.55 -1.505 -3.827 c -2.058 0.635 -4.194 1.158 -6.397 1.561 c -0.64 -2.147 -1.139 -4.287 -1.503 -6.406 c -2.13 0.295 -4.321 0.466 -6.56 0.506 c -0.283 -2.222 -0.43 -4.417 -0.448 -6.57 c -1.352 -0.037 -2.722 -0.133 -4.103 -0.277 c -0.47 1.277 -0.821 2.553 -1.05 3.808 C 183.981 36.202 190.168 40.729 197.007 44.043 z" style="stroke: none; stroke-width: 1; stroke-dasharray: none; stroke-linecap: butt; stroke-linejoin: miter; stroke-miterlimit: 4; fill: rgb(255,89,44); fill-rule: nonzero; opacity: 1;" transform="translate(-19.02 -44.46) translate(-189.536, -35.46) " stroke-linecap="round" />
	<path d="M 195.284 20.774 c 0.274 -0.429 0.124 -1.015 -0.343 -1.3 c -0.466 -0.286 -1.057 -0.152 -1.314 0.287 c -0.257 0.44 -0.097 1.012 0.351 1.287 C 194.427 21.322 195.01 21.203 195.284 20.774 z" style="stroke: none; stroke-width: 1; stroke-dasharray: none; stroke-linecap: butt; stroke-linejoin: miter; stroke-miterlimit: 4; fill: rgb(87,133,0); fill-rule: nonzero; opacity: 1;" transform="translate(-14.09 -59.66) translate(-194.46239143825755, -20.259023422451666) " stroke-linecap="round" />
	<path d="M 202.919 26.56 c 0.341 -0.378 0.289 -0.981 -0.124 -1.339 c -0.413 -0.358 -1.017 -0.324 -1.343 0.067 c -0.326 0.392 -0.263 0.982 0.134 1.327 C 201.984 26.959 202.578 26.938 202.919 26.56 z" style="stroke: none; stroke-width: 1; stroke-dasharray: none; stroke-linecap: butt; stroke-linejoin: miter; stroke-miterlimit: 4; fill: rgb(87,133,0); fill-rule: nonzero; opacity: 1;" transform="translate(-6.36 -54) translate(-202.19322754344986, -25.915674682303305) " stroke-linecap="round" />
	<path d="M 208.052 15.023 c -0.285 5.429 -2.772 12.03 -7.258 18.162 c -4.487 6.132 -10.027 10.5 -15.115 12.414 c 6.086 1.992 14.312 -1.56 19.764 -9.011 C 210.895 29.136 211.792 20.221 208.052 15.023 z" style="stroke: none; stroke-width: 1; stroke-dasharray: none; stroke-linecap: butt; stroke-linejoin: miter; stroke-miterlimit: 4; fill: rgb(79,84,103); fill-rule: nonzero; opacity: 0.1;" transform="translate(-10.56 -49.34) translate(-197.9993982648731, -30.584373297054505) " stroke-linecap="round" />
	<path d="M 184.705 21.414 c 4.587 -4.227 10.072 -6.462 14.871 -6.504 c -0.475 -0.927 -0.915 -1.859 -1.333 -2.794 C 193.483 13.031 188.442 16.307 184.705 21.414 z" style="stroke: none; stroke-width: 1; stroke-dasharray: none; stroke-linecap: butt; stroke-linejoin: miter; stroke-miterlimit: 4; fill: rgb(255,255,255); fill-rule: nonzero; opacity: 0.4;" transform="translate(-16.41 -63.15) translate(-192.14050000000003, -16.765) " stroke-linecap="round" />
	<path d="M 24.322 125.524 L 24.322 125.524 c 1.331 -0.619 2.488 0.084 2.842 1.449 c 2.079 6.898 7.932 12.041 10.01 18.939 c 0.354 1.365 -0.529 3.016 -1.714 3.567 l 0 0 c -1.185 0.551 -3.016 0.162 -3.832 -0.988 c -3.935 -6.035 -4.095 -13.825 -8.029 -19.86 C 22.783 127.48 22.991 126.143 24.322 125.524 z" style="stroke: none; stroke-width: 1; stroke-dasharray: none; stroke-linecap: butt; stroke-linejoin: miter; stroke-miterlimit: 4; fill: rgb(74,89,47); fill-rule: nonzero; opacity: 1;" transform="translate(-178.37 57.59) translate(-30.18518451430145, -137.51162666051667) " stroke-linecap="round" />
	<ellipse cx="0" cy="0" rx="10.23" ry="14.502" style="stroke: none; stroke-width: 1; stroke-dasharray: none; stroke-linecap: butt; stroke-linejoin: miter; stroke-miterlimit: 4; fill: rgb(246,175,51); fill-rule: nonzero; opacity: 1;" transform="translate(-187.52 38.53) rotate(-24.94)"/>
	<path d="M 27.164 126.973 c -0.354 -1.365 -1.51 -2.068 -2.842 -1.449 c -0.355 0.165 -0.625 0.384 -0.822 0.635 c 0.875 0.029 1.567 0.668 1.827 1.669 c 2.079 6.898 7.931 12.041 10.01 18.939 c 0.264 1.017 -0.159 2.192 -0.882 2.954 c 0.359 -0.021 0.703 -0.1 1.005 -0.24 c 1.185 -0.551 2.068 -2.202 1.714 -3.567 C 35.096 139.014 29.243 133.871 27.164 126.973 z" style="stroke: none; stroke-width: 1; stroke-dasharray: none; stroke-linecap: butt; stroke-linejoin: miter; stroke-miterlimit: 4; fill: rgb(59,71,38); fill-rule: nonzero; opacity: 1;" transform="translate(-178.18 57.59) translate(-30.37648436629214, -137.50915606769706) " stroke-linecap="round" />
	<ellipse cx="0" cy="0" rx="10.23" ry="14.502" style="stroke: none; stroke-width: 1; stroke-dasharray: none; stroke-linecap: butt; stroke-linejoin: miter; stroke-miterlimit: 4; fill: rgb(246,175,51); fill-rule: nonzero; opacity: 1;" transform="translate(-187.52 38.53) rotate(-24.94)"/>
	<path d="M 20.572 124.219 c 0.138 0.354 -0.058 0.761 -0.44 0.901 c -0.383 0.141 -0.795 -0.042 -0.919 -0.402 c -0.124 -0.359 0.076 -0.755 0.444 -0.89 C 20.025 123.694 20.434 123.865 20.572 124.219 z" style="stroke: none; stroke-width: 1; stroke-dasharray: none; stroke-linecap: butt; stroke-linejoin: miter; stroke-miterlimit: 4; fill: rgb(87,133,0); fill-rule: nonzero; opacity: 1;" transform="translate(-188.66 44.56) translate(-19.896199041685495, -124.47505949532228) " stroke-linecap="round" />
	<path d="M 27 121.098 c 0.195 0.326 0.069 0.76 -0.285 0.962 c -0.354 0.202 -0.791 0.089 -0.973 -0.245 c -0.182 -0.334 -0.05 -0.757 0.291 -0.951 C 26.374 120.67 26.805 120.772 27 121.098 z" style="stroke: none; stroke-width: 1; stroke-dasharray: none; stroke-linecap: butt; stroke-linejoin: miter; stroke-miterlimit: 4; fill: rgb(87,133,0); fill-rule: nonzero; opacity: 1;" transform="translate(-182.18 41.54) translate(-26.375879337350877, -121.46321859643302) " stroke-linecap="round" />
	<path d="M 9.923 114.561 c -0.015 0.951 0.056 1.936 0.214 2.939 c 1.031 0.096 2.047 0.225 3.042 0.395 c 0.326 -1.572 0.753 -3.156 1.284 -4.741 c 1.633 0.355 3.21 0.8 4.725 1.326 c 0.575 -1.497 1.251 -2.99 2.032 -4.467 c 1.553 0.615 3.04 1.31 4.452 2.073 c 0.511 -0.87 1.067 -1.73 1.658 -2.58 c -0.665 -0.767 -1.372 -1.456 -2.109 -2.057 C 19.735 108.877 14.55 111.288 9.923 114.561 z" style="stroke: none; stroke-width: 1; stroke-dasharray: none; stroke-linecap: butt; stroke-linejoin: miter; stroke-miterlimit: 4; fill: rgb(255,89,44); fill-rule: nonzero; opacity: 1;" transform="translate(-189.93 32.75) translate(-18.62551922673041, -112.672) " stroke-linecap="round" />
	<path d="M 32.137 122.325 c 0.015 -0.951 -0.055 -1.936 -0.213 -2.939 c -1.031 -0.096 -2.047 -0.225 -3.042 -0.395 c -0.326 1.572 -0.753 3.156 -1.284 4.74 c -1.633 -0.355 -3.21 -0.8 -4.725 -1.326 c -0.574 1.497 -1.251 2.99 -2.032 4.467 c -1.553 -0.615 -3.039 -1.31 -4.452 -2.073 c -0.511 0.87 -1.067 1.73 -1.658 2.58 c 0.664 0.767 1.372 1.456 2.109 2.057 C 22.325 128.009 27.51 125.598 32.137 122.325 z" style="stroke: none; stroke-width: 1; stroke-dasharray: none; stroke-linecap: butt; stroke-linejoin: miter; stroke-miterlimit: 4; fill: rgb(255,89,44); fill-rule: nonzero; opacity: 1;" transform="translate(-185.12 44.29) translate(-23.434991619028594, -124.21350000000001) " stroke-linecap="round" />
	<path d="M 16.319 115.071 c -0.182 -0.334 -0.619 -0.446 -0.973 -0.244 c -0.354 0.202 -0.48 0.635 -0.285 0.962 c 0.195 0.326 0.626 0.428 0.967 0.234 C 16.368 115.828 16.501 115.405 16.319 115.071 z" style="stroke: none; stroke-width: 1; stroke-dasharray: none; stroke-linecap: butt; stroke-linejoin: miter; stroke-miterlimit: 4; fill: rgb(87,133,0); fill-rule: nonzero; opacity: 1;" transform="translate(-192.87 35.5) translate(-15.685023629363274, -115.42364862505025) " stroke-linecap="round" />
	<path d="M 22.847 112.168 c -0.124 -0.359 -0.537 -0.542 -0.919 -0.402 c -0.383 0.141 -0.578 0.548 -0.44 0.901 c 0.138 0.354 0.546 0.526 0.915 0.39 C 22.771 112.922 22.972 112.527 22.847 112.168 z" style="stroke: none; stroke-width: 1; stroke-dasharray: none; stroke-linecap: butt; stroke-linejoin: miter; stroke-miterlimit: 4; fill: rgb(87,133,0); fill-rule: nonzero; opacity: 1;" transform="translate(-186.39 32.49) translate(-22.163938186477743, -112.41118296447729) " stroke-linecap="round" />
	<path d="M 17.161 104.661 c 3.443 2.141 6.86 6.143 9.249 11.281 c 2.389 5.139 3.247 10.33 2.665 14.342 c 3.493 -3.257 4.135 -9.909 1.232 -16.154 C 27.403 107.886 21.902 104.09 17.161 104.661 z" style="stroke: none; stroke-width: 1; stroke-dasharray: none; stroke-linecap: butt; stroke-linejoin: miter; stroke-miterlimit: 4; fill: rgb(79,84,103); fill-rule: nonzero; opacity: 0.1;" transform="translate(-183.9 37.52) translate(-24.65085306024011, -117.44422837400236) " stroke-linecap="round" />
	<path d="M 12.927 122.211 c -1.109 -4.518 -0.593 -8.905 1.107 -12.055 c -0.776 -0.024 -1.543 -0.072 -2.305 -0.136 C 10.613 113.459 10.937 117.931 12.927 122.211 z" style="stroke: none; stroke-width: 1; stroke-dasharray: none; stroke-linecap: butt; stroke-linejoin: miter; stroke-miterlimit: 4; fill: rgb(255,255,255); fill-rule: nonzero; opacity: 0.4;" transform="translate(-195.99 36.2) translate(-12.563454607435684, -116.1155) " stroke-linecap="round" />
	<path d="M 135.801 20.256 c 0.241 -1.804 0.618 -3.835 2.144 -4.827 c 0.552 0.249 1.18 0.596 1.253 1.197 c 0.031 0.252 -0.048 0.503 -0.124 0.745 c -0.541 1.72 -1.028 3.458 -1.459 5.209 c -0.415 1.686 -0.561 3.555 -1.106 5.194 c -0.31 0.931 -0.537 0.841 -0.786 -0.139 c -0.2 -0.788 -0.276 -1.613 -0.303 -2.423 C 135.367 23.552 135.582 21.896 135.801 20.256 z" style="stroke: none; stroke-width: 1; stroke-dasharray: none; stroke-linecap: butt; stroke-linejoin: miter; stroke-miterlimit: 4; fill: rgb(45,87,0); fill-rule: nonzero; opacity: 1;" transform="translate(-71.25 -57.99) translate(-137.3083859055797, -21.926347071807765) " stroke-linecap="round" />
	<path d="M 132.72 41.83 c 0.514 2.515 1.052 5.092 2.425 7.26 c 1.044 1.648 2.517 2.972 3.971 4.273 c 2.428 2.173 4.856 4.345 7.284 6.518 c 1.024 -1.208 1.013 -3.023 0.457 -4.506 c -0.556 -1.483 -1.566 -2.742 -2.433 -4.067 c -3.431 -5.24 -4.682 -11.863 -3.397 -17.993 c 0.28 -1.336 0.66 -2.796 0.03 -4.008 c -1.352 -2.598 -6.731 -2.1 -8.398 -0.029 C 130.208 32.322 132.031 38.458 132.72 41.83 z" style="stroke: none; stroke-width: 1; stroke-dasharray: none; stroke-linecap: butt; stroke-linejoin: miter; stroke-miterlimit: 4; fill: rgb(60,116,0); fill-rule: nonzero; opacity: 1;" transform="translate(-69.23 -36.21) translate(-139.3262500526159, -43.7091160883856) " stroke-linecap="round" />
	<path d="M 138.355 29.392 c 0.88 1.285 0.54 2.944 0.313 4.456 c -1.044 6.936 1.07 14.174 5.746 19.666 c 0.942 1.107 1.988 2.16 2.786 3.349 c -0.051 -0.509 -0.164 -1.015 -0.341 -1.487 c -0.556 -1.483 -1.566 -2.742 -2.433 -4.067 c -3.431 -5.24 -4.682 -11.863 -3.397 -17.993 c 0.28 -1.336 0.66 -2.796 0.03 -4.008 c -0.917 -1.761 -3.684 -2.096 -5.891 -1.486 C 136.524 27.968 137.712 28.454 138.355 29.392 z" style="stroke: none; stroke-width: 1; stroke-dasharray: none; stroke-linecap: butt; stroke-linejoin: miter; stroke-miterlimit: 4; fill: rgb(53,102,0); fill-rule: nonzero; opacity: 1;" transform="translate(-67.37 -37.72) translate(-141.184, -42.202068471047355) " stroke-linecap="round" />
	<path d="M 144.549 19.611 c -1.301 1.59 -1.764 3.874 -3.451 5.045 c -0.999 0.694 -2.751 1.111 -3.96 0.847 c -1.46 -0.319 0.395 -1.928 0.944 -2.476 c 0.876 -0.875 1.883 -1.619 2.976 -2.199 c 0.564 -0.299 1.151 -0.556 1.755 -0.763 C 143.134 19.954 144.365 19.835 144.549 19.611 z" style="stroke: none; stroke-width: 1; stroke-dasharray: none; stroke-linecap: butt; stroke-linejoin: miter; stroke-miterlimit: 4; fill: rgb(45,87,0); fill-rule: nonzero; opacity: 1;" transform="translate(-67.99 -57.32) translate(-140.56920935232952, -22.5969936782083) " stroke-linecap="round" />
	<path d="M 126.919 22.79 c 2.014 0.406 4.249 -0.252 6.074 0.692 c 1.08 0.559 2.268 1.912 2.6 3.104 c 0.401 1.44 -1.889 0.552 -2.63 0.323 c -1.183 -0.365 -2.311 -0.907 -3.335 -1.603 c -0.528 -0.358 -1.029 -0.758 -1.495 -1.194 C 127.884 23.88 127.203 22.847 126.919 22.79 z" style="stroke: none; stroke-width: 1; stroke-dasharray: none; stroke-linecap: butt; stroke-linejoin: miter; stroke-miterlimit: 4; fill: rgb(45,87,0); fill-rule: nonzero; opacity: 1;" transform="translate(-77.28 -54.83) translate(-131.27937277661624, -25.08990714817375) " stroke-linecap="round" />
	<path d="M 104.908 148.449 c -1.816 0.124 -3.881 0.158 -5.158 -1.139 c 0.134 -0.591 0.349 -1.275 0.924 -1.467 c 0.241 -0.08 0.502 -0.053 0.755 -0.027 c 1.794 0.188 3.593 0.318 5.395 0.391 c 1.734 0.07 3.596 -0.158 5.31 0.049 c 0.974 0.118 0.931 0.359 0.02 0.798 c -0.732 0.353 -1.525 0.592 -2.314 0.779 C 108.225 148.217 106.56 148.336 104.908 148.449 z" style="stroke: none; stroke-width: 1; stroke-dasharray: none; stroke-linecap: butt; stroke-linejoin: miter; stroke-miterlimit: 4; fill: rgb(45,87,0); fill-rule: nonzero; opacity: 1;" transform="translate(-102.26 67.23) translate(-106.30045065272701, -147.14774411996757) " stroke-linecap="round" />
	<path d="M 126.664 147.17 c 2.362 -1.004 4.781 -2.045 6.632 -3.823 c 1.407 -1.352 2.411 -3.059 3.396 -4.743 c 1.645 -2.812 3.291 -5.624 4.936 -8.437 c -1.388 -0.763 -3.164 -0.39 -4.507 0.45 c -1.343 0.84 -2.375 2.081 -3.501 3.195 c -4.452 4.407 -10.692 6.951 -16.956 6.914 c -1.365 -0.008 -2.872 -0.09 -3.933 0.769 c -2.276 1.842 -0.716 7.014 1.644 8.235 C 117.847 151.526 123.497 148.516 126.664 147.17 z" style="stroke: none; stroke-width: 1; stroke-dasharray: none; stroke-linecap: butt; stroke-linejoin: miter; stroke-miterlimit: 4; fill: rgb(60,116,0); fill-rule: nonzero; opacity: 1;" transform="translate(-81.93 60.1) translate(-126.62419318893419, -140.0195009404341) " stroke-linecap="round" />
	<path d="M 113.352 144.126 c 1.084 -1.119 2.778 -1.116 4.304 -1.194 c 7.005 -0.358 13.677 -3.873 18.127 -9.549 c 0.897 -1.144 1.721 -2.378 2.726 -3.397 c -0.489 0.151 -0.962 0.363 -1.389 0.631 c -1.343 0.84 -2.375 2.081 -3.501 3.195 c -4.452 4.407 -10.692 6.951 -16.956 6.914 c -1.365 -0.008 -2.872 -0.09 -3.933 0.769 c -1.543 1.249 -1.32 4.027 -0.283 6.069 C 112.322 146.204 112.562 144.942 113.352 144.126 z" style="stroke: none; stroke-width: 1; stroke-dasharray: none; stroke-linecap: butt; stroke-linejoin: miter; stroke-miterlimit: 4; fill: rgb(53,102,0); fill-rule: nonzero; opacity: 1;" transform="translate(-83.49 58.86) translate(-125.0649344991757, -138.775) " stroke-linecap="round" />
	<path d="M 102.534 140.005 c 1.818 0.958 4.147 0.956 5.632 2.377 c 0.879 0.841 1.637 2.474 1.619 3.712 c -0.022 1.495 -1.968 -0.003 -2.614 -0.432 c -1.032 -0.684 -1.961 -1.523 -2.748 -2.478 c -0.406 -0.493 -0.774 -1.017 -1.098 -1.568 C 103.152 141.323 102.79 140.14 102.534 140.005 z" style="stroke: none; stroke-width: 1; stroke-dasharray: none; stroke-linecap: butt; stroke-linejoin: miter; stroke-miterlimit: 4; fill: rgb(45,87,0); fill-rule: nonzero; opacity: 1;" transform="translate(-102.4 63.45) translate(-106.15965708687426, -143.37393163102) " stroke-linecap="round" />
	<path d="M 109.161 156.648 c -0.003 -2.055 -1.094 -4.113 -0.532 -6.09 c 0.332 -1.17 1.422 -2.604 2.524 -3.166 c 1.331 -0.68 0.917 1.741 0.841 2.512 c -0.122 1.232 -0.429 2.446 -0.906 3.588 c -0.246 0.589 -0.537 1.16 -0.872 1.703 C 110.037 155.485 109.161 156.358 109.161 156.648 z" style="stroke: none; stroke-width: 1; stroke-dasharray: none; stroke-linecap: butt; stroke-linejoin: miter; stroke-miterlimit: 4; fill: rgb(45,87,0); fill-rule: nonzero; opacity: 1;" transform="translate(-98.26 72.04) translate(-110.29127088556356, -151.96047415271596) " stroke-linecap="round" />
	<path d="M 45.658 36.474 c 0.692 -1.228 1.547 -2.58 2.929 -2.855 c 0.325 0.338 0.677 0.768 0.557 1.221 c -0.05 0.19 -0.179 0.348 -0.303 0.5 c -0.884 1.081 -1.733 2.191 -2.546 3.326 c -0.783 1.093 -1.426 2.395 -2.289 3.417 c -0.491 0.58 -0.628 0.451 -0.525 -0.326 c 0.083 -0.624 0.265 -1.239 0.479 -1.829 C 44.398 38.72 45.029 37.591 45.658 36.474 z" style="stroke: none; stroke-width: 1; stroke-dasharray: none; stroke-linecap: butt; stroke-linejoin: miter; stroke-miterlimit: 4; fill: rgb(55,69,38); fill-rule: nonzero; opacity: 1;" transform="translate(-162.25 -41.89) translate(-46.30846061215644, -38.03107092361143) " stroke-linecap="round" />
	<path d="M 52.133 38.525 c -1.392 0.77 -2.382 2.278 -3.932 2.636 c -0.918 0.212 -2.297 0.008 -3.091 -0.529 c -0.958 -0.649 0.839 -1.273 1.39 -1.509 c 0.881 -0.377 1.819 -0.623 2.772 -0.726 c 0.492 -0.053 0.987 -0.069 1.481 -0.044 C 51.017 38.365 51.937 38.634 52.133 38.525 z" style="stroke: none; stroke-width: 1; stroke-dasharray: none; stroke-linecap: butt; stroke-linejoin: miter; stroke-miterlimit: 4; fill: rgb(55,69,38); fill-rule: nonzero; opacity: 1;" transform="translate(-160.07 -40.13) translate(-48.48334650523164, -39.79245414435677) " stroke-linecap="round" />
	<path d="M 38.542 35.743 c 1.331 0.871 3.128 1.04 4.168 2.243 c 0.616 0.712 1.081 2.027 0.977 2.98 c -0.126 1.151 -1.517 -0.146 -1.984 -0.524 c -0.746 -0.602 -1.401 -1.317 -1.938 -2.111 c -0.277 -0.41 -0.522 -0.841 -0.732 -1.289 C 38.923 36.804 38.73 35.866 38.542 35.743 z" style="stroke: none; stroke-width: 1; stroke-dasharray: none; stroke-linecap: butt; stroke-linejoin: miter; stroke-miterlimit: 4; fill: rgb(55,69,38); fill-rule: nonzero; opacity: 1;" transform="translate(-167.43 -41.33) translate(-41.121796434594295, -38.58748116757824) " stroke-linecap="round" />
	<path d="M 36.519 47.584 c -1.208 1.016 -2.713 1.596 -4.187 2.158 c -2.008 0.766 -4.058 1.541 -6.204 1.648 c -0.737 0.037 -1.472 -0.006 -2.204 -0.094 c -0.732 -0.088 -1.111 0.844 -0.521 1.287 l 0 0 c 1.511 1.134 3.103 2.303 4.968 2.607 c 1.719 0.28 3.46 -0.211 5.132 -0.697 c 2.072 -0.602 4.144 -1.205 6.216 -1.807 c 1.36 -0.395 2.757 -0.81 3.865 -1.692 c 1.723 -1.372 2.446 -3.615 3.082 -5.724 c 0.485 -1.612 0.933 -3.492 -0.038 -4.867 c -1.109 -1.57 -5.335 -2.321 -6.451 -0.397 c -0.656 1.131 -0.69 2.775 -1.195 4.009 C 38.428 45.367 37.646 46.635 36.519 47.584 z" style="stroke: none; stroke-width: 1; stroke-dasharray: none; stroke-linecap: butt; stroke-linejoin: miter; stroke-miterlimit: 4; fill: rgb(224,71,68); fill-rule: nonzero; opacity: 1;" transform="translate(-173.4 -32.85) translate(-35.15820853455757, -47.06577575523446) " stroke-linecap="round" />
	<path d="M 44.796 39.206 c 0.039 0.202 0.058 0.408 0.056 0.611 c -0.01 0.729 -0.245 1.434 -0.481 2.124 c -0.677 1.975 -1.413 3.983 -2.748 5.588 c -1.085 1.304 -2.512 2.274 -3.946 3.181 c -1.62 1.025 -3.292 2.001 -5.113 2.602 c -1.821 0.601 -3.815 0.809 -5.659 0.284 c -1.243 -0.354 -2.369 -1.024 -3.48 -1.686 c -0.087 -0.052 -0.174 -0.104 -0.26 -0.157 c -0.107 0.275 -0.052 0.613 0.239 0.831 c 1.511 1.134 3.103 2.303 4.968 2.607 c 1.719 0.28 3.46 -0.211 5.132 -0.697 c 2.072 -0.602 4.144 -1.205 6.216 -1.807 c 1.36 -0.395 2.757 -0.81 3.865 -1.692 c 1.723 -1.372 2.446 -3.615 3.082 -5.724 c 0.485 -1.612 0.933 -3.492 -0.038 -4.867 C 46.27 39.898 45.59 39.48 44.796 39.206 z" style="stroke: none; stroke-width: 1; stroke-dasharray: none; stroke-linecap: butt; stroke-linejoin: miter; stroke-miterlimit: 4; fill: rgb(196,63,60); fill-rule: nonzero; opacity: 1;" transform="translate(-173.4 -32.68) translate(-35.15939110613308, -47.23934824806441) " stroke-linecap="round" />
	<path d="M 76.061 15.719 c 0 1.99 -1.613 3.603 -3.604 3.603 c -1.99 0 -3.604 -1.613 -3.604 -3.603 c 0 -1.99 1.613 -3.604 3.604 -3.604 C 74.448 12.116 76.061 13.729 76.061 15.719 z" style="stroke: none; stroke-width: 1; stroke-dasharray: none; stroke-linecap: butt; stroke-linejoin: miter; stroke-miterlimit: 4; fill: rgb(255,206,33); fill-rule: nonzero; opacity: 1;" transform="translate(-136.1 -64.2) translate(-72.45700000000001, -15.718499999999999) " stroke-linecap="round" />
	<path d="M 161.071 10.022 c 0 1.156 -0.937 2.094 -2.094 2.094 s -2.094 -0.937 -2.094 -2.094 s 0.937 -2.094 2.094 -2.094 S 161.071 8.866 161.071 10.022 z" style="stroke: none; stroke-width: 1; stroke-dasharray: none; stroke-linecap: butt; stroke-linejoin: miter; stroke-miterlimit: 4; fill: rgb(255,109,99); fill-rule: nonzero; opacity: 1;" transform="translate(-49.58 -69.9) translate(-158.977, -10.022) " stroke-linecap="round" />
	<path d="M 108.469 14.867 c 0 1.52 -1.232 2.752 -2.751 2.752 c -1.52 0 -2.752 -1.232 -2.752 -2.752 c 0 -1.52 1.232 -2.752 2.752 -2.752 C 107.237 12.116 108.469 13.347 108.469 14.867 z" style="stroke: none; stroke-width: 1; stroke-dasharray: none; stroke-linecap: butt; stroke-linejoin: miter; stroke-miterlimit: 4; fill: rgb(255,109,99); fill-rule: nonzero; opacity: 1;" transform="translate(-102.84 -65.05) translate(-105.7175, -14.867) " stroke-linecap="round" />
	<path d="M 227.339 17.095 c 0 1.23 -0.997 2.228 -2.228 2.228 s -2.228 -0.997 -2.228 -2.228 c 0 -1.23 0.997 -2.228 2.228 -2.228 S 227.339 15.865 227.339 17.095 z" style="stroke: none; stroke-width: 1; stroke-dasharray: none; stroke-linecap: butt; stroke-linejoin: miter; stroke-miterlimit: 4; fill: rgb(85,182,0); fill-rule: nonzero; opacity: 1;" transform="translate(16.56 -62.82) translate(-225.111, -17.095) " stroke-linecap="round" />
	<path d="M 166.343 85.739 c 0 1.456 -1.18 2.636 -2.636 2.636 c -1.456 0 -2.636 -1.18 -2.636 -2.636 s 1.18 -2.636 2.636 -2.636 C 165.163 83.104 166.343 84.284 166.343 85.739 z" style="stroke: none; stroke-width: 1; stroke-dasharray: none; stroke-linecap: butt; stroke-linejoin: miter; stroke-miterlimit: 4; fill: rgb(255,206,33); fill-rule: nonzero; opacity: 1;" transform="translate(-44.85 5.82) translate(-163.707, -85.739) " stroke-linecap="round" />
	<path d="M 22.884 73.99 c 0 1.79 -1.451 3.242 -3.242 3.242 c -1.79 0 -3.242 -1.451 -3.242 -3.242 c 0 -1.79 1.451 -3.242 3.242 -3.242 C 21.433 70.748 22.884 72.2 22.884 73.99 z" style="stroke: none; stroke-width: 1; stroke-dasharray: none; stroke-linecap: butt; stroke-linejoin: miter; stroke-miterlimit: 4; fill: rgb(85,182,0); fill-rule: nonzero; opacity: 1;" transform="translate(-188.91 -5.93) translate(-19.642, -73.99) " stroke-linecap="round" />
	<path d="M 14.731 57.091 c 0 1.004 -0.814 1.819 -1.819 1.819 c -1.004 0 -1.819 -0.814 -1.819 -1.819 c 0 -1.004 0.814 -1.819 1.819 -1.819 C 13.916 55.272 14.731 56.087 14.731 57.091 z" style="stroke: none; stroke-width: 1; stroke-dasharray: none; stroke-linecap: butt; stroke-linejoin: miter; stroke-miterlimit: 4; fill: rgb(255,109,99); fill-rule: nonzero; opacity: 1;" transform="translate(-195.64 -22.83) translate(-12.911999999999999, -57.091) " stroke-linecap="round" />
	<path d="M 63.369 48.722 c 0 1.423 -1.153 2.576 -2.576 2.576 c -1.423 0 -2.576 -1.153 -2.576 -2.576 c 0 -1.423 1.153 -2.576 2.576 -2.576 C 62.216 46.146 63.369 47.3 63.369 48.722 z" style="stroke: none; stroke-width: 1; stroke-dasharray: none; stroke-linecap: butt; stroke-linejoin: miter; stroke-miterlimit: 4; fill: rgb(255,109,99); fill-rule: nonzero; opacity: 1;" transform="translate(-147.76 -31.2) translate(-60.793, -48.722) " stroke-linecap="round" />
	<path d="M 72.458 140.219 c 0 1.497 -1.214 2.711 -2.711 2.711 c -1.497 0 -2.711 -1.214 -2.711 -2.711 c 0 -1.497 1.214 -2.711 2.711 -2.711 C 71.244 137.508 72.458 138.722 72.458 140.219 z" style="stroke: none; stroke-width: 1; stroke-dasharray: none; stroke-linecap: butt; stroke-linejoin: miter; stroke-miterlimit: 4; fill: rgb(255,206,33); fill-rule: nonzero; opacity: 1;" transform="translate(-138.81 60.3) translate(-69.747, -140.219) " stroke-linecap="round" />
	<path d="M 112.852 124.402 c 0 1.21 -0.981 2.191 -2.191 2.191 c -1.21 0 -2.192 -0.981 -2.192 -2.191 c 0 -1.21 0.981 -2.191 2.192 -2.191 C 111.87 122.211 112.852 123.192 112.852 124.402 z" style="stroke: none; stroke-width: 1; stroke-dasharray: none; stroke-linecap: butt; stroke-linejoin: miter; stroke-miterlimit: 4; fill: rgb(255,109,99); fill-rule: nonzero; opacity: 1;" transform="translate(-97.89 44.48) translate(-110.6605, -124.402) " stroke-linecap="round" />
	<circle cx="0" cy="0" r="1.846" style="stroke: none; stroke-width: 1; stroke-dasharray: none; stroke-linecap: butt; stroke-linejoin: miter; stroke-miterlimit: 4; fill: rgb(255,109,99); fill-rule: nonzero; opacity: 1;" transform="translate(-163 48.52) "/>
	<circle cx="0" cy="0" r="1.724" style="stroke: none; stroke-width: 1; stroke-dasharray: none; stroke-linecap: butt; stroke-linejoin: miter; stroke-miterlimit: 4; fill: rgb(255,109,99); fill-rule: nonzero; opacity: 1;" transform="translate(-54.21 34.47) "/>
	<polygon points="0,-5.2 1.45,-1.45 5.2,0 1.45,1.45 0,5.2 -1.45,1.45 -5.2,0 -1.45,-1.45 " style="stroke: none; stroke-width: 1; stroke-dasharray: none; stroke-linecap: butt; stroke-linejoin: miter; stroke-miterlimit: 4; fill: rgb(255,206,33); fill-rule: nonzero; opacity: 1;" transform="translate(-84.18 -66.98) "/>
	<polygon points="0,-5.2 1.45,-1.45 5.2,0 1.45,1.45 0,5.2 -1.45,1.45 -5.2,0 -1.45,-1.45 " style="stroke: none; stroke-width: 1; stroke-dasharray: none; stroke-linecap: butt; stroke-linejoin: miter; stroke-miterlimit: 4; fill: rgb(255,109,99); fill-rule: nonzero; opacity: 1;" transform="translate(-195.64 65.87) "/>
	<polygon points="0,-5.2 1.45,-1.45 5.2,0 1.45,1.45 0,5.2 -1.45,1.45 -5.2,0 -1.45,-1.45 " style="stroke: none; stroke-width: 1; stroke-dasharray: none; stroke-linecap: butt; stroke-linejoin: miter; stroke-miterlimit: 4; fill: rgb(255,109,99); fill-rule: nonzero; opacity: 1;" transform="translate(-69.35 -9.17) "/>
	<polygon points="0,-5.2 1.45,-1.45 5.2,0 1.45,1.45 0,5.2 -1.45,1.45 -5.2,0 -1.45,-1.45 " style="stroke: none; stroke-width: 1; stroke-dasharray: none; stroke-linecap: butt; stroke-linejoin: miter; stroke-miterlimit: 4; fill: rgb(85,182,0); fill-rule: nonzero; opacity: 1;" transform="translate(-159.39 -9.17) "/>
</g>
</svg>