<?xml version="1.0" encoding="UTF-8" standalone="no" ?>
<!DOCTYPE svg PUBLIC "-//W3C//DTD SVG 1.1//EN" "http://www.w3.org/Graphics/SVG/1.1/DTD/svg11.dtd">
<svg xmlns="http://www.w3.org/2000/svg" xmlns:xlink="http://www.w3.org/1999/xlink" version="1.1" width="694" height="694" viewBox="0 0 694 694" xml:space="preserve">
<desc>Created with Fabric.js 2.3.3</desc>
<defs>
</defs>
<g transform="translate(347.93 347.53) scale(2.91 2.91)" style="">
	<rect x="-120.5" y="-71" rx="0" ry="0" width="241" height="142" style="stroke: none; stroke-width: 1; stroke-dasharray: none; stroke-linecap: butt; stroke-linejoin: miter; stroke-miterlimit: 4; fill: rgb(255,255,255); fill-rule: evenodd; opacity: 1;" transform="translate(0.05 0.15)"/>
	<polygon points="13.8,-24.45 27.7,-0.05 13.8,24.45 -13.8,24.45 -27.7,-0.05 -13.8,-24.45 " style="stroke: none; stroke-width: 1; stroke-dasharray: none; stroke-linecap: butt; stroke-linejoin: miter; stroke-miterlimit: 4; fill: rgb(104,73,156); fill-rule: evenodd; opacity: 1;" transform="translate(107.55 -26) "/>
	<polygon points="8.1,-14.25 16.1,0.05 8.1,14.25 -8,14.25 -16.1,0.05 -8,-14.25 " style="stroke: none; stroke-width: 1; stroke-dasharray: none; stroke-linecap: butt; stroke-linejoin: miter; stroke-miterlimit: 4; fill: rgb(167,81,158); fill-rule: evenodd; opacity: 1;" transform="translate(85.75 -33.8) "/>
	<polygon points="6.85,-12.1 13.65,0 6.85,12.1 -6.85,12.1 -13.65,0 -6.85,-12.1 " style="stroke: none; stroke-width: 1; stroke-dasharray: none; stroke-linecap: butt; stroke-linejoin: miter; stroke-miterlimit: 4; fill: rgb(226,98,163); fill-rule: evenodd; opacity: 1;" transform="translate(71.6 -51.35) "/>
	<polygon points="8.15,-14.45 16.35,0.05 8.15,14.45 -8.15,14.45 -16.35,0.05 -8.15,-14.45 " style="stroke: none; stroke-width: 1; stroke-dasharray: none; stroke-linecap: butt; stroke-linejoin: miter; stroke-miterlimit: 4; fill: rgb(241,108,109); fill-rule: evenodd; opacity: 1;" transform="translate(60.8 -28.6) "/>
	<polygon points="4.7,-8.2 9.3,0 4.7,8.2 -4.6,8.2 -9.3,0 -4.6,-8.2 " style="stroke: none; stroke-width: 1; stroke-dasharray: none; stroke-linecap: butt; stroke-linejoin: miter; stroke-miterlimit: 4; fill: rgb(249,167,68); fill-rule: evenodd; opacity: 1;" transform="translate(44.45 -31.05) "/>
	<polygon points="0.95,-1.7 1.95,0 0.95,1.7 -1.05,1.7 -1.95,0 -1.05,-1.7 " style="stroke: none; stroke-width: 1; stroke-dasharray: none; stroke-linecap: butt; stroke-linejoin: miter; stroke-miterlimit: 4; fill: rgb(249,167,68); fill-rule: evenodd; opacity: 1;" transform="translate(-97.5 -44.95) "/>
	<polygon points="0.95,-1.7 1.95,0 0.95,1.7 -0.95,1.7 -1.95,0 -0.95,-1.7 " style="stroke: none; stroke-width: 1; stroke-dasharray: none; stroke-linecap: butt; stroke-linejoin: miter; stroke-miterlimit: 4; fill: rgb(255,210,68); fill-rule: evenodd; opacity: 1;" transform="translate(-108 -45.45) "/>
	<polygon points="6.95,-12.25 13.85,0.05 6.95,12.25 -6.95,12.25 -13.85,0.05 -6.95,-12.25 " style="stroke: none; stroke-width: 1; stroke-dasharray: none; stroke-linecap: butt; stroke-linejoin: miter; stroke-miterlimit: 4; fill: rgb(255,210,68); fill-rule: evenodd; opacity: 1;" transform="translate(33.5 -44.2) "/>
	<polygon points="4.45,-7.85 8.85,-0.05 4.45,7.85 -4.45,7.85 -8.85,-0.05 -4.45,-7.85 " style="stroke: none; stroke-width: 1; stroke-dasharray: none; stroke-linecap: butt; stroke-linejoin: miter; stroke-miterlimit: 4; fill: rgb(128,207,211); fill-rule: evenodd; opacity: 1;" transform="translate(103.8 -59.9) "/>
	<polygon points="4.1,-7.25 8.2,-0.05 4.1,7.25 -4.1,7.25 -8.2,-0.05 -4.1,-7.25 " style="stroke: none; stroke-width: 1; stroke-dasharray: none; stroke-linecap: butt; stroke-linejoin: miter; stroke-miterlimit: 4; fill: rgb(209,221,66); fill-rule: evenodd; opacity: 1;" transform="translate(19.65 -43) "/>
	<polygon points="2.7,-4.9 5.5,0 2.7,4.9 -2.8,4.9 -5.5,0 -2.8,-4.9 " style="stroke: none; stroke-width: 1; stroke-dasharray: none; stroke-linecap: butt; stroke-linejoin: miter; stroke-miterlimit: 4; fill: rgb(235,233,107); fill-rule: evenodd; opacity: 1;" transform="translate(10.55 -38.65) "/>
	<polygon points="2,-3.65 4.1,-0.05 2,3.65 -2.1,3.65 -4.1,-0.05 -2.1,-3.65 " style="stroke: none; stroke-width: 1; stroke-dasharray: none; stroke-linecap: butt; stroke-linejoin: miter; stroke-miterlimit: 4; fill: rgb(235,233,107); fill-rule: evenodd; opacity: 1;" transform="translate(5.05 -51.8) "/>
	<polygon points="4.3,-7.6 8.6,0 4.3,7.6 -4.3,7.6 -8.6,0 -4.3,-7.6 " style="stroke: none; stroke-width: 1; stroke-dasharray: none; stroke-linecap: butt; stroke-linejoin: miter; stroke-miterlimit: 4; fill: rgb(175,211,101); fill-rule: evenodd; opacity: 1;" transform="translate(-0.15 -39.55) "/>
	<polygon points="3.3,-5.95 6.7,0.05 3.3,5.95 -3.4,5.95 -6.7,0.05 -3.4,-5.95 " style="stroke: none; stroke-width: 1; stroke-dasharray: none; stroke-linecap: butt; stroke-linejoin: miter; stroke-miterlimit: 4; fill: rgb(130,200,146); fill-rule: evenodd; opacity: 1;" transform="translate(-6.85 -31.5) "/>
	<polygon points="1.35,-2.35 2.65,-0.05 1.35,2.35 -1.35,2.35 -2.65,-0.05 -1.35,-2.35 " style="stroke: none; stroke-width: 1; stroke-dasharray: none; stroke-linecap: butt; stroke-linejoin: miter; stroke-miterlimit: 4; fill: rgb(130,200,146); fill-rule: evenodd; opacity: 1;" transform="translate(-19.9 -29.1) "/>
	<polygon points="6.35,-11.25 12.75,0.05 6.35,11.25 -6.35,11.25 -12.75,0.05 -6.35,-11.25 " style="stroke: none; stroke-width: 1; stroke-dasharray: none; stroke-linecap: butt; stroke-linejoin: miter; stroke-miterlimit: 4; fill: rgb(128,207,211); fill-rule: evenodd; opacity: 1;" transform="translate(-15.4 -44.2) "/>
	<polygon points="3.9,-7 7.9,0 3.9,7 -3.9,7 -7.9,0 -3.9,-7 " style="stroke: none; stroke-width: 1; stroke-dasharray: none; stroke-linecap: butt; stroke-linejoin: miter; stroke-miterlimit: 4; fill: rgb(111,164,215); fill-rule: evenodd; opacity: 1;" transform="translate(-26.45 -57.45) "/>
	<polygon points="4.1,-7.25 8.2,0.05 4.1,7.25 -4.1,7.25 -8.2,0.05 -4.1,-7.25 " style="stroke: none; stroke-width: 1; stroke-dasharray: none; stroke-linecap: butt; stroke-linejoin: miter; stroke-miterlimit: 4; fill: rgb(116,110,178); fill-rule: evenodd; opacity: 1;" transform="translate(-36.35 -52.7) "/>
	<polygon points="2.25,-3.9 4.45,0 2.25,3.9 -2.25,3.9 -4.45,0 -2.25,-3.9 " style="stroke: none; stroke-width: 1; stroke-dasharray: none; stroke-linecap: butt; stroke-linejoin: miter; stroke-miterlimit: 4; fill: rgb(136,110,176); fill-rule: evenodd; opacity: 1;" transform="translate(-45.9 -40.35) "/>
	<polygon points="3.2,-5.75 6.5,0.05 3.2,5.75 -3.3,5.75 -6.5,0.05 -3.3,-5.75 " style="stroke: none; stroke-width: 1; stroke-dasharray: none; stroke-linecap: butt; stroke-linejoin: miter; stroke-miterlimit: 4; fill: rgb(158,110,174); fill-rule: evenodd; opacity: 1;" transform="translate(-56.85 -53.2) "/>
	<polygon points="4.1,-7.25 8.2,-0.05 4.1,7.25 -4.1,7.25 -8.2,-0.05 -4.1,-7.25 " style="stroke: none; stroke-width: 1; stroke-dasharray: none; stroke-linecap: butt; stroke-linejoin: miter; stroke-miterlimit: 4; fill: rgb(199,127,180); fill-rule: evenodd; opacity: 1;" transform="translate(-65.05 -46.6) "/>
	<polygon points="2.6,-4.6 5.2,0 2.6,4.6 -2.6,4.6 -5.2,0 -2.6,-4.6 " style="stroke: none; stroke-width: 1; stroke-dasharray: none; stroke-linecap: butt; stroke-linejoin: miter; stroke-miterlimit: 4; fill: rgb(205,107,169); fill-rule: evenodd; opacity: 1;" transform="translate(-73.95 -45.45) "/>
	<polygon points="3.2,-5.6 6.3,0 3.2,5.6 -3.2,5.6 -6.3,0 -3.2,-5.6 " style="stroke: none; stroke-width: 1; stroke-dasharray: none; stroke-linecap: butt; stroke-linejoin: miter; stroke-miterlimit: 4; fill: rgb(238,91,160); fill-rule: evenodd; opacity: 1;" transform="translate(-83.65 -38.55) "/>
	<polygon points="2.1,-3.7 4.2,0 2.1,3.7 -2.1,3.7 -4.2,0 -2.1,-3.7 " style="stroke: none; stroke-width: 1; stroke-dasharray: none; stroke-linecap: butt; stroke-linejoin: miter; stroke-miterlimit: 4; fill: rgb(238,71,107); fill-rule: evenodd; opacity: 1;" transform="translate(-92.25 -37.85) "/>
	<polygon points="-9.35,-16.6 -18.75,0 -9.35,16.6 9.35,16.6 18.75,0 9.35,-16.6 " style="stroke: none; stroke-width: 1; stroke-dasharray: none; stroke-linecap: butt; stroke-linejoin: miter; stroke-miterlimit: 4; fill: rgb(104,73,156); fill-rule: evenodd; opacity: 1;" transform="translate(-111.7 55.55) "/>
	<polygon points="-5.5,-9.65 -10.9,-0.05 -5.5,9.65 5.4,9.65 10.9,-0.05 5.4,-9.65 " style="stroke: none; stroke-width: 1; stroke-dasharray: none; stroke-linecap: butt; stroke-linejoin: miter; stroke-miterlimit: 4; fill: rgb(167,81,158); fill-rule: evenodd; opacity: 1;" transform="translate(-96.95 50.3) "/>
	<polygon points="-4.65,-8.2 -9.25,0 -4.65,8.2 4.65,8.2 9.25,0 4.65,-8.2 " style="stroke: none; stroke-width: 1; stroke-dasharray: none; stroke-linecap: butt; stroke-linejoin: miter; stroke-miterlimit: 4; fill: rgb(226,98,163); fill-rule: evenodd; opacity: 1;" transform="translate(-87.4 38.35) "/>
	<polygon points="-5.45,-9.75 -11.05,0.05 -5.45,9.75 5.55,9.75 11.05,0.05 5.55,-9.75 " style="stroke: none; stroke-width: 1; stroke-dasharray: none; stroke-linecap: butt; stroke-linejoin: miter; stroke-miterlimit: 4; fill: rgb(241,108,109); fill-rule: evenodd; opacity: 1;" transform="translate(-80.1 53.8) "/>
	<polygon points="-3.15,-5.55 -6.25,0.05 -3.15,5.55 3.15,5.55 6.25,0.05 3.15,-5.55 " style="stroke: none; stroke-width: 1; stroke-dasharray: none; stroke-linecap: butt; stroke-linejoin: miter; stroke-miterlimit: 4; fill: rgb(249,167,68); fill-rule: evenodd; opacity: 1;" transform="translate(-69 52.1) "/>
	<polygon points="-4.65,-8.3 -9.35,0 -4.65,8.3 4.65,8.3 9.35,0 4.65,-8.3 " style="stroke: none; stroke-width: 1; stroke-dasharray: none; stroke-linecap: butt; stroke-linejoin: miter; stroke-miterlimit: 4; fill: rgb(255,210,68); fill-rule: evenodd; opacity: 1;" transform="translate(-61.6 43.25) "/>
	<polygon points="-3,-5.3 -6,0 -3,5.3 3,5.3 6,0 3,-5.3 " style="stroke: none; stroke-width: 1; stroke-dasharray: none; stroke-linecap: butt; stroke-linejoin: miter; stroke-miterlimit: 4; fill: rgb(128,207,211); fill-rule: evenodd; opacity: 1;" transform="translate(-109.15 32.55) "/>
	<polygon points="-2.85,-4.9 -5.55,0 -2.85,4.9 2.75,4.9 5.55,0 2.75,-4.9 " style="stroke: none; stroke-width: 1; stroke-dasharray: none; stroke-linecap: butt; stroke-linejoin: miter; stroke-miterlimit: 4; fill: rgb(209,221,66); fill-rule: evenodd; opacity: 1;" transform="translate(-52.2 44.05) "/>
	<polygon points="-1.9,-3.3 -3.7,0 -1.9,3.3 1.9,3.3 3.7,0 1.9,-3.3 " style="stroke: none; stroke-width: 1; stroke-dasharray: none; stroke-linecap: butt; stroke-linejoin: miter; stroke-miterlimit: 4; fill: rgb(235,233,107); fill-rule: evenodd; opacity: 1;" transform="translate(-46.05 46.95) "/>
	<polygon points="-1.45,-2.45 -2.75,-0.05 -1.45,2.45 1.35,2.45 2.75,-0.05 1.35,-2.45 " style="stroke: none; stroke-width: 1; stroke-dasharray: none; stroke-linecap: butt; stroke-linejoin: miter; stroke-miterlimit: 4; fill: rgb(235,233,107); fill-rule: evenodd; opacity: 1;" transform="translate(-42.3 38.1) "/>
	<polygon points="-2.95,-5.15 -5.85,-0.05 -2.95,5.15 2.85,5.15 5.85,-0.05 2.85,-5.15 " style="stroke: none; stroke-width: 1; stroke-dasharray: none; stroke-linecap: butt; stroke-linejoin: miter; stroke-miterlimit: 4; fill: rgb(175,211,101); fill-rule: evenodd; opacity: 1;" transform="translate(-38.8 46.4) "/>
	<polygon points="-2.25,-4 -4.55,0 -2.25,4 2.25,4 4.55,0 2.25,-4 " style="stroke: none; stroke-width: 1; stroke-dasharray: none; stroke-linecap: butt; stroke-linejoin: miter; stroke-miterlimit: 4; fill: rgb(130,200,146); fill-rule: evenodd; opacity: 1;" transform="translate(-34.3 51.85) "/>
	<polygon points="-0.9,-1.6 -1.8,0 -0.9,1.6 0.9,1.6 1.8,0 0.9,-1.6 " style="stroke: none; stroke-width: 1; stroke-dasharray: none; stroke-linecap: butt; stroke-linejoin: miter; stroke-miterlimit: 4; fill: rgb(130,200,146); fill-rule: evenodd; opacity: 1;" transform="translate(-25.45 53.45) "/>
	<polygon points="-4.3,-7.6 -8.6,0 -4.3,7.6 4.3,7.6 8.6,0 4.3,-7.6 " style="stroke: none; stroke-width: 1; stroke-dasharray: none; stroke-linecap: butt; stroke-linejoin: miter; stroke-miterlimit: 4; fill: rgb(128,207,211); fill-rule: evenodd; opacity: 1;" transform="translate(-28.45 43.25) "/>
	<polygon points="-2.6,-4.7 -5.3,0 -2.6,4.7 2.7,4.7 5.3,0 2.7,-4.7 " style="stroke: none; stroke-width: 1; stroke-dasharray: none; stroke-linecap: butt; stroke-linejoin: miter; stroke-miterlimit: 4; fill: rgb(111,164,215); fill-rule: evenodd; opacity: 1;" transform="translate(-21.05 34.25) "/>
	<polygon points="-2.8,-4.9 -5.5,0 -2.8,4.9 2.8,4.9 5.5,0 2.8,-4.9 " style="stroke: none; stroke-width: 1; stroke-dasharray: none; stroke-linecap: butt; stroke-linejoin: miter; stroke-miterlimit: 4; fill: rgb(116,110,178); fill-rule: evenodd; opacity: 1;" transform="translate(-14.35 37.45) "/>
	<polygon points="-1.5,-2.65 -3,0.05 -1.5,2.65 1.5,2.65 3,0.05 1.5,-2.65 " style="stroke: none; stroke-width: 1; stroke-dasharray: none; stroke-linecap: butt; stroke-linejoin: miter; stroke-miterlimit: 4; fill: rgb(136,110,176); fill-rule: evenodd; opacity: 1;" transform="translate(-7.85 45.8) "/>
	<polygon points="-2.2,-3.9 -4.4,0 -2.2,3.9 2.2,3.9 4.4,0 2.2,-3.9 " style="stroke: none; stroke-width: 1; stroke-dasharray: none; stroke-linecap: butt; stroke-linejoin: miter; stroke-miterlimit: 4; fill: rgb(158,110,174); fill-rule: evenodd; opacity: 1;" transform="translate(-0.45 37.15) "/>
	<polygon points="-2.75,-4.95 -5.55,-0.05 -2.75,4.95 2.75,4.95 5.55,-0.05 2.75,-4.95 " style="stroke: none; stroke-width: 1; stroke-dasharray: none; stroke-linecap: butt; stroke-linejoin: miter; stroke-miterlimit: 4; fill: rgb(199,127,180); fill-rule: evenodd; opacity: 1;" transform="translate(5.1 41.6) "/>
	<polygon points="-1.8,-3.15 -3.5,-0.05 -1.8,3.15 1.7,3.15 3.5,-0.05 1.7,-3.15 " style="stroke: none; stroke-width: 1; stroke-dasharray: none; stroke-linecap: butt; stroke-linejoin: miter; stroke-miterlimit: 4; fill: rgb(205,107,169); fill-rule: evenodd; opacity: 1;" transform="translate(11.15 42.4) "/>
	<polygon points="-2.1,-3.75 -4.3,-0.05 -2.1,3.75 2.2,3.75 4.3,-0.05 2.2,-3.75 " style="stroke: none; stroke-width: 1; stroke-dasharray: none; stroke-linecap: butt; stroke-linejoin: miter; stroke-miterlimit: 4; fill: rgb(238,91,160); fill-rule: evenodd; opacity: 1;" transform="translate(17.65 47.1) "/>
	<polygon points="-1.45,-2.5 -2.85,0 -1.45,2.5 1.35,2.5 2.85,0 1.35,-2.5 " style="stroke: none; stroke-width: 1; stroke-dasharray: none; stroke-linecap: butt; stroke-linejoin: miter; stroke-miterlimit: 4; fill: rgb(238,71,107); fill-rule: evenodd; opacity: 1;" transform="translate(23.5 47.55) "/>
</g>
	<g transform="translate(200.08 327.65)">
		<text xml:space="preserve" font-family="Amiko" font-size="41.0848" font-style="normal" font-weight="normal" style="stroke: none; stroke-width: 1; stroke-dasharray: none; stroke-linecap: butt; stroke-linejoin: miter; stroke-miterlimit: 4; fill: rgb(79,84,103); fill-rule: nonzero; opacity: 1; white-space: pre;" ><tspan x="-111.34" y="12.91" >JOHN DOE</tspan></text>
	</g>
	<g transform="translate(200.04 360.01) scale(1.35 1.35)">
		<text xml:space="preserve" font-family="Roboto" font-size="16" font-style="normal" font-weight="normal" style="stroke: none; stroke-width: 1; stroke-dasharray: none; stroke-linecap: butt; stroke-linejoin: miter; stroke-miterlimit: 4; fill: rgb(79,84,103); fill-rule: nonzero; opacity: 1; white-space: pre;" ><tspan x="-47.37" y="5.03" >Your Position</tspan></text>
	</g>
<g transform="translate(489.96 403.77) scale(2.32 2.32)" style="">
	<path d="M 5 2.5 c -0.8 0 -1.4 0.6 -1.4 1.4 c 0 0.8 0.6 1.4 1.4 1.4 c 0.8 0 1.4 -0.6 1.4 -1.4 C 6.4 3.1 5.8 2.5 5 2.5 z" style="stroke: none; stroke-width: 1; stroke-dasharray: none; stroke-linecap: butt; stroke-linejoin: miter; stroke-miterlimit: 4; fill: rgb(134,134,134); fill-rule: evenodd; opacity: 1;" transform="translate(0 -1.1) translate(-5, -3.9) " stroke-linecap="round" />
	<path d="M 5 0.5 c -2.6 0 -4.6 2.1 -4.6 4.6 c 0 2.6 2.1 4.6 4.6 4.6 c 2.6 0 4.6 -2.1 4.6 -4.6 C 9.6 2.5 7.5 0.5 5 0.5 z M 5 9.1 c 0 0 -2.7 -3.8 -2.7 -5.3 c 0 -1.5 1.2 -2.7 2.7 -2.7 c 1.5 0 2.7 1.2 2.7 2.7 C 7.7 5.3 5 9.1 5 9.1 z" style="stroke: none; stroke-width: 1; stroke-dasharray: none; stroke-linecap: butt; stroke-linejoin: miter; stroke-miterlimit: 4; fill: rgb(134,134,134); fill-rule: evenodd; opacity: 1;" transform="translate(0 0.1) translate(-5, -5.1) " stroke-linecap="round" />
</g>
<path d="M 5 0 C 2.4 0 0.4 2 0.4 4.6 c 0 2.6 2.1 4.6 4.6 4.6 c 2.6 0 4.6 -2.1 4.6 -4.6 C 9.6 2 7.5 0 5 0 z M 2.7 1.6 c 0.2 -0.1 0.4 0 0.5 0.1 C 3.4 1.7 3.7 2 3.7 2 S 3.9 2.3 4 2.3 c 0.1 0.1 0.1 0.4 0 0.6 c 0 0 0 0 0 0 L 2.6 1.6 C 2.6 1.6 2.7 1.6 2.7 1.6 z M 7.4 7.5 C 7.1 7.7 6.4 7.7 5.5 7.4 C 4.7 7.1 3.7 6.1 3.6 6 C 3.5 5.9 2.5 4.9 2.2 4 C 1.9 3.2 1.9 2.5 2.1 2.2 c 0.1 -0.2 0.2 -0.3 0.3 -0.4 l 1.4 1.4 C 3.6 3.3 3.5 3.6 3.5 3.9 c 0 0.5 0.3 0.9 0.7 1.4 C 4.7 5.8 5.2 6 5.6 6 c 0.4 0 0.6 -0.1 0.8 -0.2 l 1.4 1.4 C 7.7 7.3 7.5 7.4 7.4 7.5 z M 8 6.8 c 0 0 0 0.1 -0.1 0.1 L 6.6 5.7 c 0 0 0 0 0 0 c 0.2 -0.2 0.5 -0.1 0.6 0 c 0.1 0.1 0.3 0.3 0.3 0.3 s 0.3 0.3 0.4 0.4 C 8 6.4 8.1 6.6 8 6.8 z" style="stroke: none; stroke-width: 1; stroke-dasharray: none; stroke-linecap: butt; stroke-linejoin: miter; stroke-miterlimit: 4; fill: rgb(134,134,134); fill-rule: nonzero; opacity: 1;" transform="translate(489.86 442.59) scale(2.53 2.53) translate(-5, -4.6) " stroke-linecap="round" />
<g transform="translate(489.96 479.26) scale(2.32 2.32)" style="">
	<path d="M 5 0.4 c -2.6 0 -4.6 2.1 -4.6 4.6 c 0 2.6 2.1 4.6 4.6 4.6 c 2.6 0 4.6 -2.1 4.6 -4.6 C 9.6 2.5 7.5 0.4 5 0.4 z M 7.6 6.2 C 7.3 6.6 7 6.7 6.7 6.7 c -0.1 0 -0.1 0 -0.2 0 C 6.1 6.6 5.9 6.5 5.8 6.3 C 5.7 6.5 5.4 6.6 5 6.6 c -0.5 0 -0.9 -0.1 -1.2 -0.4 C 3.4 5.9 3.2 5.5 3.2 5 c 0 -0.5 0.2 -0.9 0.5 -1.2 C 4.1 3.6 4.5 3.4 5 3.4 c 0.4 0 0.7 0.1 0.8 0.3 V 3.5 c 0 0 0.5 0.1 0.8 0.6 c 0.2 0.3 0.1 1.6 0.1 1.6 v 0 c 0 0.2 0 0.2 0.1 0.2 c 0 0 0.1 -0.1 0.2 -0.2 c 0.2 -0.2 0.3 -0.6 0.3 -1.1 S 7 3.8 6.7 3.4 C 6.3 3 5.7 2.8 5 2.8 C 4.3 2.8 3.7 3 3.3 3.4 C 3 3.8 2.8 4.3 2.8 5 c 0 0.7 0.2 1.2 0.6 1.7 c 0.4 0.4 1 0.6 1.6 0.6 c 0.4 0 0.8 -0.1 1.1 -0.3 c 0 0 0.1 1.2 -1.1 1.2 c -0.9 0 -1.6 -0.3 -2.2 -0.9 C 2.2 6.6 1.9 5.9 1.9 5.1 c 0 -0.9 0.3 -1.6 0.9 -2.2 C 3.4 2.3 4.1 2 5 2 c 0.9 0 1.6 0.3 2.2 0.9 c 0.6 0.6 0.9 1.2 0.9 1.9 C 8.1 5.3 7.9 5.9 7.6 6.2 z" style="stroke: none; stroke-width: 1; stroke-dasharray: none; stroke-linecap: butt; stroke-linejoin: miter; stroke-miterlimit: 4; fill: rgb(134,134,134); fill-rule: nonzero; opacity: 1;" transform="translate(0 0.05) translate(-5, -5) " stroke-linecap="round" />
	<path d="M 5 4.2 c -0.2 0 -0.4 0.1 -0.6 0.3 C 4.2 4.6 4.1 4.8 4.1 5 c 0 0.2 0.1 0.4 0.3 0.6 C 4.6 5.8 4.8 5.9 5 5.9 c 0.2 0 0.4 -0.1 0.6 -0.3 c 0.1 -0.1 0.2 -0.2 0.2 -0.4 V 4.8 c 0 -0.1 -0.1 -0.3 -0.2 -0.4 C 5.5 4.3 5.2 4.2 5 4.2 z" style="stroke: none; stroke-width: 1; stroke-dasharray: none; stroke-linecap: butt; stroke-linejoin: miter; stroke-miterlimit: 4; fill: rgb(134,134,134); fill-rule: nonzero; opacity: 1;" transform="translate(-0.05 0.1) translate(-4.949999999999999, -5.050000000000001) " stroke-linecap="round" />
</g>
<g transform="translate(489.96 512.1) scale(2.32 2.32)" style="">
	<path d="M 2.6 5.1 C 2.7 6 3.2 6.7 4 7 C 3.8 6.5 3.6 5.8 3.6 5.1 H 2.6 z" style="stroke: none; stroke-width: 1; stroke-dasharray: none; stroke-linecap: butt; stroke-linejoin: miter; stroke-miterlimit: 4; fill: rgb(134,134,134); fill-rule: nonzero; opacity: 1;" transform="translate(-1.7 1.05) translate(-3.3, -6.05) " stroke-linecap="round" />
	<path d="M 2.6 4.5 h 1 C 3.6 3.7 3.8 3 4 2.5 C 3.3 2.9 2.7 3.6 2.6 4.5 z" style="stroke: none; stroke-width: 1; stroke-dasharray: none; stroke-linecap: butt; stroke-linejoin: miter; stroke-miterlimit: 4; fill: rgb(134,134,134); fill-rule: nonzero; opacity: 1;" transform="translate(-1.7 -1.5) translate(-3.3, -3.5) " stroke-linecap="round" />
	<path d="M 5 2.4 c -0.2 0 -0.7 0.7 -0.7 2 h 1.5 C 5.7 3.1 5.2 2.4 5 2.4 z" style="stroke: none; stroke-width: 1; stroke-dasharray: none; stroke-linecap: butt; stroke-linejoin: miter; stroke-miterlimit: 4; fill: rgb(134,134,134); fill-rule: nonzero; opacity: 1;" transform="translate(0.05 -1.6) translate(-5.05, -3.4000000000000004) " stroke-linecap="round" />
	<path d="M 5 7.2 c 0.2 0 0.7 -0.7 0.8 -2.1 H 4.2 C 4.3 6.4 4.8 7.2 5 7.2 z" style="stroke: none; stroke-width: 1; stroke-dasharray: none; stroke-linecap: butt; stroke-linejoin: miter; stroke-miterlimit: 4; fill: rgb(134,134,134); fill-rule: nonzero; opacity: 1;" transform="translate(0 1.15) translate(-5, -6.15) " stroke-linecap="round" />
	<path d="M 5 0.2 c -2.6 0 -4.6 2.1 -4.6 4.6 c 0 2.6 2.1 4.6 4.6 4.6 c 2.6 0 4.6 -2.1 4.6 -4.6 C 9.6 2.2 7.5 0.2 5 0.2 z M 5 8.1 c -1.8 0 -3.3 -1.5 -3.3 -3.3 S 3.2 1.5 5 1.5 S 8.3 3 8.3 4.8 S 6.8 8.1 5 8.1 z" style="stroke: none; stroke-width: 1; stroke-dasharray: none; stroke-linecap: butt; stroke-linejoin: miter; stroke-miterlimit: 4; fill: rgb(134,134,134); fill-rule: nonzero; opacity: 1;" transform="translate(0 -0.2) translate(-5, -4.8) " stroke-linecap="round" />
	<path d="M 6 7 C 6.7 6.7 7.3 6 7.4 5.1 h -1 C 6.4 5.8 6.2 6.5 6 7 z" style="stroke: none; stroke-width: 1; stroke-dasharray: none; stroke-linecap: butt; stroke-linejoin: miter; stroke-miterlimit: 4; fill: rgb(134,134,134); fill-rule: nonzero; opacity: 1;" transform="translate(1.7 1.05) translate(-6.7, -6.05) " stroke-linecap="round" />
	<path d="M 7.4 4.5 C 7.3 3.6 6.7 2.9 5.9 2.5 C 6.2 3 6.4 3.7 6.4 4.5 H 7.4 z" style="stroke: none; stroke-width: 1; stroke-dasharray: none; stroke-linecap: butt; stroke-linejoin: miter; stroke-miterlimit: 4; fill: rgb(134,134,134); fill-rule: nonzero; opacity: 1;" transform="translate(1.65 -1.5) translate(-6.65, -3.5) " stroke-linecap="round" />
</g>
	<g transform="translate(571.14 403.58) scale(0.87 0.87)">
		<text xml:space="preserve" font-family="Amiko" font-size="16" font-style="normal" font-weight="normal" style="stroke: none; stroke-width: 1; stroke-dasharray: none; stroke-linecap: butt; stroke-linejoin: miter; stroke-miterlimit: 4; fill: rgb(79,84,103); fill-rule: nonzero; opacity: 1; white-space: pre;" ><tspan x="-68.48" y="5.03" >1231 Main Street</tspan></text>
	</g>
	<g transform="translate(560.6 442.96) scale(0.87 0.87)">
		<text xml:space="preserve" font-family="Amiko" font-size="16" font-style="normal" font-weight="normal" style="stroke: none; stroke-width: 1; stroke-dasharray: none; stroke-linecap: butt; stroke-linejoin: miter; stroke-miterlimit: 4; fill: rgb(79,84,103); fill-rule: nonzero; opacity: 1; white-space: pre;" ><tspan x="-56.32" y="5.03" style="white-space: pre; ">012 345 6789 </tspan></text>
	</g>
	<g transform="translate(568.22 477.94) scale(0.87 0.87)">
		<text xml:space="preserve" font-family="Amiko" font-size="16" font-style="normal" font-weight="normal" style="stroke: none; stroke-width: 1; stroke-dasharray: none; stroke-linecap: butt; stroke-linejoin: miter; stroke-miterlimit: 4; fill: rgb(79,84,103); fill-rule: nonzero; opacity: 1; white-space: pre;" ><tspan x="-65.1" y="5.03" >your@email.com</tspan></text>
	</g>
	<g transform="translate(577.11 512.95) scale(0.87 0.87)">
		<text xml:space="preserve" font-family="Amiko" font-size="16" font-style="normal" font-weight="normal" style="stroke: none; stroke-width: 1; stroke-dasharray: none; stroke-linecap: butt; stroke-linejoin: miter; stroke-miterlimit: 4; fill: rgb(79,84,103); fill-rule: nonzero; opacity: 1; white-space: pre;" ><tspan x="-75.36" y="5.03" >www.yourweb.com</tspan></text>
	</g>
</svg>